%TF.GenerationSoftware,KiCad,Pcbnew,8.0.9*%
%TF.CreationDate,2025-06-13T14:13:14+02:00*%
%TF.ProjectId,Elektor,456c656b-746f-4722-9e6b-696361645f70,rev?*%
%TF.SameCoordinates,Original*%
%TF.FileFunction,Copper,L1,Top*%
%TF.FilePolarity,Positive*%
%FSLAX46Y46*%
G04 Gerber Fmt 4.6, Leading zero omitted, Abs format (unit mm)*
G04 Created by KiCad (PCBNEW 8.0.9) date 2025-06-13 14:13:14*
%MOMM*%
%LPD*%
G01*
G04 APERTURE LIST*
G04 Aperture macros list*
%AMRoundRect*
0 Rectangle with rounded corners*
0 $1 Rounding radius*
0 $2 $3 $4 $5 $6 $7 $8 $9 X,Y pos of 4 corners*
0 Add a 4 corners polygon primitive as box body*
4,1,4,$2,$3,$4,$5,$6,$7,$8,$9,$2,$3,0*
0 Add four circle primitives for the rounded corners*
1,1,$1+$1,$2,$3*
1,1,$1+$1,$4,$5*
1,1,$1+$1,$6,$7*
1,1,$1+$1,$8,$9*
0 Add four rect primitives between the rounded corners*
20,1,$1+$1,$2,$3,$4,$5,0*
20,1,$1+$1,$4,$5,$6,$7,0*
20,1,$1+$1,$6,$7,$8,$9,0*
20,1,$1+$1,$8,$9,$2,$3,0*%
G04 Aperture macros list end*
%TA.AperFunction,ComponentPad*%
%ADD10C,1.800000*%
%TD*%
%TA.AperFunction,SMDPad,CuDef*%
%ADD11RoundRect,0.135000X0.185000X-0.135000X0.185000X0.135000X-0.185000X0.135000X-0.185000X-0.135000X0*%
%TD*%
%TA.AperFunction,SMDPad,CuDef*%
%ADD12RoundRect,0.200000X0.275000X-0.200000X0.275000X0.200000X-0.275000X0.200000X-0.275000X-0.200000X0*%
%TD*%
%TA.AperFunction,SMDPad,CuDef*%
%ADD13RoundRect,0.150000X0.150000X-0.825000X0.150000X0.825000X-0.150000X0.825000X-0.150000X-0.825000X0*%
%TD*%
%TA.AperFunction,SMDPad,CuDef*%
%ADD14R,0.300000X1.400000*%
%TD*%
%TA.AperFunction,ComponentPad*%
%ADD15C,1.600000*%
%TD*%
%TA.AperFunction,SMDPad,CuDef*%
%ADD16RoundRect,0.150000X0.150000X-0.587500X0.150000X0.587500X-0.150000X0.587500X-0.150000X-0.587500X0*%
%TD*%
%TA.AperFunction,SMDPad,CuDef*%
%ADD17RoundRect,0.225000X-0.250000X0.225000X-0.250000X-0.225000X0.250000X-0.225000X0.250000X0.225000X0*%
%TD*%
%TA.AperFunction,SMDPad,CuDef*%
%ADD18RoundRect,0.225000X0.250000X-0.225000X0.250000X0.225000X-0.250000X0.225000X-0.250000X-0.225000X0*%
%TD*%
%TA.AperFunction,SMDPad,CuDef*%
%ADD19R,3.600000X1.270000*%
%TD*%
%TA.AperFunction,SMDPad,CuDef*%
%ADD20R,4.200000X1.350000*%
%TD*%
%TA.AperFunction,SMDPad,CuDef*%
%ADD21RoundRect,0.200000X0.200000X0.275000X-0.200000X0.275000X-0.200000X-0.275000X0.200000X-0.275000X0*%
%TD*%
%TA.AperFunction,SMDPad,CuDef*%
%ADD22R,2.600000X1.900000*%
%TD*%
%TA.AperFunction,SMDPad,CuDef*%
%ADD23RoundRect,0.150000X0.150000X-0.675000X0.150000X0.675000X-0.150000X0.675000X-0.150000X-0.675000X0*%
%TD*%
%TA.AperFunction,SMDPad,CuDef*%
%ADD24RoundRect,0.200000X-0.200000X-0.275000X0.200000X-0.275000X0.200000X0.275000X-0.200000X0.275000X0*%
%TD*%
%TA.AperFunction,SMDPad,CuDef*%
%ADD25RoundRect,0.225000X-0.375000X0.225000X-0.375000X-0.225000X0.375000X-0.225000X0.375000X0.225000X0*%
%TD*%
%TA.AperFunction,SMDPad,CuDef*%
%ADD26RoundRect,0.200000X-0.275000X0.200000X-0.275000X-0.200000X0.275000X-0.200000X0.275000X0.200000X0*%
%TD*%
%TA.AperFunction,SMDPad,CuDef*%
%ADD27RoundRect,0.250000X1.075000X-0.375000X1.075000X0.375000X-1.075000X0.375000X-1.075000X-0.375000X0*%
%TD*%
%TA.AperFunction,ComponentPad*%
%ADD28C,1.778000*%
%TD*%
%TA.AperFunction,SMDPad,CuDef*%
%ADD29RoundRect,0.225000X0.225000X0.250000X-0.225000X0.250000X-0.225000X-0.250000X0.225000X-0.250000X0*%
%TD*%
%TA.AperFunction,SMDPad,CuDef*%
%ADD30RoundRect,0.225000X-0.225000X-0.250000X0.225000X-0.250000X0.225000X0.250000X-0.225000X0.250000X0*%
%TD*%
%TA.AperFunction,SMDPad,CuDef*%
%ADD31RoundRect,0.225000X0.375000X-0.225000X0.375000X0.225000X-0.375000X0.225000X-0.375000X-0.225000X0*%
%TD*%
%TA.AperFunction,SMDPad,CuDef*%
%ADD32RoundRect,0.250000X-0.312500X-1.450000X0.312500X-1.450000X0.312500X1.450000X-0.312500X1.450000X0*%
%TD*%
%TA.AperFunction,ViaPad*%
%ADD33C,0.800000*%
%TD*%
%TA.AperFunction,Conductor*%
%ADD34C,0.250000*%
%TD*%
G04 APERTURE END LIST*
D10*
%TO.P,GNDD,1,Pin_1*%
%TO.N,GND*%
X190500000Y-94500000D03*
%TD*%
%TO.P,TP7,1,Pin_1*%
%TO.N,Net-(TP7-Pin_1)*%
X178816000Y-71882000D03*
%TD*%
%TO.P,TP8,1,Pin_1*%
%TO.N,Net-(TP8-Pin_1)*%
X190500000Y-71882000D03*
%TD*%
%TO.P,TP6,1,Pin_1*%
%TO.N,Net-(Q1-S)*%
X184150000Y-94500000D03*
%TD*%
%TO.P,GNDA,1,Pin_1*%
%TO.N,GNDA*%
X162560000Y-70358000D03*
%TD*%
%TO.P,TP5,1,Pin_1*%
%TO.N,Net-(TP5-Pin_1)*%
X167132000Y-93472000D03*
%TD*%
%TO.P,TP4,1,Pin_1*%
%TO.N,Net-(TP4-Pin_1)*%
X162052000Y-84582000D03*
%TD*%
%TO.P,TP3,1,Pin_1*%
%TO.N,Net-(TP3-Pin_1)*%
X172974000Y-67056000D03*
%TD*%
%TO.P,TP2,1,Pin_1*%
%TO.N,Net-(TP2-Pin_1)*%
X168275000Y-63881000D03*
%TD*%
D11*
%TO.P,R22,1*%
%TO.N,Net-(U1-CLK2)*%
X181340000Y-94120000D03*
%TO.P,R22,2*%
%TO.N,Net-(Q1-S)*%
X181340000Y-93100000D03*
%TD*%
D12*
%TO.P,R21,1*%
%TO.N,Net-(R21-Pad1)*%
X175490000Y-71215000D03*
%TO.P,R21,2*%
%TO.N,Net-(TP3-Pin_1)*%
X175490000Y-69565000D03*
%TD*%
%TO.P,R20,1*%
%TO.N,Net-(R20-Pad1)*%
X165862000Y-67715000D03*
%TO.P,R20,2*%
%TO.N,Net-(TP2-Pin_1)*%
X165862000Y-66065000D03*
%TD*%
D13*
%TO.P,U2,1*%
%TO.N,Net-(TP4-Pin_1)*%
X164338000Y-86803000D03*
%TO.P,U2,2*%
%TO.N,Net-(U3-1E)*%
X165608000Y-86803000D03*
%TO.P,U2,3*%
%TO.N,Net-(TP5-Pin_1)*%
X166878000Y-86803000D03*
%TO.P,U2,4*%
%TO.N,Net-(U3-4E)*%
X168148000Y-86803000D03*
%TO.P,U2,5*%
%TO.N,Net-(U2G-VCC)*%
X169418000Y-86803000D03*
%TO.P,U2,6*%
%TO.N,unconnected-(U2-Pad6)*%
X170688000Y-86803000D03*
%TO.P,U2,7,GND*%
%TO.N,GND*%
X171958000Y-86803000D03*
%TO.P,U2,8*%
%TO.N,unconnected-(U2-Pad8)*%
X171958000Y-81853000D03*
%TO.P,U2,9*%
%TO.N,Net-(U2G-VCC)*%
X170688000Y-81853000D03*
%TO.P,U2,10*%
%TO.N,unconnected-(U2-Pad10)*%
X169418000Y-81853000D03*
%TO.P,U2,11*%
%TO.N,Net-(U2G-VCC)*%
X168148000Y-81853000D03*
%TO.P,U2,12*%
%TO.N,unconnected-(U2-Pad12)*%
X166878000Y-81853000D03*
%TO.P,U2,13*%
%TO.N,Net-(U2G-VCC)*%
X165608000Y-81853000D03*
%TO.P,U2,14,VCC*%
X164338000Y-81853000D03*
%TD*%
D14*
%TO.P,U1,1,VDD*%
%TO.N,3.3V*%
X175800000Y-92050000D03*
%TO.P,U1,2,XA*%
%TO.N,Net-(U1-XA)*%
X175300000Y-92050000D03*
%TO.P,U1,3,XB*%
%TO.N,Net-(U1-XB)*%
X174800000Y-92050000D03*
%TO.P,U1,4,SCL*%
%TO.N,Net-(U1-SCL)*%
X174300000Y-92050000D03*
%TO.P,U1,5,SDA*%
%TO.N,Net-(U1-SDA)*%
X173800000Y-92050000D03*
%TO.P,U1,6,CLK2*%
%TO.N,Net-(U1-CLK2)*%
X173800000Y-96450000D03*
%TO.P,U1,7,VDDO*%
%TO.N,3.3V*%
X174300000Y-96450000D03*
%TO.P,U1,8,GND*%
%TO.N,GND*%
X174800000Y-96450000D03*
%TO.P,U1,9,CLK1*%
%TO.N,Net-(TP5-Pin_1)*%
X175300000Y-96450000D03*
%TO.P,U1,10,CLK0*%
%TO.N,Net-(TP4-Pin_1)*%
X175800000Y-96450000D03*
%TD*%
D15*
%TO.P,C18,1*%
%TO.N,3.3VA*%
X166116000Y-72250000D03*
%TO.P,C18,2*%
%TO.N,GNDA*%
X166116000Y-69750000D03*
%TD*%
D16*
%TO.P,Q1,1,S*%
%TO.N,Net-(Q1-S)*%
X194800000Y-84875000D03*
%TO.P,Q1,2,D*%
%TO.N,Net-(Q1-D)*%
X196700000Y-84875000D03*
%TO.P,Q1,3,G*%
%TO.N,Net-(D1-K)*%
X195750000Y-83000000D03*
%TD*%
D17*
%TO.P,C15,1*%
%TO.N,3.3VA*%
X178816000Y-68072000D03*
%TO.P,C15,2*%
%TO.N,GNDA*%
X178816000Y-69622000D03*
%TD*%
D12*
%TO.P,R18,1*%
%TO.N,Net-(U3-4Y)*%
X194564000Y-76517000D03*
%TO.P,R18,2*%
%TO.N,Net-(C12-Pad2)*%
X194564000Y-74867000D03*
%TD*%
D18*
%TO.P,C3,1*%
%TO.N,Net-(U3-2Z)*%
X184912000Y-75959000D03*
%TO.P,C3,2*%
%TO.N,Net-(C3-Pad2)*%
X184912000Y-74409000D03*
%TD*%
D19*
%TO.P,J1,1,In*%
%TO.N,Net-(D1-K)*%
X204950000Y-77250000D03*
D20*
%TO.P,J1,2,Ext*%
%TO.N,GNDA*%
X204750000Y-80075000D03*
X204750000Y-74425000D03*
%TD*%
D21*
%TO.P,R17,1*%
%TO.N,Net-(U7B--)*%
X196151000Y-63500000D03*
%TO.P,R17,2*%
%TO.N,Net-(C14-Pad1)*%
X194501000Y-63500000D03*
%TD*%
D22*
%TO.P,Y1,1*%
%TO.N,Net-(U1-XB)*%
X170750000Y-92100000D03*
%TO.P,Y1,2*%
%TO.N,Net-(U1-XA)*%
X170750000Y-96400000D03*
%TD*%
D23*
%TO.P,U5,1*%
%TO.N,Net-(TP7-Pin_1)*%
X180975000Y-71205000D03*
%TO.P,U5,2,-*%
%TO.N,Net-(U5A--)*%
X182245000Y-71205000D03*
%TO.P,U5,3,+*%
%TO.N,Net-(U3-1Z)*%
X183515000Y-71205000D03*
%TO.P,U5,4,V-*%
%TO.N,GNDA*%
X184785000Y-71205000D03*
%TO.P,U5,5,+*%
%TO.N,Net-(TP7-Pin_1)*%
X184785000Y-65955000D03*
%TO.P,U5,6,-*%
%TO.N,Net-(U5B--)*%
X183515000Y-65955000D03*
%TO.P,U5,7*%
%TO.N,Net-(C8-Pad1)*%
X182245000Y-65955000D03*
%TO.P,U5,8,V+*%
%TO.N,3.3VA*%
X180975000Y-65955000D03*
%TD*%
D24*
%TO.P,R5,1*%
%TO.N,3.3V*%
X165608000Y-76200000D03*
%TO.P,R5,2*%
%TO.N,3.3VA*%
X167258000Y-76200000D03*
%TD*%
D25*
%TO.P,D2,1,K*%
%TO.N,GNDA*%
X203000000Y-67850000D03*
%TO.P,D2,2,A*%
%TO.N,Net-(D1-K)*%
X203000000Y-71150000D03*
%TD*%
D15*
%TO.P,C1,1*%
%TO.N,3.3V*%
X163302000Y-78740000D03*
%TO.P,C1,2*%
%TO.N,GND*%
X160802000Y-78740000D03*
%TD*%
D13*
%TO.P,U3,1,1Y*%
%TO.N,Net-(U3-1Y)*%
X179730000Y-86700000D03*
%TO.P,U3,2,1Z*%
%TO.N,Net-(U3-1Z)*%
X181000000Y-86700000D03*
%TO.P,U3,3,2Z*%
%TO.N,Net-(U3-2Z)*%
X182270000Y-86700000D03*
%TO.P,U3,4,2Y*%
%TO.N,Net-(U3-1Y)*%
X183540000Y-86700000D03*
%TO.P,U3,5,2E*%
%TO.N,Net-(TP4-Pin_1)*%
X184810000Y-86700000D03*
%TO.P,U3,6,3E*%
%TO.N,Net-(TP5-Pin_1)*%
X186080000Y-86700000D03*
%TO.P,U3,7,GND*%
%TO.N,GND*%
X187350000Y-86700000D03*
%TO.P,U3,8,3Y*%
%TO.N,Net-(U3-3Y)*%
X187350000Y-81750000D03*
%TO.P,U3,9,3Z*%
%TO.N,Net-(U3-3Z)*%
X186080000Y-81750000D03*
%TO.P,U3,10,4Z*%
X184810000Y-81750000D03*
%TO.P,U3,11,4Y*%
%TO.N,Net-(U3-4Y)*%
X183540000Y-81750000D03*
%TO.P,U3,12,4E*%
%TO.N,Net-(U3-4E)*%
X182270000Y-81750000D03*
%TO.P,U3,13,1E*%
%TO.N,Net-(U3-1E)*%
X181000000Y-81750000D03*
%TO.P,U3,14,VCC*%
%TO.N,Net-(U2G-VCC)*%
X179730000Y-81750000D03*
%TD*%
D26*
%TO.P,R4,1*%
%TO.N,Net-(U6-SDA)*%
X173000000Y-77925000D03*
%TO.P,R4,2*%
%TO.N,Net-(U1-SDA)*%
X173000000Y-79575000D03*
%TD*%
D12*
%TO.P,R13,1*%
%TO.N,Net-(U3-1Z)*%
X182880000Y-76009000D03*
%TO.P,R13,2*%
%TO.N,Net-(C6-Pad2)*%
X182880000Y-74359000D03*
%TD*%
D23*
%TO.P,U7,1*%
%TO.N,Net-(TP8-Pin_1)*%
X194552500Y-71254000D03*
%TO.P,U7,2,-*%
%TO.N,Net-(U7A--)*%
X195822500Y-71254000D03*
%TO.P,U7,3,+*%
%TO.N,Net-(U3-4Y)*%
X197092500Y-71254000D03*
%TO.P,U7,4,V-*%
%TO.N,GNDA*%
X198362500Y-71254000D03*
%TO.P,U7,5,+*%
%TO.N,Net-(TP8-Pin_1)*%
X198362500Y-66004000D03*
%TO.P,U7,6,-*%
%TO.N,Net-(U7B--)*%
X197092500Y-66004000D03*
%TO.P,U7,7*%
%TO.N,Net-(C14-Pad1)*%
X195822500Y-66004000D03*
%TO.P,U7,8,V+*%
%TO.N,3.3VA*%
X194552500Y-66004000D03*
%TD*%
D15*
%TO.P,C14,1*%
%TO.N,Net-(C14-Pad1)*%
X175514000Y-64536000D03*
%TO.P,C14,2*%
%TO.N,Net-(TP3-Pin_1)*%
X175514000Y-67036000D03*
%TD*%
D12*
%TO.P,R7,1*%
%TO.N,Net-(U3-1Y)*%
X189484000Y-85153000D03*
%TO.P,R7,2*%
%TO.N,Net-(Q1-S)*%
X189484000Y-83503000D03*
%TD*%
D17*
%TO.P,C17,1*%
%TO.N,3.3VA*%
X192024000Y-67805000D03*
%TO.P,C17,2*%
%TO.N,GNDA*%
X192024000Y-69355000D03*
%TD*%
D15*
%TO.P,C8,1*%
%TO.N,Net-(C8-Pad1)*%
X170561000Y-66929000D03*
%TO.P,C8,2*%
%TO.N,Net-(TP2-Pin_1)*%
X168061000Y-66929000D03*
%TD*%
D27*
%TO.P,L2,1,1*%
%TO.N,3.3V*%
X199500000Y-89150000D03*
%TO.P,L2,2,2*%
%TO.N,Net-(Q1-D)*%
X199500000Y-86350000D03*
%TD*%
D12*
%TO.P,R9,1*%
%TO.N,Net-(C3-Pad2)*%
X186944000Y-76009000D03*
%TO.P,R9,2*%
%TO.N,Net-(U5A--)*%
X186944000Y-74359000D03*
%TD*%
%TO.P,R6,1*%
%TO.N,GNDA*%
X193000000Y-86900000D03*
%TO.P,R6,2*%
%TO.N,Net-(Q1-S)*%
X193000000Y-85250000D03*
%TD*%
D21*
%TO.P,R16,1*%
%TO.N,Net-(C13-Pad2)*%
X199453000Y-63500000D03*
%TO.P,R16,2*%
%TO.N,Net-(U7B--)*%
X197803000Y-63500000D03*
%TD*%
%TO.P,R11,1*%
%TO.N,Net-(C7-Pad2)*%
X187832000Y-62992000D03*
%TO.P,R11,2*%
%TO.N,Net-(U5B--)*%
X186182000Y-62992000D03*
%TD*%
D26*
%TO.P,R8,1*%
%TO.N,Net-(U3-3Z)*%
X189484000Y-80175000D03*
%TO.P,R8,2*%
%TO.N,Net-(Q1-S)*%
X189484000Y-81825000D03*
%TD*%
D17*
%TO.P,C2,1*%
%TO.N,3.3V*%
X177500000Y-92975000D03*
%TO.P,C2,2*%
%TO.N,GND*%
X177500000Y-94525000D03*
%TD*%
D12*
%TO.P,R15,1*%
%TO.N,Net-(U7A--)*%
X200152000Y-69222000D03*
%TO.P,R15,2*%
%TO.N,Net-(TP8-Pin_1)*%
X200152000Y-67572000D03*
%TD*%
%TO.P,R1,1*%
%TO.N,3.3V*%
X170750000Y-79500000D03*
%TO.P,R1,2*%
%TO.N,Net-(U6-SDA)*%
X170750000Y-77850000D03*
%TD*%
D28*
%TO.P,U6,0,0*%
%TO.N,unconnected-(U6-Pad0)*%
X160970000Y-91300000D03*
%TO.P,U6,3V,3V*%
%TO.N,3.3V*%
X163510000Y-76060000D03*
%TO.P,U6,5V,5V*%
%TO.N,Net-(U2G-VCC)*%
X158430000Y-76060000D03*
%TO.P,U6,11,MOSI*%
%TO.N,unconnected-(U6-MOSI-Pad11)*%
X188910000Y-91300000D03*
%TO.P,U6,12,MISO*%
%TO.N,unconnected-(U6-MISO-Pad12)*%
X191450000Y-91300000D03*
%TO.P,U6,13,SCK*%
%TO.N,unconnected-(U6-SCK-Pad13)*%
X191450000Y-76060000D03*
%TO.P,U6,14,14*%
%TO.N,unconnected-(U6-Pad14)*%
X188910000Y-76060000D03*
%TO.P,U6,18,SDA*%
%TO.N,Net-(U6-SDA)*%
X178750000Y-76060000D03*
%TO.P,U6,19,SCL*%
%TO.N,Net-(U6-SCL)*%
X176210000Y-76060000D03*
%TO.P,U6,G,G*%
%TO.N,GND*%
X160970000Y-76060000D03*
%TO.P,U6,GND,GND*%
X158430000Y-91300000D03*
%TO.P,U6,INGND1,INGND1*%
%TO.N,GNDA*%
X169860000Y-69710000D03*
%TO.P,U6,INGND2,INGND2*%
X172400000Y-69710000D03*
%TO.P,U6,INL,INL*%
%TO.N,Net-(R20-Pad1)*%
X169860000Y-72250000D03*
%TO.P,U6,INR,INR*%
%TO.N,Net-(R21-Pad1)*%
X172400000Y-72250000D03*
%TD*%
D29*
%TO.P,C19,1*%
%TO.N,Net-(Q1-D)*%
X196275000Y-87500000D03*
%TO.P,C19,2*%
%TO.N,GNDA*%
X194725000Y-87500000D03*
%TD*%
D18*
%TO.P,C6,1*%
%TO.N,GNDA*%
X180848000Y-75959000D03*
%TO.P,C6,2*%
%TO.N,Net-(C6-Pad2)*%
X180848000Y-74409000D03*
%TD*%
D30*
%TO.P,C7,1*%
%TO.N,GNDA*%
X179298000Y-62992000D03*
%TO.P,C7,2*%
%TO.N,Net-(C7-Pad2)*%
X180848000Y-62992000D03*
%TD*%
%TO.P,C13,1*%
%TO.N,GNDA*%
X191249000Y-63500000D03*
%TO.P,C13,2*%
%TO.N,Net-(C13-Pad2)*%
X192799000Y-63500000D03*
%TD*%
D29*
%TO.P,C4,1*%
%TO.N,GNDA*%
X185928000Y-77724000D03*
%TO.P,C4,2*%
%TO.N,Net-(U3-2Z)*%
X184378000Y-77724000D03*
%TD*%
%TO.P,C5,1*%
%TO.N,Net-(U3-1Z)*%
X182372000Y-77724000D03*
%TO.P,C5,2*%
%TO.N,GNDA*%
X180822000Y-77724000D03*
%TD*%
D12*
%TO.P,R14,1*%
%TO.N,Net-(C9-Pad2)*%
X200660000Y-76517000D03*
%TO.P,R14,2*%
%TO.N,Net-(U7A--)*%
X200660000Y-74867000D03*
%TD*%
%TO.P,R2,1*%
%TO.N,3.3V*%
X175250000Y-80075000D03*
%TO.P,R2,2*%
%TO.N,Net-(U6-SCL)*%
X175250000Y-78425000D03*
%TD*%
D18*
%TO.P,C12,1*%
%TO.N,GNDA*%
X196596000Y-76467000D03*
%TO.P,C12,2*%
%TO.N,Net-(C12-Pad2)*%
X196596000Y-74917000D03*
%TD*%
D17*
%TO.P,C10,1*%
%TO.N,GNDA*%
X198000000Y-78219000D03*
%TO.P,C10,2*%
%TO.N,Net-(U3-3Y)*%
X198000000Y-79769000D03*
%TD*%
D26*
%TO.P,R3,1*%
%TO.N,Net-(U6-SCL)*%
X177750000Y-78425000D03*
%TO.P,R3,2*%
%TO.N,Net-(U1-SCL)*%
X177750000Y-80075000D03*
%TD*%
D17*
%TO.P,C16,1*%
%TO.N,Net-(U2G-VCC)*%
X175500000Y-83553000D03*
%TO.P,C16,2*%
%TO.N,GND*%
X175500000Y-85103000D03*
%TD*%
D18*
%TO.P,C11,1*%
%TO.N,Net-(U3-4Y)*%
X195580000Y-79782000D03*
%TO.P,C11,2*%
%TO.N,GNDA*%
X195580000Y-78232000D03*
%TD*%
D31*
%TO.P,D1,1,K*%
%TO.N,Net-(D1-K)*%
X205750000Y-71150000D03*
%TO.P,D1,2,A*%
%TO.N,GNDA*%
X205750000Y-67850000D03*
%TD*%
D18*
%TO.P,C9,1*%
%TO.N,Net-(U3-3Y)*%
X198628000Y-76467000D03*
%TO.P,C9,2*%
%TO.N,Net-(C9-Pad2)*%
X198628000Y-74917000D03*
%TD*%
D21*
%TO.P,R12,1*%
%TO.N,Net-(U5B--)*%
X184404000Y-62992000D03*
%TO.P,R12,2*%
%TO.N,Net-(C8-Pad1)*%
X182754000Y-62992000D03*
%TD*%
D32*
%TO.P,L1,1,1*%
%TO.N,Net-(D1-K)*%
X198612500Y-83250000D03*
%TO.P,L1,2,2*%
%TO.N,GNDA*%
X202887500Y-83250000D03*
%TD*%
D12*
%TO.P,R10,1*%
%TO.N,Net-(U5A--)*%
X186944000Y-69088000D03*
%TO.P,R10,2*%
%TO.N,Net-(TP7-Pin_1)*%
X186944000Y-67438000D03*
%TD*%
D33*
%TO.N,3.3V*%
X172212000Y-98044000D03*
%TO.N,GND*%
X178054000Y-96266000D03*
%TO.N,3.3V*%
X180086000Y-95758000D03*
X182000000Y-97000000D03*
%TO.N,GND*%
X175260000Y-86787984D03*
X185928000Y-88899992D03*
X171958000Y-85103000D03*
%TO.N,Net-(U3-2Z)*%
X183481450Y-79066881D03*
X182250000Y-88500000D03*
%TO.N,GNDA*%
X186182000Y-72390000D03*
X180213000Y-79121000D03*
X179248637Y-64643000D03*
X205750004Y-69250000D03*
X204750000Y-82000000D03*
X180484669Y-85218657D03*
X180086000Y-69342000D03*
X200500000Y-79250000D03*
X192024000Y-70612000D03*
X189484000Y-63500000D03*
X184750000Y-84000004D03*
X193250000Y-88500000D03*
X197866000Y-73406000D03*
X187198000Y-77978000D03*
%TO.N,Net-(U3-1Z)*%
X181000000Y-88500000D03*
X182499998Y-80000000D03*
%TO.N,Net-(U3-3Y)*%
X199750004Y-78250000D03*
X199663970Y-80581635D03*
%TO.N,Net-(U1-SCL)*%
X175750000Y-82000000D03*
X174750002Y-90500000D03*
%TO.N,Net-(U1-SDA)*%
X173500000Y-90500000D03*
X173300000Y-81000000D03*
%TO.N,Net-(TP5-Pin_1)*%
X176250000Y-90250000D03*
X175000000Y-95000000D03*
%TO.N,Net-(TP7-Pin_1)*%
X184404000Y-67056000D03*
X184404000Y-69088000D03*
%TO.N,Net-(TP8-Pin_1)*%
X198108500Y-67190000D03*
X198108500Y-69329000D03*
%TO.N,3.3V*%
X166500000Y-79500000D03*
%TO.N,3.3VA*%
X166075992Y-74435000D03*
%TO.N,Net-(C8-Pad1)*%
X180975000Y-64389000D03*
%TO.N,Net-(C14-Pad1)*%
X187324994Y-64516000D03*
X184404000Y-64516000D03*
X189484000Y-64516000D03*
%TO.N,Net-(U2G-VCC)*%
X169418000Y-85090000D03*
X170203999Y-83312000D03*
%TO.N,Net-(TP4-Pin_1)*%
X164338000Y-88900000D03*
X177750000Y-89653000D03*
X167894293Y-89154000D03*
X176000000Y-95000000D03*
%TD*%
D34*
%TO.N,Net-(Q1-S)*%
X183977588Y-91260000D02*
X184150000Y-91432412D01*
X184150000Y-91432412D02*
X184150000Y-94500000D01*
%TO.N,3.3V*%
X199500000Y-89150000D02*
X191650000Y-97000000D01*
X191650000Y-97000000D02*
X182000000Y-97000000D01*
%TO.N,Net-(C13-Pad2)*%
X199453000Y-63500000D02*
X198399000Y-62446000D01*
%TO.N,Net-(U7B--)*%
X197803000Y-63500000D02*
X196151000Y-63500000D01*
%TO.N,Net-(C13-Pad2)*%
X198399000Y-62446000D02*
X193853000Y-62446000D01*
X193853000Y-62446000D02*
X192799000Y-63500000D01*
%TO.N,Net-(C14-Pad1)*%
X194501000Y-63500000D02*
X193485000Y-64516000D01*
X195822500Y-64821500D02*
X194501000Y-63500000D01*
%TO.N,Net-(U7B--)*%
X197092500Y-64441500D02*
X197092500Y-66004000D01*
%TO.N,Net-(C14-Pad1)*%
X193485000Y-64516000D02*
X189484000Y-64516000D01*
%TO.N,Net-(U7B--)*%
X196151000Y-63500000D02*
X197092500Y-64441500D01*
%TO.N,Net-(C14-Pad1)*%
X195822500Y-66004000D02*
X195822500Y-64821500D01*
%TO.N,GNDA*%
X191249000Y-63500000D02*
X189484000Y-63500000D01*
%TO.N,Net-(C8-Pad1)*%
X182754000Y-62992000D02*
X182372000Y-62992000D01*
X182372000Y-62992000D02*
X180975000Y-64389000D01*
%TO.N,3.3VA*%
X179464621Y-65955000D02*
X180975000Y-65955000D01*
X178523000Y-65013379D02*
X179464621Y-65955000D01*
%TO.N,GNDA*%
X179298000Y-64593637D02*
X179248637Y-64643000D01*
X179298000Y-62992000D02*
X179298000Y-64593637D01*
%TO.N,3.3VA*%
X178523000Y-64262000D02*
X178523000Y-65013379D01*
%TO.N,Net-(TP2-Pin_1)*%
X168061000Y-64095000D02*
X168061000Y-66929000D01*
%TO.N,Net-(R20-Pad1)*%
X169030000Y-72250000D02*
X169860000Y-72250000D01*
X168370000Y-71590000D02*
X169030000Y-72250000D01*
X168370000Y-69056000D02*
X168370000Y-71590000D01*
X167029000Y-67715000D02*
X168370000Y-69056000D01*
X165862000Y-67715000D02*
X167029000Y-67715000D01*
%TO.N,Net-(TP2-Pin_1)*%
X165862000Y-66065000D02*
X168046000Y-63881000D01*
%TO.N,Net-(TP3-Pin_1)*%
X175514000Y-67036000D02*
X172994000Y-67036000D01*
%TO.N,3.3VA*%
X179050000Y-61742000D02*
X178523000Y-62269000D01*
X178523000Y-62269000D02*
X178523000Y-64262000D01*
X188060016Y-61742000D02*
X179050000Y-61742000D01*
X188709000Y-64837016D02*
X188709000Y-62390984D01*
X189875984Y-66004000D02*
X188709000Y-64837016D01*
X188709000Y-62390984D02*
X188060016Y-61742000D01*
X192024000Y-66004000D02*
X189875984Y-66004000D01*
%TO.N,Net-(C14-Pad1)*%
X184404000Y-64516000D02*
X187324994Y-64516000D01*
%TO.N,Net-(U2G-VCC)*%
X169418000Y-85090000D02*
X169418000Y-86803000D01*
%TO.N,GND*%
X171958000Y-85103000D02*
X171958000Y-86803000D01*
X171958000Y-85103000D02*
X175500000Y-85103000D01*
%TO.N,Net-(TP4-Pin_1)*%
X176749016Y-89653000D02*
X177750000Y-89653000D01*
X176096016Y-89000000D02*
X176749016Y-89653000D01*
X171250000Y-89000000D02*
X176096016Y-89000000D01*
X167931301Y-89191008D02*
X171058992Y-89191008D01*
X167894293Y-89154000D02*
X167931301Y-89191008D01*
X171058992Y-89191008D02*
X171250000Y-89000000D01*
X164338000Y-88900000D02*
X164338000Y-86803000D01*
%TO.N,GNDA*%
X185970000Y-72390000D02*
X184785000Y-71205000D01*
X186182000Y-72390000D02*
X185970000Y-72390000D01*
X180822000Y-78512000D02*
X180822000Y-77724000D01*
X180213000Y-79121000D02*
X180822000Y-78512000D01*
%TO.N,3.3V*%
X178816000Y-94291000D02*
X177500000Y-92975000D01*
X178816000Y-94488000D02*
X178816000Y-94291000D01*
X180086000Y-95758000D02*
X178816000Y-94488000D01*
X163322000Y-96774000D02*
X163322000Y-97028000D01*
X163302000Y-96754000D02*
X163322000Y-96774000D01*
X163322000Y-97028000D02*
X164338000Y-98044000D01*
X163302000Y-78740000D02*
X163302000Y-96754000D01*
X164338000Y-98044000D02*
X172212000Y-98044000D01*
%TO.N,Net-(U5A--)*%
X182245000Y-70380001D02*
X182245000Y-71205000D01*
X185977000Y-70055000D02*
X182570001Y-70055000D01*
X186944000Y-69088000D02*
X185977000Y-70055000D01*
X182570001Y-70055000D02*
X182245000Y-70380001D01*
X186944000Y-74359000D02*
X186944000Y-69088000D01*
%TO.N,Net-(U7A--)*%
X199270000Y-73540000D02*
X199270000Y-70104000D01*
X200660000Y-74930000D02*
X199270000Y-73540000D01*
%TO.N,Net-(U3-4Y)*%
X197092500Y-72078999D02*
X197092500Y-71254000D01*
X195034000Y-74137499D02*
X197092500Y-72078999D01*
X193764000Y-74137499D02*
X195034000Y-74137499D01*
%TO.N,Net-(U7A--)*%
X195958999Y-69979001D02*
X195822500Y-70115500D01*
X197292502Y-69979001D02*
X195958999Y-69979001D01*
X197417501Y-70104000D02*
X197292502Y-69979001D01*
X195822500Y-70115500D02*
X195822500Y-71254000D01*
%TO.N,Net-(U3-1Z)*%
X183515000Y-73279000D02*
X183896000Y-73660000D01*
X183515000Y-71205000D02*
X183515000Y-73279000D01*
%TO.N,GND*%
X178008000Y-96312000D02*
X178054000Y-96266000D01*
X177500000Y-96312000D02*
X178008000Y-96312000D01*
X177500000Y-96312000D02*
X177500000Y-94525000D01*
X175140000Y-97790000D02*
X176022000Y-97790000D01*
X174800000Y-97450000D02*
X175140000Y-97790000D01*
X176022000Y-97790000D02*
X177500000Y-96312000D01*
X174800000Y-96450000D02*
X174800000Y-97450000D01*
%TO.N,Net-(U1-CLK2)*%
X181340000Y-96030000D02*
X181340000Y-94120000D01*
X173990000Y-98298000D02*
X179072000Y-98298000D01*
X173800000Y-98108000D02*
X173990000Y-98298000D01*
X173800000Y-96450000D02*
X173800000Y-98108000D01*
X179072000Y-98298000D02*
X181340000Y-96030000D01*
%TO.N,Net-(U1-XA)*%
X174660396Y-93726000D02*
X173424000Y-93726000D01*
X175300000Y-93086396D02*
X174660396Y-93726000D01*
X175300000Y-92050000D02*
X175300000Y-93086396D01*
X173424000Y-93726000D02*
X170750000Y-96400000D01*
%TO.N,Net-(TP5-Pin_1)*%
X167132000Y-90974000D02*
X167132000Y-93472000D01*
X167678000Y-90428000D02*
X167132000Y-90974000D01*
%TO.N,Net-(TP7-Pin_1)*%
X179493000Y-71205000D02*
X178816000Y-71882000D01*
X180975000Y-71205000D02*
X179493000Y-71205000D01*
%TO.N,GNDA*%
X178816000Y-69622000D02*
X179806000Y-69622000D01*
X179806000Y-69622000D02*
X180086000Y-69342000D01*
%TO.N,Net-(TP8-Pin_1)*%
X193924500Y-71882000D02*
X190500000Y-71882000D01*
X194552500Y-71254000D02*
X193924500Y-71882000D01*
%TO.N,Net-(Q1-S)*%
X185612596Y-89624992D02*
X188625008Y-89624992D01*
X181490000Y-91260000D02*
X183977588Y-91260000D01*
X188625008Y-89624992D02*
X193000000Y-85250000D01*
X181340000Y-91410000D02*
X181490000Y-91260000D01*
X183977588Y-91260000D02*
X185612596Y-89624992D01*
X181340000Y-93100000D02*
X181340000Y-91410000D01*
%TO.N,Net-(R21-Pad1)*%
X174790000Y-72270000D02*
X174770000Y-72250000D01*
X174770000Y-72250000D02*
X172400000Y-72250000D01*
X175490000Y-71570000D02*
X174790000Y-72270000D01*
X175490000Y-71215000D02*
X175490000Y-71570000D01*
%TO.N,Net-(TP3-Pin_1)*%
X175514000Y-67036000D02*
X175514000Y-69541000D01*
%TO.N,3.3VA*%
X169549000Y-74050000D02*
X169164000Y-74435000D01*
X174760000Y-74050000D02*
X169549000Y-74050000D01*
X177800000Y-71010000D02*
X174760000Y-74050000D01*
X177800000Y-67564000D02*
X177800000Y-71010000D01*
%TO.N,GND*%
X172011000Y-86750000D02*
X175093193Y-86750000D01*
X187350000Y-87477992D02*
X185928000Y-88899992D01*
X160970000Y-76060000D02*
X160970000Y-78572000D01*
X175260000Y-86026386D02*
X175260000Y-86787984D01*
X175500000Y-85103000D02*
X175500000Y-85786386D01*
X175500000Y-85786386D02*
X175260000Y-86026386D01*
%TO.N,Net-(U3-2Z)*%
X184912000Y-75959000D02*
X184912000Y-77190000D01*
X184378000Y-78170331D02*
X183481450Y-79066881D01*
X182270000Y-88480000D02*
X182250000Y-88500000D01*
X182270000Y-86700000D02*
X182270000Y-88480000D01*
X184912000Y-77190000D02*
X184378000Y-77724000D01*
X184378000Y-77724000D02*
X184378000Y-78170331D01*
%TO.N,Net-(C3-Pad2)*%
X185344000Y-74409000D02*
X186944000Y-76009000D01*
X184912000Y-74409000D02*
X185344000Y-74409000D01*
%TO.N,GNDA*%
X197866000Y-73406000D02*
X197866000Y-71750500D01*
X197828000Y-75235000D02*
X196596000Y-76467000D01*
X197866000Y-73406000D02*
X197828000Y-73444000D01*
X194125000Y-86900000D02*
X194725000Y-87500000D01*
X180484669Y-85218657D02*
X181031343Y-85218657D01*
X182249996Y-84000004D02*
X184750000Y-84000004D01*
X192024000Y-69355000D02*
X192024000Y-70612000D01*
X204750000Y-82250000D02*
X203887500Y-82250000D01*
X172400000Y-69710000D02*
X169860000Y-69710000D01*
X203887500Y-82250000D02*
X202887500Y-83250000D01*
X203100000Y-67950000D02*
X205650000Y-67950000D01*
X196596000Y-77216000D02*
X195580000Y-78232000D01*
X198397351Y-78219000D02*
X198000000Y-78219000D01*
X198000000Y-78219000D02*
X195593000Y-78219000D01*
X199428351Y-79250000D02*
X198397351Y-78219000D01*
X204750000Y-74425000D02*
X206675000Y-72500000D01*
X205750000Y-67850000D02*
X205750000Y-69249996D01*
X181031343Y-85218657D02*
X182249996Y-84000004D01*
X206675000Y-70174996D02*
X205750004Y-69250000D01*
X193250000Y-88500000D02*
X193250000Y-87150000D01*
X206675000Y-72500000D02*
X206675000Y-70174996D01*
X193000000Y-86900000D02*
X194125000Y-86900000D01*
X180822000Y-77724000D02*
X180822000Y-75985000D01*
X196596000Y-76467000D02*
X196596000Y-77216000D01*
X197866000Y-71750500D02*
X198362500Y-71254000D01*
X200500000Y-79250000D02*
X199428351Y-79250000D01*
X204750000Y-82000000D02*
X204750000Y-82250000D01*
X197828000Y-73444000D02*
X197828000Y-75235000D01*
X205750000Y-69249996D02*
X205750004Y-69250000D01*
X187198000Y-77978000D02*
X186182000Y-77978000D01*
X204750000Y-80075000D02*
X204750000Y-82000000D01*
%TO.N,Net-(U3-1Z)*%
X182372000Y-77724000D02*
X182372000Y-79872002D01*
X182880000Y-77216000D02*
X182372000Y-77724000D01*
X181000000Y-86700000D02*
X181000000Y-88500000D01*
X182880000Y-76009000D02*
X182880000Y-77216000D01*
X182372000Y-79872002D02*
X182499998Y-80000000D01*
X183896000Y-74993000D02*
X182880000Y-76009000D01*
X183896000Y-73660000D02*
X183896000Y-74993000D01*
%TO.N,Net-(C6-Pad2)*%
X182880000Y-74359000D02*
X180898000Y-74359000D01*
%TO.N,Net-(C7-Pad2)*%
X187032000Y-62192000D02*
X181648000Y-62192000D01*
X181648000Y-62192000D02*
X180848000Y-62992000D01*
X187832000Y-62992000D02*
X187032000Y-62192000D01*
%TO.N,Net-(U3-3Y)*%
X188100000Y-81000000D02*
X193000000Y-81000000D01*
X198000000Y-79769000D02*
X198851335Y-79769000D01*
X197250000Y-80750000D02*
X193250000Y-80750000D01*
X198000000Y-80000000D02*
X197250000Y-80750000D01*
X198628000Y-76467000D02*
X198628000Y-77127996D01*
X198851335Y-79769000D02*
X199663970Y-80581635D01*
X187350000Y-81750000D02*
X188100000Y-81000000D01*
X193250000Y-80750000D02*
X193000000Y-81000000D01*
X198628000Y-77127996D02*
X199750004Y-78250000D01*
%TO.N,Net-(C9-Pad2)*%
X198628000Y-74917000D02*
X199060000Y-74917000D01*
X199060000Y-74917000D02*
X200660000Y-76517000D01*
%TO.N,Net-(U3-4Y)*%
X193764000Y-75717000D02*
X193764000Y-74137499D01*
X194564000Y-78994000D02*
X194310000Y-79248000D01*
X194564000Y-76517000D02*
X193764000Y-75717000D01*
X185002000Y-79248000D02*
X183500000Y-80750000D01*
X195580000Y-79782000D02*
X195046000Y-79248000D01*
X194310000Y-79248000D02*
X185002000Y-79248000D01*
X194564000Y-76517000D02*
X194564000Y-78994000D01*
X195046000Y-79248000D02*
X194310000Y-79248000D01*
%TO.N,Net-(C12-Pad2)*%
X194564000Y-74867000D02*
X196546000Y-74867000D01*
%TO.N,Net-(Q1-D)*%
X197525000Y-85700000D02*
X198850000Y-85700000D01*
X196500000Y-87275000D02*
X196500000Y-87000000D01*
X198850000Y-85700000D02*
X199500000Y-86350000D01*
X196500000Y-87000000D02*
X196700000Y-86800000D01*
X196700000Y-84875000D02*
X197525000Y-85700000D01*
X196700000Y-86800000D02*
X196700000Y-84875000D01*
%TO.N,Net-(D1-K)*%
X202000000Y-72150000D02*
X202000000Y-76000000D01*
X202000000Y-80482412D02*
X199232412Y-83250000D01*
X196862500Y-81500000D02*
X195750000Y-81500000D01*
X202000000Y-78250000D02*
X202000000Y-80482412D01*
X195750000Y-81500000D02*
X195750000Y-83000000D01*
X198612500Y-83250000D02*
X196862500Y-81500000D01*
X203100000Y-71250000D02*
X205650000Y-71250000D01*
X204625000Y-77125000D02*
X203125000Y-77125000D01*
X203125000Y-77125000D02*
X202000000Y-78250000D01*
X203000000Y-71150000D02*
X202000000Y-72150000D01*
X199232412Y-83250000D02*
X198612500Y-83250000D01*
X202000000Y-76000000D02*
X203125000Y-77125000D01*
%TO.N,Net-(Q1-S)*%
X193000000Y-85250000D02*
X192500000Y-85250000D01*
X190753000Y-83503000D02*
X189484000Y-83503000D01*
X193375000Y-84875000D02*
X193000000Y-85250000D01*
X192500000Y-85250000D02*
X190753000Y-83503000D01*
X194800000Y-84875000D02*
X193375000Y-84875000D01*
X189484000Y-81825000D02*
X189484000Y-83503000D01*
%TO.N,Net-(U1-SCL)*%
X174300000Y-90950002D02*
X174750002Y-90500000D01*
X174300000Y-92050000D02*
X174300000Y-90950002D01*
X177675000Y-80075000D02*
X175750000Y-82000000D01*
%TO.N,Net-(U1-SDA)*%
X173800000Y-92050000D02*
X173800000Y-90800000D01*
X173000000Y-80700000D02*
X173300000Y-81000000D01*
X173000000Y-79575000D02*
X173000000Y-80700000D01*
X173800000Y-90800000D02*
X173500000Y-90500000D01*
%TO.N,Net-(U3-1Y)*%
X183525000Y-88725000D02*
X183000000Y-89250000D01*
X183540000Y-86700000D02*
X183540000Y-85210000D01*
X183525000Y-86715000D02*
X183525000Y-88725000D01*
X183000000Y-89250000D02*
X180500000Y-89250000D01*
X183750000Y-85000000D02*
X189331000Y-85000000D01*
X183540000Y-85210000D02*
X183750000Y-85000000D01*
X179730000Y-88480000D02*
X179730000Y-86700000D01*
X180500000Y-89250000D02*
X179730000Y-88480000D01*
%TO.N,Net-(U3-3Z)*%
X184810000Y-81750000D02*
X186080000Y-81750000D01*
X186080000Y-80920000D02*
X186825000Y-80175000D01*
X186825000Y-80175000D02*
X189484000Y-80175000D01*
%TO.N,Net-(U1-XB)*%
X174800000Y-92950000D02*
X174500000Y-93250000D01*
X174500000Y-93250000D02*
X173450000Y-93250000D01*
X173450000Y-93250000D02*
X172300000Y-92100000D01*
X172300000Y-92100000D02*
X170750000Y-92100000D01*
X174800000Y-92050000D02*
X174800000Y-92950000D01*
%TO.N,Net-(TP5-Pin_1)*%
X176000000Y-90250000D02*
X175500000Y-89750000D01*
X186080000Y-87674999D02*
X183254999Y-90500000D01*
X183254999Y-90500000D02*
X176500000Y-90500000D01*
X176250000Y-90250000D02*
X176000000Y-90250000D01*
X175500000Y-89750000D02*
X171522808Y-89750000D01*
X170844808Y-90428000D02*
X167678000Y-90428000D01*
X166878000Y-89628000D02*
X166878000Y-86803000D01*
X176500000Y-90500000D02*
X176250000Y-90250000D01*
X186080000Y-86700000D02*
X186080000Y-87674999D01*
X171522808Y-89750000D02*
X170844808Y-90428000D01*
X175300000Y-95300000D02*
X175000000Y-95000000D01*
X175300000Y-96450000D02*
X175300000Y-95300000D01*
X167678000Y-90428000D02*
X166878000Y-89628000D01*
%TO.N,Net-(TP7-Pin_1)*%
X182267001Y-69088000D02*
X184404000Y-69088000D01*
X184404000Y-67056000D02*
X184912000Y-66548000D01*
X180975000Y-70380001D02*
X182267001Y-69088000D01*
X186944000Y-67438000D02*
X186268000Y-67438000D01*
X180975000Y-71205000D02*
X180975000Y-70380001D01*
X186268000Y-67438000D02*
X184785000Y-65955000D01*
%TO.N,Net-(U5B--)*%
X183515000Y-63881000D02*
X184404000Y-62992000D01*
X183515000Y-65955000D02*
X183515000Y-63881000D01*
X186182000Y-62992000D02*
X184404000Y-62992000D01*
%TO.N,Net-(U7A--)*%
X200152000Y-69222000D02*
X199270000Y-70104000D01*
X199270000Y-70104000D02*
X197417501Y-70104000D01*
%TO.N,Net-(TP8-Pin_1)*%
X194552500Y-71254000D02*
X194552500Y-70429001D01*
X194552500Y-70429001D02*
X195652501Y-69329000D01*
X195652501Y-69329000D02*
X198108500Y-69329000D01*
X198362500Y-66004000D02*
X198362500Y-66936000D01*
X198362500Y-66936000D02*
X198108500Y-67190000D01*
X199930500Y-67572000D02*
X198362500Y-66004000D01*
%TO.N,3.3V*%
X174936396Y-94200000D02*
X175800000Y-93336396D01*
X171500000Y-78750000D02*
X170750000Y-79500000D01*
X174250000Y-94636396D02*
X174686396Y-94200000D01*
X174250000Y-95425000D02*
X174250000Y-94636396D01*
X173925000Y-78750000D02*
X171500000Y-78750000D01*
X175800000Y-92050000D02*
X176550000Y-92050000D01*
X176550000Y-92050000D02*
X177475000Y-92975000D01*
X175800000Y-93336396D02*
X175800000Y-92050000D01*
X175250000Y-80075000D02*
X173925000Y-78750000D01*
X174300000Y-96450000D02*
X174300000Y-95475000D01*
X174686396Y-94200000D02*
X174936396Y-94200000D01*
X174300000Y-95475000D02*
X174250000Y-95425000D01*
X170750000Y-79500000D02*
X166500000Y-79500000D01*
%TO.N,3.3VA*%
X194552500Y-66004000D02*
X192024000Y-66004000D01*
X178816000Y-68072000D02*
X178308000Y-68072000D01*
X178523000Y-64262000D02*
X177800000Y-64985000D01*
X178308000Y-68072000D02*
X177800000Y-67564000D01*
X192024000Y-67805000D02*
X192024000Y-66004000D01*
X167399000Y-76200000D02*
X169164000Y-74435000D01*
X169164000Y-74435000D02*
X166075992Y-74435000D01*
X177800000Y-64985000D02*
X177800000Y-67564000D01*
%TO.N,Net-(U6-SCL)*%
X176210000Y-76885000D02*
X177750000Y-78425000D01*
X175250000Y-78425000D02*
X175825000Y-77850000D01*
X176210000Y-76060000D02*
X176210000Y-76885000D01*
X177175000Y-77850000D02*
X177750000Y-78425000D01*
X175825000Y-77850000D02*
X177175000Y-77850000D01*
%TO.N,Net-(U6-SDA)*%
X172925000Y-77850000D02*
X170750000Y-77850000D01*
X177190000Y-74500000D02*
X174500000Y-74500000D01*
X173000000Y-76000000D02*
X173000000Y-77925000D01*
X174500000Y-74500000D02*
X173000000Y-76000000D01*
X178750000Y-76060000D02*
X177190000Y-74500000D01*
%TO.N,Net-(C8-Pad1)*%
X182245000Y-63501000D02*
X182754000Y-62992000D01*
X182245000Y-65955000D02*
X182245000Y-63501000D01*
%TO.N,Net-(U2G-VCC)*%
X170203999Y-83312000D02*
X170444999Y-83553000D01*
X170444999Y-83553000D02*
X175500000Y-83553000D01*
X164724000Y-81467000D02*
X164724000Y-74808000D01*
X175500000Y-83553000D02*
X176065000Y-82988000D01*
X164724000Y-74808000D02*
X164592000Y-74676000D01*
X164338000Y-81853000D02*
X164724000Y-81467000D01*
X170688000Y-82827999D02*
X170688000Y-81853000D01*
X165608000Y-81853000D02*
X165608000Y-83312000D01*
X164592000Y-74676000D02*
X159814000Y-74676000D01*
X164338000Y-83058000D02*
X164592000Y-83312000D01*
X170203999Y-83312000D02*
X170688000Y-82827999D01*
X159814000Y-74676000D02*
X158430000Y-76060000D01*
X168148000Y-83312000D02*
X170203999Y-83312000D01*
X179500000Y-81750000D02*
X179730000Y-81750000D01*
X168148000Y-81853000D02*
X168148000Y-83312000D01*
X164592000Y-83312000D02*
X165608000Y-83312000D01*
X176065000Y-82988000D02*
X178262000Y-82988000D01*
X165608000Y-83312000D02*
X168148000Y-83312000D01*
X164338000Y-81853000D02*
X164338000Y-83058000D01*
X178262000Y-82988000D02*
X179500000Y-81750000D01*
%TO.N,Net-(TP4-Pin_1)*%
X175800000Y-96450000D02*
X175800000Y-95200000D01*
X184810000Y-86700000D02*
X184810000Y-88190000D01*
X183250000Y-89700000D02*
X177797000Y-89700000D01*
X183300000Y-89700000D02*
X184810000Y-88190000D01*
X175800000Y-95200000D02*
X176000000Y-95000000D01*
X183300000Y-89700000D02*
X183250000Y-89700000D01*
X177797000Y-89700000D02*
X177750000Y-89653000D01*
%TO.N,Net-(U3-1E)*%
X165608000Y-84836000D02*
X166116000Y-84328000D01*
X180709395Y-83438000D02*
X181000000Y-83147395D01*
X165608000Y-86803000D02*
X165608000Y-84836000D01*
X178812000Y-83438000D02*
X180709395Y-83438000D01*
X166116000Y-84328000D02*
X177922000Y-84328000D01*
X181000000Y-83147395D02*
X181000000Y-81750000D01*
X177922000Y-84328000D02*
X178812000Y-83438000D01*
%TO.N,Net-(U3-4E)*%
X168148000Y-86803000D02*
X168148000Y-87777999D01*
X182270000Y-82980000D02*
X182270000Y-81750000D01*
X175402000Y-88250000D02*
X179427000Y-84225000D01*
X179427000Y-84225000D02*
X181025000Y-84225000D01*
X168620001Y-88250000D02*
X175402000Y-88250000D01*
X168148000Y-87777999D02*
X168620001Y-88250000D01*
X181025000Y-84225000D02*
X182270000Y-82980000D01*
%TD*%
M02*
