%TF.GenerationSoftware,KiCad,Pcbnew,8.0.9*%
%TF.CreationDate,2025-06-13T14:13:14+02:00*%
%TF.ProjectId,Elektor,456c656b-746f-4722-9e6b-696361645f70,rev?*%
%TF.SameCoordinates,Original*%
%TF.FileFunction,Legend,Bot*%
%TF.FilePolarity,Positive*%
%FSLAX46Y46*%
G04 Gerber Fmt 4.6, Leading zero omitted, Abs format (unit mm)*
G04 Created by KiCad (PCBNEW 8.0.9) date 2025-06-13 14:13:14*
%MOMM*%
%LPD*%
G01*
G04 APERTURE LIST*
%ADD10C,0.150000*%
%ADD11C,0.120000*%
G04 APERTURE END LIST*
D10*
X187812819Y-83876142D02*
X187336628Y-83542809D01*
X187812819Y-83304714D02*
X186812819Y-83304714D01*
X186812819Y-83304714D02*
X186812819Y-83685666D01*
X186812819Y-83685666D02*
X186860438Y-83780904D01*
X186860438Y-83780904D02*
X186908057Y-83828523D01*
X186908057Y-83828523D02*
X187003295Y-83876142D01*
X187003295Y-83876142D02*
X187146152Y-83876142D01*
X187146152Y-83876142D02*
X187241390Y-83828523D01*
X187241390Y-83828523D02*
X187289009Y-83780904D01*
X187289009Y-83780904D02*
X187336628Y-83685666D01*
X187336628Y-83685666D02*
X187336628Y-83304714D01*
X187812819Y-84828523D02*
X187812819Y-84257095D01*
X187812819Y-84542809D02*
X186812819Y-84542809D01*
X186812819Y-84542809D02*
X186955676Y-84447571D01*
X186955676Y-84447571D02*
X187050914Y-84352333D01*
X187050914Y-84352333D02*
X187098533Y-84257095D01*
X187812819Y-85304714D02*
X187812819Y-85495190D01*
X187812819Y-85495190D02*
X187765200Y-85590428D01*
X187765200Y-85590428D02*
X187717580Y-85638047D01*
X187717580Y-85638047D02*
X187574723Y-85733285D01*
X187574723Y-85733285D02*
X187384247Y-85780904D01*
X187384247Y-85780904D02*
X187003295Y-85780904D01*
X187003295Y-85780904D02*
X186908057Y-85733285D01*
X186908057Y-85733285D02*
X186860438Y-85685666D01*
X186860438Y-85685666D02*
X186812819Y-85590428D01*
X186812819Y-85590428D02*
X186812819Y-85399952D01*
X186812819Y-85399952D02*
X186860438Y-85304714D01*
X186860438Y-85304714D02*
X186908057Y-85257095D01*
X186908057Y-85257095D02*
X187003295Y-85209476D01*
X187003295Y-85209476D02*
X187241390Y-85209476D01*
X187241390Y-85209476D02*
X187336628Y-85257095D01*
X187336628Y-85257095D02*
X187384247Y-85304714D01*
X187384247Y-85304714D02*
X187431866Y-85399952D01*
X187431866Y-85399952D02*
X187431866Y-85590428D01*
X187431866Y-85590428D02*
X187384247Y-85685666D01*
X187384247Y-85685666D02*
X187336628Y-85733285D01*
X187336628Y-85733285D02*
X187241390Y-85780904D01*
D11*
%TO.C,R19*%
X185405500Y-84756258D02*
X185405500Y-84281742D01*
X186450500Y-84756258D02*
X186450500Y-84281742D01*
%TD*%
M02*
