M48
; DRILL file {KiCad 8.0.9} date 2025-06-13T14:13:19+0200
; FORMAT={-:-/ absolute / inch / decimal}
; #@! TF.CreationDate,2025-06-13T14:13:19+02:00
; #@! TF.GenerationSoftware,Kicad,Pcbnew,8.0.9
; #@! TF.FileFunction,Plated,1,2,PTH
FMAT,2
INCH
; #@! TA.AperFunction,Plated,PTH,ViaDrill
T1C0.0157
; #@! TA.AperFunction,Plated,PTH,ComponentDrill
T2C0.0315
; #@! TA.AperFunction,Plated,PTH,ComponentDrill
T3C0.0394
%
G90
G05
T1
X6.47Y-3.5
X6.5384Y-2.9305
X6.5551Y-3.1299
X6.61Y-3.51
X6.67Y-3.35
X6.7009Y-3.28
X6.77Y-3.3505
X6.78Y-3.86
X6.8228Y-3.189
X6.8307Y-3.563
X6.8799Y-3.563
X6.8898Y-3.7402
X6.9Y-3.4168
X6.9193Y-3.2283
X6.9291Y-3.7402
X6.939Y-3.5531
X6.998Y-3.5296
X7.01Y-3.79
X7.057Y-2.545
X7.09Y-2.73
X7.09Y-3.77
X7.095Y-3.115
X7.1057Y-3.3551
X7.125Y-2.535
X7.126Y-3.4843
X7.1654Y-3.8189
X7.1752Y-3.4843
X7.185Y-3.1496
X7.2237Y-3.1129
X7.26Y-2.54
X7.26Y-2.64
X7.26Y-2.72
X7.2736Y-3.3071
X7.32Y-3.5
X7.33Y-2.85
X7.37Y-3.07
X7.375Y-2.54
X7.46Y-2.5
X7.46Y-2.54
X7.56Y-2.78
X7.6083Y-3.4843
X7.79Y-2.89
X7.7995Y-2.6453
X7.7995Y-2.7295
X7.8608Y-3.1725
X7.8642Y-3.0807
X7.8937Y-3.1201
X8.061Y-3.2283
X8.1004Y-2.7264
T2
X6.3308Y-3.1
X6.4292Y-3.1
X6.54Y-2.7461
X6.54Y-2.8445
X6.6166Y-2.635
X6.715Y-2.635
X6.91Y-2.5408
X6.91Y-2.6392
T3
X6.2374Y-2.9945
X6.2374Y-3.5945
X6.3374Y-2.9945
X6.3374Y-3.5945
X6.38Y-3.33
X6.4Y-2.77
X6.4374Y-2.9945
X6.58Y-3.68
X6.625Y-2.515
X6.6874Y-2.7445
X6.6874Y-2.8445
X6.7874Y-2.7445
X6.7874Y-2.8445
X6.81Y-2.64
X6.9374Y-2.9945
X7.0374Y-2.9945
X7.04Y-2.83
X7.25Y-3.7205
X7.4374Y-2.9945
X7.4374Y-3.5945
X7.5Y-2.83
X7.5Y-3.7205
X7.5374Y-2.9945
X7.5374Y-3.5945
M30
