%TF.GenerationSoftware,KiCad,Pcbnew,7.0.9*%
%TF.CreationDate,2024-08-27T22:02:00+02:00*%
%TF.ProjectId,Elektor,456c656b-746f-4722-9e6b-696361645f70,rev?*%
%TF.SameCoordinates,Original*%
%TF.FileFunction,Legend,Top*%
%TF.FilePolarity,Positive*%
%FSLAX46Y46*%
G04 Gerber Fmt 4.6, Leading zero omitted, Abs format (unit mm)*
G04 Created by KiCad (PCBNEW 7.0.9) date 2024-08-27 22:02:00*
%MOMM*%
%LPD*%
G01*
G04 APERTURE LIST*
%ADD10C,0.150000*%
%ADD11C,0.120000*%
%ADD12C,0.127000*%
G04 APERTURE END LIST*
D10*
X173539160Y-100572200D02*
X173682017Y-100619819D01*
X173682017Y-100619819D02*
X173920112Y-100619819D01*
X173920112Y-100619819D02*
X174015350Y-100572200D01*
X174015350Y-100572200D02*
X174062969Y-100524580D01*
X174062969Y-100524580D02*
X174110588Y-100429342D01*
X174110588Y-100429342D02*
X174110588Y-100334104D01*
X174110588Y-100334104D02*
X174062969Y-100238866D01*
X174062969Y-100238866D02*
X174015350Y-100191247D01*
X174015350Y-100191247D02*
X173920112Y-100143628D01*
X173920112Y-100143628D02*
X173729636Y-100096009D01*
X173729636Y-100096009D02*
X173634398Y-100048390D01*
X173634398Y-100048390D02*
X173586779Y-100000771D01*
X173586779Y-100000771D02*
X173539160Y-99905533D01*
X173539160Y-99905533D02*
X173539160Y-99810295D01*
X173539160Y-99810295D02*
X173586779Y-99715057D01*
X173586779Y-99715057D02*
X173634398Y-99667438D01*
X173634398Y-99667438D02*
X173729636Y-99619819D01*
X173729636Y-99619819D02*
X173967731Y-99619819D01*
X173967731Y-99619819D02*
X174110588Y-99667438D01*
X174539160Y-100619819D02*
X174539160Y-99619819D01*
X174539160Y-99619819D02*
X174777255Y-99619819D01*
X174777255Y-99619819D02*
X174920112Y-99667438D01*
X174920112Y-99667438D02*
X175015350Y-99762676D01*
X175015350Y-99762676D02*
X175062969Y-99857914D01*
X175062969Y-99857914D02*
X175110588Y-100048390D01*
X175110588Y-100048390D02*
X175110588Y-100191247D01*
X175110588Y-100191247D02*
X175062969Y-100381723D01*
X175062969Y-100381723D02*
X175015350Y-100476961D01*
X175015350Y-100476961D02*
X174920112Y-100572200D01*
X174920112Y-100572200D02*
X174777255Y-100619819D01*
X174777255Y-100619819D02*
X174539160Y-100619819D01*
X176110588Y-100619819D02*
X175777255Y-100143628D01*
X175539160Y-100619819D02*
X175539160Y-99619819D01*
X175539160Y-99619819D02*
X175920112Y-99619819D01*
X175920112Y-99619819D02*
X176015350Y-99667438D01*
X176015350Y-99667438D02*
X176062969Y-99715057D01*
X176062969Y-99715057D02*
X176110588Y-99810295D01*
X176110588Y-99810295D02*
X176110588Y-99953152D01*
X176110588Y-99953152D02*
X176062969Y-100048390D01*
X176062969Y-100048390D02*
X176015350Y-100096009D01*
X176015350Y-100096009D02*
X175920112Y-100143628D01*
X175920112Y-100143628D02*
X175539160Y-100143628D01*
X177158208Y-99619819D02*
X177729636Y-99619819D01*
X177443922Y-100619819D02*
X177443922Y-99619819D01*
X178062970Y-100096009D02*
X178396303Y-100096009D01*
X178539160Y-100619819D02*
X178062970Y-100619819D01*
X178062970Y-100619819D02*
X178062970Y-99619819D01*
X178062970Y-99619819D02*
X178539160Y-99619819D01*
X178967732Y-100096009D02*
X179301065Y-100096009D01*
X179443922Y-100619819D02*
X178967732Y-100619819D01*
X178967732Y-100619819D02*
X178967732Y-99619819D01*
X178967732Y-99619819D02*
X179443922Y-99619819D01*
X179872494Y-100619819D02*
X179872494Y-99619819D01*
X179872494Y-99619819D02*
X180443922Y-100619819D01*
X180443922Y-100619819D02*
X180443922Y-99619819D01*
X180872494Y-100572200D02*
X181015351Y-100619819D01*
X181015351Y-100619819D02*
X181253446Y-100619819D01*
X181253446Y-100619819D02*
X181348684Y-100572200D01*
X181348684Y-100572200D02*
X181396303Y-100524580D01*
X181396303Y-100524580D02*
X181443922Y-100429342D01*
X181443922Y-100429342D02*
X181443922Y-100334104D01*
X181443922Y-100334104D02*
X181396303Y-100238866D01*
X181396303Y-100238866D02*
X181348684Y-100191247D01*
X181348684Y-100191247D02*
X181253446Y-100143628D01*
X181253446Y-100143628D02*
X181062970Y-100096009D01*
X181062970Y-100096009D02*
X180967732Y-100048390D01*
X180967732Y-100048390D02*
X180920113Y-100000771D01*
X180920113Y-100000771D02*
X180872494Y-99905533D01*
X180872494Y-99905533D02*
X180872494Y-99810295D01*
X180872494Y-99810295D02*
X180920113Y-99715057D01*
X180920113Y-99715057D02*
X180967732Y-99667438D01*
X180967732Y-99667438D02*
X181062970Y-99619819D01*
X181062970Y-99619819D02*
X181301065Y-99619819D01*
X181301065Y-99619819D02*
X181443922Y-99667438D01*
X182062970Y-100143628D02*
X182062970Y-100619819D01*
X181729637Y-99619819D02*
X182062970Y-100143628D01*
X182062970Y-100143628D02*
X182396303Y-99619819D01*
X184586780Y-100096009D02*
X184253447Y-100096009D01*
X184253447Y-100619819D02*
X184253447Y-99619819D01*
X184253447Y-99619819D02*
X184729637Y-99619819D01*
X185634399Y-100619819D02*
X185062971Y-100619819D01*
X185348685Y-100619819D02*
X185348685Y-99619819D01*
X185348685Y-99619819D02*
X185253447Y-99762676D01*
X185253447Y-99762676D02*
X185158209Y-99857914D01*
X185158209Y-99857914D02*
X185062971Y-99905533D01*
X186396304Y-100096009D02*
X186062971Y-100096009D01*
X186062971Y-100619819D02*
X186062971Y-99619819D01*
X186062971Y-99619819D02*
X186539161Y-99619819D01*
X187443923Y-99667438D02*
X187348685Y-99619819D01*
X187348685Y-99619819D02*
X187205828Y-99619819D01*
X187205828Y-99619819D02*
X187062971Y-99667438D01*
X187062971Y-99667438D02*
X186967733Y-99762676D01*
X186967733Y-99762676D02*
X186920114Y-99857914D01*
X186920114Y-99857914D02*
X186872495Y-100048390D01*
X186872495Y-100048390D02*
X186872495Y-100191247D01*
X186872495Y-100191247D02*
X186920114Y-100381723D01*
X186920114Y-100381723D02*
X186967733Y-100476961D01*
X186967733Y-100476961D02*
X187062971Y-100572200D01*
X187062971Y-100572200D02*
X187205828Y-100619819D01*
X187205828Y-100619819D02*
X187301066Y-100619819D01*
X187301066Y-100619819D02*
X187443923Y-100572200D01*
X187443923Y-100572200D02*
X187491542Y-100524580D01*
X187491542Y-100524580D02*
X187491542Y-100191247D01*
X187491542Y-100191247D02*
X187301066Y-100191247D01*
X187777257Y-99619819D02*
X188110590Y-100619819D01*
X188110590Y-100619819D02*
X188443923Y-99619819D01*
X190634400Y-100096009D02*
X190301067Y-100096009D01*
X190301067Y-100619819D02*
X190301067Y-99619819D01*
X190301067Y-99619819D02*
X190777257Y-99619819D01*
X191682019Y-100619819D02*
X191110591Y-100619819D01*
X191396305Y-100619819D02*
X191396305Y-99619819D01*
X191396305Y-99619819D02*
X191301067Y-99762676D01*
X191301067Y-99762676D02*
X191205829Y-99857914D01*
X191205829Y-99857914D02*
X191110591Y-99905533D01*
X191967734Y-99619819D02*
X192301067Y-100619819D01*
X192301067Y-100619819D02*
X192634400Y-99619819D01*
X193443924Y-100619819D02*
X192967734Y-100619819D01*
X192967734Y-100619819D02*
X192967734Y-99619819D01*
X187954819Y-97511904D02*
X188764342Y-97511904D01*
X188764342Y-97511904D02*
X188859580Y-97464285D01*
X188859580Y-97464285D02*
X188907200Y-97416666D01*
X188907200Y-97416666D02*
X188954819Y-97321428D01*
X188954819Y-97321428D02*
X188954819Y-97130952D01*
X188954819Y-97130952D02*
X188907200Y-97035714D01*
X188907200Y-97035714D02*
X188859580Y-96988095D01*
X188859580Y-96988095D02*
X188764342Y-96940476D01*
X188764342Y-96940476D02*
X187954819Y-96940476D01*
X188050057Y-96511904D02*
X188002438Y-96464285D01*
X188002438Y-96464285D02*
X187954819Y-96369047D01*
X187954819Y-96369047D02*
X187954819Y-96130952D01*
X187954819Y-96130952D02*
X188002438Y-96035714D01*
X188002438Y-96035714D02*
X188050057Y-95988095D01*
X188050057Y-95988095D02*
X188145295Y-95940476D01*
X188145295Y-95940476D02*
X188240533Y-95940476D01*
X188240533Y-95940476D02*
X188383390Y-95988095D01*
X188383390Y-95988095D02*
X188954819Y-96559523D01*
X188954819Y-96559523D02*
X188954819Y-95940476D01*
X163804819Y-94295238D02*
X163328628Y-94628571D01*
X163804819Y-94866666D02*
X162804819Y-94866666D01*
X162804819Y-94866666D02*
X162804819Y-94485714D01*
X162804819Y-94485714D02*
X162852438Y-94390476D01*
X162852438Y-94390476D02*
X162900057Y-94342857D01*
X162900057Y-94342857D02*
X162995295Y-94295238D01*
X162995295Y-94295238D02*
X163138152Y-94295238D01*
X163138152Y-94295238D02*
X163233390Y-94342857D01*
X163233390Y-94342857D02*
X163281009Y-94390476D01*
X163281009Y-94390476D02*
X163328628Y-94485714D01*
X163328628Y-94485714D02*
X163328628Y-94866666D01*
X162804819Y-94009523D02*
X163804819Y-93676190D01*
X163804819Y-93676190D02*
X162804819Y-93342857D01*
X163804819Y-92485714D02*
X163804819Y-93057142D01*
X163804819Y-92771428D02*
X162804819Y-92771428D01*
X162804819Y-92771428D02*
X162947676Y-92866666D01*
X162947676Y-92866666D02*
X163042914Y-92961904D01*
X163042914Y-92961904D02*
X163090533Y-93057142D01*
X201859580Y-87642857D02*
X201907200Y-87690476D01*
X201907200Y-87690476D02*
X201954819Y-87833333D01*
X201954819Y-87833333D02*
X201954819Y-87928571D01*
X201954819Y-87928571D02*
X201907200Y-88071428D01*
X201907200Y-88071428D02*
X201811961Y-88166666D01*
X201811961Y-88166666D02*
X201716723Y-88214285D01*
X201716723Y-88214285D02*
X201526247Y-88261904D01*
X201526247Y-88261904D02*
X201383390Y-88261904D01*
X201383390Y-88261904D02*
X201192914Y-88214285D01*
X201192914Y-88214285D02*
X201097676Y-88166666D01*
X201097676Y-88166666D02*
X201002438Y-88071428D01*
X201002438Y-88071428D02*
X200954819Y-87928571D01*
X200954819Y-87928571D02*
X200954819Y-87833333D01*
X200954819Y-87833333D02*
X201002438Y-87690476D01*
X201002438Y-87690476D02*
X201050057Y-87642857D01*
X201050057Y-87261904D02*
X201002438Y-87214285D01*
X201002438Y-87214285D02*
X200954819Y-87119047D01*
X200954819Y-87119047D02*
X200954819Y-86880952D01*
X200954819Y-86880952D02*
X201002438Y-86785714D01*
X201002438Y-86785714D02*
X201050057Y-86738095D01*
X201050057Y-86738095D02*
X201145295Y-86690476D01*
X201145295Y-86690476D02*
X201240533Y-86690476D01*
X201240533Y-86690476D02*
X201383390Y-86738095D01*
X201383390Y-86738095D02*
X201954819Y-87309523D01*
X201954819Y-87309523D02*
X201954819Y-86690476D01*
X201050057Y-86309523D02*
X201002438Y-86261904D01*
X201002438Y-86261904D02*
X200954819Y-86166666D01*
X200954819Y-86166666D02*
X200954819Y-85928571D01*
X200954819Y-85928571D02*
X201002438Y-85833333D01*
X201002438Y-85833333D02*
X201050057Y-85785714D01*
X201050057Y-85785714D02*
X201145295Y-85738095D01*
X201145295Y-85738095D02*
X201240533Y-85738095D01*
X201240533Y-85738095D02*
X201383390Y-85785714D01*
X201383390Y-85785714D02*
X201954819Y-86357142D01*
X201954819Y-86357142D02*
X201954819Y-85738095D01*
X163975580Y-71642857D02*
X164023200Y-71690476D01*
X164023200Y-71690476D02*
X164070819Y-71833333D01*
X164070819Y-71833333D02*
X164070819Y-71928571D01*
X164070819Y-71928571D02*
X164023200Y-72071428D01*
X164023200Y-72071428D02*
X163927961Y-72166666D01*
X163927961Y-72166666D02*
X163832723Y-72214285D01*
X163832723Y-72214285D02*
X163642247Y-72261904D01*
X163642247Y-72261904D02*
X163499390Y-72261904D01*
X163499390Y-72261904D02*
X163308914Y-72214285D01*
X163308914Y-72214285D02*
X163213676Y-72166666D01*
X163213676Y-72166666D02*
X163118438Y-72071428D01*
X163118438Y-72071428D02*
X163070819Y-71928571D01*
X163070819Y-71928571D02*
X163070819Y-71833333D01*
X163070819Y-71833333D02*
X163118438Y-71690476D01*
X163118438Y-71690476D02*
X163166057Y-71642857D01*
X164070819Y-70690476D02*
X164070819Y-71261904D01*
X164070819Y-70976190D02*
X163070819Y-70976190D01*
X163070819Y-70976190D02*
X163213676Y-71071428D01*
X163213676Y-71071428D02*
X163308914Y-71166666D01*
X163308914Y-71166666D02*
X163356533Y-71261904D01*
X163499390Y-70119047D02*
X163451771Y-70214285D01*
X163451771Y-70214285D02*
X163404152Y-70261904D01*
X163404152Y-70261904D02*
X163308914Y-70309523D01*
X163308914Y-70309523D02*
X163261295Y-70309523D01*
X163261295Y-70309523D02*
X163166057Y-70261904D01*
X163166057Y-70261904D02*
X163118438Y-70214285D01*
X163118438Y-70214285D02*
X163070819Y-70119047D01*
X163070819Y-70119047D02*
X163070819Y-69928571D01*
X163070819Y-69928571D02*
X163118438Y-69833333D01*
X163118438Y-69833333D02*
X163166057Y-69785714D01*
X163166057Y-69785714D02*
X163261295Y-69738095D01*
X163261295Y-69738095D02*
X163308914Y-69738095D01*
X163308914Y-69738095D02*
X163404152Y-69785714D01*
X163404152Y-69785714D02*
X163451771Y-69833333D01*
X163451771Y-69833333D02*
X163499390Y-69928571D01*
X163499390Y-69928571D02*
X163499390Y-70119047D01*
X163499390Y-70119047D02*
X163547009Y-70214285D01*
X163547009Y-70214285D02*
X163594628Y-70261904D01*
X163594628Y-70261904D02*
X163689866Y-70309523D01*
X163689866Y-70309523D02*
X163880342Y-70309523D01*
X163880342Y-70309523D02*
X163975580Y-70261904D01*
X163975580Y-70261904D02*
X164023200Y-70214285D01*
X164023200Y-70214285D02*
X164070819Y-70119047D01*
X164070819Y-70119047D02*
X164070819Y-69928571D01*
X164070819Y-69928571D02*
X164023200Y-69833333D01*
X164023200Y-69833333D02*
X163975580Y-69785714D01*
X163975580Y-69785714D02*
X163880342Y-69738095D01*
X163880342Y-69738095D02*
X163689866Y-69738095D01*
X163689866Y-69738095D02*
X163594628Y-69785714D01*
X163594628Y-69785714D02*
X163547009Y-69833333D01*
X163547009Y-69833333D02*
X163499390Y-69928571D01*
X177859580Y-97642857D02*
X177907200Y-97690476D01*
X177907200Y-97690476D02*
X177954819Y-97833333D01*
X177954819Y-97833333D02*
X177954819Y-97928571D01*
X177954819Y-97928571D02*
X177907200Y-98071428D01*
X177907200Y-98071428D02*
X177811961Y-98166666D01*
X177811961Y-98166666D02*
X177716723Y-98214285D01*
X177716723Y-98214285D02*
X177526247Y-98261904D01*
X177526247Y-98261904D02*
X177383390Y-98261904D01*
X177383390Y-98261904D02*
X177192914Y-98214285D01*
X177192914Y-98214285D02*
X177097676Y-98166666D01*
X177097676Y-98166666D02*
X177002438Y-98071428D01*
X177002438Y-98071428D02*
X176954819Y-97928571D01*
X176954819Y-97928571D02*
X176954819Y-97833333D01*
X176954819Y-97833333D02*
X177002438Y-97690476D01*
X177002438Y-97690476D02*
X177050057Y-97642857D01*
X177050057Y-97261904D02*
X177002438Y-97214285D01*
X177002438Y-97214285D02*
X176954819Y-97119047D01*
X176954819Y-97119047D02*
X176954819Y-96880952D01*
X176954819Y-96880952D02*
X177002438Y-96785714D01*
X177002438Y-96785714D02*
X177050057Y-96738095D01*
X177050057Y-96738095D02*
X177145295Y-96690476D01*
X177145295Y-96690476D02*
X177240533Y-96690476D01*
X177240533Y-96690476D02*
X177383390Y-96738095D01*
X177383390Y-96738095D02*
X177954819Y-97309523D01*
X177954819Y-97309523D02*
X177954819Y-96690476D01*
X176954819Y-96071428D02*
X176954819Y-95976190D01*
X176954819Y-95976190D02*
X177002438Y-95880952D01*
X177002438Y-95880952D02*
X177050057Y-95833333D01*
X177050057Y-95833333D02*
X177145295Y-95785714D01*
X177145295Y-95785714D02*
X177335771Y-95738095D01*
X177335771Y-95738095D02*
X177573866Y-95738095D01*
X177573866Y-95738095D02*
X177764342Y-95785714D01*
X177764342Y-95785714D02*
X177859580Y-95833333D01*
X177859580Y-95833333D02*
X177907200Y-95880952D01*
X177907200Y-95880952D02*
X177954819Y-95976190D01*
X177954819Y-95976190D02*
X177954819Y-96071428D01*
X177954819Y-96071428D02*
X177907200Y-96166666D01*
X177907200Y-96166666D02*
X177859580Y-96214285D01*
X177859580Y-96214285D02*
X177764342Y-96261904D01*
X177764342Y-96261904D02*
X177573866Y-96309523D01*
X177573866Y-96309523D02*
X177335771Y-96309523D01*
X177335771Y-96309523D02*
X177145295Y-96261904D01*
X177145295Y-96261904D02*
X177050057Y-96214285D01*
X177050057Y-96214285D02*
X177002438Y-96166666D01*
X177002438Y-96166666D02*
X176954819Y-96071428D01*
X194154761Y-82550057D02*
X194059523Y-82502438D01*
X194059523Y-82502438D02*
X193964285Y-82407200D01*
X193964285Y-82407200D02*
X193821428Y-82264342D01*
X193821428Y-82264342D02*
X193726190Y-82216723D01*
X193726190Y-82216723D02*
X193630952Y-82216723D01*
X193678571Y-82454819D02*
X193583333Y-82407200D01*
X193583333Y-82407200D02*
X193488095Y-82311961D01*
X193488095Y-82311961D02*
X193440476Y-82121485D01*
X193440476Y-82121485D02*
X193440476Y-81788152D01*
X193440476Y-81788152D02*
X193488095Y-81597676D01*
X193488095Y-81597676D02*
X193583333Y-81502438D01*
X193583333Y-81502438D02*
X193678571Y-81454819D01*
X193678571Y-81454819D02*
X193869047Y-81454819D01*
X193869047Y-81454819D02*
X193964285Y-81502438D01*
X193964285Y-81502438D02*
X194059523Y-81597676D01*
X194059523Y-81597676D02*
X194107142Y-81788152D01*
X194107142Y-81788152D02*
X194107142Y-82121485D01*
X194107142Y-82121485D02*
X194059523Y-82311961D01*
X194059523Y-82311961D02*
X193964285Y-82407200D01*
X193964285Y-82407200D02*
X193869047Y-82454819D01*
X193869047Y-82454819D02*
X193678571Y-82454819D01*
X195059523Y-82454819D02*
X194488095Y-82454819D01*
X194773809Y-82454819D02*
X194773809Y-81454819D01*
X194773809Y-81454819D02*
X194678571Y-81597676D01*
X194678571Y-81597676D02*
X194583333Y-81692914D01*
X194583333Y-81692914D02*
X194488095Y-81740533D01*
X177609580Y-70142857D02*
X177657200Y-70190476D01*
X177657200Y-70190476D02*
X177704819Y-70333333D01*
X177704819Y-70333333D02*
X177704819Y-70428571D01*
X177704819Y-70428571D02*
X177657200Y-70571428D01*
X177657200Y-70571428D02*
X177561961Y-70666666D01*
X177561961Y-70666666D02*
X177466723Y-70714285D01*
X177466723Y-70714285D02*
X177276247Y-70761904D01*
X177276247Y-70761904D02*
X177133390Y-70761904D01*
X177133390Y-70761904D02*
X176942914Y-70714285D01*
X176942914Y-70714285D02*
X176847676Y-70666666D01*
X176847676Y-70666666D02*
X176752438Y-70571428D01*
X176752438Y-70571428D02*
X176704819Y-70428571D01*
X176704819Y-70428571D02*
X176704819Y-70333333D01*
X176704819Y-70333333D02*
X176752438Y-70190476D01*
X176752438Y-70190476D02*
X176800057Y-70142857D01*
X177704819Y-69190476D02*
X177704819Y-69761904D01*
X177704819Y-69476190D02*
X176704819Y-69476190D01*
X176704819Y-69476190D02*
X176847676Y-69571428D01*
X176847676Y-69571428D02*
X176942914Y-69666666D01*
X176942914Y-69666666D02*
X176990533Y-69761904D01*
X176704819Y-68285714D02*
X176704819Y-68761904D01*
X176704819Y-68761904D02*
X177181009Y-68809523D01*
X177181009Y-68809523D02*
X177133390Y-68761904D01*
X177133390Y-68761904D02*
X177085771Y-68666666D01*
X177085771Y-68666666D02*
X177085771Y-68428571D01*
X177085771Y-68428571D02*
X177133390Y-68333333D01*
X177133390Y-68333333D02*
X177181009Y-68285714D01*
X177181009Y-68285714D02*
X177276247Y-68238095D01*
X177276247Y-68238095D02*
X177514342Y-68238095D01*
X177514342Y-68238095D02*
X177609580Y-68285714D01*
X177609580Y-68285714D02*
X177657200Y-68333333D01*
X177657200Y-68333333D02*
X177704819Y-68428571D01*
X177704819Y-68428571D02*
X177704819Y-68666666D01*
X177704819Y-68666666D02*
X177657200Y-68761904D01*
X177657200Y-68761904D02*
X177609580Y-68809523D01*
X193588819Y-76334857D02*
X193112628Y-76668190D01*
X193588819Y-76906285D02*
X192588819Y-76906285D01*
X192588819Y-76906285D02*
X192588819Y-76525333D01*
X192588819Y-76525333D02*
X192636438Y-76430095D01*
X192636438Y-76430095D02*
X192684057Y-76382476D01*
X192684057Y-76382476D02*
X192779295Y-76334857D01*
X192779295Y-76334857D02*
X192922152Y-76334857D01*
X192922152Y-76334857D02*
X193017390Y-76382476D01*
X193017390Y-76382476D02*
X193065009Y-76430095D01*
X193065009Y-76430095D02*
X193112628Y-76525333D01*
X193112628Y-76525333D02*
X193112628Y-76906285D01*
X193588819Y-75382476D02*
X193588819Y-75953904D01*
X193588819Y-75668190D02*
X192588819Y-75668190D01*
X192588819Y-75668190D02*
X192731676Y-75763428D01*
X192731676Y-75763428D02*
X192826914Y-75858666D01*
X192826914Y-75858666D02*
X192874533Y-75953904D01*
X193017390Y-74811047D02*
X192969771Y-74906285D01*
X192969771Y-74906285D02*
X192922152Y-74953904D01*
X192922152Y-74953904D02*
X192826914Y-75001523D01*
X192826914Y-75001523D02*
X192779295Y-75001523D01*
X192779295Y-75001523D02*
X192684057Y-74953904D01*
X192684057Y-74953904D02*
X192636438Y-74906285D01*
X192636438Y-74906285D02*
X192588819Y-74811047D01*
X192588819Y-74811047D02*
X192588819Y-74620571D01*
X192588819Y-74620571D02*
X192636438Y-74525333D01*
X192636438Y-74525333D02*
X192684057Y-74477714D01*
X192684057Y-74477714D02*
X192779295Y-74430095D01*
X192779295Y-74430095D02*
X192826914Y-74430095D01*
X192826914Y-74430095D02*
X192922152Y-74477714D01*
X192922152Y-74477714D02*
X192969771Y-74525333D01*
X192969771Y-74525333D02*
X193017390Y-74620571D01*
X193017390Y-74620571D02*
X193017390Y-74811047D01*
X193017390Y-74811047D02*
X193065009Y-74906285D01*
X193065009Y-74906285D02*
X193112628Y-74953904D01*
X193112628Y-74953904D02*
X193207866Y-75001523D01*
X193207866Y-75001523D02*
X193398342Y-75001523D01*
X193398342Y-75001523D02*
X193493580Y-74953904D01*
X193493580Y-74953904D02*
X193541200Y-74906285D01*
X193541200Y-74906285D02*
X193588819Y-74811047D01*
X193588819Y-74811047D02*
X193588819Y-74620571D01*
X193588819Y-74620571D02*
X193541200Y-74525333D01*
X193541200Y-74525333D02*
X193493580Y-74477714D01*
X193493580Y-74477714D02*
X193398342Y-74430095D01*
X193398342Y-74430095D02*
X193207866Y-74430095D01*
X193207866Y-74430095D02*
X193112628Y-74477714D01*
X193112628Y-74477714D02*
X193065009Y-74525333D01*
X193065009Y-74525333D02*
X193017390Y-74620571D01*
X186333333Y-71859580D02*
X186285714Y-71907200D01*
X186285714Y-71907200D02*
X186142857Y-71954819D01*
X186142857Y-71954819D02*
X186047619Y-71954819D01*
X186047619Y-71954819D02*
X185904762Y-71907200D01*
X185904762Y-71907200D02*
X185809524Y-71811961D01*
X185809524Y-71811961D02*
X185761905Y-71716723D01*
X185761905Y-71716723D02*
X185714286Y-71526247D01*
X185714286Y-71526247D02*
X185714286Y-71383390D01*
X185714286Y-71383390D02*
X185761905Y-71192914D01*
X185761905Y-71192914D02*
X185809524Y-71097676D01*
X185809524Y-71097676D02*
X185904762Y-71002438D01*
X185904762Y-71002438D02*
X186047619Y-70954819D01*
X186047619Y-70954819D02*
X186142857Y-70954819D01*
X186142857Y-70954819D02*
X186285714Y-71002438D01*
X186285714Y-71002438D02*
X186333333Y-71050057D01*
X186666667Y-70954819D02*
X187285714Y-70954819D01*
X187285714Y-70954819D02*
X186952381Y-71335771D01*
X186952381Y-71335771D02*
X187095238Y-71335771D01*
X187095238Y-71335771D02*
X187190476Y-71383390D01*
X187190476Y-71383390D02*
X187238095Y-71431009D01*
X187238095Y-71431009D02*
X187285714Y-71526247D01*
X187285714Y-71526247D02*
X187285714Y-71764342D01*
X187285714Y-71764342D02*
X187238095Y-71859580D01*
X187238095Y-71859580D02*
X187190476Y-71907200D01*
X187190476Y-71907200D02*
X187095238Y-71954819D01*
X187095238Y-71954819D02*
X186809524Y-71954819D01*
X186809524Y-71954819D02*
X186714286Y-71907200D01*
X186714286Y-71907200D02*
X186666667Y-71859580D01*
X204466666Y-75254819D02*
X204466666Y-75969104D01*
X204466666Y-75969104D02*
X204419047Y-76111961D01*
X204419047Y-76111961D02*
X204323809Y-76207200D01*
X204323809Y-76207200D02*
X204180952Y-76254819D01*
X204180952Y-76254819D02*
X204085714Y-76254819D01*
X205466666Y-76254819D02*
X204895238Y-76254819D01*
X205180952Y-76254819D02*
X205180952Y-75254819D01*
X205180952Y-75254819D02*
X205085714Y-75397676D01*
X205085714Y-75397676D02*
X204990476Y-75492914D01*
X204990476Y-75492914D02*
X204895238Y-75540533D01*
X194357142Y-61954819D02*
X194023809Y-61478628D01*
X193785714Y-61954819D02*
X193785714Y-60954819D01*
X193785714Y-60954819D02*
X194166666Y-60954819D01*
X194166666Y-60954819D02*
X194261904Y-61002438D01*
X194261904Y-61002438D02*
X194309523Y-61050057D01*
X194309523Y-61050057D02*
X194357142Y-61145295D01*
X194357142Y-61145295D02*
X194357142Y-61288152D01*
X194357142Y-61288152D02*
X194309523Y-61383390D01*
X194309523Y-61383390D02*
X194261904Y-61431009D01*
X194261904Y-61431009D02*
X194166666Y-61478628D01*
X194166666Y-61478628D02*
X193785714Y-61478628D01*
X195309523Y-61954819D02*
X194738095Y-61954819D01*
X195023809Y-61954819D02*
X195023809Y-60954819D01*
X195023809Y-60954819D02*
X194928571Y-61097676D01*
X194928571Y-61097676D02*
X194833333Y-61192914D01*
X194833333Y-61192914D02*
X194738095Y-61240533D01*
X195642857Y-60954819D02*
X196309523Y-60954819D01*
X196309523Y-60954819D02*
X195880952Y-61954819D01*
X185704819Y-66511904D02*
X186514342Y-66511904D01*
X186514342Y-66511904D02*
X186609580Y-66464285D01*
X186609580Y-66464285D02*
X186657200Y-66416666D01*
X186657200Y-66416666D02*
X186704819Y-66321428D01*
X186704819Y-66321428D02*
X186704819Y-66130952D01*
X186704819Y-66130952D02*
X186657200Y-66035714D01*
X186657200Y-66035714D02*
X186609580Y-65988095D01*
X186609580Y-65988095D02*
X186514342Y-65940476D01*
X186514342Y-65940476D02*
X185704819Y-65940476D01*
X185704819Y-64988095D02*
X185704819Y-65464285D01*
X185704819Y-65464285D02*
X186181009Y-65511904D01*
X186181009Y-65511904D02*
X186133390Y-65464285D01*
X186133390Y-65464285D02*
X186085771Y-65369047D01*
X186085771Y-65369047D02*
X186085771Y-65130952D01*
X186085771Y-65130952D02*
X186133390Y-65035714D01*
X186133390Y-65035714D02*
X186181009Y-64988095D01*
X186181009Y-64988095D02*
X186276247Y-64940476D01*
X186276247Y-64940476D02*
X186514342Y-64940476D01*
X186514342Y-64940476D02*
X186609580Y-64988095D01*
X186609580Y-64988095D02*
X186657200Y-65035714D01*
X186657200Y-65035714D02*
X186704819Y-65130952D01*
X186704819Y-65130952D02*
X186704819Y-65369047D01*
X186704819Y-65369047D02*
X186657200Y-65464285D01*
X186657200Y-65464285D02*
X186609580Y-65511904D01*
X167583333Y-75224819D02*
X167250000Y-74748628D01*
X167011905Y-75224819D02*
X167011905Y-74224819D01*
X167011905Y-74224819D02*
X167392857Y-74224819D01*
X167392857Y-74224819D02*
X167488095Y-74272438D01*
X167488095Y-74272438D02*
X167535714Y-74320057D01*
X167535714Y-74320057D02*
X167583333Y-74415295D01*
X167583333Y-74415295D02*
X167583333Y-74558152D01*
X167583333Y-74558152D02*
X167535714Y-74653390D01*
X167535714Y-74653390D02*
X167488095Y-74701009D01*
X167488095Y-74701009D02*
X167392857Y-74748628D01*
X167392857Y-74748628D02*
X167011905Y-74748628D01*
X168488095Y-74224819D02*
X168011905Y-74224819D01*
X168011905Y-74224819D02*
X167964286Y-74701009D01*
X167964286Y-74701009D02*
X168011905Y-74653390D01*
X168011905Y-74653390D02*
X168107143Y-74605771D01*
X168107143Y-74605771D02*
X168345238Y-74605771D01*
X168345238Y-74605771D02*
X168440476Y-74653390D01*
X168440476Y-74653390D02*
X168488095Y-74701009D01*
X168488095Y-74701009D02*
X168535714Y-74796247D01*
X168535714Y-74796247D02*
X168535714Y-75034342D01*
X168535714Y-75034342D02*
X168488095Y-75129580D01*
X168488095Y-75129580D02*
X168440476Y-75177200D01*
X168440476Y-75177200D02*
X168345238Y-75224819D01*
X168345238Y-75224819D02*
X168107143Y-75224819D01*
X168107143Y-75224819D02*
X168011905Y-75177200D01*
X168011905Y-75177200D02*
X167964286Y-75129580D01*
X202954819Y-70738094D02*
X201954819Y-70738094D01*
X201954819Y-70738094D02*
X201954819Y-70499999D01*
X201954819Y-70499999D02*
X202002438Y-70357142D01*
X202002438Y-70357142D02*
X202097676Y-70261904D01*
X202097676Y-70261904D02*
X202192914Y-70214285D01*
X202192914Y-70214285D02*
X202383390Y-70166666D01*
X202383390Y-70166666D02*
X202526247Y-70166666D01*
X202526247Y-70166666D02*
X202716723Y-70214285D01*
X202716723Y-70214285D02*
X202811961Y-70261904D01*
X202811961Y-70261904D02*
X202907200Y-70357142D01*
X202907200Y-70357142D02*
X202954819Y-70499999D01*
X202954819Y-70499999D02*
X202954819Y-70738094D01*
X202050057Y-69785713D02*
X202002438Y-69738094D01*
X202002438Y-69738094D02*
X201954819Y-69642856D01*
X201954819Y-69642856D02*
X201954819Y-69404761D01*
X201954819Y-69404761D02*
X202002438Y-69309523D01*
X202002438Y-69309523D02*
X202050057Y-69261904D01*
X202050057Y-69261904D02*
X202145295Y-69214285D01*
X202145295Y-69214285D02*
X202240533Y-69214285D01*
X202240533Y-69214285D02*
X202383390Y-69261904D01*
X202383390Y-69261904D02*
X202954819Y-69833332D01*
X202954819Y-69833332D02*
X202954819Y-69214285D01*
X161885333Y-81599580D02*
X161837714Y-81647200D01*
X161837714Y-81647200D02*
X161694857Y-81694819D01*
X161694857Y-81694819D02*
X161599619Y-81694819D01*
X161599619Y-81694819D02*
X161456762Y-81647200D01*
X161456762Y-81647200D02*
X161361524Y-81551961D01*
X161361524Y-81551961D02*
X161313905Y-81456723D01*
X161313905Y-81456723D02*
X161266286Y-81266247D01*
X161266286Y-81266247D02*
X161266286Y-81123390D01*
X161266286Y-81123390D02*
X161313905Y-80932914D01*
X161313905Y-80932914D02*
X161361524Y-80837676D01*
X161361524Y-80837676D02*
X161456762Y-80742438D01*
X161456762Y-80742438D02*
X161599619Y-80694819D01*
X161599619Y-80694819D02*
X161694857Y-80694819D01*
X161694857Y-80694819D02*
X161837714Y-80742438D01*
X161837714Y-80742438D02*
X161885333Y-80790057D01*
X162837714Y-81694819D02*
X162266286Y-81694819D01*
X162552000Y-81694819D02*
X162552000Y-80694819D01*
X162552000Y-80694819D02*
X162456762Y-80837676D01*
X162456762Y-80837676D02*
X162361524Y-80932914D01*
X162361524Y-80932914D02*
X162266286Y-80980533D01*
X177714819Y-82261904D02*
X178524342Y-82261904D01*
X178524342Y-82261904D02*
X178619580Y-82214285D01*
X178619580Y-82214285D02*
X178667200Y-82166666D01*
X178667200Y-82166666D02*
X178714819Y-82071428D01*
X178714819Y-82071428D02*
X178714819Y-81880952D01*
X178714819Y-81880952D02*
X178667200Y-81785714D01*
X178667200Y-81785714D02*
X178619580Y-81738095D01*
X178619580Y-81738095D02*
X178524342Y-81690476D01*
X178524342Y-81690476D02*
X177714819Y-81690476D01*
X177714819Y-81309523D02*
X177714819Y-80690476D01*
X177714819Y-80690476D02*
X178095771Y-81023809D01*
X178095771Y-81023809D02*
X178095771Y-80880952D01*
X178095771Y-80880952D02*
X178143390Y-80785714D01*
X178143390Y-80785714D02*
X178191009Y-80738095D01*
X178191009Y-80738095D02*
X178286247Y-80690476D01*
X178286247Y-80690476D02*
X178524342Y-80690476D01*
X178524342Y-80690476D02*
X178619580Y-80738095D01*
X178619580Y-80738095D02*
X178667200Y-80785714D01*
X178667200Y-80785714D02*
X178714819Y-80880952D01*
X178714819Y-80880952D02*
X178714819Y-81166666D01*
X178714819Y-81166666D02*
X178667200Y-81261904D01*
X178667200Y-81261904D02*
X178619580Y-81309523D01*
X172704819Y-75916666D02*
X172228628Y-76249999D01*
X172704819Y-76488094D02*
X171704819Y-76488094D01*
X171704819Y-76488094D02*
X171704819Y-76107142D01*
X171704819Y-76107142D02*
X171752438Y-76011904D01*
X171752438Y-76011904D02*
X171800057Y-75964285D01*
X171800057Y-75964285D02*
X171895295Y-75916666D01*
X171895295Y-75916666D02*
X172038152Y-75916666D01*
X172038152Y-75916666D02*
X172133390Y-75964285D01*
X172133390Y-75964285D02*
X172181009Y-76011904D01*
X172181009Y-76011904D02*
X172228628Y-76107142D01*
X172228628Y-76107142D02*
X172228628Y-76488094D01*
X172038152Y-75059523D02*
X172704819Y-75059523D01*
X171657200Y-75297618D02*
X172371485Y-75535713D01*
X172371485Y-75535713D02*
X172371485Y-74916666D01*
X174266666Y-97454819D02*
X174266666Y-98169104D01*
X174266666Y-98169104D02*
X174219047Y-98311961D01*
X174219047Y-98311961D02*
X174123809Y-98407200D01*
X174123809Y-98407200D02*
X173980952Y-98454819D01*
X173980952Y-98454819D02*
X173885714Y-98454819D01*
X174885714Y-97883390D02*
X174790476Y-97835771D01*
X174790476Y-97835771D02*
X174742857Y-97788152D01*
X174742857Y-97788152D02*
X174695238Y-97692914D01*
X174695238Y-97692914D02*
X174695238Y-97645295D01*
X174695238Y-97645295D02*
X174742857Y-97550057D01*
X174742857Y-97550057D02*
X174790476Y-97502438D01*
X174790476Y-97502438D02*
X174885714Y-97454819D01*
X174885714Y-97454819D02*
X175076190Y-97454819D01*
X175076190Y-97454819D02*
X175171428Y-97502438D01*
X175171428Y-97502438D02*
X175219047Y-97550057D01*
X175219047Y-97550057D02*
X175266666Y-97645295D01*
X175266666Y-97645295D02*
X175266666Y-97692914D01*
X175266666Y-97692914D02*
X175219047Y-97788152D01*
X175219047Y-97788152D02*
X175171428Y-97835771D01*
X175171428Y-97835771D02*
X175076190Y-97883390D01*
X175076190Y-97883390D02*
X174885714Y-97883390D01*
X174885714Y-97883390D02*
X174790476Y-97931009D01*
X174790476Y-97931009D02*
X174742857Y-97978628D01*
X174742857Y-97978628D02*
X174695238Y-98073866D01*
X174695238Y-98073866D02*
X174695238Y-98264342D01*
X174695238Y-98264342D02*
X174742857Y-98359580D01*
X174742857Y-98359580D02*
X174790476Y-98407200D01*
X174790476Y-98407200D02*
X174885714Y-98454819D01*
X174885714Y-98454819D02*
X175076190Y-98454819D01*
X175076190Y-98454819D02*
X175171428Y-98407200D01*
X175171428Y-98407200D02*
X175219047Y-98359580D01*
X175219047Y-98359580D02*
X175266666Y-98264342D01*
X175266666Y-98264342D02*
X175266666Y-98073866D01*
X175266666Y-98073866D02*
X175219047Y-97978628D01*
X175219047Y-97978628D02*
X175171428Y-97931009D01*
X175171428Y-97931009D02*
X175076190Y-97883390D01*
X182857142Y-73454819D02*
X182523809Y-72978628D01*
X182285714Y-73454819D02*
X182285714Y-72454819D01*
X182285714Y-72454819D02*
X182666666Y-72454819D01*
X182666666Y-72454819D02*
X182761904Y-72502438D01*
X182761904Y-72502438D02*
X182809523Y-72550057D01*
X182809523Y-72550057D02*
X182857142Y-72645295D01*
X182857142Y-72645295D02*
X182857142Y-72788152D01*
X182857142Y-72788152D02*
X182809523Y-72883390D01*
X182809523Y-72883390D02*
X182761904Y-72931009D01*
X182761904Y-72931009D02*
X182666666Y-72978628D01*
X182666666Y-72978628D02*
X182285714Y-72978628D01*
X183809523Y-73454819D02*
X183238095Y-73454819D01*
X183523809Y-73454819D02*
X183523809Y-72454819D01*
X183523809Y-72454819D02*
X183428571Y-72597676D01*
X183428571Y-72597676D02*
X183333333Y-72692914D01*
X183333333Y-72692914D02*
X183238095Y-72740533D01*
X184142857Y-72454819D02*
X184761904Y-72454819D01*
X184761904Y-72454819D02*
X184428571Y-72835771D01*
X184428571Y-72835771D02*
X184571428Y-72835771D01*
X184571428Y-72835771D02*
X184666666Y-72883390D01*
X184666666Y-72883390D02*
X184714285Y-72931009D01*
X184714285Y-72931009D02*
X184761904Y-73026247D01*
X184761904Y-73026247D02*
X184761904Y-73264342D01*
X184761904Y-73264342D02*
X184714285Y-73359580D01*
X184714285Y-73359580D02*
X184666666Y-73407200D01*
X184666666Y-73407200D02*
X184571428Y-73454819D01*
X184571428Y-73454819D02*
X184285714Y-73454819D01*
X184285714Y-73454819D02*
X184190476Y-73407200D01*
X184190476Y-73407200D02*
X184142857Y-73359580D01*
X165466666Y-80399819D02*
X165466666Y-81114104D01*
X165466666Y-81114104D02*
X165419047Y-81256961D01*
X165419047Y-81256961D02*
X165323809Y-81352200D01*
X165323809Y-81352200D02*
X165180952Y-81399819D01*
X165180952Y-81399819D02*
X165085714Y-81399819D01*
X166371428Y-80399819D02*
X166180952Y-80399819D01*
X166180952Y-80399819D02*
X166085714Y-80447438D01*
X166085714Y-80447438D02*
X166038095Y-80495057D01*
X166038095Y-80495057D02*
X165942857Y-80637914D01*
X165942857Y-80637914D02*
X165895238Y-80828390D01*
X165895238Y-80828390D02*
X165895238Y-81209342D01*
X165895238Y-81209342D02*
X165942857Y-81304580D01*
X165942857Y-81304580D02*
X165990476Y-81352200D01*
X165990476Y-81352200D02*
X166085714Y-81399819D01*
X166085714Y-81399819D02*
X166276190Y-81399819D01*
X166276190Y-81399819D02*
X166371428Y-81352200D01*
X166371428Y-81352200D02*
X166419047Y-81304580D01*
X166419047Y-81304580D02*
X166466666Y-81209342D01*
X166466666Y-81209342D02*
X166466666Y-80971247D01*
X166466666Y-80971247D02*
X166419047Y-80876009D01*
X166419047Y-80876009D02*
X166371428Y-80828390D01*
X166371428Y-80828390D02*
X166276190Y-80780771D01*
X166276190Y-80780771D02*
X166085714Y-80780771D01*
X166085714Y-80780771D02*
X165990476Y-80828390D01*
X165990476Y-80828390D02*
X165942857Y-80876009D01*
X165942857Y-80876009D02*
X165895238Y-80971247D01*
X194454819Y-68961904D02*
X195264342Y-68961904D01*
X195264342Y-68961904D02*
X195359580Y-68914285D01*
X195359580Y-68914285D02*
X195407200Y-68866666D01*
X195407200Y-68866666D02*
X195454819Y-68771428D01*
X195454819Y-68771428D02*
X195454819Y-68580952D01*
X195454819Y-68580952D02*
X195407200Y-68485714D01*
X195407200Y-68485714D02*
X195359580Y-68438095D01*
X195359580Y-68438095D02*
X195264342Y-68390476D01*
X195264342Y-68390476D02*
X194454819Y-68390476D01*
X194454819Y-68009523D02*
X194454819Y-67342857D01*
X194454819Y-67342857D02*
X195454819Y-67771428D01*
X178373580Y-66428857D02*
X178421200Y-66476476D01*
X178421200Y-66476476D02*
X178468819Y-66619333D01*
X178468819Y-66619333D02*
X178468819Y-66714571D01*
X178468819Y-66714571D02*
X178421200Y-66857428D01*
X178421200Y-66857428D02*
X178325961Y-66952666D01*
X178325961Y-66952666D02*
X178230723Y-67000285D01*
X178230723Y-67000285D02*
X178040247Y-67047904D01*
X178040247Y-67047904D02*
X177897390Y-67047904D01*
X177897390Y-67047904D02*
X177706914Y-67000285D01*
X177706914Y-67000285D02*
X177611676Y-66952666D01*
X177611676Y-66952666D02*
X177516438Y-66857428D01*
X177516438Y-66857428D02*
X177468819Y-66714571D01*
X177468819Y-66714571D02*
X177468819Y-66619333D01*
X177468819Y-66619333D02*
X177516438Y-66476476D01*
X177516438Y-66476476D02*
X177564057Y-66428857D01*
X178468819Y-65476476D02*
X178468819Y-66047904D01*
X178468819Y-65762190D02*
X177468819Y-65762190D01*
X177468819Y-65762190D02*
X177611676Y-65857428D01*
X177611676Y-65857428D02*
X177706914Y-65952666D01*
X177706914Y-65952666D02*
X177754533Y-66047904D01*
X177802152Y-64619333D02*
X178468819Y-64619333D01*
X177421200Y-64857428D02*
X178135485Y-65095523D01*
X178135485Y-65095523D02*
X178135485Y-64476476D01*
X189083333Y-86704819D02*
X188750000Y-86228628D01*
X188511905Y-86704819D02*
X188511905Y-85704819D01*
X188511905Y-85704819D02*
X188892857Y-85704819D01*
X188892857Y-85704819D02*
X188988095Y-85752438D01*
X188988095Y-85752438D02*
X189035714Y-85800057D01*
X189035714Y-85800057D02*
X189083333Y-85895295D01*
X189083333Y-85895295D02*
X189083333Y-86038152D01*
X189083333Y-86038152D02*
X189035714Y-86133390D01*
X189035714Y-86133390D02*
X188988095Y-86181009D01*
X188988095Y-86181009D02*
X188892857Y-86228628D01*
X188892857Y-86228628D02*
X188511905Y-86228628D01*
X189416667Y-85704819D02*
X190083333Y-85704819D01*
X190083333Y-85704819D02*
X189654762Y-86704819D01*
X191109580Y-69142857D02*
X191157200Y-69190476D01*
X191157200Y-69190476D02*
X191204819Y-69333333D01*
X191204819Y-69333333D02*
X191204819Y-69428571D01*
X191204819Y-69428571D02*
X191157200Y-69571428D01*
X191157200Y-69571428D02*
X191061961Y-69666666D01*
X191061961Y-69666666D02*
X190966723Y-69714285D01*
X190966723Y-69714285D02*
X190776247Y-69761904D01*
X190776247Y-69761904D02*
X190633390Y-69761904D01*
X190633390Y-69761904D02*
X190442914Y-69714285D01*
X190442914Y-69714285D02*
X190347676Y-69666666D01*
X190347676Y-69666666D02*
X190252438Y-69571428D01*
X190252438Y-69571428D02*
X190204819Y-69428571D01*
X190204819Y-69428571D02*
X190204819Y-69333333D01*
X190204819Y-69333333D02*
X190252438Y-69190476D01*
X190252438Y-69190476D02*
X190300057Y-69142857D01*
X191204819Y-68190476D02*
X191204819Y-68761904D01*
X191204819Y-68476190D02*
X190204819Y-68476190D01*
X190204819Y-68476190D02*
X190347676Y-68571428D01*
X190347676Y-68571428D02*
X190442914Y-68666666D01*
X190442914Y-68666666D02*
X190490533Y-68761904D01*
X190204819Y-67857142D02*
X190204819Y-67190476D01*
X190204819Y-67190476D02*
X191204819Y-67619047D01*
X165833333Y-64159580D02*
X165785714Y-64207200D01*
X165785714Y-64207200D02*
X165642857Y-64254819D01*
X165642857Y-64254819D02*
X165547619Y-64254819D01*
X165547619Y-64254819D02*
X165404762Y-64207200D01*
X165404762Y-64207200D02*
X165309524Y-64111961D01*
X165309524Y-64111961D02*
X165261905Y-64016723D01*
X165261905Y-64016723D02*
X165214286Y-63826247D01*
X165214286Y-63826247D02*
X165214286Y-63683390D01*
X165214286Y-63683390D02*
X165261905Y-63492914D01*
X165261905Y-63492914D02*
X165309524Y-63397676D01*
X165309524Y-63397676D02*
X165404762Y-63302438D01*
X165404762Y-63302438D02*
X165547619Y-63254819D01*
X165547619Y-63254819D02*
X165642857Y-63254819D01*
X165642857Y-63254819D02*
X165785714Y-63302438D01*
X165785714Y-63302438D02*
X165833333Y-63350057D01*
X166404762Y-63683390D02*
X166309524Y-63635771D01*
X166309524Y-63635771D02*
X166261905Y-63588152D01*
X166261905Y-63588152D02*
X166214286Y-63492914D01*
X166214286Y-63492914D02*
X166214286Y-63445295D01*
X166214286Y-63445295D02*
X166261905Y-63350057D01*
X166261905Y-63350057D02*
X166309524Y-63302438D01*
X166309524Y-63302438D02*
X166404762Y-63254819D01*
X166404762Y-63254819D02*
X166595238Y-63254819D01*
X166595238Y-63254819D02*
X166690476Y-63302438D01*
X166690476Y-63302438D02*
X166738095Y-63350057D01*
X166738095Y-63350057D02*
X166785714Y-63445295D01*
X166785714Y-63445295D02*
X166785714Y-63492914D01*
X166785714Y-63492914D02*
X166738095Y-63588152D01*
X166738095Y-63588152D02*
X166690476Y-63635771D01*
X166690476Y-63635771D02*
X166595238Y-63683390D01*
X166595238Y-63683390D02*
X166404762Y-63683390D01*
X166404762Y-63683390D02*
X166309524Y-63731009D01*
X166309524Y-63731009D02*
X166261905Y-63778628D01*
X166261905Y-63778628D02*
X166214286Y-63873866D01*
X166214286Y-63873866D02*
X166214286Y-64064342D01*
X166214286Y-64064342D02*
X166261905Y-64159580D01*
X166261905Y-64159580D02*
X166309524Y-64207200D01*
X166309524Y-64207200D02*
X166404762Y-64254819D01*
X166404762Y-64254819D02*
X166595238Y-64254819D01*
X166595238Y-64254819D02*
X166690476Y-64207200D01*
X166690476Y-64207200D02*
X166738095Y-64159580D01*
X166738095Y-64159580D02*
X166785714Y-64064342D01*
X166785714Y-64064342D02*
X166785714Y-63873866D01*
X166785714Y-63873866D02*
X166738095Y-63778628D01*
X166738095Y-63778628D02*
X166690476Y-63731009D01*
X166690476Y-63731009D02*
X166595238Y-63683390D01*
X199083333Y-88204819D02*
X198607143Y-88204819D01*
X198607143Y-88204819D02*
X198607143Y-87204819D01*
X199369048Y-87300057D02*
X199416667Y-87252438D01*
X199416667Y-87252438D02*
X199511905Y-87204819D01*
X199511905Y-87204819D02*
X199750000Y-87204819D01*
X199750000Y-87204819D02*
X199845238Y-87252438D01*
X199845238Y-87252438D02*
X199892857Y-87300057D01*
X199892857Y-87300057D02*
X199940476Y-87395295D01*
X199940476Y-87395295D02*
X199940476Y-87490533D01*
X199940476Y-87490533D02*
X199892857Y-87633390D01*
X199892857Y-87633390D02*
X199321429Y-88204819D01*
X199321429Y-88204819D02*
X199940476Y-88204819D01*
X187083333Y-73454819D02*
X186750000Y-72978628D01*
X186511905Y-73454819D02*
X186511905Y-72454819D01*
X186511905Y-72454819D02*
X186892857Y-72454819D01*
X186892857Y-72454819D02*
X186988095Y-72502438D01*
X186988095Y-72502438D02*
X187035714Y-72550057D01*
X187035714Y-72550057D02*
X187083333Y-72645295D01*
X187083333Y-72645295D02*
X187083333Y-72788152D01*
X187083333Y-72788152D02*
X187035714Y-72883390D01*
X187035714Y-72883390D02*
X186988095Y-72931009D01*
X186988095Y-72931009D02*
X186892857Y-72978628D01*
X186892857Y-72978628D02*
X186511905Y-72978628D01*
X187559524Y-73454819D02*
X187750000Y-73454819D01*
X187750000Y-73454819D02*
X187845238Y-73407200D01*
X187845238Y-73407200D02*
X187892857Y-73359580D01*
X187892857Y-73359580D02*
X187988095Y-73216723D01*
X187988095Y-73216723D02*
X188035714Y-73026247D01*
X188035714Y-73026247D02*
X188035714Y-72645295D01*
X188035714Y-72645295D02*
X187988095Y-72550057D01*
X187988095Y-72550057D02*
X187940476Y-72502438D01*
X187940476Y-72502438D02*
X187845238Y-72454819D01*
X187845238Y-72454819D02*
X187654762Y-72454819D01*
X187654762Y-72454819D02*
X187559524Y-72502438D01*
X187559524Y-72502438D02*
X187511905Y-72550057D01*
X187511905Y-72550057D02*
X187464286Y-72645295D01*
X187464286Y-72645295D02*
X187464286Y-72883390D01*
X187464286Y-72883390D02*
X187511905Y-72978628D01*
X187511905Y-72978628D02*
X187559524Y-73026247D01*
X187559524Y-73026247D02*
X187654762Y-73073866D01*
X187654762Y-73073866D02*
X187845238Y-73073866D01*
X187845238Y-73073866D02*
X187940476Y-73026247D01*
X187940476Y-73026247D02*
X187988095Y-72978628D01*
X187988095Y-72978628D02*
X188035714Y-72883390D01*
X191824819Y-83166666D02*
X191348628Y-83499999D01*
X191824819Y-83738094D02*
X190824819Y-83738094D01*
X190824819Y-83738094D02*
X190824819Y-83357142D01*
X190824819Y-83357142D02*
X190872438Y-83261904D01*
X190872438Y-83261904D02*
X190920057Y-83214285D01*
X190920057Y-83214285D02*
X191015295Y-83166666D01*
X191015295Y-83166666D02*
X191158152Y-83166666D01*
X191158152Y-83166666D02*
X191253390Y-83214285D01*
X191253390Y-83214285D02*
X191301009Y-83261904D01*
X191301009Y-83261904D02*
X191348628Y-83357142D01*
X191348628Y-83357142D02*
X191348628Y-83738094D01*
X190824819Y-82309523D02*
X190824819Y-82499999D01*
X190824819Y-82499999D02*
X190872438Y-82595237D01*
X190872438Y-82595237D02*
X190920057Y-82642856D01*
X190920057Y-82642856D02*
X191062914Y-82738094D01*
X191062914Y-82738094D02*
X191253390Y-82785713D01*
X191253390Y-82785713D02*
X191634342Y-82785713D01*
X191634342Y-82785713D02*
X191729580Y-82738094D01*
X191729580Y-82738094D02*
X191777200Y-82690475D01*
X191777200Y-82690475D02*
X191824819Y-82595237D01*
X191824819Y-82595237D02*
X191824819Y-82404761D01*
X191824819Y-82404761D02*
X191777200Y-82309523D01*
X191777200Y-82309523D02*
X191729580Y-82261904D01*
X191729580Y-82261904D02*
X191634342Y-82214285D01*
X191634342Y-82214285D02*
X191396247Y-82214285D01*
X191396247Y-82214285D02*
X191301009Y-82261904D01*
X191301009Y-82261904D02*
X191253390Y-82309523D01*
X191253390Y-82309523D02*
X191205771Y-82404761D01*
X191205771Y-82404761D02*
X191205771Y-82595237D01*
X191205771Y-82595237D02*
X191253390Y-82690475D01*
X191253390Y-82690475D02*
X191301009Y-82738094D01*
X191301009Y-82738094D02*
X191396247Y-82785713D01*
X197607142Y-61954819D02*
X197273809Y-61478628D01*
X197035714Y-61954819D02*
X197035714Y-60954819D01*
X197035714Y-60954819D02*
X197416666Y-60954819D01*
X197416666Y-60954819D02*
X197511904Y-61002438D01*
X197511904Y-61002438D02*
X197559523Y-61050057D01*
X197559523Y-61050057D02*
X197607142Y-61145295D01*
X197607142Y-61145295D02*
X197607142Y-61288152D01*
X197607142Y-61288152D02*
X197559523Y-61383390D01*
X197559523Y-61383390D02*
X197511904Y-61431009D01*
X197511904Y-61431009D02*
X197416666Y-61478628D01*
X197416666Y-61478628D02*
X197035714Y-61478628D01*
X198559523Y-61954819D02*
X197988095Y-61954819D01*
X198273809Y-61954819D02*
X198273809Y-60954819D01*
X198273809Y-60954819D02*
X198178571Y-61097676D01*
X198178571Y-61097676D02*
X198083333Y-61192914D01*
X198083333Y-61192914D02*
X197988095Y-61240533D01*
X199416666Y-60954819D02*
X199226190Y-60954819D01*
X199226190Y-60954819D02*
X199130952Y-61002438D01*
X199130952Y-61002438D02*
X199083333Y-61050057D01*
X199083333Y-61050057D02*
X198988095Y-61192914D01*
X198988095Y-61192914D02*
X198940476Y-61383390D01*
X198940476Y-61383390D02*
X198940476Y-61764342D01*
X198940476Y-61764342D02*
X198988095Y-61859580D01*
X198988095Y-61859580D02*
X199035714Y-61907200D01*
X199035714Y-61907200D02*
X199130952Y-61954819D01*
X199130952Y-61954819D02*
X199321428Y-61954819D01*
X199321428Y-61954819D02*
X199416666Y-61907200D01*
X199416666Y-61907200D02*
X199464285Y-61859580D01*
X199464285Y-61859580D02*
X199511904Y-61764342D01*
X199511904Y-61764342D02*
X199511904Y-61526247D01*
X199511904Y-61526247D02*
X199464285Y-61431009D01*
X199464285Y-61431009D02*
X199416666Y-61383390D01*
X199416666Y-61383390D02*
X199321428Y-61335771D01*
X199321428Y-61335771D02*
X199130952Y-61335771D01*
X199130952Y-61335771D02*
X199035714Y-61383390D01*
X199035714Y-61383390D02*
X198988095Y-61431009D01*
X198988095Y-61431009D02*
X198940476Y-61526247D01*
X186357142Y-62204819D02*
X186023809Y-61728628D01*
X185785714Y-62204819D02*
X185785714Y-61204819D01*
X185785714Y-61204819D02*
X186166666Y-61204819D01*
X186166666Y-61204819D02*
X186261904Y-61252438D01*
X186261904Y-61252438D02*
X186309523Y-61300057D01*
X186309523Y-61300057D02*
X186357142Y-61395295D01*
X186357142Y-61395295D02*
X186357142Y-61538152D01*
X186357142Y-61538152D02*
X186309523Y-61633390D01*
X186309523Y-61633390D02*
X186261904Y-61681009D01*
X186261904Y-61681009D02*
X186166666Y-61728628D01*
X186166666Y-61728628D02*
X185785714Y-61728628D01*
X187309523Y-62204819D02*
X186738095Y-62204819D01*
X187023809Y-62204819D02*
X187023809Y-61204819D01*
X187023809Y-61204819D02*
X186928571Y-61347676D01*
X186928571Y-61347676D02*
X186833333Y-61442914D01*
X186833333Y-61442914D02*
X186738095Y-61490533D01*
X188261904Y-62204819D02*
X187690476Y-62204819D01*
X187976190Y-62204819D02*
X187976190Y-61204819D01*
X187976190Y-61204819D02*
X187880952Y-61347676D01*
X187880952Y-61347676D02*
X187785714Y-61442914D01*
X187785714Y-61442914D02*
X187690476Y-61490533D01*
X204589580Y-91017857D02*
X204637200Y-91065476D01*
X204637200Y-91065476D02*
X204684819Y-91208333D01*
X204684819Y-91208333D02*
X204684819Y-91303571D01*
X204684819Y-91303571D02*
X204637200Y-91446428D01*
X204637200Y-91446428D02*
X204541961Y-91541666D01*
X204541961Y-91541666D02*
X204446723Y-91589285D01*
X204446723Y-91589285D02*
X204256247Y-91636904D01*
X204256247Y-91636904D02*
X204113390Y-91636904D01*
X204113390Y-91636904D02*
X203922914Y-91589285D01*
X203922914Y-91589285D02*
X203827676Y-91541666D01*
X203827676Y-91541666D02*
X203732438Y-91446428D01*
X203732438Y-91446428D02*
X203684819Y-91303571D01*
X203684819Y-91303571D02*
X203684819Y-91208333D01*
X203684819Y-91208333D02*
X203732438Y-91065476D01*
X203732438Y-91065476D02*
X203780057Y-91017857D01*
X203780057Y-90636904D02*
X203732438Y-90589285D01*
X203732438Y-90589285D02*
X203684819Y-90494047D01*
X203684819Y-90494047D02*
X203684819Y-90255952D01*
X203684819Y-90255952D02*
X203732438Y-90160714D01*
X203732438Y-90160714D02*
X203780057Y-90113095D01*
X203780057Y-90113095D02*
X203875295Y-90065476D01*
X203875295Y-90065476D02*
X203970533Y-90065476D01*
X203970533Y-90065476D02*
X204113390Y-90113095D01*
X204113390Y-90113095D02*
X204684819Y-90684523D01*
X204684819Y-90684523D02*
X204684819Y-90065476D01*
X203684819Y-89732142D02*
X203684819Y-89113095D01*
X203684819Y-89113095D02*
X204065771Y-89446428D01*
X204065771Y-89446428D02*
X204065771Y-89303571D01*
X204065771Y-89303571D02*
X204113390Y-89208333D01*
X204113390Y-89208333D02*
X204161009Y-89160714D01*
X204161009Y-89160714D02*
X204256247Y-89113095D01*
X204256247Y-89113095D02*
X204494342Y-89113095D01*
X204494342Y-89113095D02*
X204589580Y-89160714D01*
X204589580Y-89160714D02*
X204637200Y-89208333D01*
X204637200Y-89208333D02*
X204684819Y-89303571D01*
X204684819Y-89303571D02*
X204684819Y-89589285D01*
X204684819Y-89589285D02*
X204637200Y-89684523D01*
X204637200Y-89684523D02*
X204589580Y-89732142D01*
X191084819Y-80966666D02*
X190608628Y-81299999D01*
X191084819Y-81538094D02*
X190084819Y-81538094D01*
X190084819Y-81538094D02*
X190084819Y-81157142D01*
X190084819Y-81157142D02*
X190132438Y-81061904D01*
X190132438Y-81061904D02*
X190180057Y-81014285D01*
X190180057Y-81014285D02*
X190275295Y-80966666D01*
X190275295Y-80966666D02*
X190418152Y-80966666D01*
X190418152Y-80966666D02*
X190513390Y-81014285D01*
X190513390Y-81014285D02*
X190561009Y-81061904D01*
X190561009Y-81061904D02*
X190608628Y-81157142D01*
X190608628Y-81157142D02*
X190608628Y-81538094D01*
X190513390Y-80395237D02*
X190465771Y-80490475D01*
X190465771Y-80490475D02*
X190418152Y-80538094D01*
X190418152Y-80538094D02*
X190322914Y-80585713D01*
X190322914Y-80585713D02*
X190275295Y-80585713D01*
X190275295Y-80585713D02*
X190180057Y-80538094D01*
X190180057Y-80538094D02*
X190132438Y-80490475D01*
X190132438Y-80490475D02*
X190084819Y-80395237D01*
X190084819Y-80395237D02*
X190084819Y-80204761D01*
X190084819Y-80204761D02*
X190132438Y-80109523D01*
X190132438Y-80109523D02*
X190180057Y-80061904D01*
X190180057Y-80061904D02*
X190275295Y-80014285D01*
X190275295Y-80014285D02*
X190322914Y-80014285D01*
X190322914Y-80014285D02*
X190418152Y-80061904D01*
X190418152Y-80061904D02*
X190465771Y-80109523D01*
X190465771Y-80109523D02*
X190513390Y-80204761D01*
X190513390Y-80204761D02*
X190513390Y-80395237D01*
X190513390Y-80395237D02*
X190561009Y-80490475D01*
X190561009Y-80490475D02*
X190608628Y-80538094D01*
X190608628Y-80538094D02*
X190703866Y-80585713D01*
X190703866Y-80585713D02*
X190894342Y-80585713D01*
X190894342Y-80585713D02*
X190989580Y-80538094D01*
X190989580Y-80538094D02*
X191037200Y-80490475D01*
X191037200Y-80490475D02*
X191084819Y-80395237D01*
X191084819Y-80395237D02*
X191084819Y-80204761D01*
X191084819Y-80204761D02*
X191037200Y-80109523D01*
X191037200Y-80109523D02*
X190989580Y-80061904D01*
X190989580Y-80061904D02*
X190894342Y-80014285D01*
X190894342Y-80014285D02*
X190703866Y-80014285D01*
X190703866Y-80014285D02*
X190608628Y-80061904D01*
X190608628Y-80061904D02*
X190561009Y-80109523D01*
X190561009Y-80109523D02*
X190513390Y-80204761D01*
X199857142Y-66704819D02*
X199523809Y-66228628D01*
X199285714Y-66704819D02*
X199285714Y-65704819D01*
X199285714Y-65704819D02*
X199666666Y-65704819D01*
X199666666Y-65704819D02*
X199761904Y-65752438D01*
X199761904Y-65752438D02*
X199809523Y-65800057D01*
X199809523Y-65800057D02*
X199857142Y-65895295D01*
X199857142Y-65895295D02*
X199857142Y-66038152D01*
X199857142Y-66038152D02*
X199809523Y-66133390D01*
X199809523Y-66133390D02*
X199761904Y-66181009D01*
X199761904Y-66181009D02*
X199666666Y-66228628D01*
X199666666Y-66228628D02*
X199285714Y-66228628D01*
X200809523Y-66704819D02*
X200238095Y-66704819D01*
X200523809Y-66704819D02*
X200523809Y-65704819D01*
X200523809Y-65704819D02*
X200428571Y-65847676D01*
X200428571Y-65847676D02*
X200333333Y-65942914D01*
X200333333Y-65942914D02*
X200238095Y-65990533D01*
X201714285Y-65704819D02*
X201238095Y-65704819D01*
X201238095Y-65704819D02*
X201190476Y-66181009D01*
X201190476Y-66181009D02*
X201238095Y-66133390D01*
X201238095Y-66133390D02*
X201333333Y-66085771D01*
X201333333Y-66085771D02*
X201571428Y-66085771D01*
X201571428Y-66085771D02*
X201666666Y-66133390D01*
X201666666Y-66133390D02*
X201714285Y-66181009D01*
X201714285Y-66181009D02*
X201761904Y-66276247D01*
X201761904Y-66276247D02*
X201761904Y-66514342D01*
X201761904Y-66514342D02*
X201714285Y-66609580D01*
X201714285Y-66609580D02*
X201666666Y-66657200D01*
X201666666Y-66657200D02*
X201571428Y-66704819D01*
X201571428Y-66704819D02*
X201333333Y-66704819D01*
X201333333Y-66704819D02*
X201238095Y-66657200D01*
X201238095Y-66657200D02*
X201190476Y-66609580D01*
X169824819Y-78366666D02*
X169348628Y-78699999D01*
X169824819Y-78938094D02*
X168824819Y-78938094D01*
X168824819Y-78938094D02*
X168824819Y-78557142D01*
X168824819Y-78557142D02*
X168872438Y-78461904D01*
X168872438Y-78461904D02*
X168920057Y-78414285D01*
X168920057Y-78414285D02*
X169015295Y-78366666D01*
X169015295Y-78366666D02*
X169158152Y-78366666D01*
X169158152Y-78366666D02*
X169253390Y-78414285D01*
X169253390Y-78414285D02*
X169301009Y-78461904D01*
X169301009Y-78461904D02*
X169348628Y-78557142D01*
X169348628Y-78557142D02*
X169348628Y-78938094D01*
X169824819Y-77414285D02*
X169824819Y-77985713D01*
X169824819Y-77699999D02*
X168824819Y-77699999D01*
X168824819Y-77699999D02*
X168967676Y-77795237D01*
X168967676Y-77795237D02*
X169062914Y-77890475D01*
X169062914Y-77890475D02*
X169110533Y-77985713D01*
X194857142Y-89289580D02*
X194809523Y-89337200D01*
X194809523Y-89337200D02*
X194666666Y-89384819D01*
X194666666Y-89384819D02*
X194571428Y-89384819D01*
X194571428Y-89384819D02*
X194428571Y-89337200D01*
X194428571Y-89337200D02*
X194333333Y-89241961D01*
X194333333Y-89241961D02*
X194285714Y-89146723D01*
X194285714Y-89146723D02*
X194238095Y-88956247D01*
X194238095Y-88956247D02*
X194238095Y-88813390D01*
X194238095Y-88813390D02*
X194285714Y-88622914D01*
X194285714Y-88622914D02*
X194333333Y-88527676D01*
X194333333Y-88527676D02*
X194428571Y-88432438D01*
X194428571Y-88432438D02*
X194571428Y-88384819D01*
X194571428Y-88384819D02*
X194666666Y-88384819D01*
X194666666Y-88384819D02*
X194809523Y-88432438D01*
X194809523Y-88432438D02*
X194857142Y-88480057D01*
X195809523Y-89384819D02*
X195238095Y-89384819D01*
X195523809Y-89384819D02*
X195523809Y-88384819D01*
X195523809Y-88384819D02*
X195428571Y-88527676D01*
X195428571Y-88527676D02*
X195333333Y-88622914D01*
X195333333Y-88622914D02*
X195238095Y-88670533D01*
X196285714Y-89384819D02*
X196476190Y-89384819D01*
X196476190Y-89384819D02*
X196571428Y-89337200D01*
X196571428Y-89337200D02*
X196619047Y-89289580D01*
X196619047Y-89289580D02*
X196714285Y-89146723D01*
X196714285Y-89146723D02*
X196761904Y-88956247D01*
X196761904Y-88956247D02*
X196761904Y-88575295D01*
X196761904Y-88575295D02*
X196714285Y-88480057D01*
X196714285Y-88480057D02*
X196666666Y-88432438D01*
X196666666Y-88432438D02*
X196571428Y-88384819D01*
X196571428Y-88384819D02*
X196380952Y-88384819D01*
X196380952Y-88384819D02*
X196285714Y-88432438D01*
X196285714Y-88432438D02*
X196238095Y-88480057D01*
X196238095Y-88480057D02*
X196190476Y-88575295D01*
X196190476Y-88575295D02*
X196190476Y-88813390D01*
X196190476Y-88813390D02*
X196238095Y-88908628D01*
X196238095Y-88908628D02*
X196285714Y-88956247D01*
X196285714Y-88956247D02*
X196380952Y-89003866D01*
X196380952Y-89003866D02*
X196571428Y-89003866D01*
X196571428Y-89003866D02*
X196666666Y-88956247D01*
X196666666Y-88956247D02*
X196714285Y-88908628D01*
X196714285Y-88908628D02*
X196761904Y-88813390D01*
X180633333Y-73359580D02*
X180585714Y-73407200D01*
X180585714Y-73407200D02*
X180442857Y-73454819D01*
X180442857Y-73454819D02*
X180347619Y-73454819D01*
X180347619Y-73454819D02*
X180204762Y-73407200D01*
X180204762Y-73407200D02*
X180109524Y-73311961D01*
X180109524Y-73311961D02*
X180061905Y-73216723D01*
X180061905Y-73216723D02*
X180014286Y-73026247D01*
X180014286Y-73026247D02*
X180014286Y-72883390D01*
X180014286Y-72883390D02*
X180061905Y-72692914D01*
X180061905Y-72692914D02*
X180109524Y-72597676D01*
X180109524Y-72597676D02*
X180204762Y-72502438D01*
X180204762Y-72502438D02*
X180347619Y-72454819D01*
X180347619Y-72454819D02*
X180442857Y-72454819D01*
X180442857Y-72454819D02*
X180585714Y-72502438D01*
X180585714Y-72502438D02*
X180633333Y-72550057D01*
X181490476Y-72454819D02*
X181300000Y-72454819D01*
X181300000Y-72454819D02*
X181204762Y-72502438D01*
X181204762Y-72502438D02*
X181157143Y-72550057D01*
X181157143Y-72550057D02*
X181061905Y-72692914D01*
X181061905Y-72692914D02*
X181014286Y-72883390D01*
X181014286Y-72883390D02*
X181014286Y-73264342D01*
X181014286Y-73264342D02*
X181061905Y-73359580D01*
X181061905Y-73359580D02*
X181109524Y-73407200D01*
X181109524Y-73407200D02*
X181204762Y-73454819D01*
X181204762Y-73454819D02*
X181395238Y-73454819D01*
X181395238Y-73454819D02*
X181490476Y-73407200D01*
X181490476Y-73407200D02*
X181538095Y-73359580D01*
X181538095Y-73359580D02*
X181585714Y-73264342D01*
X181585714Y-73264342D02*
X181585714Y-73026247D01*
X181585714Y-73026247D02*
X181538095Y-72931009D01*
X181538095Y-72931009D02*
X181490476Y-72883390D01*
X181490476Y-72883390D02*
X181395238Y-72835771D01*
X181395238Y-72835771D02*
X181204762Y-72835771D01*
X181204762Y-72835771D02*
X181109524Y-72883390D01*
X181109524Y-72883390D02*
X181061905Y-72931009D01*
X181061905Y-72931009D02*
X181014286Y-73026247D01*
X179833333Y-62109580D02*
X179785714Y-62157200D01*
X179785714Y-62157200D02*
X179642857Y-62204819D01*
X179642857Y-62204819D02*
X179547619Y-62204819D01*
X179547619Y-62204819D02*
X179404762Y-62157200D01*
X179404762Y-62157200D02*
X179309524Y-62061961D01*
X179309524Y-62061961D02*
X179261905Y-61966723D01*
X179261905Y-61966723D02*
X179214286Y-61776247D01*
X179214286Y-61776247D02*
X179214286Y-61633390D01*
X179214286Y-61633390D02*
X179261905Y-61442914D01*
X179261905Y-61442914D02*
X179309524Y-61347676D01*
X179309524Y-61347676D02*
X179404762Y-61252438D01*
X179404762Y-61252438D02*
X179547619Y-61204819D01*
X179547619Y-61204819D02*
X179642857Y-61204819D01*
X179642857Y-61204819D02*
X179785714Y-61252438D01*
X179785714Y-61252438D02*
X179833333Y-61300057D01*
X180166667Y-61204819D02*
X180833333Y-61204819D01*
X180833333Y-61204819D02*
X180404762Y-62204819D01*
X190857142Y-61929580D02*
X190809523Y-61977200D01*
X190809523Y-61977200D02*
X190666666Y-62024819D01*
X190666666Y-62024819D02*
X190571428Y-62024819D01*
X190571428Y-62024819D02*
X190428571Y-61977200D01*
X190428571Y-61977200D02*
X190333333Y-61881961D01*
X190333333Y-61881961D02*
X190285714Y-61786723D01*
X190285714Y-61786723D02*
X190238095Y-61596247D01*
X190238095Y-61596247D02*
X190238095Y-61453390D01*
X190238095Y-61453390D02*
X190285714Y-61262914D01*
X190285714Y-61262914D02*
X190333333Y-61167676D01*
X190333333Y-61167676D02*
X190428571Y-61072438D01*
X190428571Y-61072438D02*
X190571428Y-61024819D01*
X190571428Y-61024819D02*
X190666666Y-61024819D01*
X190666666Y-61024819D02*
X190809523Y-61072438D01*
X190809523Y-61072438D02*
X190857142Y-61120057D01*
X191809523Y-62024819D02*
X191238095Y-62024819D01*
X191523809Y-62024819D02*
X191523809Y-61024819D01*
X191523809Y-61024819D02*
X191428571Y-61167676D01*
X191428571Y-61167676D02*
X191333333Y-61262914D01*
X191333333Y-61262914D02*
X191238095Y-61310533D01*
X192142857Y-61024819D02*
X192761904Y-61024819D01*
X192761904Y-61024819D02*
X192428571Y-61405771D01*
X192428571Y-61405771D02*
X192571428Y-61405771D01*
X192571428Y-61405771D02*
X192666666Y-61453390D01*
X192666666Y-61453390D02*
X192714285Y-61501009D01*
X192714285Y-61501009D02*
X192761904Y-61596247D01*
X192761904Y-61596247D02*
X192761904Y-61834342D01*
X192761904Y-61834342D02*
X192714285Y-61929580D01*
X192714285Y-61929580D02*
X192666666Y-61977200D01*
X192666666Y-61977200D02*
X192571428Y-62024819D01*
X192571428Y-62024819D02*
X192285714Y-62024819D01*
X192285714Y-62024819D02*
X192190476Y-61977200D01*
X192190476Y-61977200D02*
X192142857Y-61929580D01*
X184986333Y-79513580D02*
X184938714Y-79561200D01*
X184938714Y-79561200D02*
X184795857Y-79608819D01*
X184795857Y-79608819D02*
X184700619Y-79608819D01*
X184700619Y-79608819D02*
X184557762Y-79561200D01*
X184557762Y-79561200D02*
X184462524Y-79465961D01*
X184462524Y-79465961D02*
X184414905Y-79370723D01*
X184414905Y-79370723D02*
X184367286Y-79180247D01*
X184367286Y-79180247D02*
X184367286Y-79037390D01*
X184367286Y-79037390D02*
X184414905Y-78846914D01*
X184414905Y-78846914D02*
X184462524Y-78751676D01*
X184462524Y-78751676D02*
X184557762Y-78656438D01*
X184557762Y-78656438D02*
X184700619Y-78608819D01*
X184700619Y-78608819D02*
X184795857Y-78608819D01*
X184795857Y-78608819D02*
X184938714Y-78656438D01*
X184938714Y-78656438D02*
X184986333Y-78704057D01*
X185843476Y-78942152D02*
X185843476Y-79608819D01*
X185605381Y-78561200D02*
X185367286Y-79275485D01*
X185367286Y-79275485D02*
X185986333Y-79275485D01*
X181430333Y-79513580D02*
X181382714Y-79561200D01*
X181382714Y-79561200D02*
X181239857Y-79608819D01*
X181239857Y-79608819D02*
X181144619Y-79608819D01*
X181144619Y-79608819D02*
X181001762Y-79561200D01*
X181001762Y-79561200D02*
X180906524Y-79465961D01*
X180906524Y-79465961D02*
X180858905Y-79370723D01*
X180858905Y-79370723D02*
X180811286Y-79180247D01*
X180811286Y-79180247D02*
X180811286Y-79037390D01*
X180811286Y-79037390D02*
X180858905Y-78846914D01*
X180858905Y-78846914D02*
X180906524Y-78751676D01*
X180906524Y-78751676D02*
X181001762Y-78656438D01*
X181001762Y-78656438D02*
X181144619Y-78608819D01*
X181144619Y-78608819D02*
X181239857Y-78608819D01*
X181239857Y-78608819D02*
X181382714Y-78656438D01*
X181382714Y-78656438D02*
X181430333Y-78704057D01*
X182335095Y-78608819D02*
X181858905Y-78608819D01*
X181858905Y-78608819D02*
X181811286Y-79085009D01*
X181811286Y-79085009D02*
X181858905Y-79037390D01*
X181858905Y-79037390D02*
X181954143Y-78989771D01*
X181954143Y-78989771D02*
X182192238Y-78989771D01*
X182192238Y-78989771D02*
X182287476Y-79037390D01*
X182287476Y-79037390D02*
X182335095Y-79085009D01*
X182335095Y-79085009D02*
X182382714Y-79180247D01*
X182382714Y-79180247D02*
X182382714Y-79418342D01*
X182382714Y-79418342D02*
X182335095Y-79513580D01*
X182335095Y-79513580D02*
X182287476Y-79561200D01*
X182287476Y-79561200D02*
X182192238Y-79608819D01*
X182192238Y-79608819D02*
X181954143Y-79608819D01*
X181954143Y-79608819D02*
X181858905Y-79561200D01*
X181858905Y-79561200D02*
X181811286Y-79513580D01*
X199157142Y-73654819D02*
X198823809Y-73178628D01*
X198585714Y-73654819D02*
X198585714Y-72654819D01*
X198585714Y-72654819D02*
X198966666Y-72654819D01*
X198966666Y-72654819D02*
X199061904Y-72702438D01*
X199061904Y-72702438D02*
X199109523Y-72750057D01*
X199109523Y-72750057D02*
X199157142Y-72845295D01*
X199157142Y-72845295D02*
X199157142Y-72988152D01*
X199157142Y-72988152D02*
X199109523Y-73083390D01*
X199109523Y-73083390D02*
X199061904Y-73131009D01*
X199061904Y-73131009D02*
X198966666Y-73178628D01*
X198966666Y-73178628D02*
X198585714Y-73178628D01*
X200109523Y-73654819D02*
X199538095Y-73654819D01*
X199823809Y-73654819D02*
X199823809Y-72654819D01*
X199823809Y-72654819D02*
X199728571Y-72797676D01*
X199728571Y-72797676D02*
X199633333Y-72892914D01*
X199633333Y-72892914D02*
X199538095Y-72940533D01*
X200966666Y-72988152D02*
X200966666Y-73654819D01*
X200728571Y-72607200D02*
X200490476Y-73321485D01*
X200490476Y-73321485D02*
X201109523Y-73321485D01*
X174954819Y-76166666D02*
X174478628Y-76499999D01*
X174954819Y-76738094D02*
X173954819Y-76738094D01*
X173954819Y-76738094D02*
X173954819Y-76357142D01*
X173954819Y-76357142D02*
X174002438Y-76261904D01*
X174002438Y-76261904D02*
X174050057Y-76214285D01*
X174050057Y-76214285D02*
X174145295Y-76166666D01*
X174145295Y-76166666D02*
X174288152Y-76166666D01*
X174288152Y-76166666D02*
X174383390Y-76214285D01*
X174383390Y-76214285D02*
X174431009Y-76261904D01*
X174431009Y-76261904D02*
X174478628Y-76357142D01*
X174478628Y-76357142D02*
X174478628Y-76738094D01*
X174050057Y-75785713D02*
X174002438Y-75738094D01*
X174002438Y-75738094D02*
X173954819Y-75642856D01*
X173954819Y-75642856D02*
X173954819Y-75404761D01*
X173954819Y-75404761D02*
X174002438Y-75309523D01*
X174002438Y-75309523D02*
X174050057Y-75261904D01*
X174050057Y-75261904D02*
X174145295Y-75214285D01*
X174145295Y-75214285D02*
X174240533Y-75214285D01*
X174240533Y-75214285D02*
X174383390Y-75261904D01*
X174383390Y-75261904D02*
X174954819Y-75833332D01*
X174954819Y-75833332D02*
X174954819Y-75214285D01*
X193557142Y-73759580D02*
X193509523Y-73807200D01*
X193509523Y-73807200D02*
X193366666Y-73854819D01*
X193366666Y-73854819D02*
X193271428Y-73854819D01*
X193271428Y-73854819D02*
X193128571Y-73807200D01*
X193128571Y-73807200D02*
X193033333Y-73711961D01*
X193033333Y-73711961D02*
X192985714Y-73616723D01*
X192985714Y-73616723D02*
X192938095Y-73426247D01*
X192938095Y-73426247D02*
X192938095Y-73283390D01*
X192938095Y-73283390D02*
X192985714Y-73092914D01*
X192985714Y-73092914D02*
X193033333Y-72997676D01*
X193033333Y-72997676D02*
X193128571Y-72902438D01*
X193128571Y-72902438D02*
X193271428Y-72854819D01*
X193271428Y-72854819D02*
X193366666Y-72854819D01*
X193366666Y-72854819D02*
X193509523Y-72902438D01*
X193509523Y-72902438D02*
X193557142Y-72950057D01*
X194509523Y-73854819D02*
X193938095Y-73854819D01*
X194223809Y-73854819D02*
X194223809Y-72854819D01*
X194223809Y-72854819D02*
X194128571Y-72997676D01*
X194128571Y-72997676D02*
X194033333Y-73092914D01*
X194033333Y-73092914D02*
X193938095Y-73140533D01*
X194890476Y-72950057D02*
X194938095Y-72902438D01*
X194938095Y-72902438D02*
X195033333Y-72854819D01*
X195033333Y-72854819D02*
X195271428Y-72854819D01*
X195271428Y-72854819D02*
X195366666Y-72902438D01*
X195366666Y-72902438D02*
X195414285Y-72950057D01*
X195414285Y-72950057D02*
X195461904Y-73045295D01*
X195461904Y-73045295D02*
X195461904Y-73140533D01*
X195461904Y-73140533D02*
X195414285Y-73283390D01*
X195414285Y-73283390D02*
X194842857Y-73854819D01*
X194842857Y-73854819D02*
X195461904Y-73854819D01*
X197109580Y-79642857D02*
X197157200Y-79690476D01*
X197157200Y-79690476D02*
X197204819Y-79833333D01*
X197204819Y-79833333D02*
X197204819Y-79928571D01*
X197204819Y-79928571D02*
X197157200Y-80071428D01*
X197157200Y-80071428D02*
X197061961Y-80166666D01*
X197061961Y-80166666D02*
X196966723Y-80214285D01*
X196966723Y-80214285D02*
X196776247Y-80261904D01*
X196776247Y-80261904D02*
X196633390Y-80261904D01*
X196633390Y-80261904D02*
X196442914Y-80214285D01*
X196442914Y-80214285D02*
X196347676Y-80166666D01*
X196347676Y-80166666D02*
X196252438Y-80071428D01*
X196252438Y-80071428D02*
X196204819Y-79928571D01*
X196204819Y-79928571D02*
X196204819Y-79833333D01*
X196204819Y-79833333D02*
X196252438Y-79690476D01*
X196252438Y-79690476D02*
X196300057Y-79642857D01*
X197204819Y-78690476D02*
X197204819Y-79261904D01*
X197204819Y-78976190D02*
X196204819Y-78976190D01*
X196204819Y-78976190D02*
X196347676Y-79071428D01*
X196347676Y-79071428D02*
X196442914Y-79166666D01*
X196442914Y-79166666D02*
X196490533Y-79261904D01*
X196204819Y-78071428D02*
X196204819Y-77976190D01*
X196204819Y-77976190D02*
X196252438Y-77880952D01*
X196252438Y-77880952D02*
X196300057Y-77833333D01*
X196300057Y-77833333D02*
X196395295Y-77785714D01*
X196395295Y-77785714D02*
X196585771Y-77738095D01*
X196585771Y-77738095D02*
X196823866Y-77738095D01*
X196823866Y-77738095D02*
X197014342Y-77785714D01*
X197014342Y-77785714D02*
X197109580Y-77833333D01*
X197109580Y-77833333D02*
X197157200Y-77880952D01*
X197157200Y-77880952D02*
X197204819Y-77976190D01*
X197204819Y-77976190D02*
X197204819Y-78071428D01*
X197204819Y-78071428D02*
X197157200Y-78166666D01*
X197157200Y-78166666D02*
X197109580Y-78214285D01*
X197109580Y-78214285D02*
X197014342Y-78261904D01*
X197014342Y-78261904D02*
X196823866Y-78309523D01*
X196823866Y-78309523D02*
X196585771Y-78309523D01*
X196585771Y-78309523D02*
X196395295Y-78261904D01*
X196395295Y-78261904D02*
X196300057Y-78214285D01*
X196300057Y-78214285D02*
X196252438Y-78166666D01*
X196252438Y-78166666D02*
X196204819Y-78071428D01*
X168357142Y-92609580D02*
X168309523Y-92657200D01*
X168309523Y-92657200D02*
X168166666Y-92704819D01*
X168166666Y-92704819D02*
X168071428Y-92704819D01*
X168071428Y-92704819D02*
X167928571Y-92657200D01*
X167928571Y-92657200D02*
X167833333Y-92561961D01*
X167833333Y-92561961D02*
X167785714Y-92466723D01*
X167785714Y-92466723D02*
X167738095Y-92276247D01*
X167738095Y-92276247D02*
X167738095Y-92133390D01*
X167738095Y-92133390D02*
X167785714Y-91942914D01*
X167785714Y-91942914D02*
X167833333Y-91847676D01*
X167833333Y-91847676D02*
X167928571Y-91752438D01*
X167928571Y-91752438D02*
X168071428Y-91704819D01*
X168071428Y-91704819D02*
X168166666Y-91704819D01*
X168166666Y-91704819D02*
X168309523Y-91752438D01*
X168309523Y-91752438D02*
X168357142Y-91800057D01*
X168738095Y-91800057D02*
X168785714Y-91752438D01*
X168785714Y-91752438D02*
X168880952Y-91704819D01*
X168880952Y-91704819D02*
X169119047Y-91704819D01*
X169119047Y-91704819D02*
X169214285Y-91752438D01*
X169214285Y-91752438D02*
X169261904Y-91800057D01*
X169261904Y-91800057D02*
X169309523Y-91895295D01*
X169309523Y-91895295D02*
X169309523Y-91990533D01*
X169309523Y-91990533D02*
X169261904Y-92133390D01*
X169261904Y-92133390D02*
X168690476Y-92704819D01*
X168690476Y-92704819D02*
X169309523Y-92704819D01*
X170261904Y-92704819D02*
X169690476Y-92704819D01*
X169976190Y-92704819D02*
X169976190Y-91704819D01*
X169976190Y-91704819D02*
X169880952Y-91847676D01*
X169880952Y-91847676D02*
X169785714Y-91942914D01*
X169785714Y-91942914D02*
X169690476Y-91990533D01*
X176208333Y-81884819D02*
X175875000Y-81408628D01*
X175636905Y-81884819D02*
X175636905Y-80884819D01*
X175636905Y-80884819D02*
X176017857Y-80884819D01*
X176017857Y-80884819D02*
X176113095Y-80932438D01*
X176113095Y-80932438D02*
X176160714Y-80980057D01*
X176160714Y-80980057D02*
X176208333Y-81075295D01*
X176208333Y-81075295D02*
X176208333Y-81218152D01*
X176208333Y-81218152D02*
X176160714Y-81313390D01*
X176160714Y-81313390D02*
X176113095Y-81361009D01*
X176113095Y-81361009D02*
X176017857Y-81408628D01*
X176017857Y-81408628D02*
X175636905Y-81408628D01*
X176541667Y-80884819D02*
X177160714Y-80884819D01*
X177160714Y-80884819D02*
X176827381Y-81265771D01*
X176827381Y-81265771D02*
X176970238Y-81265771D01*
X176970238Y-81265771D02*
X177065476Y-81313390D01*
X177065476Y-81313390D02*
X177113095Y-81361009D01*
X177113095Y-81361009D02*
X177160714Y-81456247D01*
X177160714Y-81456247D02*
X177160714Y-81694342D01*
X177160714Y-81694342D02*
X177113095Y-81789580D01*
X177113095Y-81789580D02*
X177065476Y-81837200D01*
X177065476Y-81837200D02*
X176970238Y-81884819D01*
X176970238Y-81884819D02*
X176684524Y-81884819D01*
X176684524Y-81884819D02*
X176589286Y-81837200D01*
X176589286Y-81837200D02*
X176541667Y-81789580D01*
X176809580Y-84892857D02*
X176857200Y-84940476D01*
X176857200Y-84940476D02*
X176904819Y-85083333D01*
X176904819Y-85083333D02*
X176904819Y-85178571D01*
X176904819Y-85178571D02*
X176857200Y-85321428D01*
X176857200Y-85321428D02*
X176761961Y-85416666D01*
X176761961Y-85416666D02*
X176666723Y-85464285D01*
X176666723Y-85464285D02*
X176476247Y-85511904D01*
X176476247Y-85511904D02*
X176333390Y-85511904D01*
X176333390Y-85511904D02*
X176142914Y-85464285D01*
X176142914Y-85464285D02*
X176047676Y-85416666D01*
X176047676Y-85416666D02*
X175952438Y-85321428D01*
X175952438Y-85321428D02*
X175904819Y-85178571D01*
X175904819Y-85178571D02*
X175904819Y-85083333D01*
X175904819Y-85083333D02*
X175952438Y-84940476D01*
X175952438Y-84940476D02*
X176000057Y-84892857D01*
X176904819Y-83940476D02*
X176904819Y-84511904D01*
X176904819Y-84226190D02*
X175904819Y-84226190D01*
X175904819Y-84226190D02*
X176047676Y-84321428D01*
X176047676Y-84321428D02*
X176142914Y-84416666D01*
X176142914Y-84416666D02*
X176190533Y-84511904D01*
X175904819Y-83083333D02*
X175904819Y-83273809D01*
X175904819Y-83273809D02*
X175952438Y-83369047D01*
X175952438Y-83369047D02*
X176000057Y-83416666D01*
X176000057Y-83416666D02*
X176142914Y-83511904D01*
X176142914Y-83511904D02*
X176333390Y-83559523D01*
X176333390Y-83559523D02*
X176714342Y-83559523D01*
X176714342Y-83559523D02*
X176809580Y-83511904D01*
X176809580Y-83511904D02*
X176857200Y-83464285D01*
X176857200Y-83464285D02*
X176904819Y-83369047D01*
X176904819Y-83369047D02*
X176904819Y-83178571D01*
X176904819Y-83178571D02*
X176857200Y-83083333D01*
X176857200Y-83083333D02*
X176809580Y-83035714D01*
X176809580Y-83035714D02*
X176714342Y-82988095D01*
X176714342Y-82988095D02*
X176476247Y-82988095D01*
X176476247Y-82988095D02*
X176381009Y-83035714D01*
X176381009Y-83035714D02*
X176333390Y-83083333D01*
X176333390Y-83083333D02*
X176285771Y-83178571D01*
X176285771Y-83178571D02*
X176285771Y-83369047D01*
X176285771Y-83369047D02*
X176333390Y-83464285D01*
X176333390Y-83464285D02*
X176381009Y-83511904D01*
X176381009Y-83511904D02*
X176476247Y-83559523D01*
X194179580Y-79642857D02*
X194227200Y-79690476D01*
X194227200Y-79690476D02*
X194274819Y-79833333D01*
X194274819Y-79833333D02*
X194274819Y-79928571D01*
X194274819Y-79928571D02*
X194227200Y-80071428D01*
X194227200Y-80071428D02*
X194131961Y-80166666D01*
X194131961Y-80166666D02*
X194036723Y-80214285D01*
X194036723Y-80214285D02*
X193846247Y-80261904D01*
X193846247Y-80261904D02*
X193703390Y-80261904D01*
X193703390Y-80261904D02*
X193512914Y-80214285D01*
X193512914Y-80214285D02*
X193417676Y-80166666D01*
X193417676Y-80166666D02*
X193322438Y-80071428D01*
X193322438Y-80071428D02*
X193274819Y-79928571D01*
X193274819Y-79928571D02*
X193274819Y-79833333D01*
X193274819Y-79833333D02*
X193322438Y-79690476D01*
X193322438Y-79690476D02*
X193370057Y-79642857D01*
X194274819Y-78690476D02*
X194274819Y-79261904D01*
X194274819Y-78976190D02*
X193274819Y-78976190D01*
X193274819Y-78976190D02*
X193417676Y-79071428D01*
X193417676Y-79071428D02*
X193512914Y-79166666D01*
X193512914Y-79166666D02*
X193560533Y-79261904D01*
X194274819Y-77738095D02*
X194274819Y-78309523D01*
X194274819Y-78023809D02*
X193274819Y-78023809D01*
X193274819Y-78023809D02*
X193417676Y-78119047D01*
X193417676Y-78119047D02*
X193512914Y-78214285D01*
X193512914Y-78214285D02*
X193560533Y-78309523D01*
X205254819Y-70788094D02*
X204254819Y-70788094D01*
X204254819Y-70788094D02*
X204254819Y-70549999D01*
X204254819Y-70549999D02*
X204302438Y-70407142D01*
X204302438Y-70407142D02*
X204397676Y-70311904D01*
X204397676Y-70311904D02*
X204492914Y-70264285D01*
X204492914Y-70264285D02*
X204683390Y-70216666D01*
X204683390Y-70216666D02*
X204826247Y-70216666D01*
X204826247Y-70216666D02*
X205016723Y-70264285D01*
X205016723Y-70264285D02*
X205111961Y-70311904D01*
X205111961Y-70311904D02*
X205207200Y-70407142D01*
X205207200Y-70407142D02*
X205254819Y-70549999D01*
X205254819Y-70549999D02*
X205254819Y-70788094D01*
X205254819Y-69264285D02*
X205254819Y-69835713D01*
X205254819Y-69549999D02*
X204254819Y-69549999D01*
X204254819Y-69549999D02*
X204397676Y-69645237D01*
X204397676Y-69645237D02*
X204492914Y-69740475D01*
X204492914Y-69740475D02*
X204540533Y-69835713D01*
X196433333Y-73759580D02*
X196385714Y-73807200D01*
X196385714Y-73807200D02*
X196242857Y-73854819D01*
X196242857Y-73854819D02*
X196147619Y-73854819D01*
X196147619Y-73854819D02*
X196004762Y-73807200D01*
X196004762Y-73807200D02*
X195909524Y-73711961D01*
X195909524Y-73711961D02*
X195861905Y-73616723D01*
X195861905Y-73616723D02*
X195814286Y-73426247D01*
X195814286Y-73426247D02*
X195814286Y-73283390D01*
X195814286Y-73283390D02*
X195861905Y-73092914D01*
X195861905Y-73092914D02*
X195909524Y-72997676D01*
X195909524Y-72997676D02*
X196004762Y-72902438D01*
X196004762Y-72902438D02*
X196147619Y-72854819D01*
X196147619Y-72854819D02*
X196242857Y-72854819D01*
X196242857Y-72854819D02*
X196385714Y-72902438D01*
X196385714Y-72902438D02*
X196433333Y-72950057D01*
X196909524Y-73854819D02*
X197100000Y-73854819D01*
X197100000Y-73854819D02*
X197195238Y-73807200D01*
X197195238Y-73807200D02*
X197242857Y-73759580D01*
X197242857Y-73759580D02*
X197338095Y-73616723D01*
X197338095Y-73616723D02*
X197385714Y-73426247D01*
X197385714Y-73426247D02*
X197385714Y-73045295D01*
X197385714Y-73045295D02*
X197338095Y-72950057D01*
X197338095Y-72950057D02*
X197290476Y-72902438D01*
X197290476Y-72902438D02*
X197195238Y-72854819D01*
X197195238Y-72854819D02*
X197004762Y-72854819D01*
X197004762Y-72854819D02*
X196909524Y-72902438D01*
X196909524Y-72902438D02*
X196861905Y-72950057D01*
X196861905Y-72950057D02*
X196814286Y-73045295D01*
X196814286Y-73045295D02*
X196814286Y-73283390D01*
X196814286Y-73283390D02*
X196861905Y-73378628D01*
X196861905Y-73378628D02*
X196909524Y-73426247D01*
X196909524Y-73426247D02*
X197004762Y-73473866D01*
X197004762Y-73473866D02*
X197195238Y-73473866D01*
X197195238Y-73473866D02*
X197290476Y-73426247D01*
X197290476Y-73426247D02*
X197338095Y-73378628D01*
X197338095Y-73378628D02*
X197385714Y-73283390D01*
X182936142Y-62204819D02*
X182602809Y-61728628D01*
X182364714Y-62204819D02*
X182364714Y-61204819D01*
X182364714Y-61204819D02*
X182745666Y-61204819D01*
X182745666Y-61204819D02*
X182840904Y-61252438D01*
X182840904Y-61252438D02*
X182888523Y-61300057D01*
X182888523Y-61300057D02*
X182936142Y-61395295D01*
X182936142Y-61395295D02*
X182936142Y-61538152D01*
X182936142Y-61538152D02*
X182888523Y-61633390D01*
X182888523Y-61633390D02*
X182840904Y-61681009D01*
X182840904Y-61681009D02*
X182745666Y-61728628D01*
X182745666Y-61728628D02*
X182364714Y-61728628D01*
X183888523Y-62204819D02*
X183317095Y-62204819D01*
X183602809Y-62204819D02*
X183602809Y-61204819D01*
X183602809Y-61204819D02*
X183507571Y-61347676D01*
X183507571Y-61347676D02*
X183412333Y-61442914D01*
X183412333Y-61442914D02*
X183317095Y-61490533D01*
X184269476Y-61300057D02*
X184317095Y-61252438D01*
X184317095Y-61252438D02*
X184412333Y-61204819D01*
X184412333Y-61204819D02*
X184650428Y-61204819D01*
X184650428Y-61204819D02*
X184745666Y-61252438D01*
X184745666Y-61252438D02*
X184793285Y-61300057D01*
X184793285Y-61300057D02*
X184840904Y-61395295D01*
X184840904Y-61395295D02*
X184840904Y-61490533D01*
X184840904Y-61490533D02*
X184793285Y-61633390D01*
X184793285Y-61633390D02*
X184221857Y-62204819D01*
X184221857Y-62204819D02*
X184840904Y-62204819D01*
X200583333Y-83704819D02*
X200107143Y-83704819D01*
X200107143Y-83704819D02*
X200107143Y-82704819D01*
X201440476Y-83704819D02*
X200869048Y-83704819D01*
X201154762Y-83704819D02*
X201154762Y-82704819D01*
X201154762Y-82704819D02*
X201059524Y-82847676D01*
X201059524Y-82847676D02*
X200964286Y-82942914D01*
X200964286Y-82942914D02*
X200869048Y-82990533D01*
X162154819Y-85984523D02*
X162869104Y-85984523D01*
X162869104Y-85984523D02*
X163011961Y-86032142D01*
X163011961Y-86032142D02*
X163107200Y-86127380D01*
X163107200Y-86127380D02*
X163154819Y-86270237D01*
X163154819Y-86270237D02*
X163154819Y-86365475D01*
X163154819Y-84984523D02*
X163154819Y-85555951D01*
X163154819Y-85270237D02*
X162154819Y-85270237D01*
X162154819Y-85270237D02*
X162297676Y-85365475D01*
X162297676Y-85365475D02*
X162392914Y-85460713D01*
X162392914Y-85460713D02*
X162440533Y-85555951D01*
X162154819Y-84651189D02*
X162154819Y-84032142D01*
X162154819Y-84032142D02*
X162535771Y-84365475D01*
X162535771Y-84365475D02*
X162535771Y-84222618D01*
X162535771Y-84222618D02*
X162583390Y-84127380D01*
X162583390Y-84127380D02*
X162631009Y-84079761D01*
X162631009Y-84079761D02*
X162726247Y-84032142D01*
X162726247Y-84032142D02*
X162964342Y-84032142D01*
X162964342Y-84032142D02*
X163059580Y-84079761D01*
X163059580Y-84079761D02*
X163107200Y-84127380D01*
X163107200Y-84127380D02*
X163154819Y-84222618D01*
X163154819Y-84222618D02*
X163154819Y-84508332D01*
X163154819Y-84508332D02*
X163107200Y-84603570D01*
X163107200Y-84603570D02*
X163059580Y-84651189D01*
X188704819Y-68892857D02*
X188228628Y-69226190D01*
X188704819Y-69464285D02*
X187704819Y-69464285D01*
X187704819Y-69464285D02*
X187704819Y-69083333D01*
X187704819Y-69083333D02*
X187752438Y-68988095D01*
X187752438Y-68988095D02*
X187800057Y-68940476D01*
X187800057Y-68940476D02*
X187895295Y-68892857D01*
X187895295Y-68892857D02*
X188038152Y-68892857D01*
X188038152Y-68892857D02*
X188133390Y-68940476D01*
X188133390Y-68940476D02*
X188181009Y-68988095D01*
X188181009Y-68988095D02*
X188228628Y-69083333D01*
X188228628Y-69083333D02*
X188228628Y-69464285D01*
X188704819Y-67940476D02*
X188704819Y-68511904D01*
X188704819Y-68226190D02*
X187704819Y-68226190D01*
X187704819Y-68226190D02*
X187847676Y-68321428D01*
X187847676Y-68321428D02*
X187942914Y-68416666D01*
X187942914Y-68416666D02*
X187990533Y-68511904D01*
X187704819Y-67321428D02*
X187704819Y-67226190D01*
X187704819Y-67226190D02*
X187752438Y-67130952D01*
X187752438Y-67130952D02*
X187800057Y-67083333D01*
X187800057Y-67083333D02*
X187895295Y-67035714D01*
X187895295Y-67035714D02*
X188085771Y-66988095D01*
X188085771Y-66988095D02*
X188323866Y-66988095D01*
X188323866Y-66988095D02*
X188514342Y-67035714D01*
X188514342Y-67035714D02*
X188609580Y-67083333D01*
X188609580Y-67083333D02*
X188657200Y-67130952D01*
X188657200Y-67130952D02*
X188704819Y-67226190D01*
X188704819Y-67226190D02*
X188704819Y-67321428D01*
X188704819Y-67321428D02*
X188657200Y-67416666D01*
X188657200Y-67416666D02*
X188609580Y-67464285D01*
X188609580Y-67464285D02*
X188514342Y-67511904D01*
X188514342Y-67511904D02*
X188323866Y-67559523D01*
X188323866Y-67559523D02*
X188085771Y-67559523D01*
X188085771Y-67559523D02*
X187895295Y-67511904D01*
X187895295Y-67511904D02*
X187800057Y-67464285D01*
X187800057Y-67464285D02*
X187752438Y-67416666D01*
X187752438Y-67416666D02*
X187704819Y-67321428D01*
X172109580Y-89916666D02*
X172157200Y-89964285D01*
X172157200Y-89964285D02*
X172204819Y-90107142D01*
X172204819Y-90107142D02*
X172204819Y-90202380D01*
X172204819Y-90202380D02*
X172157200Y-90345237D01*
X172157200Y-90345237D02*
X172061961Y-90440475D01*
X172061961Y-90440475D02*
X171966723Y-90488094D01*
X171966723Y-90488094D02*
X171776247Y-90535713D01*
X171776247Y-90535713D02*
X171633390Y-90535713D01*
X171633390Y-90535713D02*
X171442914Y-90488094D01*
X171442914Y-90488094D02*
X171347676Y-90440475D01*
X171347676Y-90440475D02*
X171252438Y-90345237D01*
X171252438Y-90345237D02*
X171204819Y-90202380D01*
X171204819Y-90202380D02*
X171204819Y-90107142D01*
X171204819Y-90107142D02*
X171252438Y-89964285D01*
X171252438Y-89964285D02*
X171300057Y-89916666D01*
X171300057Y-89535713D02*
X171252438Y-89488094D01*
X171252438Y-89488094D02*
X171204819Y-89392856D01*
X171204819Y-89392856D02*
X171204819Y-89154761D01*
X171204819Y-89154761D02*
X171252438Y-89059523D01*
X171252438Y-89059523D02*
X171300057Y-89011904D01*
X171300057Y-89011904D02*
X171395295Y-88964285D01*
X171395295Y-88964285D02*
X171490533Y-88964285D01*
X171490533Y-88964285D02*
X171633390Y-89011904D01*
X171633390Y-89011904D02*
X172204819Y-89583332D01*
X172204819Y-89583332D02*
X172204819Y-88964285D01*
D11*
%TO.C,U2*%
X178565000Y-94200000D02*
X178565000Y-97650000D01*
X178565000Y-94200000D02*
X178565000Y-92250000D01*
X187435000Y-94200000D02*
X187435000Y-96150000D01*
X187435000Y-94200000D02*
X187435000Y-92250000D01*
%TO.C,RV1*%
X165629000Y-90979000D02*
X165629000Y-92074000D01*
X165629000Y-90979000D02*
X170670000Y-90979000D01*
X165629000Y-94926000D02*
X165629000Y-97075000D01*
X165629000Y-94926000D02*
X165629000Y-97075000D01*
X165629000Y-99925000D02*
X165629000Y-101020000D01*
X165629000Y-101020000D02*
X170670000Y-101020000D01*
X166987000Y-94380000D02*
X170670000Y-94380000D01*
X166987000Y-97620000D02*
X170670000Y-97620000D01*
X170670000Y-90979000D02*
X170670000Y-94575000D01*
X170670000Y-94380000D02*
X170670000Y-94575000D01*
X170670000Y-97425000D02*
X170670000Y-97620000D01*
X170670000Y-97425000D02*
X170670000Y-101020000D01*
D10*
%TO.C,U1*%
X175675000Y-84125000D02*
X175450000Y-84125000D01*
X175675000Y-84125000D02*
X175675000Y-87475000D01*
X175450000Y-84125000D02*
X175450000Y-82900000D01*
X172325000Y-84125000D02*
X172625000Y-84125000D01*
X172325000Y-84125000D02*
X172325000Y-87475000D01*
X175675000Y-87475000D02*
X175375000Y-87475000D01*
X172325000Y-87475000D02*
X172625000Y-87475000D01*
D11*
%TO.C,C22*%
X202290000Y-87140580D02*
X202290000Y-86859420D01*
X203310000Y-87140580D02*
X203310000Y-86859420D01*
%TO.C,C18*%
X164746000Y-73120000D02*
X165451000Y-73120000D01*
X164746000Y-73120000D02*
X164746000Y-68880000D01*
X166781000Y-73120000D02*
X167486000Y-73120000D01*
X167486000Y-73120000D02*
X167486000Y-68880000D01*
X164746000Y-68880000D02*
X165451000Y-68880000D01*
X166781000Y-68880000D02*
X167486000Y-68880000D01*
%TO.C,C20*%
X177910000Y-92659420D02*
X177910000Y-92940580D01*
X176890000Y-92659420D02*
X176890000Y-92940580D01*
%TO.C,Q1*%
X194190000Y-83937500D02*
X194190000Y-85612500D01*
X194190000Y-83937500D02*
X194190000Y-83287500D01*
X197310000Y-83937500D02*
X197310000Y-84587500D01*
X197310000Y-83937500D02*
X197310000Y-83287500D01*
%TO.C,C15*%
X179326000Y-68706420D02*
X179326000Y-68987580D01*
X178306000Y-68706420D02*
X178306000Y-68987580D01*
%TO.C,R18*%
X194041500Y-75929258D02*
X194041500Y-75454742D01*
X195086500Y-75929258D02*
X195086500Y-75454742D01*
%TO.C,C3*%
X184402000Y-75324580D02*
X184402000Y-75043420D01*
X185422000Y-75324580D02*
X185422000Y-75043420D01*
%TO.C,J1*%
X203040000Y-79200000D02*
X203040000Y-78090000D01*
X206750000Y-79200000D02*
X206750000Y-78090000D01*
X201990000Y-77500000D02*
X202490000Y-77250000D01*
X202490000Y-77250000D02*
X201990000Y-77000000D01*
X201990000Y-77000000D02*
X201990000Y-77500000D01*
X203040000Y-76410000D02*
X203040000Y-75300000D01*
X206750000Y-76410000D02*
X206750000Y-75300000D01*
%TO.C,R17*%
X195237258Y-63768500D02*
X194762742Y-63768500D01*
X195237258Y-62723500D02*
X194762742Y-62723500D01*
D12*
%TO.C,Y1*%
X171550000Y-82000000D02*
X171550000Y-88000000D01*
X168050000Y-82000000D02*
X168050000Y-88000000D01*
D11*
%TO.C,U5*%
X180320000Y-68580000D02*
X180320000Y-72030000D01*
X180320000Y-68580000D02*
X180320000Y-66630000D01*
X185440000Y-68580000D02*
X185440000Y-70530000D01*
X185440000Y-68580000D02*
X185440000Y-66630000D01*
%TO.C,R5*%
X166195742Y-75677500D02*
X166670258Y-75677500D01*
X166195742Y-76722500D02*
X166670258Y-76722500D01*
%TO.C,D2*%
X203500000Y-67640000D02*
X201500000Y-67640000D01*
X203500000Y-67640000D02*
X203500000Y-71650000D01*
X201500000Y-67640000D02*
X201500000Y-71650000D01*
%TO.C,C1*%
X164172000Y-80110000D02*
X164172000Y-79405000D01*
X164172000Y-80110000D02*
X159932000Y-80110000D01*
X164172000Y-78075000D02*
X164172000Y-77370000D01*
X164172000Y-77370000D02*
X159932000Y-77370000D01*
X159932000Y-80110000D02*
X159932000Y-79405000D01*
X159932000Y-78075000D02*
X159932000Y-77370000D01*
%TO.C,U3*%
X179105000Y-84225000D02*
X179105000Y-87675000D01*
X179105000Y-84225000D02*
X179105000Y-82275000D01*
X187975000Y-84225000D02*
X187975000Y-86175000D01*
X187975000Y-84225000D02*
X187975000Y-82275000D01*
%TO.C,R4*%
X173522500Y-77962742D02*
X173522500Y-78437258D01*
X172477500Y-77962742D02*
X172477500Y-78437258D01*
%TO.C,J8*%
X173270000Y-91670000D02*
X174600000Y-91670000D01*
X173270000Y-93000000D02*
X173270000Y-91670000D01*
X173270000Y-94270000D02*
X173270000Y-96870000D01*
X173270000Y-94270000D02*
X175930000Y-94270000D01*
X173270000Y-96870000D02*
X175930000Y-96870000D01*
X175930000Y-94270000D02*
X175930000Y-96870000D01*
%TO.C,R13*%
X182357500Y-75421258D02*
X182357500Y-74946742D01*
X183402500Y-75421258D02*
X183402500Y-74946742D01*
%TO.C,J6*%
X164470000Y-81945000D02*
X165800000Y-81945000D01*
X164470000Y-83275000D02*
X164470000Y-81945000D01*
X164470000Y-84545000D02*
X164470000Y-89685000D01*
X164470000Y-84545000D02*
X167130000Y-84545000D01*
X164470000Y-89685000D02*
X167130000Y-89685000D01*
X167130000Y-84545000D02*
X167130000Y-89685000D01*
%TO.C,U7*%
X193897500Y-68629000D02*
X193897500Y-72079000D01*
X193897500Y-68629000D02*
X193897500Y-66679000D01*
X199017500Y-68629000D02*
X199017500Y-70579000D01*
X199017500Y-68629000D02*
X199017500Y-66679000D01*
%TO.C,C14*%
X176884000Y-63666000D02*
X176179000Y-63666000D01*
X176884000Y-63666000D02*
X176884000Y-67906000D01*
X174849000Y-63666000D02*
X174144000Y-63666000D01*
X174144000Y-63666000D02*
X174144000Y-67906000D01*
X176884000Y-67906000D02*
X176179000Y-67906000D01*
X174849000Y-67906000D02*
X174144000Y-67906000D01*
%TO.C,R7*%
X188677500Y-84237258D02*
X188677500Y-83762742D01*
X189722500Y-84237258D02*
X189722500Y-83762742D01*
%TO.C,C17*%
X192534000Y-68439420D02*
X192534000Y-68720580D01*
X191514000Y-68439420D02*
X191514000Y-68720580D01*
%TO.C,C8*%
X170970000Y-67410000D02*
X170970000Y-66705000D01*
X170970000Y-67410000D02*
X166730000Y-67410000D01*
X170970000Y-65375000D02*
X170970000Y-64670000D01*
X170970000Y-64670000D02*
X166730000Y-64670000D01*
X166730000Y-67410000D02*
X166730000Y-66705000D01*
X166730000Y-65375000D02*
X166730000Y-64670000D01*
%TO.C,L2*%
X197890000Y-88352064D02*
X197890000Y-87147936D01*
X200610000Y-88352064D02*
X200610000Y-87147936D01*
%TO.C,R9*%
X186421500Y-75421258D02*
X186421500Y-74946742D01*
X187466500Y-75421258D02*
X187466500Y-74946742D01*
%TO.C,R6*%
X192277500Y-84012258D02*
X192277500Y-83537742D01*
X193322500Y-84012258D02*
X193322500Y-83537742D01*
%TO.C,R16*%
X198737258Y-63722500D02*
X198262742Y-63722500D01*
X198737258Y-62677500D02*
X198262742Y-62677500D01*
%TO.C,R11*%
X187244258Y-63514500D02*
X186769742Y-63514500D01*
X187244258Y-62469500D02*
X186769742Y-62469500D01*
%TO.C,C23*%
X203310000Y-90234420D02*
X203310000Y-90515580D01*
X202290000Y-90234420D02*
X202290000Y-90515580D01*
%TO.C,R8*%
X189722500Y-80562742D02*
X189722500Y-81037258D01*
X188677500Y-80562742D02*
X188677500Y-81037258D01*
%TO.C,R15*%
X199629500Y-68634258D02*
X199629500Y-68159742D01*
X200674500Y-68634258D02*
X200674500Y-68159742D01*
%TO.C,R1*%
X170277500Y-78437258D02*
X170277500Y-77962742D01*
X171322500Y-78437258D02*
X171322500Y-77962742D01*
%TO.C,C19*%
X195640580Y-88010000D02*
X195359420Y-88010000D01*
X195640580Y-86990000D02*
X195359420Y-86990000D01*
%TO.C,C6*%
X180338000Y-75324580D02*
X180338000Y-75043420D01*
X181358000Y-75324580D02*
X181358000Y-75043420D01*
%TO.C,C7*%
X179932420Y-62482000D02*
X180213580Y-62482000D01*
X179932420Y-63502000D02*
X180213580Y-63502000D01*
%TO.C,C13*%
X191359420Y-62490000D02*
X191640580Y-62490000D01*
X191359420Y-63510000D02*
X191640580Y-63510000D01*
%TO.C,C4*%
X185293580Y-78234000D02*
X185012420Y-78234000D01*
X185293580Y-77214000D02*
X185012420Y-77214000D01*
%TO.C,C5*%
X181737580Y-78234000D02*
X181456420Y-78234000D01*
X181737580Y-77214000D02*
X181456420Y-77214000D01*
%TO.C,R14*%
X200137500Y-75929258D02*
X200137500Y-75454742D01*
X201182500Y-75929258D02*
X201182500Y-75454742D01*
%TO.C,R2*%
X175137742Y-77877500D02*
X175612258Y-77877500D01*
X175137742Y-78922500D02*
X175612258Y-78922500D01*
%TO.C,C12*%
X196086000Y-75832580D02*
X196086000Y-75551420D01*
X197106000Y-75832580D02*
X197106000Y-75551420D01*
%TO.C,C10*%
X198510000Y-78853420D02*
X198510000Y-79134580D01*
X197490000Y-78853420D02*
X197490000Y-79134580D01*
%TO.C,C21*%
X169615580Y-90010000D02*
X169334420Y-90010000D01*
X169615580Y-88990000D02*
X169334420Y-88990000D01*
%TO.C,R3*%
X176612258Y-80522500D02*
X176137742Y-80522500D01*
X176612258Y-79477500D02*
X176137742Y-79477500D01*
%TO.C,C16*%
X178210000Y-83859420D02*
X178210000Y-84140580D01*
X177190000Y-83859420D02*
X177190000Y-84140580D01*
%TO.C,C11*%
X194740000Y-79140580D02*
X194740000Y-78859420D01*
X195760000Y-79140580D02*
X195760000Y-78859420D01*
%TO.C,D1*%
X204000000Y-72360000D02*
X206000000Y-72360000D01*
X204000000Y-72360000D02*
X204000000Y-68350000D01*
X206000000Y-72360000D02*
X206000000Y-68350000D01*
%TO.C,C9*%
X198118000Y-75832580D02*
X198118000Y-75551420D01*
X199138000Y-75832580D02*
X199138000Y-75551420D01*
%TO.C,R12*%
X183816258Y-63514500D02*
X183341742Y-63514500D01*
X183816258Y-62469500D02*
X183341742Y-62469500D01*
%TO.C,L1*%
X199363748Y-81540000D02*
X202136252Y-81540000D01*
X199363748Y-84960000D02*
X202136252Y-84960000D01*
%TO.C,J13*%
X160910000Y-83225000D02*
X160910000Y-84335000D01*
X157200000Y-83225000D02*
X157200000Y-84335000D01*
X161960000Y-84925000D02*
X161460000Y-85175000D01*
X161460000Y-85175000D02*
X161960000Y-85425000D01*
X161960000Y-85425000D02*
X161960000Y-84925000D01*
X160910000Y-86015000D02*
X160910000Y-87125000D01*
X157200000Y-86015000D02*
X157200000Y-87125000D01*
%TO.C,R10*%
X186421500Y-68500258D02*
X186421500Y-68025742D01*
X187466500Y-68500258D02*
X187466500Y-68025742D01*
%TO.C,C2*%
X173659420Y-89490000D02*
X173940580Y-89490000D01*
X173659420Y-90510000D02*
X173940580Y-90510000D01*
%TD*%
M02*
