M48
; DRILL file {KiCad 7.0.9} date Tue Aug 27 22:02:04 2024
; FORMAT={-:-/ absolute / inch / decimal}
; #@! TF.CreationDate,2024-08-27T22:02:04+02:00
; #@! TF.GenerationSoftware,Kicad,Pcbnew,7.0.9
; #@! TF.FileFunction,Plated,1,2,PTH
FMAT,2
INCH
; #@! TA.AperFunction,Plated,PTH,ViaDrill
T1C0.0157
; #@! TA.AperFunction,Plated,PTH,ComponentDrill
T2C0.0315
; #@! TA.AperFunction,Plated,PTH,ComponentDrill
T3C0.0394
; #@! TA.AperFunction,Plated,PTH,ComponentDrill
T4C0.0512
%
G90
G05
T1
X6.5384Y-2.9305
X6.5551Y-3.1299
X6.6142Y-3.378
X6.7795Y-3.6063
X6.7953Y-3.2362
X6.798Y-3.8189
X6.8096Y-3.1496
X6.838Y-3.2407
X6.8583Y-3.1496
X6.9213Y-3.5433
X6.9528Y-3.4331
X6.9685Y-3.748
X6.9764Y-3.5433
X7.0Y-3.4567
X7.0157Y-3.4094
X7.0315Y-3.5376
X7.04Y-2.8
X7.0472Y-3.3228
X7.057Y-2.533
X7.0943Y-3.1152
X7.1102Y-3.3465
X7.126Y-3.1417
X7.126Y-3.2835
X7.1384Y-2.5227
X7.1496Y-3.5395
X7.1732Y-3.3465
X7.2047Y-3.1417
X7.2087Y-3.2799
X7.252Y-3.5354
X7.26Y-2.54
X7.26Y-2.64
X7.26Y-2.72
X7.2767Y-3.3064
X7.31Y-2.86
X7.3228Y-3.6929
X7.37Y-3.07
X7.378Y-3.3307
X7.4094Y-2.54
X7.4803Y-2.54
X7.5276Y-2.5433
X7.5354Y-3.3307
X7.56Y-2.78
X7.6083Y-3.4843
X7.79Y-2.89
X7.7995Y-2.6453
X7.7995Y-2.7295
X7.8608Y-3.1725
X7.8642Y-3.0807
X7.8937Y-3.1201
X7.9843Y-3.6772
X8.061Y-3.2283
X8.1004Y-2.7264
T2
X6.3308Y-3.1
X6.4292Y-3.1
X6.54Y-2.7461
X6.54Y-2.8445
X6.5984Y-2.6
X6.6969Y-2.6
X6.91Y-2.5408
X6.91Y-2.6392
T3
X6.2374Y-2.9945
X6.2374Y-3.5945
X6.3374Y-2.9945
X6.3374Y-3.5945
X6.4374Y-2.9945
X6.5276Y-3.2785
X6.5276Y-3.3785
X6.5276Y-3.4785
X6.6874Y-2.7445
X6.6874Y-2.8445
X6.7874Y-2.7445
X6.7874Y-2.8445
X6.874Y-3.6614
X6.874Y-3.7614
X6.9374Y-2.9945
X7.0374Y-2.9945
X7.4374Y-2.9945
X7.4374Y-3.5945
X7.5374Y-2.9945
X7.5374Y-3.5945
T4
X6.5256Y-3.6811
X6.5256Y-3.878
X6.7224Y-3.7795
T0
M30
