M48
; DRILL file {KiCad 8.0.9} date 2025-06-14T23:52:39+0200
; FORMAT={-:-/ absolute / inch / decimal}
; #@! TF.CreationDate,2025-06-14T23:52:39+02:00
; #@! TF.GenerationSoftware,Kicad,Pcbnew,8.0.9
; #@! TF.FileFunction,Plated,1,2,PTH
FMAT,2
INCH
; #@! TA.AperFunction,Plated,PTH,ViaDrill
T1C0.0157
; #@! TA.AperFunction,Plated,PTH,ComponentDrill
T2C0.0315
; #@! TA.AperFunction,Plated,PTH,ComponentDrill
T3C0.0394
%
G90
G05
T1
X6.5384Y-2.9305
X6.6102Y-3.1378
X6.7126Y-3.1201
X6.8239Y-3.5698
X6.8504Y-3.1201
X6.8744Y-3.5651
X6.8819Y-3.7362
X6.8938Y-2.8938
X6.9055Y-3.0748
X6.9449Y-3.7057
X6.9803Y-3.5906
X6.9921Y-3.5157
X6.9959Y-3.7327
X7.0354Y-3.4843
X7.057Y-2.545
X7.0591Y-3.7402
X7.09Y-2.73
X7.095Y-3.115
X7.125Y-2.535
X7.1299Y-3.378
X7.1483Y-3.4691
X7.175Y-3.8353
X7.2237Y-3.1129
X7.2559Y-3.315
X7.26Y-2.54
X7.26Y-2.64
X7.26Y-2.72
X7.33Y-2.85
X7.37Y-3.07
X7.374Y-2.5709
X7.4449Y-3.4921
X7.46Y-2.5
X7.4724Y-2.5669
X7.5Y-3.1181
X7.56Y-2.78
X7.6083Y-3.4843
X7.7638Y-3.0827
X7.7992Y-2.8898
X7.7995Y-2.6453
X7.7995Y-2.7295
X8.061Y-3.2283
X8.1004Y-2.7264
T2
X6.3308Y-3.1
X6.4292Y-3.1
X6.5Y-2.7559
X6.5Y-2.8543
X6.6166Y-2.635
X6.715Y-2.635
X6.9173Y-2.5408
X6.9173Y-2.6392
T3
X6.2453Y-2.9902
X6.2453Y-3.5902
X6.3453Y-2.9902
X6.3453Y-3.5902
X6.3465Y-2.77
X6.4453Y-2.9902
X6.625Y-2.515
X6.6953Y-2.7402
X6.6953Y-2.8402
X6.7795Y-3.3386
X6.7953Y-2.7402
X6.7953Y-2.8402
X6.8071Y-2.5157
X6.9449Y-3.3346
X6.9453Y-2.9902
X7.04Y-2.83
X7.0453Y-2.9902
X7.2874Y-3.7717
X7.4453Y-2.9902
X7.4453Y-3.5902
X7.5Y-2.83
X7.5453Y-2.9902
X7.5453Y-3.5902
X7.5512Y-3.7756
M30
