%TF.GenerationSoftware,KiCad,Pcbnew,8.0.9*%
%TF.CreationDate,2025-06-14T23:52:31+02:00*%
%TF.ProjectId,Elektor,456c656b-746f-4722-9e6b-696361645f70,rev?*%
%TF.SameCoordinates,Original*%
%TF.FileFunction,Copper,L2,Bot*%
%TF.FilePolarity,Positive*%
%FSLAX46Y46*%
G04 Gerber Fmt 4.6, Leading zero omitted, Abs format (unit mm)*
G04 Created by KiCad (PCBNEW 8.0.9) date 2025-06-14 23:52:31*
%MOMM*%
%LPD*%
G01*
G04 APERTURE LIST*
G04 Aperture macros list*
%AMRoundRect*
0 Rectangle with rounded corners*
0 $1 Rounding radius*
0 $2 $3 $4 $5 $6 $7 $8 $9 X,Y pos of 4 corners*
0 Add a 4 corners polygon primitive as box body*
4,1,4,$2,$3,$4,$5,$6,$7,$8,$9,$2,$3,0*
0 Add four circle primitives for the rounded corners*
1,1,$1+$1,$2,$3*
1,1,$1+$1,$4,$5*
1,1,$1+$1,$6,$7*
1,1,$1+$1,$8,$9*
0 Add four rect primitives between the rounded corners*
20,1,$1+$1,$2,$3,$4,$5,0*
20,1,$1+$1,$4,$5,$6,$7,0*
20,1,$1+$1,$6,$7,$8,$9,0*
20,1,$1+$1,$8,$9,$2,$3,0*%
G04 Aperture macros list end*
%TA.AperFunction,ComponentPad*%
%ADD10C,1.778000*%
%TD*%
%TA.AperFunction,ComponentPad*%
%ADD11C,1.600000*%
%TD*%
%TA.AperFunction,SMDPad,CuDef*%
%ADD12R,4.200000X1.350000*%
%TD*%
%TA.AperFunction,ComponentPad*%
%ADD13C,1.800000*%
%TD*%
%TA.AperFunction,SMDPad,CuDef*%
%ADD14RoundRect,0.225000X0.225000X0.250000X-0.225000X0.250000X-0.225000X-0.250000X0.225000X-0.250000X0*%
%TD*%
%TA.AperFunction,SMDPad,CuDef*%
%ADD15RoundRect,0.200000X0.275000X-0.200000X0.275000X0.200000X-0.275000X0.200000X-0.275000X-0.200000X0*%
%TD*%
%TA.AperFunction,ViaPad*%
%ADD16C,0.800000*%
%TD*%
%TA.AperFunction,Conductor*%
%ADD17C,0.250000*%
%TD*%
G04 APERTURE END LIST*
D10*
%TO.P,U6,INR,INR*%
%TO.N,Net-(R21-Pad1)*%
X172600000Y-72140000D03*
%TO.P,U6,INL,INL*%
%TO.N,Net-(R20-Pad1)*%
X170060000Y-72140000D03*
%TO.P,U6,INGND2,INGND2*%
%TO.N,GNDA*%
X172600000Y-69600000D03*
%TO.P,U6,INGND1,INGND1*%
X170060000Y-69600000D03*
%TO.P,U6,GND,GND*%
%TO.N,GND*%
X158630000Y-91190000D03*
%TO.P,U6,G,G*%
X161170000Y-75950000D03*
%TO.P,U6,19,SCL*%
%TO.N,Net-(U6-SCL)*%
X176410000Y-75950000D03*
%TO.P,U6,18,SDA*%
%TO.N,Net-(U6-SDA)*%
X178950000Y-75950000D03*
%TO.P,U6,14,14*%
%TO.N,unconnected-(U6-Pad14)*%
X189110000Y-75950000D03*
%TO.P,U6,13,SCK*%
%TO.N,unconnected-(U6-SCK-Pad13)*%
X191650000Y-75950000D03*
%TO.P,U6,12,MISO*%
%TO.N,unconnected-(U6-MISO-Pad12)*%
X191650000Y-91190000D03*
%TO.P,U6,11,MOSI*%
%TO.N,unconnected-(U6-MOSI-Pad11)*%
X189110000Y-91190000D03*
%TO.P,U6,5V,5V*%
%TO.N,Net-(C16-Pad1)*%
X158630000Y-75950000D03*
%TO.P,U6,3V,3V*%
%TO.N,Net-(C1-Pad1)*%
X163710000Y-75950000D03*
%TO.P,U6,0,0*%
%TO.N,unconnected-(U6-Pad0)*%
X161170000Y-91190000D03*
%TD*%
D11*
%TO.P,C18,1*%
%TO.N,3.3VA*%
X165100000Y-72500000D03*
%TO.P,C18,2*%
%TO.N,GNDA*%
X165100000Y-70000000D03*
%TD*%
D12*
%TO.P,J1,2,Ext*%
%TO.N,GNDA*%
X204750000Y-80075000D03*
X204750000Y-74425000D03*
%TD*%
D13*
%TO.P,TP4,1,Pin_1*%
%TO.N,Net-(TP4-Pin_1)*%
X176400000Y-84700000D03*
%TD*%
D11*
%TO.P,C1,1*%
%TO.N,Net-(C1-Pad1)*%
X163302000Y-78740000D03*
%TO.P,C1,2*%
%TO.N,GND*%
X160802000Y-78740000D03*
%TD*%
%TO.P,C14,1*%
%TO.N,Net-(C14-Pad1)*%
X175700000Y-64536000D03*
%TO.P,C14,2*%
%TO.N,Net-(TP3-Pin_1)*%
X175700000Y-67036000D03*
%TD*%
%TO.P,C8,1*%
%TO.N,Net-(C8-Pad1)*%
X170561000Y-66929000D03*
%TO.P,C8,2*%
%TO.N,Net-(TP2-Pin_1)*%
X168061000Y-66929000D03*
%TD*%
D13*
%TO.P,TP2,1,Pin_1*%
%TO.N,Net-(TP2-Pin_1)*%
X168275000Y-63881000D03*
%TD*%
D14*
%TO.P,C2,1*%
%TO.N,3.3V*%
X177175000Y-92600000D03*
%TO.P,C2,2*%
%TO.N,GND*%
X175625000Y-92600000D03*
%TD*%
D13*
%TO.P,TP8,1,Pin_1*%
%TO.N,Net-(TP8-Pin_1)*%
X190500000Y-71882000D03*
%TD*%
%TO.P,TP7,1,Pin_1*%
%TO.N,Net-(TP7-Pin_1)*%
X178816000Y-71882000D03*
%TD*%
%TO.P,TP_GNDD1,1,Pin_1*%
%TO.N,GND*%
X191800000Y-95900000D03*
%TD*%
%TO.P,TP6,1,Pin_1*%
%TO.N,Net-(Q1-S)*%
X185100000Y-95800000D03*
%TD*%
%TO.P,TP5,1,Pin_1*%
%TO.N,Net-(TP5-Pin_1)*%
X172200000Y-84800000D03*
%TD*%
%TO.P,TP_GNDA1,1,Pin_1*%
%TO.N,GNDA*%
X161200000Y-70358000D03*
%TD*%
%TO.P,TP3,1,Pin_1*%
%TO.N,Net-(TP3-Pin_1)*%
X172900000Y-63900000D03*
%TD*%
D15*
%TO.P,R19,1*%
%TO.N,GND*%
X187000000Y-85825000D03*
%TO.P,R19,2*%
%TO.N,GNDA*%
X187000000Y-84175000D03*
%TD*%
D16*
%TO.N,Net-(C1-Pad1)*%
X167900000Y-79700000D03*
%TO.N,GNDA*%
X184300000Y-84200000D03*
%TO.N,Net-(U3-1B1)*%
X190500000Y-79200000D03*
%TO.N,3.3V*%
X179300000Y-95000000D03*
X177299992Y-91200000D03*
%TO.N,GND*%
X174800000Y-94900000D03*
X181100000Y-85800000D03*
X181566329Y-88115614D03*
X189100000Y-88699998D03*
%TO.N,3.3VA*%
X175101992Y-73501992D03*
X175400000Y-78100000D03*
%TO.N,Net-(U3-1B1)*%
X183481450Y-79066881D03*
%TO.N,GNDA*%
X186182000Y-72390000D03*
X180213000Y-79121000D03*
X179248637Y-64643000D03*
X205750004Y-69250000D03*
X204750000Y-82000000D03*
X180086000Y-69342000D03*
X197200000Y-78300000D03*
X192024000Y-70612000D03*
X189484000Y-63500000D03*
X193250000Y-88500000D03*
X198100000Y-73400000D03*
X187198000Y-77978000D03*
%TO.N,Net-(U1-SCL)*%
X174000000Y-79250004D03*
X174609941Y-90553073D03*
%TO.N,Net-(U1-SDA)*%
X173326992Y-90673008D03*
X170499996Y-79249996D03*
%TO.N,3.3VA*%
X166075992Y-74435000D03*
%TO.N,3.3V*%
X182245518Y-97416446D03*
%TO.N,Net-(C8-Pad1)*%
X180975000Y-64389000D03*
%TO.N,Net-(C14-Pad1)*%
X187300000Y-65300000D03*
X184404000Y-64516000D03*
X189800000Y-65200000D03*
%TO.N,Net-(TP7-Pin_1)*%
X184404000Y-67056000D03*
X184404000Y-69088000D03*
%TO.N,Net-(TP4-Pin_1)*%
X178700000Y-88500000D03*
X177695633Y-94811617D03*
%TO.N,Net-(TP5-Pin_1)*%
X177600000Y-89300000D03*
X176400000Y-94125000D03*
%TO.N,Net-(TP8-Pin_1)*%
X198108500Y-67190000D03*
X198108500Y-69329000D03*
%TD*%
D17*
%TO.N,Net-(C8-Pad1)*%
X178836000Y-62250000D02*
X180975000Y-64389000D01*
X172550000Y-62250000D02*
X178836000Y-62250000D01*
X170561000Y-64239000D02*
X172550000Y-62250000D01*
X170561000Y-66929000D02*
X170561000Y-64239000D01*
%TO.N,GNDA*%
X177800000Y-73660000D02*
X173845144Y-69705144D01*
X180800000Y-73660000D02*
X177800000Y-73660000D01*
X173845144Y-69705144D02*
X168148000Y-69705144D01*
X180800000Y-78534000D02*
X180800000Y-73660000D01*
X180213000Y-79121000D02*
X180800000Y-78534000D01*
%TO.N,Net-(C14-Pad1)*%
X176736000Y-63500000D02*
X175700000Y-64536000D01*
X179243984Y-63500000D02*
X176736000Y-63500000D01*
X180200000Y-64710016D02*
X180200000Y-64456016D01*
X181021984Y-65532000D02*
X180200000Y-64710016D01*
X184404000Y-64516000D02*
X183388000Y-65532000D01*
X180200000Y-64456016D02*
X179243984Y-63500000D01*
X183388000Y-65532000D02*
X181021984Y-65532000D01*
%TO.N,GNDA*%
X168148000Y-69705144D02*
X165394856Y-69705144D01*
%TO.N,3.3VA*%
X165100000Y-73232016D02*
X166075992Y-74208008D01*
X165100000Y-72500000D02*
X165100000Y-73232016D01*
%TO.N,GNDA*%
X161200000Y-70358000D02*
X164742000Y-70358000D01*
%TO.N,3.3VA*%
X166075992Y-74208008D02*
X166075992Y-74435000D01*
%TO.N,GND*%
X181989000Y-88538285D02*
X181566329Y-88115614D01*
X181989000Y-90589000D02*
X181989000Y-88538285D01*
X183400000Y-92000000D02*
X181989000Y-90589000D01*
X189900000Y-95900000D02*
X186500000Y-92500000D01*
X186500000Y-92500000D02*
X185900000Y-92500000D01*
X185900000Y-92500000D02*
X185400000Y-92000000D01*
X191800000Y-95900000D02*
X189900000Y-95900000D01*
X185400000Y-92000000D02*
X183400000Y-92000000D01*
X187000000Y-86599998D02*
X189100000Y-88699998D01*
X187000000Y-85825000D02*
X187000000Y-86599998D01*
%TO.N,GNDA*%
X198975000Y-80075000D02*
X197200000Y-78300000D01*
X204750000Y-80075000D02*
X198975000Y-80075000D01*
X193250000Y-82150000D02*
X197100000Y-78300000D01*
X193250000Y-88500000D02*
X193250000Y-82150000D01*
X204750000Y-74425000D02*
X201075000Y-74425000D01*
X201075000Y-74425000D02*
X197200000Y-78300000D01*
X197100000Y-78300000D02*
X197200000Y-78300000D01*
X193294000Y-72390000D02*
X194310000Y-73406000D01*
X198094000Y-73406000D02*
X198100000Y-73400000D01*
X194310000Y-73406000D02*
X198094000Y-73406000D01*
%TO.N,Net-(C14-Pad1)*%
X187400000Y-65200000D02*
X189800000Y-65200000D01*
X187300000Y-65300000D02*
X187400000Y-65200000D01*
%TO.N,Net-(C1-Pad1)*%
X166940000Y-78740000D02*
X163302000Y-78740000D01*
X167900000Y-79700000D02*
X166940000Y-78740000D01*
%TO.N,GNDA*%
X182200000Y-81108000D02*
X180213000Y-79121000D01*
X184300000Y-84200000D02*
X182200000Y-84200000D01*
X182200000Y-84200000D02*
X182200000Y-81108000D01*
X184325000Y-84175000D02*
X187000000Y-84175000D01*
X184300000Y-84200000D02*
X184325000Y-84175000D01*
X193250000Y-88500000D02*
X188925000Y-84175000D01*
X191275000Y-79900000D02*
X187000000Y-84175000D01*
X191275000Y-78878984D02*
X191275000Y-79900000D01*
X188925000Y-84175000D02*
X187000000Y-84175000D01*
X187198000Y-77978000D02*
X190374016Y-77978000D01*
X190374016Y-77978000D02*
X191275000Y-78878984D01*
%TO.N,Net-(TP5-Pin_1)*%
X176400000Y-90500000D02*
X177600000Y-89300000D01*
X176400000Y-94125000D02*
X176400000Y-90500000D01*
%TO.N,3.3V*%
X177175000Y-91324992D02*
X177299992Y-91200000D01*
X177175000Y-92600000D02*
X177175000Y-91324992D01*
%TO.N,Net-(TP4-Pin_1)*%
X179350004Y-89150004D02*
X178700000Y-88500000D01*
X179350004Y-93157246D02*
X179350004Y-89150004D01*
X177695633Y-94811617D02*
X179350004Y-93157246D01*
%TO.N,GND*%
X175525000Y-94175000D02*
X174800000Y-94900000D01*
X175525000Y-89078984D02*
X175525000Y-94175000D01*
X181100000Y-85800000D02*
X178803984Y-85800000D01*
X178803984Y-85800000D02*
X175525000Y-89078984D01*
%TO.N,3.3V*%
X181716446Y-97416446D02*
X182245518Y-97416446D01*
X179300000Y-95000000D02*
X181716446Y-97416446D01*
%TO.N,Net-(U3-1B1)*%
X190300000Y-79400000D02*
X190500000Y-79200000D01*
X188699996Y-79400000D02*
X190300000Y-79400000D01*
X183481450Y-79066881D02*
X188366877Y-79066881D01*
X188366877Y-79066881D02*
X188699996Y-79400000D01*
%TO.N,Net-(U1-SCL)*%
X174303073Y-90553073D02*
X174609941Y-90553073D01*
X169500000Y-85750000D02*
X174303073Y-90553073D01*
X171749996Y-79250004D02*
X169500000Y-81500000D01*
X174000000Y-79250004D02*
X171749996Y-79250004D01*
X169500000Y-81500000D02*
X169500000Y-85750000D01*
%TO.N,GND*%
X181566329Y-86266329D02*
X181100000Y-85800000D01*
X181566329Y-88115614D02*
X181566329Y-86266329D01*
%TO.N,3.3VA*%
X174600000Y-74003984D02*
X175101992Y-73501992D01*
X174600000Y-77300000D02*
X174600000Y-74003984D01*
X175400000Y-78100000D02*
X174600000Y-77300000D01*
%TO.N,Net-(U1-SDA)*%
X170499996Y-79249996D02*
X168500000Y-81249992D01*
X168500000Y-81249992D02*
X168500000Y-87250000D01*
X171923008Y-90673008D02*
X173326992Y-90673008D01*
X168500000Y-87250000D02*
X171923008Y-90673008D01*
%TO.N,GNDA*%
X186182000Y-76962000D02*
X187198000Y-77978000D01*
X193294000Y-71374000D02*
X193294000Y-72136000D01*
X192532000Y-70612000D02*
X193294000Y-71374000D01*
X187452000Y-73660000D02*
X194183000Y-73660000D01*
X181483000Y-68453000D02*
X179248637Y-66218637D01*
X181991000Y-68453000D02*
X181483000Y-68453000D01*
X206000000Y-73175000D02*
X206000000Y-69499996D01*
X193294000Y-72136000D02*
X193294000Y-66929000D01*
X179248637Y-66218637D02*
X179248637Y-64643000D01*
X186182000Y-72390000D02*
X186182000Y-76962000D01*
X194183000Y-73279000D02*
X193294000Y-72390000D01*
X180086000Y-69342000D02*
X180594000Y-69342000D01*
X168148000Y-69705144D02*
X168152856Y-69710000D01*
X168152856Y-69710000D02*
X169860000Y-69710000D01*
X204750000Y-82000000D02*
X204750000Y-80075000D01*
X185928000Y-72390000D02*
X181991000Y-68453000D01*
X189865000Y-63500000D02*
X189484000Y-63500000D01*
X206000000Y-69499996D02*
X205750004Y-69250000D01*
X180594000Y-69342000D02*
X181483000Y-68453000D01*
X193294000Y-72136000D02*
X193294000Y-72390000D01*
X194183000Y-73660000D02*
X194183000Y-73279000D01*
X193294000Y-66929000D02*
X189865000Y-63500000D01*
X186182000Y-72390000D02*
X185928000Y-72390000D01*
X204750000Y-74425000D02*
X206000000Y-73175000D01*
X192024000Y-70612000D02*
X192532000Y-70612000D01*
X186182000Y-72390000D02*
X187452000Y-73660000D01*
%TO.N,Net-(TP7-Pin_1)*%
X184404000Y-69088000D02*
X184404000Y-67056000D01*
%TO.N,Net-(TP8-Pin_1)*%
X198108500Y-67190000D02*
X198108500Y-69329000D01*
%TD*%
%TA.AperFunction,Conductor*%
%TO.N,GNDA*%
G36*
X206626629Y-61499376D02*
G01*
X206693565Y-61519398D01*
X206739053Y-61572433D01*
X206750000Y-61623374D01*
X206750000Y-73126000D01*
X206730315Y-73193039D01*
X206677511Y-73238794D01*
X206626000Y-73250000D01*
X205000000Y-73250000D01*
X205000000Y-75600000D01*
X206626000Y-75600000D01*
X206693039Y-75619685D01*
X206738794Y-75672489D01*
X206750000Y-75724000D01*
X206750000Y-78776000D01*
X206730315Y-78843039D01*
X206677511Y-78888794D01*
X206626000Y-78900000D01*
X205000000Y-78900000D01*
X205000000Y-81250000D01*
X206626000Y-81250000D01*
X206693039Y-81269685D01*
X206738794Y-81322489D01*
X206750000Y-81374000D01*
X206750000Y-89620500D01*
X206730315Y-89687539D01*
X206677511Y-89733294D01*
X206626000Y-89744500D01*
X193701733Y-89744500D01*
X193634694Y-89724815D01*
X193629659Y-89721403D01*
X188342524Y-85944878D01*
X188230461Y-85884525D01*
X188230457Y-85884523D01*
X188230455Y-85884522D01*
X188172664Y-85862254D01*
X188172654Y-85862251D01*
X188069835Y-85836918D01*
X188009452Y-85801767D01*
X187977658Y-85739551D01*
X187975500Y-85716519D01*
X187975500Y-85568386D01*
X187969086Y-85497807D01*
X187969086Y-85497804D01*
X187918478Y-85335394D01*
X187830472Y-85189815D01*
X187830470Y-85189813D01*
X187830469Y-85189811D01*
X187727984Y-85087326D01*
X187694499Y-85026003D01*
X187699483Y-84956311D01*
X187727985Y-84911963D01*
X187830071Y-84809878D01*
X187830072Y-84809877D01*
X187918019Y-84664395D01*
X187968590Y-84502106D01*
X187975000Y-84431572D01*
X187975000Y-84425000D01*
X186025001Y-84425000D01*
X186025001Y-84431582D01*
X186031408Y-84502102D01*
X186031409Y-84502110D01*
X186056806Y-84583610D01*
X186057958Y-84653470D01*
X186021157Y-84712862D01*
X185958088Y-84742930D01*
X185938421Y-84744500D01*
X180379500Y-84744500D01*
X180312461Y-84724815D01*
X180266706Y-84672011D01*
X180255500Y-84620500D01*
X180255500Y-83918427D01*
X186025000Y-83918427D01*
X186025000Y-83925000D01*
X186750000Y-83925000D01*
X187250000Y-83925000D01*
X187974999Y-83925000D01*
X187974999Y-83918417D01*
X187968591Y-83847897D01*
X187968590Y-83847892D01*
X187918018Y-83685603D01*
X187830072Y-83540122D01*
X187709877Y-83419927D01*
X187564395Y-83331980D01*
X187564396Y-83331980D01*
X187402105Y-83281409D01*
X187402106Y-83281409D01*
X187331572Y-83275000D01*
X187250000Y-83275000D01*
X187250000Y-83925000D01*
X186750000Y-83925000D01*
X186750000Y-83275000D01*
X186749999Y-83274999D01*
X186668417Y-83275000D01*
X186597897Y-83281408D01*
X186597892Y-83281409D01*
X186435603Y-83331981D01*
X186290122Y-83419927D01*
X186169927Y-83540122D01*
X186081980Y-83685604D01*
X186031409Y-83847893D01*
X186025000Y-83918427D01*
X180255500Y-83918427D01*
X180255500Y-80797844D01*
X202150000Y-80797844D01*
X202156401Y-80857372D01*
X202156403Y-80857379D01*
X202206645Y-80992086D01*
X202206649Y-80992093D01*
X202292809Y-81107187D01*
X202292812Y-81107190D01*
X202407906Y-81193350D01*
X202407913Y-81193354D01*
X202542620Y-81243596D01*
X202542627Y-81243598D01*
X202602155Y-81249999D01*
X202602172Y-81250000D01*
X204500000Y-81250000D01*
X204500000Y-80325000D01*
X202150000Y-80325000D01*
X202150000Y-80797844D01*
X180255500Y-80797844D01*
X180255500Y-79960866D01*
X180246816Y-79867571D01*
X180242112Y-79842528D01*
X180238366Y-79822579D01*
X180231548Y-79798732D01*
X180212605Y-79732471D01*
X180189964Y-79692381D01*
X180141852Y-79607190D01*
X180141843Y-79607179D01*
X180141841Y-79607175D01*
X180099186Y-79551862D01*
X180099185Y-79551861D01*
X179996012Y-79451596D01*
X179996012Y-79451595D01*
X179996008Y-79451592D01*
X179996007Y-79451591D01*
X179957772Y-79423812D01*
X179938514Y-79406471D01*
X179900398Y-79364139D01*
X179885161Y-79343167D01*
X179856673Y-79293823D01*
X179846133Y-79270151D01*
X179828528Y-79215969D01*
X179823141Y-79190622D01*
X179817186Y-79133959D01*
X179817186Y-79108040D01*
X179821511Y-79066881D01*
X182575990Y-79066881D01*
X182595776Y-79255137D01*
X182595777Y-79255140D01*
X182654268Y-79435158D01*
X182654271Y-79435165D01*
X182748917Y-79599097D01*
X182850635Y-79712066D01*
X182875579Y-79739769D01*
X183028715Y-79851029D01*
X183028720Y-79851032D01*
X183201642Y-79928023D01*
X183201647Y-79928025D01*
X183386804Y-79967381D01*
X183386805Y-79967381D01*
X183576094Y-79967381D01*
X183576096Y-79967381D01*
X183761253Y-79928025D01*
X183934180Y-79851032D01*
X184087321Y-79739769D01*
X184090238Y-79736528D01*
X184093050Y-79733407D01*
X184152537Y-79696760D01*
X184185198Y-79692381D01*
X188056424Y-79692381D01*
X188123463Y-79712066D01*
X188144105Y-79728700D01*
X188214137Y-79798732D01*
X188214138Y-79798733D01*
X188301263Y-79885858D01*
X188337074Y-79909786D01*
X188403710Y-79954311D01*
X188517544Y-80001463D01*
X188638384Y-80025499D01*
X188638388Y-80025500D01*
X188638389Y-80025500D01*
X188638390Y-80025500D01*
X190113783Y-80025500D01*
X190164219Y-80036221D01*
X190193487Y-80049252D01*
X190220197Y-80061144D01*
X190405354Y-80100500D01*
X190405355Y-80100500D01*
X190594644Y-80100500D01*
X190594646Y-80100500D01*
X190779803Y-80061144D01*
X190952730Y-79984151D01*
X191105871Y-79872888D01*
X191232533Y-79732216D01*
X191327179Y-79568284D01*
X191385674Y-79388256D01*
X191389468Y-79352155D01*
X202150000Y-79352155D01*
X202150000Y-79825000D01*
X204500000Y-79825000D01*
X204500000Y-78900000D01*
X202602155Y-78900000D01*
X202542627Y-78906401D01*
X202542620Y-78906403D01*
X202407913Y-78956645D01*
X202407906Y-78956649D01*
X202292812Y-79042809D01*
X202292809Y-79042812D01*
X202206649Y-79157906D01*
X202206645Y-79157913D01*
X202156403Y-79292620D01*
X202156401Y-79292627D01*
X202150000Y-79352155D01*
X191389468Y-79352155D01*
X191405460Y-79200000D01*
X191385674Y-79011744D01*
X191327179Y-78831716D01*
X191232533Y-78667784D01*
X191105871Y-78527112D01*
X191085857Y-78512571D01*
X190952734Y-78415851D01*
X190952729Y-78415848D01*
X190779807Y-78338857D01*
X190779802Y-78338855D01*
X190634001Y-78307865D01*
X190594646Y-78299500D01*
X190405354Y-78299500D01*
X190372897Y-78306398D01*
X190220197Y-78338855D01*
X190220192Y-78338857D01*
X190047270Y-78415848D01*
X190047265Y-78415851D01*
X189894129Y-78527111D01*
X189767466Y-78667785D01*
X189741650Y-78712500D01*
X189691083Y-78760715D01*
X189634263Y-78774500D01*
X189010448Y-78774500D01*
X188943409Y-78754815D01*
X188922767Y-78738181D01*
X188859805Y-78675219D01*
X188859802Y-78675215D01*
X188859802Y-78675216D01*
X188852735Y-78668149D01*
X188852735Y-78668148D01*
X188765610Y-78581023D01*
X188704529Y-78540210D01*
X188704530Y-78540210D01*
X188704528Y-78540208D01*
X188663167Y-78512571D01*
X188663163Y-78512569D01*
X188582669Y-78479228D01*
X188549330Y-78465418D01*
X188539304Y-78463424D01*
X188488906Y-78453399D01*
X188428487Y-78441381D01*
X188428484Y-78441381D01*
X188428483Y-78441381D01*
X184185198Y-78441381D01*
X184118159Y-78421696D01*
X184093050Y-78400355D01*
X184087323Y-78393995D01*
X184087319Y-78393991D01*
X183934184Y-78282732D01*
X183934179Y-78282729D01*
X183761257Y-78205738D01*
X183761252Y-78205736D01*
X183615451Y-78174746D01*
X183576096Y-78166381D01*
X183386804Y-78166381D01*
X183354347Y-78173279D01*
X183201647Y-78205736D01*
X183201642Y-78205738D01*
X183028720Y-78282729D01*
X183028715Y-78282732D01*
X182875579Y-78393992D01*
X182748916Y-78534666D01*
X182654271Y-78698596D01*
X182654268Y-78698603D01*
X182596024Y-78877861D01*
X182595776Y-78878625D01*
X182575990Y-79066881D01*
X179821511Y-79066881D01*
X179823141Y-79051375D01*
X179828528Y-79026033D01*
X179846136Y-78971839D01*
X179856673Y-78948174D01*
X179885163Y-78898827D01*
X179900386Y-78877873D01*
X179938523Y-78835518D01*
X179957777Y-78818183D01*
X179996009Y-78790407D01*
X180066398Y-78728528D01*
X180097827Y-78695249D01*
X180155567Y-78621465D01*
X180215338Y-78490588D01*
X180235023Y-78423549D01*
X180235024Y-78423545D01*
X180255500Y-78281129D01*
X180255500Y-77305082D01*
X180247635Y-77216258D01*
X180239978Y-77173360D01*
X180216631Y-77087308D01*
X180182390Y-77024039D01*
X180148153Y-76960775D01*
X180148142Y-76960759D01*
X180107135Y-76905549D01*
X180106524Y-76904713D01*
X180104520Y-76902694D01*
X180102852Y-76899613D01*
X180100730Y-76896657D01*
X180101106Y-76896386D01*
X180071264Y-76841246D01*
X180076509Y-76771573D01*
X180088720Y-76747519D01*
X180145824Y-76660115D01*
X180176217Y-76613595D01*
X180268717Y-76402716D01*
X180325246Y-76179488D01*
X180344262Y-75950000D01*
X180344262Y-75949994D01*
X187715738Y-75949994D01*
X187715738Y-75950005D01*
X187734753Y-76179484D01*
X187791282Y-76402714D01*
X187883782Y-76613594D01*
X188009728Y-76806370D01*
X188009731Y-76806373D01*
X188165692Y-76975792D01*
X188347411Y-77117229D01*
X188549931Y-77226828D01*
X188663025Y-77265653D01*
X188767725Y-77301597D01*
X188767727Y-77301597D01*
X188767729Y-77301598D01*
X188994863Y-77339500D01*
X188994864Y-77339500D01*
X189225136Y-77339500D01*
X189225137Y-77339500D01*
X189452271Y-77301598D01*
X189670069Y-77226828D01*
X189872589Y-77117229D01*
X190054308Y-76975792D01*
X190210269Y-76806373D01*
X190276191Y-76705472D01*
X190329337Y-76660115D01*
X190398569Y-76650691D01*
X190461905Y-76680193D01*
X190483809Y-76705472D01*
X190549728Y-76806370D01*
X190549731Y-76806373D01*
X190705692Y-76975792D01*
X190887411Y-77117229D01*
X191089931Y-77226828D01*
X191203025Y-77265653D01*
X191307725Y-77301597D01*
X191307727Y-77301597D01*
X191307729Y-77301598D01*
X191534863Y-77339500D01*
X191534864Y-77339500D01*
X191765136Y-77339500D01*
X191765137Y-77339500D01*
X191992271Y-77301598D01*
X192210069Y-77226828D01*
X192412589Y-77117229D01*
X192594308Y-76975792D01*
X192750269Y-76806373D01*
X192876217Y-76613595D01*
X192968717Y-76402716D01*
X193025246Y-76179488D01*
X193044262Y-75950000D01*
X193025246Y-75720512D01*
X192968717Y-75497284D01*
X192876217Y-75286405D01*
X192851980Y-75249308D01*
X192785691Y-75147844D01*
X202150000Y-75147844D01*
X202156401Y-75207372D01*
X202156403Y-75207379D01*
X202206645Y-75342086D01*
X202206649Y-75342093D01*
X202292809Y-75457187D01*
X202292812Y-75457190D01*
X202407906Y-75543350D01*
X202407913Y-75543354D01*
X202542620Y-75593596D01*
X202542627Y-75593598D01*
X202602155Y-75599999D01*
X202602172Y-75600000D01*
X204500000Y-75600000D01*
X204500000Y-74675000D01*
X202150000Y-74675000D01*
X202150000Y-75147844D01*
X192785691Y-75147844D01*
X192750271Y-75093629D01*
X192679601Y-75016861D01*
X192594308Y-74924208D01*
X192440355Y-74804382D01*
X192412591Y-74782772D01*
X192210069Y-74673172D01*
X192210061Y-74673169D01*
X191992274Y-74598402D01*
X191821920Y-74569975D01*
X191765137Y-74560500D01*
X191534863Y-74560500D01*
X191489436Y-74568080D01*
X191307725Y-74598402D01*
X191089938Y-74673169D01*
X191089930Y-74673172D01*
X190887408Y-74782772D01*
X190705694Y-74924206D01*
X190705689Y-74924211D01*
X190549727Y-75093630D01*
X190483808Y-75194528D01*
X190430662Y-75239884D01*
X190361431Y-75249308D01*
X190298095Y-75219806D01*
X190276192Y-75194528D01*
X190210272Y-75093630D01*
X190139601Y-75016861D01*
X190054308Y-74924208D01*
X189900355Y-74804382D01*
X189872591Y-74782772D01*
X189670069Y-74673172D01*
X189670061Y-74673169D01*
X189452274Y-74598402D01*
X189281920Y-74569975D01*
X189225137Y-74560500D01*
X188994863Y-74560500D01*
X188949436Y-74568080D01*
X188767725Y-74598402D01*
X188549938Y-74673169D01*
X188549930Y-74673172D01*
X188347408Y-74782772D01*
X188165694Y-74924206D01*
X188165689Y-74924211D01*
X188009728Y-75093629D01*
X187883782Y-75286405D01*
X187791282Y-75497285D01*
X187734753Y-75720515D01*
X187715738Y-75949994D01*
X180344262Y-75949994D01*
X180325246Y-75720512D01*
X180268717Y-75497284D01*
X180176217Y-75286405D01*
X180087709Y-75150933D01*
X180067523Y-75084046D01*
X180086703Y-75016861D01*
X180097807Y-75001910D01*
X180155567Y-74935253D01*
X180215338Y-74804376D01*
X180235023Y-74737337D01*
X180235024Y-74737333D01*
X180255500Y-74594917D01*
X180255500Y-74409500D01*
X180243947Y-74302044D01*
X180232741Y-74250533D01*
X180232637Y-74250222D01*
X180198616Y-74148002D01*
X180198613Y-74147996D01*
X180120828Y-74026962D01*
X180120825Y-74026957D01*
X180120820Y-74026951D01*
X180075076Y-73974159D01*
X180075072Y-73974156D01*
X180075070Y-73974153D01*
X179966336Y-73879933D01*
X179966333Y-73879931D01*
X179966331Y-73879930D01*
X179835465Y-73820164D01*
X179835460Y-73820162D01*
X179835459Y-73820162D01*
X179768420Y-73800477D01*
X179768422Y-73800477D01*
X179768417Y-73800476D01*
X179720944Y-73793650D01*
X179626000Y-73780000D01*
X179625998Y-73780000D01*
X177800395Y-73780000D01*
X177776204Y-73777617D01*
X177756620Y-73773721D01*
X177756290Y-73773657D01*
X177727321Y-73767894D01*
X177715537Y-73764943D01*
X177711283Y-73763653D01*
X177711272Y-73763650D01*
X177671592Y-73755758D01*
X177663825Y-73754213D01*
X177663823Y-73754212D01*
X177663814Y-73754211D01*
X177582650Y-73746217D01*
X177565209Y-73744500D01*
X177565207Y-73744500D01*
X176119679Y-73744500D01*
X176052640Y-73724815D01*
X176033005Y-73702155D01*
X202150000Y-73702155D01*
X202150000Y-74175000D01*
X204500000Y-74175000D01*
X204500000Y-73250000D01*
X202602155Y-73250000D01*
X202542627Y-73256401D01*
X202542620Y-73256403D01*
X202407913Y-73306645D01*
X202407906Y-73306649D01*
X202292812Y-73392809D01*
X202292809Y-73392812D01*
X202206649Y-73507906D01*
X202206645Y-73507913D01*
X202156403Y-73642620D01*
X202156401Y-73642627D01*
X202150000Y-73702155D01*
X176033005Y-73702155D01*
X176006885Y-73672011D01*
X175996358Y-73607541D01*
X176007452Y-73501992D01*
X175987666Y-73313736D01*
X175929171Y-73133708D01*
X175834525Y-72969776D01*
X175707863Y-72829104D01*
X175672753Y-72803595D01*
X175554726Y-72717843D01*
X175554721Y-72717840D01*
X175381799Y-72640849D01*
X175381794Y-72640847D01*
X175235993Y-72609857D01*
X175196638Y-72601492D01*
X175007346Y-72601492D01*
X174974889Y-72608390D01*
X174822189Y-72640847D01*
X174822184Y-72640849D01*
X174649262Y-72717840D01*
X174649257Y-72717843D01*
X174496121Y-72829103D01*
X174369458Y-72969777D01*
X174274813Y-73133707D01*
X174274810Y-73133714D01*
X174218433Y-73307227D01*
X174216318Y-73313736D01*
X174208007Y-73392812D01*
X174198671Y-73481641D01*
X174172086Y-73546255D01*
X174163033Y-73556359D01*
X174114143Y-73605250D01*
X174097225Y-73630570D01*
X174097224Y-73630571D01*
X174049553Y-73701913D01*
X173995940Y-73746717D01*
X173928806Y-73755758D01*
X173850501Y-73744500D01*
X173850500Y-73744500D01*
X172923171Y-73744500D01*
X172856132Y-73724815D01*
X172810377Y-73672011D01*
X172800433Y-73602853D01*
X172829458Y-73539297D01*
X172888236Y-73501523D01*
X172902761Y-73498191D01*
X172942271Y-73491598D01*
X173160069Y-73416828D01*
X173362589Y-73307229D01*
X173544308Y-73165792D01*
X173700269Y-72996373D01*
X173826217Y-72803595D01*
X173918717Y-72592716D01*
X173975246Y-72369488D01*
X173994262Y-72140000D01*
X173992936Y-72124000D01*
X173975246Y-71910515D01*
X173975246Y-71910512D01*
X173968024Y-71881993D01*
X177410700Y-71881993D01*
X177410700Y-71882006D01*
X177429864Y-72113297D01*
X177429866Y-72113308D01*
X177486842Y-72338300D01*
X177580075Y-72550848D01*
X177707016Y-72745147D01*
X177707019Y-72745151D01*
X177707021Y-72745153D01*
X177864216Y-72915913D01*
X177864219Y-72915915D01*
X177864222Y-72915918D01*
X178047365Y-73058464D01*
X178047371Y-73058468D01*
X178047374Y-73058470D01*
X178251497Y-73168936D01*
X178321707Y-73193039D01*
X178471015Y-73244297D01*
X178471017Y-73244297D01*
X178471019Y-73244298D01*
X178699951Y-73282500D01*
X178699952Y-73282500D01*
X178932048Y-73282500D01*
X178932049Y-73282500D01*
X179160981Y-73244298D01*
X179380503Y-73168936D01*
X179584626Y-73058470D01*
X179767784Y-72915913D01*
X179924979Y-72745153D01*
X180051924Y-72550849D01*
X180145157Y-72338300D01*
X180202134Y-72113305D01*
X180202135Y-72113297D01*
X180221300Y-71882006D01*
X180221300Y-71881993D01*
X189094700Y-71881993D01*
X189094700Y-71882006D01*
X189113864Y-72113297D01*
X189113866Y-72113308D01*
X189170842Y-72338300D01*
X189264075Y-72550848D01*
X189391016Y-72745147D01*
X189391019Y-72745151D01*
X189391021Y-72745153D01*
X189548216Y-72915913D01*
X189548219Y-72915915D01*
X189548222Y-72915918D01*
X189731365Y-73058464D01*
X189731371Y-73058468D01*
X189731374Y-73058470D01*
X189935497Y-73168936D01*
X190005707Y-73193039D01*
X190155015Y-73244297D01*
X190155017Y-73244297D01*
X190155019Y-73244298D01*
X190383951Y-73282500D01*
X190383952Y-73282500D01*
X190616048Y-73282500D01*
X190616049Y-73282500D01*
X190844981Y-73244298D01*
X191064503Y-73168936D01*
X191268626Y-73058470D01*
X191451784Y-72915913D01*
X191608979Y-72745153D01*
X191735924Y-72550849D01*
X191829157Y-72338300D01*
X191886134Y-72113305D01*
X191886135Y-72113297D01*
X191905300Y-71882006D01*
X191905300Y-71881993D01*
X191886135Y-71650702D01*
X191886133Y-71650691D01*
X191829157Y-71425699D01*
X191735924Y-71213151D01*
X191608983Y-71018852D01*
X191608980Y-71018849D01*
X191608979Y-71018847D01*
X191451784Y-70848087D01*
X191451779Y-70848083D01*
X191451777Y-70848081D01*
X191268634Y-70705535D01*
X191268628Y-70705531D01*
X191064504Y-70595064D01*
X191064495Y-70595061D01*
X190844984Y-70519702D01*
X190673282Y-70491050D01*
X190616049Y-70481500D01*
X190383951Y-70481500D01*
X190338164Y-70489140D01*
X190155015Y-70519702D01*
X189935504Y-70595061D01*
X189935495Y-70595064D01*
X189731371Y-70705531D01*
X189731365Y-70705535D01*
X189548222Y-70848081D01*
X189548219Y-70848084D01*
X189548216Y-70848086D01*
X189548216Y-70848087D01*
X189489267Y-70912122D01*
X189391016Y-71018852D01*
X189264075Y-71213151D01*
X189170842Y-71425699D01*
X189113866Y-71650691D01*
X189113864Y-71650702D01*
X189094700Y-71881993D01*
X180221300Y-71881993D01*
X180202135Y-71650702D01*
X180202133Y-71650691D01*
X180145157Y-71425699D01*
X180051924Y-71213151D01*
X179924983Y-71018852D01*
X179924980Y-71018849D01*
X179924979Y-71018847D01*
X179767784Y-70848087D01*
X179767779Y-70848083D01*
X179767777Y-70848081D01*
X179584634Y-70705535D01*
X179584628Y-70705531D01*
X179380504Y-70595064D01*
X179380495Y-70595061D01*
X179160984Y-70519702D01*
X178989282Y-70491050D01*
X178932049Y-70481500D01*
X178699951Y-70481500D01*
X178654164Y-70489140D01*
X178471015Y-70519702D01*
X178251504Y-70595061D01*
X178251495Y-70595064D01*
X178047371Y-70705531D01*
X178047365Y-70705535D01*
X177864222Y-70848081D01*
X177864219Y-70848084D01*
X177864216Y-70848086D01*
X177864216Y-70848087D01*
X177805267Y-70912122D01*
X177707016Y-71018852D01*
X177580075Y-71213151D01*
X177486842Y-71425699D01*
X177429866Y-71650691D01*
X177429864Y-71650702D01*
X177410700Y-71881993D01*
X173968024Y-71881993D01*
X173918717Y-71687284D01*
X173826217Y-71476405D01*
X173801980Y-71439308D01*
X173700271Y-71283629D01*
X173669963Y-71250706D01*
X173544308Y-71114208D01*
X173431760Y-71026609D01*
X173358541Y-70969620D01*
X173359428Y-70968480D01*
X173318363Y-70920366D01*
X173308938Y-70851135D01*
X173338437Y-70787798D01*
X173358571Y-70770352D01*
X173358266Y-70769960D01*
X173390958Y-70744513D01*
X173390959Y-70744511D01*
X172729410Y-70082962D01*
X172792993Y-70065925D01*
X172907007Y-70000099D01*
X173000099Y-69907007D01*
X173065925Y-69792993D01*
X173082962Y-69729409D01*
X173743238Y-70389686D01*
X173825774Y-70263357D01*
X173918242Y-70052553D01*
X173974750Y-69829408D01*
X173974752Y-69829396D01*
X173993760Y-69600005D01*
X173993760Y-69599994D01*
X173974752Y-69370603D01*
X173974750Y-69370591D01*
X173918242Y-69147446D01*
X173825775Y-68936644D01*
X173743238Y-68810312D01*
X173082962Y-69470589D01*
X173065925Y-69407007D01*
X173000099Y-69292993D01*
X172907007Y-69199901D01*
X172792993Y-69134075D01*
X172729409Y-69117037D01*
X173390958Y-68455486D01*
X173390958Y-68455484D01*
X173362322Y-68433196D01*
X173362316Y-68433192D01*
X173159868Y-68323632D01*
X173159859Y-68323629D01*
X172942150Y-68248889D01*
X172715095Y-68211000D01*
X172484905Y-68211000D01*
X172257849Y-68248889D01*
X172040140Y-68323629D01*
X172040132Y-68323632D01*
X171837681Y-68433194D01*
X171809040Y-68455485D01*
X171809040Y-68455487D01*
X172470591Y-69117037D01*
X172407007Y-69134075D01*
X172292993Y-69199901D01*
X172199901Y-69292993D01*
X172134075Y-69407007D01*
X172117037Y-69470590D01*
X171456759Y-68810312D01*
X171433807Y-68845443D01*
X171380661Y-68890800D01*
X171311429Y-68900223D01*
X171248094Y-68870720D01*
X171226190Y-68845442D01*
X171203238Y-68810312D01*
X170542962Y-69470589D01*
X170525925Y-69407007D01*
X170460099Y-69292993D01*
X170367007Y-69199901D01*
X170252993Y-69134075D01*
X170189409Y-69117037D01*
X170850958Y-68455486D01*
X170850958Y-68455484D01*
X170822322Y-68433196D01*
X170822307Y-68433186D01*
X170814627Y-68429030D01*
X170765037Y-68379810D01*
X170749931Y-68311593D01*
X170774103Y-68246038D01*
X170829880Y-68203958D01*
X170841539Y-68200206D01*
X171007496Y-68155739D01*
X171213734Y-68059568D01*
X171400139Y-67929047D01*
X171561047Y-67768139D01*
X171691568Y-67581734D01*
X171787739Y-67375496D01*
X171846635Y-67155692D01*
X171866468Y-66929000D01*
X171846635Y-66702308D01*
X171787739Y-66482504D01*
X171691568Y-66276266D01*
X171577900Y-66113930D01*
X171561045Y-66089858D01*
X171400140Y-65928953D01*
X171239377Y-65816386D01*
X171195752Y-65761809D01*
X171186500Y-65714811D01*
X171186500Y-64549451D01*
X171206185Y-64482412D01*
X171222815Y-64461774D01*
X171368556Y-64316033D01*
X171429878Y-64282549D01*
X171499570Y-64287533D01*
X171555503Y-64329405D01*
X171569792Y-64353905D01*
X171664075Y-64568848D01*
X171791016Y-64763147D01*
X171791019Y-64763151D01*
X171791021Y-64763153D01*
X171948216Y-64933913D01*
X171948219Y-64933915D01*
X171948222Y-64933918D01*
X172131365Y-65076464D01*
X172131371Y-65076468D01*
X172131374Y-65076470D01*
X172335497Y-65186936D01*
X172449487Y-65226068D01*
X172555015Y-65262297D01*
X172555017Y-65262297D01*
X172555019Y-65262298D01*
X172783951Y-65300500D01*
X172783952Y-65300500D01*
X173016048Y-65300500D01*
X173016049Y-65300500D01*
X173244981Y-65262298D01*
X173464503Y-65186936D01*
X173668626Y-65076470D01*
X173704930Y-65048214D01*
X173758778Y-65006302D01*
X173851784Y-64933913D01*
X174008979Y-64763153D01*
X174009284Y-64762687D01*
X174071286Y-64667785D01*
X174135924Y-64568849D01*
X174159110Y-64515988D01*
X174204064Y-64462506D01*
X174270799Y-64441815D01*
X174338127Y-64460489D01*
X174384672Y-64512598D01*
X174396193Y-64554993D01*
X174414364Y-64762687D01*
X174414366Y-64762697D01*
X174473258Y-64982488D01*
X174473261Y-64982497D01*
X174569431Y-65188732D01*
X174569432Y-65188734D01*
X174699954Y-65375141D01*
X174860858Y-65536045D01*
X174860861Y-65536047D01*
X175047266Y-65666568D01*
X175062387Y-65673619D01*
X175114825Y-65719791D01*
X175133976Y-65786985D01*
X175113760Y-65853866D01*
X175062387Y-65898380D01*
X175047266Y-65905432D01*
X175047264Y-65905433D01*
X174860858Y-66035954D01*
X174699954Y-66196858D01*
X174569432Y-66383265D01*
X174569431Y-66383267D01*
X174473261Y-66589502D01*
X174473258Y-66589511D01*
X174414366Y-66809302D01*
X174414364Y-66809313D01*
X174394532Y-67035998D01*
X174394532Y-67036001D01*
X174414364Y-67262686D01*
X174414366Y-67262697D01*
X174473258Y-67482488D01*
X174473261Y-67482497D01*
X174569431Y-67688732D01*
X174569432Y-67688734D01*
X174699954Y-67875141D01*
X174860858Y-68036045D01*
X174860861Y-68036047D01*
X175047266Y-68166568D01*
X175253504Y-68262739D01*
X175473308Y-68321635D01*
X175635230Y-68335801D01*
X175699998Y-68341468D01*
X175700000Y-68341468D01*
X175700002Y-68341468D01*
X175756673Y-68336509D01*
X175926692Y-68321635D01*
X176146496Y-68262739D01*
X176352734Y-68166568D01*
X176539139Y-68036047D01*
X176700047Y-67875139D01*
X176830568Y-67688734D01*
X176926739Y-67482496D01*
X176985635Y-67262692D01*
X177003718Y-67056000D01*
X183498540Y-67056000D01*
X183518326Y-67244256D01*
X183518327Y-67244259D01*
X183576818Y-67424277D01*
X183576821Y-67424284D01*
X183671467Y-67588216D01*
X183714772Y-67636310D01*
X183746650Y-67671715D01*
X183776880Y-67734706D01*
X183778500Y-67754687D01*
X183778500Y-68389312D01*
X183758815Y-68456351D01*
X183746650Y-68472284D01*
X183671466Y-68555784D01*
X183576821Y-68719715D01*
X183576818Y-68719722D01*
X183521232Y-68890800D01*
X183518326Y-68899744D01*
X183498540Y-69088000D01*
X183518326Y-69276256D01*
X183518327Y-69276259D01*
X183576818Y-69456277D01*
X183576821Y-69456284D01*
X183671467Y-69620216D01*
X183740860Y-69697284D01*
X183798129Y-69760888D01*
X183951265Y-69872148D01*
X183951270Y-69872151D01*
X184124192Y-69949142D01*
X184124197Y-69949144D01*
X184309354Y-69988500D01*
X184309355Y-69988500D01*
X184498644Y-69988500D01*
X184498646Y-69988500D01*
X184683803Y-69949144D01*
X184856730Y-69872151D01*
X185009871Y-69760888D01*
X185136533Y-69620216D01*
X185231179Y-69456284D01*
X185289674Y-69276256D01*
X185309460Y-69088000D01*
X185289674Y-68899744D01*
X185231179Y-68719716D01*
X185136533Y-68555784D01*
X185061350Y-68472284D01*
X185031120Y-68409292D01*
X185029500Y-68389312D01*
X185029500Y-67754687D01*
X185049185Y-67687648D01*
X185061350Y-67671715D01*
X185079891Y-67651122D01*
X185136533Y-67588216D01*
X185231179Y-67424284D01*
X185289674Y-67244256D01*
X185295376Y-67190000D01*
X197203040Y-67190000D01*
X197222826Y-67378256D01*
X197222827Y-67378259D01*
X197281318Y-67558277D01*
X197281321Y-67558284D01*
X197375967Y-67722216D01*
X197419272Y-67770310D01*
X197451150Y-67805715D01*
X197481380Y-67868706D01*
X197483000Y-67888687D01*
X197483000Y-68630312D01*
X197463315Y-68697351D01*
X197451150Y-68713284D01*
X197375966Y-68796784D01*
X197281321Y-68960715D01*
X197281318Y-68960722D01*
X197224993Y-69134075D01*
X197222826Y-69140744D01*
X197203040Y-69329000D01*
X197222826Y-69517256D01*
X197222827Y-69517259D01*
X197281318Y-69697277D01*
X197281321Y-69697284D01*
X197375967Y-69861216D01*
X197403753Y-69892075D01*
X197502629Y-70001888D01*
X197655765Y-70113148D01*
X197655770Y-70113151D01*
X197828692Y-70190142D01*
X197828697Y-70190144D01*
X198013854Y-70229500D01*
X198013855Y-70229500D01*
X198203144Y-70229500D01*
X198203146Y-70229500D01*
X198388303Y-70190144D01*
X198561230Y-70113151D01*
X198714371Y-70001888D01*
X198841033Y-69861216D01*
X198935679Y-69697284D01*
X198994174Y-69517256D01*
X199013960Y-69329000D01*
X198994174Y-69140744D01*
X198935679Y-68960716D01*
X198841033Y-68796784D01*
X198820275Y-68773730D01*
X198765850Y-68713284D01*
X198735620Y-68650292D01*
X198734000Y-68630312D01*
X198734000Y-67888687D01*
X198753685Y-67821648D01*
X198765850Y-67805715D01*
X198784391Y-67785122D01*
X198841033Y-67722216D01*
X198935679Y-67558284D01*
X198994174Y-67378256D01*
X199013960Y-67190000D01*
X198994174Y-67001744D01*
X198935679Y-66821716D01*
X198841033Y-66657784D01*
X198714371Y-66517112D01*
X198666747Y-66482511D01*
X198561234Y-66405851D01*
X198561229Y-66405848D01*
X198388307Y-66328857D01*
X198388302Y-66328855D01*
X198242501Y-66297865D01*
X198203146Y-66289500D01*
X198013854Y-66289500D01*
X197981397Y-66296398D01*
X197828697Y-66328855D01*
X197828692Y-66328857D01*
X197655770Y-66405848D01*
X197655765Y-66405851D01*
X197502629Y-66517111D01*
X197375966Y-66657785D01*
X197281321Y-66821715D01*
X197281318Y-66821722D01*
X197222827Y-67001740D01*
X197222826Y-67001744D01*
X197203040Y-67190000D01*
X185295376Y-67190000D01*
X185309460Y-67056000D01*
X185289674Y-66867744D01*
X185231179Y-66687716D01*
X185136533Y-66523784D01*
X185009871Y-66383112D01*
X185009870Y-66383111D01*
X184856734Y-66271851D01*
X184856729Y-66271848D01*
X184683807Y-66194857D01*
X184683802Y-66194855D01*
X184525199Y-66161144D01*
X184498646Y-66155500D01*
X184309354Y-66155500D01*
X184299945Y-66157500D01*
X184124197Y-66194855D01*
X184124192Y-66194857D01*
X183951270Y-66271848D01*
X183951265Y-66271851D01*
X183798129Y-66383111D01*
X183671466Y-66523785D01*
X183576821Y-66687715D01*
X183576818Y-66687722D01*
X183518327Y-66867740D01*
X183518326Y-66867744D01*
X183498540Y-67056000D01*
X177003718Y-67056000D01*
X177005468Y-67036000D01*
X176985635Y-66809308D01*
X176926739Y-66589504D01*
X176830568Y-66383266D01*
X176700047Y-66196861D01*
X176700045Y-66196858D01*
X176539141Y-66035954D01*
X176352734Y-65905432D01*
X176337614Y-65898381D01*
X176285176Y-65852211D01*
X176266023Y-65785018D01*
X176286238Y-65718136D01*
X176337614Y-65673618D01*
X176352734Y-65666568D01*
X176539139Y-65536047D01*
X176700047Y-65375139D01*
X176830568Y-65188734D01*
X176926739Y-64982496D01*
X176985635Y-64762692D01*
X177004256Y-64549849D01*
X177005468Y-64536001D01*
X177005468Y-64535998D01*
X176991463Y-64375920D01*
X176985635Y-64309308D01*
X176981186Y-64292704D01*
X176978209Y-64281592D01*
X176979872Y-64211743D01*
X177019035Y-64153880D01*
X177083264Y-64126377D01*
X177097984Y-64125500D01*
X178933532Y-64125500D01*
X179000571Y-64145185D01*
X179021213Y-64161819D01*
X179538181Y-64678787D01*
X179571666Y-64740110D01*
X179574500Y-64766468D01*
X179574500Y-64771623D01*
X179582587Y-64812285D01*
X179598535Y-64892463D01*
X179598538Y-64892472D01*
X179607758Y-64914729D01*
X179607759Y-64914733D01*
X179645685Y-65006296D01*
X179645686Y-65006298D01*
X179645688Y-65006302D01*
X179662840Y-65031972D01*
X179679876Y-65057468D01*
X179679877Y-65057469D01*
X179679878Y-65057470D01*
X179714142Y-65108749D01*
X179714145Y-65108752D01*
X179714148Y-65108756D01*
X179805586Y-65200194D01*
X179805608Y-65200214D01*
X180533000Y-65927606D01*
X180533029Y-65927637D01*
X180623247Y-66017855D01*
X180623255Y-66017861D01*
X180688032Y-66061144D01*
X180688033Y-66061144D01*
X180725699Y-66086312D01*
X180792380Y-66113931D01*
X180792382Y-66113933D01*
X180832624Y-66130601D01*
X180839532Y-66133463D01*
X180899955Y-66145481D01*
X180960377Y-66157500D01*
X183449607Y-66157500D01*
X183510029Y-66145481D01*
X183570452Y-66133463D01*
X183570455Y-66133461D01*
X183570458Y-66133461D01*
X183603787Y-66119654D01*
X183603786Y-66119654D01*
X183603792Y-66119652D01*
X183684286Y-66086312D01*
X183735509Y-66052084D01*
X183786733Y-66017858D01*
X183873858Y-65930733D01*
X183873859Y-65930731D01*
X183880925Y-65923665D01*
X183880927Y-65923661D01*
X184351771Y-65452819D01*
X184413094Y-65419334D01*
X184439452Y-65416500D01*
X184498644Y-65416500D01*
X184498646Y-65416500D01*
X184683803Y-65377144D01*
X184856730Y-65300151D01*
X184856938Y-65300000D01*
X186394540Y-65300000D01*
X186414326Y-65488256D01*
X186414327Y-65488259D01*
X186472818Y-65668277D01*
X186472821Y-65668284D01*
X186567467Y-65832216D01*
X186694129Y-65972888D01*
X186847265Y-66084148D01*
X186847270Y-66084151D01*
X187020192Y-66161142D01*
X187020197Y-66161144D01*
X187205354Y-66200500D01*
X187205355Y-66200500D01*
X187394644Y-66200500D01*
X187394646Y-66200500D01*
X187579803Y-66161144D01*
X187752730Y-66084151D01*
X187905871Y-65972888D01*
X188001638Y-65866527D01*
X188061125Y-65829879D01*
X188093788Y-65825500D01*
X189096252Y-65825500D01*
X189163291Y-65845185D01*
X189188400Y-65866526D01*
X189194126Y-65872885D01*
X189194130Y-65872889D01*
X189347265Y-65984148D01*
X189347270Y-65984151D01*
X189520192Y-66061142D01*
X189520197Y-66061144D01*
X189705354Y-66100500D01*
X189705355Y-66100500D01*
X189894644Y-66100500D01*
X189894646Y-66100500D01*
X190079803Y-66061144D01*
X190252730Y-65984151D01*
X190405871Y-65872888D01*
X190532533Y-65732216D01*
X190627179Y-65568284D01*
X190685674Y-65388256D01*
X190705460Y-65200000D01*
X190685674Y-65011744D01*
X190627179Y-64831716D01*
X190532533Y-64667784D01*
X190405871Y-64527112D01*
X190405870Y-64527111D01*
X190252734Y-64415851D01*
X190252729Y-64415848D01*
X190163051Y-64375920D01*
X202002562Y-64375920D01*
X202002562Y-64624079D01*
X202043408Y-64868862D01*
X202123984Y-65103572D01*
X202123989Y-65103582D01*
X202242094Y-65321822D01*
X202242100Y-65321831D01*
X202394517Y-65517656D01*
X202394520Y-65517660D01*
X202394522Y-65517662D01*
X202394523Y-65517663D01*
X202577102Y-65685739D01*
X202648237Y-65732214D01*
X202777071Y-65816386D01*
X202784855Y-65821471D01*
X203012116Y-65921157D01*
X203252685Y-65982077D01*
X203335123Y-65988908D01*
X203499994Y-66002571D01*
X203500000Y-66002571D01*
X203500006Y-66002571D01*
X203648389Y-65990274D01*
X203747315Y-65982077D01*
X203987884Y-65921157D01*
X204215145Y-65821471D01*
X204422898Y-65685739D01*
X204605477Y-65517663D01*
X204757902Y-65321828D01*
X204876014Y-65103576D01*
X204956592Y-64868859D01*
X204997438Y-64624081D01*
X205000000Y-64500000D01*
X204997438Y-64375919D01*
X204956592Y-64131141D01*
X204876014Y-63896424D01*
X204778434Y-63716111D01*
X204757905Y-63678177D01*
X204757899Y-63678168D01*
X204605482Y-63482343D01*
X204605479Y-63482339D01*
X204542865Y-63424699D01*
X204422898Y-63314261D01*
X204415240Y-63309258D01*
X204215146Y-63178529D01*
X203987884Y-63078843D01*
X203747311Y-63017922D01*
X203500006Y-62997430D01*
X203499994Y-62997430D01*
X203252688Y-63017922D01*
X203012115Y-63078843D01*
X202784853Y-63178529D01*
X202577104Y-63314259D01*
X202577100Y-63314262D01*
X202394520Y-63482339D01*
X202394517Y-63482343D01*
X202242100Y-63678168D01*
X202242094Y-63678177D01*
X202123989Y-63896417D01*
X202123984Y-63896427D01*
X202043408Y-64131137D01*
X202012555Y-64316034D01*
X202006236Y-64353905D01*
X202002562Y-64375920D01*
X190163051Y-64375920D01*
X190079807Y-64338857D01*
X190079802Y-64338855D01*
X189934001Y-64307865D01*
X189894646Y-64299500D01*
X189705354Y-64299500D01*
X189672897Y-64306398D01*
X189520197Y-64338855D01*
X189520192Y-64338857D01*
X189347270Y-64415848D01*
X189347265Y-64415851D01*
X189194130Y-64527110D01*
X189194126Y-64527114D01*
X189188400Y-64533474D01*
X189128913Y-64570121D01*
X189096252Y-64574500D01*
X187873747Y-64574500D01*
X187806708Y-64554815D01*
X187800862Y-64550818D01*
X187752734Y-64515851D01*
X187752729Y-64515848D01*
X187579807Y-64438857D01*
X187579802Y-64438855D01*
X187434001Y-64407865D01*
X187394646Y-64399500D01*
X187205354Y-64399500D01*
X187172897Y-64406398D01*
X187020197Y-64438855D01*
X187020192Y-64438857D01*
X186847270Y-64515848D01*
X186847265Y-64515851D01*
X186694129Y-64627111D01*
X186567466Y-64767785D01*
X186472821Y-64931715D01*
X186472818Y-64931722D01*
X186425787Y-65076470D01*
X186414326Y-65111744D01*
X186394540Y-65300000D01*
X184856938Y-65300000D01*
X185009871Y-65188888D01*
X185136533Y-65048216D01*
X185231179Y-64884284D01*
X185289674Y-64704256D01*
X185309460Y-64516000D01*
X185289674Y-64327744D01*
X185231179Y-64147716D01*
X185136533Y-63983784D01*
X185009871Y-63843112D01*
X185005961Y-63840271D01*
X184856734Y-63731851D01*
X184856729Y-63731848D01*
X184683807Y-63654857D01*
X184683802Y-63654855D01*
X184538001Y-63623865D01*
X184498646Y-63615500D01*
X184309354Y-63615500D01*
X184276897Y-63622398D01*
X184124197Y-63654855D01*
X184124192Y-63654857D01*
X183951270Y-63731848D01*
X183951265Y-63731851D01*
X183798129Y-63843111D01*
X183671466Y-63983785D01*
X183576821Y-64147715D01*
X183576818Y-64147722D01*
X183518327Y-64327740D01*
X183518326Y-64327744D01*
X183515325Y-64356300D01*
X183500678Y-64495651D01*
X183474093Y-64560266D01*
X183465038Y-64570370D01*
X183165227Y-64870182D01*
X183103907Y-64903666D01*
X183077548Y-64906500D01*
X181924367Y-64906500D01*
X181857328Y-64886815D01*
X181811573Y-64834011D01*
X181801629Y-64764853D01*
X181806436Y-64744182D01*
X181860674Y-64577256D01*
X181880460Y-64389000D01*
X181860674Y-64200744D01*
X181802179Y-64020716D01*
X181707533Y-63856784D01*
X181580871Y-63716112D01*
X181580870Y-63716111D01*
X181427734Y-63604851D01*
X181427729Y-63604848D01*
X181254807Y-63527857D01*
X181254802Y-63527855D01*
X181109001Y-63496865D01*
X181069646Y-63488500D01*
X181069645Y-63488500D01*
X181010452Y-63488500D01*
X180943413Y-63468815D01*
X180922771Y-63452181D01*
X179326198Y-61855608D01*
X179326178Y-61855586D01*
X179234733Y-61764141D01*
X179183509Y-61729915D01*
X179132287Y-61695689D01*
X179132286Y-61695688D01*
X179132283Y-61695686D01*
X179132280Y-61695685D01*
X179051792Y-61662347D01*
X179018453Y-61648537D01*
X179008427Y-61646543D01*
X178958029Y-61636518D01*
X178897610Y-61624500D01*
X178897607Y-61624500D01*
X178897606Y-61624500D01*
X172611607Y-61624500D01*
X172488393Y-61624500D01*
X172488389Y-61624500D01*
X172427971Y-61636518D01*
X172367548Y-61648537D01*
X172367543Y-61648538D01*
X172334207Y-61662347D01*
X172320397Y-61668067D01*
X172298169Y-61677274D01*
X172253713Y-61695688D01*
X172243557Y-61702475D01*
X172243449Y-61702547D01*
X172151268Y-61764140D01*
X172107705Y-61807703D01*
X172064142Y-61851267D01*
X170075141Y-63840267D01*
X170075138Y-63840271D01*
X170064110Y-63856778D01*
X170064106Y-63856784D01*
X170006687Y-63942714D01*
X170006685Y-63942718D01*
X169983563Y-63998540D01*
X169983564Y-63998541D01*
X169963049Y-64048071D01*
X169959537Y-64056549D01*
X169944701Y-64131141D01*
X169943482Y-64137268D01*
X169943481Y-64137269D01*
X169935500Y-64177391D01*
X169935500Y-65714811D01*
X169915815Y-65781850D01*
X169882623Y-65816386D01*
X169721859Y-65928953D01*
X169560954Y-66089858D01*
X169433523Y-66271851D01*
X169430432Y-66276266D01*
X169423380Y-66291387D01*
X169377209Y-66343825D01*
X169310015Y-66362976D01*
X169243134Y-66342760D01*
X169198619Y-66291387D01*
X169191568Y-66276266D01*
X169077900Y-66113930D01*
X169061045Y-66089858D01*
X168900141Y-65928954D01*
X168713734Y-65798432D01*
X168713732Y-65798431D01*
X168507497Y-65702261D01*
X168507488Y-65702258D01*
X168287697Y-65643366D01*
X168287693Y-65643365D01*
X168287692Y-65643365D01*
X168287691Y-65643364D01*
X168287686Y-65643364D01*
X168061002Y-65623532D01*
X168060998Y-65623532D01*
X167834313Y-65643364D01*
X167834302Y-65643366D01*
X167614511Y-65702258D01*
X167614502Y-65702261D01*
X167408267Y-65798431D01*
X167408265Y-65798432D01*
X167221858Y-65928954D01*
X167060954Y-66089858D01*
X166930432Y-66276265D01*
X166930431Y-66276267D01*
X166834261Y-66482502D01*
X166834258Y-66482511D01*
X166775366Y-66702302D01*
X166775364Y-66702313D01*
X166755532Y-66928998D01*
X166755532Y-66929001D01*
X166775364Y-67155686D01*
X166775366Y-67155697D01*
X166834258Y-67375488D01*
X166834261Y-67375497D01*
X166930431Y-67581732D01*
X166930432Y-67581734D01*
X167060954Y-67768141D01*
X167221858Y-67929045D01*
X167221861Y-67929047D01*
X167408266Y-68059568D01*
X167614504Y-68155739D01*
X167614509Y-68155740D01*
X167614511Y-68155741D01*
X167667415Y-68169916D01*
X167834308Y-68214635D01*
X167996230Y-68228801D01*
X168060998Y-68234468D01*
X168061000Y-68234468D01*
X168061002Y-68234468D01*
X168117673Y-68229509D01*
X168287692Y-68214635D01*
X168507496Y-68155739D01*
X168713734Y-68059568D01*
X168900139Y-67929047D01*
X169061047Y-67768139D01*
X169191568Y-67581734D01*
X169198618Y-67566614D01*
X169244789Y-67514176D01*
X169311982Y-67495023D01*
X169378864Y-67515238D01*
X169423381Y-67566614D01*
X169430432Y-67581733D01*
X169430432Y-67581734D01*
X169560954Y-67768141D01*
X169721857Y-67929044D01*
X169721860Y-67929046D01*
X169721861Y-67929047D01*
X169841519Y-68012831D01*
X169885143Y-68067406D01*
X169892337Y-68136904D01*
X169860815Y-68199259D01*
X169800586Y-68234674D01*
X169790806Y-68236714D01*
X169717848Y-68248889D01*
X169500140Y-68323629D01*
X169500132Y-68323632D01*
X169297681Y-68433194D01*
X169269040Y-68455485D01*
X169269040Y-68455487D01*
X169930591Y-69117037D01*
X169867007Y-69134075D01*
X169752993Y-69199901D01*
X169659901Y-69292993D01*
X169594075Y-69407007D01*
X169577037Y-69470590D01*
X168916760Y-68810313D01*
X168834224Y-68936644D01*
X168741757Y-69147446D01*
X168685249Y-69370591D01*
X168685247Y-69370603D01*
X168666240Y-69599994D01*
X168666240Y-69600005D01*
X168685247Y-69829396D01*
X168685249Y-69829408D01*
X168741757Y-70052553D01*
X168834224Y-70263355D01*
X168916759Y-70389685D01*
X169577037Y-69729408D01*
X169594075Y-69792993D01*
X169659901Y-69907007D01*
X169752993Y-70000099D01*
X169867007Y-70065925D01*
X169930590Y-70082962D01*
X169269040Y-70744512D01*
X169269040Y-70744514D01*
X169301733Y-70769960D01*
X169300789Y-70771172D01*
X169341639Y-70819043D01*
X169351060Y-70888274D01*
X169321556Y-70951609D01*
X169301181Y-70969263D01*
X169301459Y-70969620D01*
X169115694Y-71114206D01*
X169115689Y-71114211D01*
X168959728Y-71283629D01*
X168833782Y-71476405D01*
X168741282Y-71687285D01*
X168684753Y-71910515D01*
X168665738Y-72139994D01*
X168665738Y-72140005D01*
X168684753Y-72369484D01*
X168741282Y-72592714D01*
X168833782Y-72803594D01*
X168959728Y-72996370D01*
X168959731Y-72996373D01*
X169115692Y-73165792D01*
X169209485Y-73238794D01*
X169296665Y-73306649D01*
X169297411Y-73307229D01*
X169499931Y-73416828D01*
X169613025Y-73455653D01*
X169717725Y-73491597D01*
X169717727Y-73491597D01*
X169717729Y-73491598D01*
X169757239Y-73498191D01*
X169820124Y-73528641D01*
X169856563Y-73588256D01*
X169854988Y-73658108D01*
X169815898Y-73716020D01*
X169751705Y-73743604D01*
X169736829Y-73744500D01*
X167373263Y-73744500D01*
X167306224Y-73724815D01*
X167260469Y-73672011D01*
X167250525Y-73602854D01*
X167250525Y-73602853D01*
X167255500Y-73568252D01*
X167255500Y-72124000D01*
X167243947Y-72016544D01*
X167232741Y-71965033D01*
X167232637Y-71964722D01*
X167198616Y-71862502D01*
X167198613Y-71862496D01*
X167120828Y-71741462D01*
X167120825Y-71741457D01*
X167120820Y-71741451D01*
X167075076Y-71688659D01*
X167075072Y-71688656D01*
X167075070Y-71688653D01*
X166966336Y-71594433D01*
X166966333Y-71594431D01*
X166966331Y-71594430D01*
X166835465Y-71534664D01*
X166835460Y-71534662D01*
X166835459Y-71534662D01*
X166768420Y-71514977D01*
X166768422Y-71514977D01*
X166768417Y-71514976D01*
X166706354Y-71506053D01*
X166626000Y-71494500D01*
X166474003Y-71494500D01*
X166474002Y-71494500D01*
X166443951Y-71495394D01*
X166429199Y-71496273D01*
X166399276Y-71498951D01*
X166399271Y-71498952D01*
X166260304Y-71536187D01*
X166260290Y-71536192D01*
X166196065Y-71563694D01*
X166159302Y-71586102D01*
X166091813Y-71604184D01*
X166025261Y-71582908D01*
X166007090Y-71567904D01*
X165939139Y-71499953D01*
X165939138Y-71499952D01*
X165939137Y-71499951D01*
X165752734Y-71369432D01*
X165752730Y-71369430D01*
X165737022Y-71362105D01*
X165684583Y-71315931D01*
X165665433Y-71248737D01*
X165685650Y-71181857D01*
X165737028Y-71137340D01*
X165752481Y-71130134D01*
X165825471Y-71079024D01*
X165146447Y-70400000D01*
X165152661Y-70400000D01*
X165254394Y-70372741D01*
X165345606Y-70320080D01*
X165420080Y-70245606D01*
X165472741Y-70154394D01*
X165500000Y-70052661D01*
X165500000Y-70046447D01*
X166179024Y-70725471D01*
X166230136Y-70652478D01*
X166326264Y-70446331D01*
X166326269Y-70446317D01*
X166385139Y-70226610D01*
X166385141Y-70226599D01*
X166404966Y-70000002D01*
X166404966Y-69999997D01*
X166385141Y-69773400D01*
X166385139Y-69773389D01*
X166326269Y-69553682D01*
X166326264Y-69553668D01*
X166230136Y-69347521D01*
X166230132Y-69347513D01*
X166179025Y-69274526D01*
X165500000Y-69953551D01*
X165500000Y-69947339D01*
X165472741Y-69845606D01*
X165420080Y-69754394D01*
X165345606Y-69679920D01*
X165254394Y-69627259D01*
X165152661Y-69600000D01*
X165146445Y-69600000D01*
X165825472Y-68920974D01*
X165752478Y-68869863D01*
X165546331Y-68773735D01*
X165546317Y-68773730D01*
X165326610Y-68714860D01*
X165326599Y-68714858D01*
X165100002Y-68695034D01*
X165099998Y-68695034D01*
X164873400Y-68714858D01*
X164873389Y-68714860D01*
X164653682Y-68773730D01*
X164653673Y-68773734D01*
X164447516Y-68869866D01*
X164447512Y-68869868D01*
X164374526Y-68920973D01*
X164374526Y-68920974D01*
X165053553Y-69600000D01*
X165047339Y-69600000D01*
X164945606Y-69627259D01*
X164854394Y-69679920D01*
X164779920Y-69754394D01*
X164727259Y-69845606D01*
X164700000Y-69947339D01*
X164700000Y-69953552D01*
X164020974Y-69274526D01*
X164020973Y-69274526D01*
X163969868Y-69347512D01*
X163969866Y-69347516D01*
X163873734Y-69553673D01*
X163873730Y-69553682D01*
X163814860Y-69773389D01*
X163814858Y-69773400D01*
X163795034Y-69999997D01*
X163795034Y-70000002D01*
X163814858Y-70226599D01*
X163814860Y-70226610D01*
X163873730Y-70446317D01*
X163873735Y-70446331D01*
X163969863Y-70652478D01*
X164020974Y-70725472D01*
X164700000Y-70046446D01*
X164700000Y-70052661D01*
X164727259Y-70154394D01*
X164779920Y-70245606D01*
X164854394Y-70320080D01*
X164945606Y-70372741D01*
X165047339Y-70400000D01*
X165053553Y-70400000D01*
X164374526Y-71079025D01*
X164447513Y-71130132D01*
X164447515Y-71130133D01*
X164462973Y-71137341D01*
X164515413Y-71183513D01*
X164534566Y-71250706D01*
X164514351Y-71317587D01*
X164462979Y-71362104D01*
X164447270Y-71369429D01*
X164447265Y-71369432D01*
X164260861Y-71499952D01*
X164195891Y-71564921D01*
X164134567Y-71598405D01*
X164064876Y-71593419D01*
X164056699Y-71590032D01*
X163935462Y-71534664D01*
X163935457Y-71534662D01*
X163935456Y-71534662D01*
X163868417Y-71514977D01*
X163868419Y-71514977D01*
X163868414Y-71514976D01*
X163806351Y-71506053D01*
X163725997Y-71494500D01*
X162034309Y-71494500D01*
X161967270Y-71474815D01*
X161946628Y-71458181D01*
X161329409Y-70840962D01*
X161392993Y-70823925D01*
X161507007Y-70758099D01*
X161600099Y-70665007D01*
X161665925Y-70550993D01*
X161682962Y-70487410D01*
X162351186Y-71155634D01*
X162435484Y-71026606D01*
X162528682Y-70814135D01*
X162585638Y-70589218D01*
X162604798Y-70358005D01*
X162604798Y-70357994D01*
X162585638Y-70126781D01*
X162528682Y-69901864D01*
X162435483Y-69689390D01*
X162351186Y-69560364D01*
X161682962Y-70228589D01*
X161665925Y-70165007D01*
X161600099Y-70050993D01*
X161507007Y-69957901D01*
X161392993Y-69892075D01*
X161329409Y-69875037D01*
X161998797Y-69205647D01*
X161998797Y-69205645D01*
X161968360Y-69181955D01*
X161968354Y-69181951D01*
X161764302Y-69071523D01*
X161764293Y-69071520D01*
X161544860Y-68996188D01*
X161316007Y-68958000D01*
X161083993Y-68958000D01*
X160855139Y-68996188D01*
X160635706Y-69071520D01*
X160635697Y-69071523D01*
X160431650Y-69181949D01*
X160401200Y-69205647D01*
X161070591Y-69875037D01*
X161007007Y-69892075D01*
X160892993Y-69957901D01*
X160799901Y-70050993D01*
X160734075Y-70165007D01*
X160717037Y-70228590D01*
X160048812Y-69560365D01*
X159964516Y-69689391D01*
X159964514Y-69689395D01*
X159871317Y-69901864D01*
X159814361Y-70126781D01*
X159795202Y-70357994D01*
X159795202Y-70358005D01*
X159814361Y-70589218D01*
X159871317Y-70814135D01*
X159964516Y-71026609D01*
X160048811Y-71155633D01*
X160717037Y-70487408D01*
X160734075Y-70550993D01*
X160799901Y-70665007D01*
X160892993Y-70758099D01*
X161007007Y-70823925D01*
X161070590Y-70840962D01*
X160453372Y-71458181D01*
X160392049Y-71491666D01*
X160365691Y-71494500D01*
X157374000Y-71494500D01*
X157306961Y-71474815D01*
X157261206Y-71422011D01*
X157250000Y-71370500D01*
X157250000Y-64375920D01*
X159002562Y-64375920D01*
X159002562Y-64624079D01*
X159043408Y-64868862D01*
X159123984Y-65103572D01*
X159123989Y-65103582D01*
X159242094Y-65321822D01*
X159242100Y-65321831D01*
X159394517Y-65517656D01*
X159394520Y-65517660D01*
X159394522Y-65517662D01*
X159394523Y-65517663D01*
X159577102Y-65685739D01*
X159648237Y-65732214D01*
X159777071Y-65816386D01*
X159784855Y-65821471D01*
X160012116Y-65921157D01*
X160252685Y-65982077D01*
X160335123Y-65988908D01*
X160499994Y-66002571D01*
X160500000Y-66002571D01*
X160500006Y-66002571D01*
X160648389Y-65990274D01*
X160747315Y-65982077D01*
X160987884Y-65921157D01*
X161215145Y-65821471D01*
X161422898Y-65685739D01*
X161605477Y-65517663D01*
X161757902Y-65321828D01*
X161876014Y-65103576D01*
X161956592Y-64868859D01*
X161997438Y-64624081D01*
X162000000Y-64500000D01*
X161997438Y-64375919D01*
X161956592Y-64131141D01*
X161876014Y-63896424D01*
X161867663Y-63880993D01*
X166869700Y-63880993D01*
X166869700Y-63881006D01*
X166888864Y-64112297D01*
X166888866Y-64112308D01*
X166945842Y-64337300D01*
X167039075Y-64549848D01*
X167166016Y-64744147D01*
X167166019Y-64744151D01*
X167166021Y-64744153D01*
X167323216Y-64914913D01*
X167323219Y-64914915D01*
X167323222Y-64914918D01*
X167506365Y-65057464D01*
X167506371Y-65057468D01*
X167506374Y-65057470D01*
X167710497Y-65167936D01*
X167804520Y-65200214D01*
X167930015Y-65243297D01*
X167930017Y-65243297D01*
X167930019Y-65243298D01*
X168158951Y-65281500D01*
X168158952Y-65281500D01*
X168391048Y-65281500D01*
X168391049Y-65281500D01*
X168619981Y-65243298D01*
X168839503Y-65167936D01*
X169043626Y-65057470D01*
X169226784Y-64914913D01*
X169383979Y-64744153D01*
X169510924Y-64549849D01*
X169604157Y-64337300D01*
X169661134Y-64112305D01*
X169661135Y-64112297D01*
X169680300Y-63881006D01*
X169680300Y-63880993D01*
X169661135Y-63649702D01*
X169661133Y-63649691D01*
X169604157Y-63424699D01*
X169510924Y-63212151D01*
X169383983Y-63017852D01*
X169383980Y-63017849D01*
X169383979Y-63017847D01*
X169226784Y-62847087D01*
X169226779Y-62847083D01*
X169226777Y-62847081D01*
X169043634Y-62704535D01*
X169043628Y-62704531D01*
X168839504Y-62594064D01*
X168839495Y-62594061D01*
X168619984Y-62518702D01*
X168448282Y-62490050D01*
X168391049Y-62480500D01*
X168158951Y-62480500D01*
X168113164Y-62488140D01*
X167930015Y-62518702D01*
X167710504Y-62594061D01*
X167710495Y-62594064D01*
X167506371Y-62704531D01*
X167506365Y-62704535D01*
X167323222Y-62847081D01*
X167323219Y-62847084D01*
X167166016Y-63017852D01*
X167039075Y-63212151D01*
X166945842Y-63424699D01*
X166888866Y-63649691D01*
X166888864Y-63649702D01*
X166869700Y-63880993D01*
X161867663Y-63880993D01*
X161778434Y-63716111D01*
X161757905Y-63678177D01*
X161757899Y-63678168D01*
X161605482Y-63482343D01*
X161605479Y-63482339D01*
X161542865Y-63424699D01*
X161422898Y-63314261D01*
X161415240Y-63309258D01*
X161215146Y-63178529D01*
X160987884Y-63078843D01*
X160747311Y-63017922D01*
X160500006Y-62997430D01*
X160499994Y-62997430D01*
X160252688Y-63017922D01*
X160012115Y-63078843D01*
X159784853Y-63178529D01*
X159577104Y-63314259D01*
X159577100Y-63314262D01*
X159394520Y-63482339D01*
X159394517Y-63482343D01*
X159242100Y-63678168D01*
X159242094Y-63678177D01*
X159123989Y-63896417D01*
X159123984Y-63896427D01*
X159043408Y-64131137D01*
X159012555Y-64316034D01*
X159006236Y-64353905D01*
X159002562Y-64375920D01*
X157250000Y-64375920D01*
X157250000Y-61374627D01*
X157269685Y-61307588D01*
X157322489Y-61261833D01*
X157374624Y-61250629D01*
X206626629Y-61499376D01*
G37*
%TD.AperFunction*%
%TA.AperFunction,Conductor*%
G36*
X172134075Y-69792993D02*
G01*
X172199901Y-69907007D01*
X172292993Y-70000099D01*
X172407007Y-70065925D01*
X172470590Y-70082962D01*
X171809040Y-70744512D01*
X171809040Y-70744514D01*
X171841733Y-70769960D01*
X171840789Y-70771172D01*
X171881639Y-70819043D01*
X171891060Y-70888274D01*
X171861556Y-70951609D01*
X171841181Y-70969263D01*
X171841459Y-70969620D01*
X171655694Y-71114206D01*
X171655689Y-71114211D01*
X171499727Y-71283630D01*
X171433808Y-71384528D01*
X171380662Y-71429884D01*
X171311431Y-71439308D01*
X171248095Y-71409806D01*
X171226192Y-71384528D01*
X171160272Y-71283630D01*
X171078251Y-71194532D01*
X171004308Y-71114208D01*
X170891760Y-71026609D01*
X170818541Y-70969620D01*
X170819428Y-70968480D01*
X170778363Y-70920366D01*
X170768938Y-70851135D01*
X170798437Y-70787798D01*
X170818571Y-70770352D01*
X170818266Y-70769960D01*
X170850958Y-70744513D01*
X170850959Y-70744511D01*
X170189410Y-70082962D01*
X170252993Y-70065925D01*
X170367007Y-70000099D01*
X170460099Y-69907007D01*
X170525925Y-69792993D01*
X170542962Y-69729409D01*
X171203237Y-70389685D01*
X171226190Y-70354555D01*
X171279337Y-70309199D01*
X171348568Y-70299775D01*
X171411904Y-70329277D01*
X171433808Y-70354555D01*
X171456760Y-70389685D01*
X172117037Y-69729408D01*
X172134075Y-69792993D01*
G37*
%TD.AperFunction*%
%TD*%
%TA.AperFunction,Conductor*%
%TO.N,GND*%
G36*
X160704075Y-76142993D02*
G01*
X160769901Y-76257007D01*
X160862993Y-76350099D01*
X160977007Y-76415925D01*
X161040590Y-76432962D01*
X160379040Y-77094512D01*
X160379040Y-77094514D01*
X160407677Y-77116803D01*
X160407683Y-77116807D01*
X160607127Y-77224741D01*
X160656717Y-77273961D01*
X160671825Y-77342177D01*
X160647655Y-77407733D01*
X160591879Y-77449814D01*
X160580202Y-77453571D01*
X160355682Y-77513730D01*
X160355673Y-77513734D01*
X160149516Y-77609866D01*
X160149512Y-77609868D01*
X160076526Y-77660973D01*
X160076526Y-77660974D01*
X160755553Y-78340000D01*
X160749339Y-78340000D01*
X160647606Y-78367259D01*
X160556394Y-78419920D01*
X160481920Y-78494394D01*
X160429259Y-78585606D01*
X160402000Y-78687339D01*
X160402000Y-78693552D01*
X159722974Y-78014526D01*
X159722973Y-78014526D01*
X159671868Y-78087512D01*
X159671866Y-78087516D01*
X159575734Y-78293673D01*
X159575730Y-78293682D01*
X159516860Y-78513389D01*
X159516858Y-78513400D01*
X159497034Y-78739997D01*
X159497034Y-78740002D01*
X159516858Y-78966599D01*
X159516860Y-78966610D01*
X159575730Y-79186317D01*
X159575735Y-79186331D01*
X159671863Y-79392478D01*
X159722974Y-79465472D01*
X160402000Y-78786446D01*
X160402000Y-78792661D01*
X160429259Y-78894394D01*
X160481920Y-78985606D01*
X160556394Y-79060080D01*
X160647606Y-79112741D01*
X160749339Y-79140000D01*
X160755553Y-79140000D01*
X160076526Y-79819025D01*
X160149513Y-79870132D01*
X160149521Y-79870136D01*
X160355668Y-79966264D01*
X160355682Y-79966269D01*
X160575389Y-80025139D01*
X160575400Y-80025141D01*
X160801998Y-80044966D01*
X160802002Y-80044966D01*
X161028599Y-80025141D01*
X161028610Y-80025139D01*
X161248317Y-79966269D01*
X161248331Y-79966264D01*
X161454478Y-79870136D01*
X161527471Y-79819024D01*
X160848447Y-79140000D01*
X160854661Y-79140000D01*
X160956394Y-79112741D01*
X161047606Y-79060080D01*
X161122080Y-78985606D01*
X161174741Y-78894394D01*
X161202000Y-78792661D01*
X161202000Y-78786447D01*
X161881024Y-79465471D01*
X161932134Y-79392481D01*
X161939340Y-79377028D01*
X161985511Y-79324587D01*
X162052704Y-79305433D01*
X162119585Y-79325646D01*
X162164105Y-79377022D01*
X162171430Y-79392730D01*
X162171432Y-79392734D01*
X162301954Y-79579141D01*
X162462858Y-79740045D01*
X162462861Y-79740047D01*
X162649266Y-79870568D01*
X162855504Y-79966739D01*
X163075308Y-80025635D01*
X163237230Y-80039801D01*
X163301998Y-80045468D01*
X163302000Y-80045468D01*
X163302002Y-80045468D01*
X163358673Y-80040509D01*
X163528692Y-80025635D01*
X163748496Y-79966739D01*
X163954734Y-79870568D01*
X164141139Y-79740047D01*
X164302047Y-79579139D01*
X164414613Y-79418377D01*
X164469189Y-79374752D01*
X164516188Y-79365500D01*
X166629548Y-79365500D01*
X166696587Y-79385185D01*
X166717229Y-79401819D01*
X166961038Y-79645628D01*
X166994523Y-79706951D01*
X166996678Y-79720347D01*
X166998749Y-79740047D01*
X167014326Y-79888256D01*
X167014327Y-79888259D01*
X167072818Y-80068277D01*
X167072821Y-80068284D01*
X167167467Y-80232216D01*
X167294129Y-80372888D01*
X167447265Y-80484148D01*
X167447270Y-80484151D01*
X167620192Y-80561142D01*
X167620197Y-80561144D01*
X167805354Y-80600500D01*
X167805355Y-80600500D01*
X167965538Y-80600500D01*
X168032577Y-80620185D01*
X168078332Y-80672989D01*
X168088276Y-80742147D01*
X168059251Y-80805703D01*
X168053219Y-80812181D01*
X168014146Y-80851253D01*
X168014141Y-80851259D01*
X167998611Y-80874500D01*
X167998612Y-80874501D01*
X167945687Y-80953707D01*
X167933171Y-80983924D01*
X167920655Y-81014142D01*
X167898538Y-81067536D01*
X167898535Y-81067548D01*
X167874500Y-81188381D01*
X167874500Y-87311611D01*
X167898535Y-87432444D01*
X167898540Y-87432461D01*
X167945685Y-87546280D01*
X167945690Y-87546289D01*
X167979914Y-87597507D01*
X167979915Y-87597509D01*
X168014140Y-87648731D01*
X168014141Y-87648732D01*
X168014142Y-87648733D01*
X168101267Y-87735858D01*
X168101268Y-87735858D01*
X168108335Y-87742925D01*
X168108334Y-87742925D01*
X168108337Y-87742927D01*
X171437149Y-91071740D01*
X171437150Y-91071741D01*
X171489583Y-91124174D01*
X171524276Y-91158867D01*
X171626715Y-91227315D01*
X171626721Y-91227318D01*
X171626722Y-91227319D01*
X171740556Y-91274471D01*
X171800979Y-91286489D01*
X171861401Y-91298508D01*
X171861402Y-91298508D01*
X172623244Y-91298508D01*
X172690283Y-91318193D01*
X172715392Y-91339534D01*
X172721118Y-91345893D01*
X172721122Y-91345897D01*
X172874257Y-91457156D01*
X172874262Y-91457159D01*
X173047184Y-91534150D01*
X173047189Y-91534152D01*
X173232346Y-91573508D01*
X173232347Y-91573508D01*
X173421636Y-91573508D01*
X173421638Y-91573508D01*
X173606795Y-91534152D01*
X173779722Y-91457159D01*
X173932863Y-91345896D01*
X173951597Y-91325088D01*
X174011079Y-91288440D01*
X174080936Y-91289768D01*
X174116631Y-91307741D01*
X174157207Y-91337221D01*
X174157211Y-91337224D01*
X174330133Y-91414215D01*
X174330138Y-91414217D01*
X174515295Y-91453573D01*
X174515296Y-91453573D01*
X174704585Y-91453573D01*
X174704587Y-91453573D01*
X174889744Y-91414217D01*
X175062671Y-91337224D01*
X175215812Y-91225961D01*
X175342474Y-91085289D01*
X175437120Y-90921357D01*
X175495615Y-90741329D01*
X175515401Y-90553073D01*
X175495615Y-90364817D01*
X175437120Y-90184789D01*
X175342474Y-90020857D01*
X175215812Y-89880185D01*
X175158973Y-89838889D01*
X175062675Y-89768924D01*
X175062670Y-89768921D01*
X174889748Y-89691930D01*
X174889743Y-89691928D01*
X174743942Y-89660938D01*
X174704587Y-89652573D01*
X174515295Y-89652573D01*
X174393007Y-89678566D01*
X174323340Y-89673249D01*
X174279546Y-89644956D01*
X170161819Y-85527229D01*
X170128334Y-85465906D01*
X170125500Y-85439548D01*
X170125500Y-84799993D01*
X170794700Y-84799993D01*
X170794700Y-84800006D01*
X170813864Y-85031297D01*
X170813866Y-85031308D01*
X170870842Y-85256300D01*
X170964075Y-85468848D01*
X171091016Y-85663147D01*
X171091019Y-85663151D01*
X171091021Y-85663153D01*
X171248216Y-85833913D01*
X171248219Y-85833915D01*
X171248222Y-85833918D01*
X171431365Y-85976464D01*
X171431371Y-85976468D01*
X171431374Y-85976470D01*
X171635497Y-86086936D01*
X171675008Y-86100500D01*
X171855015Y-86162297D01*
X171855017Y-86162297D01*
X171855019Y-86162298D01*
X172083951Y-86200500D01*
X172083952Y-86200500D01*
X172316048Y-86200500D01*
X172316049Y-86200500D01*
X172544981Y-86162298D01*
X172764503Y-86086936D01*
X172968626Y-85976470D01*
X173151784Y-85833913D01*
X173308979Y-85663153D01*
X173435924Y-85468849D01*
X173529157Y-85256300D01*
X173586134Y-85031305D01*
X173587197Y-85018478D01*
X173605300Y-84800006D01*
X173605300Y-84799993D01*
X173597014Y-84699993D01*
X174994700Y-84699993D01*
X174994700Y-84700006D01*
X175013864Y-84931297D01*
X175013866Y-84931308D01*
X175070842Y-85156300D01*
X175164075Y-85368848D01*
X175291016Y-85563147D01*
X175291019Y-85563151D01*
X175291021Y-85563153D01*
X175448216Y-85733913D01*
X175448219Y-85733915D01*
X175448222Y-85733918D01*
X175631365Y-85876464D01*
X175631371Y-85876468D01*
X175631374Y-85876470D01*
X175670214Y-85897489D01*
X175816157Y-85976470D01*
X175835497Y-85986936D01*
X175949487Y-86026068D01*
X176055015Y-86062297D01*
X176055017Y-86062297D01*
X176055019Y-86062298D01*
X176283951Y-86100500D01*
X176283952Y-86100500D01*
X176516048Y-86100500D01*
X176516049Y-86100500D01*
X176629418Y-86081582D01*
X186025001Y-86081582D01*
X186031408Y-86152102D01*
X186031409Y-86152107D01*
X186081981Y-86314396D01*
X186169927Y-86459877D01*
X186290122Y-86580072D01*
X186435604Y-86668019D01*
X186435603Y-86668019D01*
X186597894Y-86718590D01*
X186597892Y-86718590D01*
X186668418Y-86724999D01*
X186749999Y-86724998D01*
X186750000Y-86724998D01*
X186750000Y-86075000D01*
X186025001Y-86075000D01*
X186025001Y-86081582D01*
X176629418Y-86081582D01*
X176744981Y-86062298D01*
X176964503Y-85986936D01*
X177168626Y-85876470D01*
X177351784Y-85733913D01*
X177508979Y-85563153D01*
X177635924Y-85368849D01*
X177729157Y-85156300D01*
X177786134Y-84931305D01*
X177786203Y-84930472D01*
X177805300Y-84700006D01*
X177805300Y-84699993D01*
X177786135Y-84468702D01*
X177786133Y-84468691D01*
X177729157Y-84243699D01*
X177635924Y-84031151D01*
X177508983Y-83836852D01*
X177508980Y-83836849D01*
X177508979Y-83836847D01*
X177351784Y-83666087D01*
X177351779Y-83666083D01*
X177351777Y-83666081D01*
X177168634Y-83523535D01*
X177168628Y-83523531D01*
X176964504Y-83413064D01*
X176964495Y-83413061D01*
X176744984Y-83337702D01*
X176573282Y-83309050D01*
X176516049Y-83299500D01*
X176283951Y-83299500D01*
X176238164Y-83307140D01*
X176055015Y-83337702D01*
X175835504Y-83413061D01*
X175835495Y-83413064D01*
X175631371Y-83523531D01*
X175631365Y-83523535D01*
X175448222Y-83666081D01*
X175448219Y-83666084D01*
X175448216Y-83666086D01*
X175448216Y-83666087D01*
X175389267Y-83730122D01*
X175291016Y-83836852D01*
X175164075Y-84031151D01*
X175070842Y-84243699D01*
X175013866Y-84468691D01*
X175013864Y-84468702D01*
X174994700Y-84699993D01*
X173597014Y-84699993D01*
X173586135Y-84568702D01*
X173586133Y-84568691D01*
X173529157Y-84343699D01*
X173435924Y-84131151D01*
X173308983Y-83936852D01*
X173308980Y-83936849D01*
X173308979Y-83936847D01*
X173151784Y-83766087D01*
X173151779Y-83766083D01*
X173151777Y-83766081D01*
X172968634Y-83623535D01*
X172968628Y-83623531D01*
X172764504Y-83513064D01*
X172764495Y-83513061D01*
X172544984Y-83437702D01*
X172373282Y-83409050D01*
X172316049Y-83399500D01*
X172083951Y-83399500D01*
X172038164Y-83407140D01*
X171855015Y-83437702D01*
X171635504Y-83513061D01*
X171635495Y-83513064D01*
X171431371Y-83623531D01*
X171431365Y-83623535D01*
X171248222Y-83766081D01*
X171248219Y-83766084D01*
X171091016Y-83936852D01*
X170964075Y-84131151D01*
X170870842Y-84343699D01*
X170813866Y-84568691D01*
X170813864Y-84568702D01*
X170794700Y-84799993D01*
X170125500Y-84799993D01*
X170125500Y-81810452D01*
X170145185Y-81743413D01*
X170161819Y-81722771D01*
X171972767Y-79911823D01*
X172034090Y-79878338D01*
X172060448Y-79875504D01*
X173296252Y-79875504D01*
X173363291Y-79895189D01*
X173388400Y-79916530D01*
X173394126Y-79922889D01*
X173394130Y-79922893D01*
X173547265Y-80034152D01*
X173547270Y-80034155D01*
X173720192Y-80111146D01*
X173720197Y-80111148D01*
X173905354Y-80150504D01*
X173905355Y-80150504D01*
X174094644Y-80150504D01*
X174094646Y-80150504D01*
X174279803Y-80111148D01*
X174452730Y-80034155D01*
X174605871Y-79922892D01*
X174732533Y-79782220D01*
X174827179Y-79618288D01*
X174885674Y-79438260D01*
X174905460Y-79250004D01*
X174885674Y-79061748D01*
X174885671Y-79061740D01*
X174885516Y-79060260D01*
X174898085Y-78991530D01*
X174945817Y-78940506D01*
X175013557Y-78923388D01*
X175059273Y-78934019D01*
X175120192Y-78961142D01*
X175120197Y-78961144D01*
X175305354Y-79000500D01*
X175305355Y-79000500D01*
X175494644Y-79000500D01*
X175494646Y-79000500D01*
X175679803Y-78961144D01*
X175852730Y-78884151D01*
X176005871Y-78772888D01*
X176132533Y-78632216D01*
X176227179Y-78468284D01*
X176285674Y-78288256D01*
X176305460Y-78100000D01*
X176285674Y-77911744D01*
X176227179Y-77731716D01*
X176132533Y-77567784D01*
X176099358Y-77530939D01*
X176069128Y-77467947D01*
X176077754Y-77398612D01*
X176122495Y-77344946D01*
X176189148Y-77323989D01*
X176211907Y-77325657D01*
X176294863Y-77339500D01*
X176294865Y-77339500D01*
X176525136Y-77339500D01*
X176525137Y-77339500D01*
X176752271Y-77301598D01*
X176753693Y-77301110D01*
X176822466Y-77277500D01*
X176970069Y-77226828D01*
X177172589Y-77117229D01*
X177354308Y-76975792D01*
X177510269Y-76806373D01*
X177553838Y-76739686D01*
X177576191Y-76705472D01*
X177629337Y-76660115D01*
X177698569Y-76650691D01*
X177761905Y-76680193D01*
X177783809Y-76705472D01*
X177849728Y-76806370D01*
X177849731Y-76806373D01*
X178005692Y-76975792D01*
X178067125Y-77023607D01*
X178186931Y-77116856D01*
X178187411Y-77117229D01*
X178389931Y-77226828D01*
X178481565Y-77258286D01*
X178607725Y-77301597D01*
X178607727Y-77301597D01*
X178607729Y-77301598D01*
X178834863Y-77339500D01*
X178834864Y-77339500D01*
X179065136Y-77339500D01*
X179065137Y-77339500D01*
X179292271Y-77301598D01*
X179293693Y-77301110D01*
X179362466Y-77277500D01*
X179510069Y-77226828D01*
X179566982Y-77196027D01*
X179635309Y-77181432D01*
X179700682Y-77206094D01*
X179742343Y-77262184D01*
X179750000Y-77305082D01*
X179750000Y-78281129D01*
X179730315Y-78348168D01*
X179698886Y-78381447D01*
X179607127Y-78448113D01*
X179480466Y-78588785D01*
X179385821Y-78752715D01*
X179385818Y-78752722D01*
X179332815Y-78915851D01*
X179327326Y-78932744D01*
X179307540Y-79121000D01*
X179327326Y-79309256D01*
X179327327Y-79309259D01*
X179385818Y-79489277D01*
X179385821Y-79489284D01*
X179480467Y-79653216D01*
X179571184Y-79753967D01*
X179607129Y-79793888D01*
X179607133Y-79793892D01*
X179641727Y-79819025D01*
X179698885Y-79860552D01*
X179741551Y-79915880D01*
X179750000Y-79960870D01*
X179750000Y-85250000D01*
X185940135Y-85250000D01*
X186007174Y-85269685D01*
X186052929Y-85322489D01*
X186062873Y-85391647D01*
X186058521Y-85410889D01*
X186031409Y-85497896D01*
X186025000Y-85568427D01*
X186025000Y-85575000D01*
X186876000Y-85575000D01*
X186943039Y-85594685D01*
X186988794Y-85647489D01*
X187000000Y-85699000D01*
X187000000Y-85825000D01*
X187126000Y-85825000D01*
X187193039Y-85844685D01*
X187238794Y-85897489D01*
X187250000Y-85949000D01*
X187250000Y-86724999D01*
X187331581Y-86724999D01*
X187402102Y-86718591D01*
X187402107Y-86718590D01*
X187564396Y-86668018D01*
X187709877Y-86580072D01*
X187830071Y-86459878D01*
X187830074Y-86459874D01*
X187870517Y-86392974D01*
X187922044Y-86345786D01*
X187990904Y-86333947D01*
X188048708Y-86356220D01*
X193500000Y-90250000D01*
X206626000Y-90250000D01*
X206693039Y-90269685D01*
X206738794Y-90322489D01*
X206750000Y-90374000D01*
X206750000Y-102626000D01*
X206730315Y-102693039D01*
X206677511Y-102738794D01*
X206626000Y-102750000D01*
X157374000Y-102750000D01*
X157306961Y-102730315D01*
X157261206Y-102677511D01*
X157250000Y-102626000D01*
X157250000Y-99375920D01*
X159502562Y-99375920D01*
X159502562Y-99624079D01*
X159543408Y-99868862D01*
X159623984Y-100103572D01*
X159623989Y-100103582D01*
X159742094Y-100321822D01*
X159742100Y-100321831D01*
X159894517Y-100517656D01*
X159894520Y-100517660D01*
X159894522Y-100517662D01*
X159894523Y-100517663D01*
X160077102Y-100685739D01*
X160284855Y-100821471D01*
X160512116Y-100921157D01*
X160752685Y-100982077D01*
X160835123Y-100988908D01*
X160999994Y-101002571D01*
X161000000Y-101002571D01*
X161000006Y-101002571D01*
X161148389Y-100990274D01*
X161247315Y-100982077D01*
X161487884Y-100921157D01*
X161715145Y-100821471D01*
X161922898Y-100685739D01*
X162105477Y-100517663D01*
X162257902Y-100321828D01*
X162376014Y-100103576D01*
X162456592Y-99868859D01*
X162497438Y-99624081D01*
X162500000Y-99500000D01*
X162497438Y-99375920D01*
X202002562Y-99375920D01*
X202002562Y-99624079D01*
X202043408Y-99868862D01*
X202123984Y-100103572D01*
X202123989Y-100103582D01*
X202242094Y-100321822D01*
X202242100Y-100321831D01*
X202394517Y-100517656D01*
X202394520Y-100517660D01*
X202394522Y-100517662D01*
X202394523Y-100517663D01*
X202577102Y-100685739D01*
X202784855Y-100821471D01*
X203012116Y-100921157D01*
X203252685Y-100982077D01*
X203335123Y-100988908D01*
X203499994Y-101002571D01*
X203500000Y-101002571D01*
X203500006Y-101002571D01*
X203648389Y-100990274D01*
X203747315Y-100982077D01*
X203987884Y-100921157D01*
X204215145Y-100821471D01*
X204422898Y-100685739D01*
X204605477Y-100517663D01*
X204757902Y-100321828D01*
X204876014Y-100103576D01*
X204956592Y-99868859D01*
X204997438Y-99624081D01*
X205000000Y-99500000D01*
X204997438Y-99375919D01*
X204956592Y-99131141D01*
X204876014Y-98896424D01*
X204757902Y-98678172D01*
X204605477Y-98482337D01*
X204422898Y-98314261D01*
X204248923Y-98200597D01*
X204215146Y-98178529D01*
X203987884Y-98078843D01*
X203747311Y-98017922D01*
X203500006Y-97997430D01*
X203499994Y-97997430D01*
X203252688Y-98017922D01*
X203012115Y-98078843D01*
X202784853Y-98178529D01*
X202577104Y-98314259D01*
X202577100Y-98314262D01*
X202394520Y-98482339D01*
X202394517Y-98482343D01*
X202242100Y-98678168D01*
X202242094Y-98678177D01*
X202123989Y-98896417D01*
X202123984Y-98896427D01*
X202043408Y-99131137D01*
X202002562Y-99375920D01*
X162497438Y-99375920D01*
X162497438Y-99375919D01*
X162456592Y-99131141D01*
X162376014Y-98896424D01*
X162257902Y-98678172D01*
X162105477Y-98482337D01*
X161922898Y-98314261D01*
X161748923Y-98200597D01*
X161715146Y-98178529D01*
X161487884Y-98078843D01*
X161247311Y-98017922D01*
X161000006Y-97997430D01*
X160999994Y-97997430D01*
X160752688Y-98017922D01*
X160512115Y-98078843D01*
X160284853Y-98178529D01*
X160077104Y-98314259D01*
X160077100Y-98314262D01*
X159894520Y-98482339D01*
X159894517Y-98482343D01*
X159742100Y-98678168D01*
X159742094Y-98678177D01*
X159623989Y-98896417D01*
X159623984Y-98896427D01*
X159543408Y-99131137D01*
X159502562Y-99375920D01*
X157250000Y-99375920D01*
X157250000Y-92850000D01*
X174675001Y-92850000D01*
X174675001Y-92898322D01*
X174685144Y-92997607D01*
X174738452Y-93158481D01*
X174738457Y-93158492D01*
X174827424Y-93302728D01*
X174827427Y-93302732D01*
X174947267Y-93422572D01*
X174947271Y-93422575D01*
X175091507Y-93511542D01*
X175091518Y-93511547D01*
X175252393Y-93564855D01*
X175351683Y-93574999D01*
X175462960Y-93574999D01*
X175530000Y-93594683D01*
X175575755Y-93647487D01*
X175585699Y-93716645D01*
X175574098Y-93750178D01*
X175575462Y-93750786D01*
X175572818Y-93756722D01*
X175521392Y-93914997D01*
X175514326Y-93936744D01*
X175494540Y-94125000D01*
X175514326Y-94313256D01*
X175514327Y-94313259D01*
X175572818Y-94493277D01*
X175572821Y-94493284D01*
X175667467Y-94657216D01*
X175765495Y-94766087D01*
X175794129Y-94797888D01*
X175947265Y-94909148D01*
X175947270Y-94909151D01*
X176120192Y-94986142D01*
X176120197Y-94986144D01*
X176305354Y-95025500D01*
X176305355Y-95025500D01*
X176494644Y-95025500D01*
X176494646Y-95025500D01*
X176622723Y-94998276D01*
X176686160Y-94984793D01*
X176686673Y-94987207D01*
X176745387Y-94985521D01*
X176805225Y-95021592D01*
X176831813Y-95067133D01*
X176868452Y-95179897D01*
X176868454Y-95179901D01*
X176963100Y-95343833D01*
X177061907Y-95453569D01*
X177089762Y-95484505D01*
X177242898Y-95595765D01*
X177242903Y-95595768D01*
X177415825Y-95672759D01*
X177415830Y-95672761D01*
X177600987Y-95712117D01*
X177600988Y-95712117D01*
X177790277Y-95712117D01*
X177790279Y-95712117D01*
X177975436Y-95672761D01*
X178148363Y-95595768D01*
X178301504Y-95484505D01*
X178332573Y-95449998D01*
X178392057Y-95413353D01*
X178461914Y-95414682D01*
X178519962Y-95453569D01*
X178532108Y-95470973D01*
X178567465Y-95532214D01*
X178694129Y-95672888D01*
X178847265Y-95784148D01*
X178847270Y-95784151D01*
X179020192Y-95861142D01*
X179020197Y-95861144D01*
X179205354Y-95900500D01*
X179264548Y-95900500D01*
X179331587Y-95920185D01*
X179352229Y-95936819D01*
X181317709Y-97902301D01*
X181317713Y-97902304D01*
X181420154Y-97970754D01*
X181420161Y-97970758D01*
X181483950Y-97997180D01*
X181533994Y-98017909D01*
X181543956Y-98019890D01*
X181605867Y-98052274D01*
X181611917Y-98058537D01*
X181639642Y-98089330D01*
X181639648Y-98089335D01*
X181792783Y-98200594D01*
X181792788Y-98200597D01*
X181965710Y-98277588D01*
X181965715Y-98277590D01*
X182150872Y-98316946D01*
X182150873Y-98316946D01*
X182340162Y-98316946D01*
X182340164Y-98316946D01*
X182525321Y-98277590D01*
X182698248Y-98200597D01*
X182851389Y-98089334D01*
X182978051Y-97948662D01*
X183072697Y-97784730D01*
X183131192Y-97604702D01*
X183150978Y-97416446D01*
X183131192Y-97228190D01*
X183072697Y-97048162D01*
X182978051Y-96884230D01*
X182851389Y-96743558D01*
X182851388Y-96743557D01*
X182698252Y-96632297D01*
X182698247Y-96632294D01*
X182525325Y-96555303D01*
X182525320Y-96555301D01*
X182379519Y-96524311D01*
X182340164Y-96515946D01*
X182150872Y-96515946D01*
X182118415Y-96522844D01*
X181965715Y-96555301D01*
X181965710Y-96555303D01*
X181887317Y-96590207D01*
X181818067Y-96599492D01*
X181754790Y-96569864D01*
X181749200Y-96564609D01*
X180984584Y-95799993D01*
X183694700Y-95799993D01*
X183694700Y-95800006D01*
X183713864Y-96031297D01*
X183713866Y-96031308D01*
X183770842Y-96256300D01*
X183864075Y-96468848D01*
X183991016Y-96663147D01*
X183991019Y-96663151D01*
X183991021Y-96663153D01*
X184148216Y-96833913D01*
X184148219Y-96833915D01*
X184148222Y-96833918D01*
X184331365Y-96976464D01*
X184331371Y-96976468D01*
X184331374Y-96976470D01*
X184535497Y-97086936D01*
X184649487Y-97126068D01*
X184755015Y-97162297D01*
X184755017Y-97162297D01*
X184755019Y-97162298D01*
X184983951Y-97200500D01*
X184983952Y-97200500D01*
X185216048Y-97200500D01*
X185216049Y-97200500D01*
X185444981Y-97162298D01*
X185664503Y-97086936D01*
X185868626Y-96976470D01*
X186051784Y-96833913D01*
X186208979Y-96663153D01*
X186335924Y-96468849D01*
X186429157Y-96256300D01*
X186486134Y-96031305D01*
X186491560Y-95965826D01*
X186497015Y-95899994D01*
X190395202Y-95899994D01*
X190395202Y-95900005D01*
X190414361Y-96131218D01*
X190471317Y-96356135D01*
X190564516Y-96568609D01*
X190648811Y-96697633D01*
X191317037Y-96029408D01*
X191334075Y-96092993D01*
X191399901Y-96207007D01*
X191492993Y-96300099D01*
X191607007Y-96365925D01*
X191670590Y-96382962D01*
X191001201Y-97052351D01*
X191031649Y-97076050D01*
X191235697Y-97186476D01*
X191235706Y-97186479D01*
X191455139Y-97261811D01*
X191683993Y-97300000D01*
X191916007Y-97300000D01*
X192144860Y-97261811D01*
X192364293Y-97186479D01*
X192364301Y-97186476D01*
X192568355Y-97076047D01*
X192598797Y-97052351D01*
X192598798Y-97052350D01*
X191929410Y-96382962D01*
X191992993Y-96365925D01*
X192107007Y-96300099D01*
X192200099Y-96207007D01*
X192265925Y-96092993D01*
X192282962Y-96029409D01*
X192951186Y-96697634D01*
X193035484Y-96568606D01*
X193128682Y-96356135D01*
X193185638Y-96131218D01*
X193204798Y-95900005D01*
X193204798Y-95899994D01*
X193185638Y-95668781D01*
X193128682Y-95443864D01*
X193035483Y-95231390D01*
X192951186Y-95102364D01*
X192282962Y-95770589D01*
X192265925Y-95707007D01*
X192200099Y-95592993D01*
X192107007Y-95499901D01*
X191992993Y-95434075D01*
X191929409Y-95417037D01*
X192598797Y-94747647D01*
X192598797Y-94747645D01*
X192568360Y-94723955D01*
X192568354Y-94723951D01*
X192364302Y-94613523D01*
X192364293Y-94613520D01*
X192144860Y-94538188D01*
X191916007Y-94500000D01*
X191683993Y-94500000D01*
X191455139Y-94538188D01*
X191235706Y-94613520D01*
X191235697Y-94613523D01*
X191031650Y-94723949D01*
X191001200Y-94747647D01*
X191670591Y-95417037D01*
X191607007Y-95434075D01*
X191492993Y-95499901D01*
X191399901Y-95592993D01*
X191334075Y-95707007D01*
X191317037Y-95770590D01*
X190648812Y-95102365D01*
X190564516Y-95231391D01*
X190564514Y-95231395D01*
X190471317Y-95443864D01*
X190414361Y-95668781D01*
X190395202Y-95899994D01*
X186497015Y-95899994D01*
X186505300Y-95800006D01*
X186505300Y-95799993D01*
X186486135Y-95568702D01*
X186486133Y-95568691D01*
X186429157Y-95343699D01*
X186335924Y-95131151D01*
X186208983Y-94936852D01*
X186208980Y-94936849D01*
X186208979Y-94936847D01*
X186051784Y-94766087D01*
X186051779Y-94766083D01*
X186051777Y-94766081D01*
X185868634Y-94623535D01*
X185868628Y-94623531D01*
X185664504Y-94513064D01*
X185664495Y-94513061D01*
X185444984Y-94437702D01*
X185273282Y-94409050D01*
X185216049Y-94399500D01*
X184983951Y-94399500D01*
X184938164Y-94407140D01*
X184755015Y-94437702D01*
X184535504Y-94513061D01*
X184535495Y-94513064D01*
X184331371Y-94623531D01*
X184331365Y-94623535D01*
X184148222Y-94766081D01*
X184148219Y-94766084D01*
X183991016Y-94936852D01*
X183864075Y-95131151D01*
X183770842Y-95343699D01*
X183713866Y-95568691D01*
X183713864Y-95568702D01*
X183694700Y-95799993D01*
X180984584Y-95799993D01*
X180238960Y-95054369D01*
X180205475Y-94993046D01*
X180203323Y-94979668D01*
X180185674Y-94811744D01*
X180127179Y-94631716D01*
X180032533Y-94467784D01*
X179905871Y-94327112D01*
X179886800Y-94313256D01*
X179752734Y-94215851D01*
X179752729Y-94215848D01*
X179579807Y-94138857D01*
X179579803Y-94138856D01*
X179533661Y-94129048D01*
X179472180Y-94095855D01*
X179438404Y-94034692D01*
X179443056Y-93964978D01*
X179471760Y-93920078D01*
X179748733Y-93643106D01*
X179748737Y-93643104D01*
X179835862Y-93555979D01*
X179904315Y-93453532D01*
X179904316Y-93453531D01*
X179951467Y-93339697D01*
X179975504Y-93218853D01*
X179975504Y-93095639D01*
X179975504Y-91189994D01*
X187715738Y-91189994D01*
X187715738Y-91190005D01*
X187734753Y-91419484D01*
X187791282Y-91642714D01*
X187883782Y-91853594D01*
X188009728Y-92046370D01*
X188009731Y-92046373D01*
X188165692Y-92215792D01*
X188279139Y-92304091D01*
X188346868Y-92356807D01*
X188347411Y-92357229D01*
X188549931Y-92466828D01*
X188663025Y-92505653D01*
X188767725Y-92541597D01*
X188767727Y-92541597D01*
X188767729Y-92541598D01*
X188994863Y-92579500D01*
X188994864Y-92579500D01*
X189225136Y-92579500D01*
X189225137Y-92579500D01*
X189452271Y-92541598D01*
X189453693Y-92541110D01*
X189460662Y-92538717D01*
X189670069Y-92466828D01*
X189872589Y-92357229D01*
X190054308Y-92215792D01*
X190210269Y-92046373D01*
X190253838Y-91979686D01*
X190276191Y-91945472D01*
X190329337Y-91900115D01*
X190398569Y-91890691D01*
X190461905Y-91920193D01*
X190483809Y-91945472D01*
X190549728Y-92046370D01*
X190549731Y-92046373D01*
X190705692Y-92215792D01*
X190819139Y-92304091D01*
X190886868Y-92356807D01*
X190887411Y-92357229D01*
X191089931Y-92466828D01*
X191203025Y-92505653D01*
X191307725Y-92541597D01*
X191307727Y-92541597D01*
X191307729Y-92541598D01*
X191534863Y-92579500D01*
X191534864Y-92579500D01*
X191765136Y-92579500D01*
X191765137Y-92579500D01*
X191992271Y-92541598D01*
X191993693Y-92541110D01*
X192000662Y-92538717D01*
X192210069Y-92466828D01*
X192412589Y-92357229D01*
X192594308Y-92215792D01*
X192750269Y-92046373D01*
X192876217Y-91853595D01*
X192968717Y-91642716D01*
X193025246Y-91419488D01*
X193037263Y-91274469D01*
X193044262Y-91190005D01*
X193044262Y-91189994D01*
X193025246Y-90960515D01*
X193025246Y-90960512D01*
X192968717Y-90737284D01*
X192876217Y-90526405D01*
X192846123Y-90480343D01*
X192750271Y-90333629D01*
X192661888Y-90237620D01*
X192594308Y-90164208D01*
X192513441Y-90101267D01*
X192412591Y-90022772D01*
X192210069Y-89913172D01*
X192210061Y-89913169D01*
X191992274Y-89838402D01*
X191821920Y-89809975D01*
X191765137Y-89800500D01*
X191534863Y-89800500D01*
X191489436Y-89808080D01*
X191307725Y-89838402D01*
X191089938Y-89913169D01*
X191089930Y-89913172D01*
X190887408Y-90022772D01*
X190705694Y-90164206D01*
X190705689Y-90164211D01*
X190549727Y-90333630D01*
X190483808Y-90434528D01*
X190430662Y-90479884D01*
X190361431Y-90489308D01*
X190298095Y-90459806D01*
X190276192Y-90434528D01*
X190210272Y-90333630D01*
X190121888Y-90237620D01*
X190054308Y-90164208D01*
X189973441Y-90101267D01*
X189872591Y-90022772D01*
X189670069Y-89913172D01*
X189670061Y-89913169D01*
X189452274Y-89838402D01*
X189281920Y-89809975D01*
X189225137Y-89800500D01*
X188994863Y-89800500D01*
X188949436Y-89808080D01*
X188767725Y-89838402D01*
X188549938Y-89913169D01*
X188549930Y-89913172D01*
X188347408Y-90022772D01*
X188165694Y-90164206D01*
X188165689Y-90164211D01*
X188009728Y-90333629D01*
X187883782Y-90526405D01*
X187791282Y-90737285D01*
X187734753Y-90960515D01*
X187715738Y-91189994D01*
X179975504Y-91189994D01*
X179975504Y-89088398D01*
X179951467Y-88967552D01*
X179913024Y-88874743D01*
X179904316Y-88853720D01*
X179904311Y-88853711D01*
X179835863Y-88751272D01*
X179835862Y-88751271D01*
X179748737Y-88664146D01*
X179748736Y-88664145D01*
X179638960Y-88554369D01*
X179605475Y-88493046D01*
X179603323Y-88479668D01*
X179585674Y-88311744D01*
X179527179Y-88131716D01*
X179432533Y-87967784D01*
X179305871Y-87827112D01*
X179305870Y-87827111D01*
X179152734Y-87715851D01*
X179152729Y-87715848D01*
X178979807Y-87638857D01*
X178979802Y-87638855D01*
X178834001Y-87607865D01*
X178794646Y-87599500D01*
X178605354Y-87599500D01*
X178572897Y-87606398D01*
X178420197Y-87638855D01*
X178420192Y-87638857D01*
X178247270Y-87715848D01*
X178247265Y-87715851D01*
X178094129Y-87827111D01*
X177967466Y-87967785D01*
X177872821Y-88131715D01*
X177872818Y-88131722D01*
X177813652Y-88313818D01*
X177774214Y-88371494D01*
X177709856Y-88398692D01*
X177695721Y-88399500D01*
X177694646Y-88399500D01*
X177505354Y-88399500D01*
X177472897Y-88406398D01*
X177320197Y-88438855D01*
X177320192Y-88438857D01*
X177147270Y-88515848D01*
X177147265Y-88515851D01*
X176994129Y-88627111D01*
X176867466Y-88767785D01*
X176772821Y-88931715D01*
X176772818Y-88931722D01*
X176714327Y-89111740D01*
X176714326Y-89111744D01*
X176707900Y-89172888D01*
X176696678Y-89279651D01*
X176670093Y-89344266D01*
X176661038Y-89354370D01*
X176001270Y-90014139D01*
X175914141Y-90101267D01*
X175914138Y-90101271D01*
X175902500Y-90118691D01*
X175902496Y-90118697D01*
X175845690Y-90203710D01*
X175845685Y-90203719D01*
X175835650Y-90227948D01*
X175798538Y-90317544D01*
X175798535Y-90317556D01*
X175774500Y-90438389D01*
X175774500Y-92476000D01*
X175754815Y-92543039D01*
X175702011Y-92588794D01*
X175650500Y-92600000D01*
X175625000Y-92600000D01*
X175625000Y-92726000D01*
X175605315Y-92793039D01*
X175552511Y-92838794D01*
X175501000Y-92850000D01*
X174675001Y-92850000D01*
X157250000Y-92850000D01*
X157250000Y-92033806D01*
X157269685Y-91966767D01*
X157322489Y-91921012D01*
X157391647Y-91911068D01*
X157455203Y-91940093D01*
X157477809Y-91965985D01*
X157486760Y-91979685D01*
X158147037Y-91319408D01*
X158164075Y-91382993D01*
X158229901Y-91497007D01*
X158322993Y-91590099D01*
X158437007Y-91655925D01*
X158500590Y-91672962D01*
X157839040Y-92334512D01*
X157839040Y-92334514D01*
X157867677Y-92356803D01*
X157867683Y-92356807D01*
X158070131Y-92466367D01*
X158070140Y-92466370D01*
X158287849Y-92541110D01*
X158514905Y-92579000D01*
X158745095Y-92579000D01*
X158972150Y-92541110D01*
X159189859Y-92466370D01*
X159189868Y-92466367D01*
X159392315Y-92356807D01*
X159392316Y-92356806D01*
X159420958Y-92334513D01*
X159420959Y-92334511D01*
X158759410Y-91672962D01*
X158822993Y-91655925D01*
X158937007Y-91590099D01*
X159030099Y-91497007D01*
X159095925Y-91382993D01*
X159112962Y-91319409D01*
X159773238Y-91979686D01*
X159795891Y-91945013D01*
X159849037Y-91899656D01*
X159918269Y-91890232D01*
X159981605Y-91919734D01*
X160003509Y-91945013D01*
X160069728Y-92046370D01*
X160069731Y-92046373D01*
X160225692Y-92215792D01*
X160339139Y-92304091D01*
X160406868Y-92356807D01*
X160407411Y-92357229D01*
X160609931Y-92466828D01*
X160723025Y-92505653D01*
X160827725Y-92541597D01*
X160827727Y-92541597D01*
X160827729Y-92541598D01*
X161054863Y-92579500D01*
X161054864Y-92579500D01*
X161285136Y-92579500D01*
X161285137Y-92579500D01*
X161512271Y-92541598D01*
X161513693Y-92541110D01*
X161520662Y-92538717D01*
X161730069Y-92466828D01*
X161932589Y-92357229D01*
X162003963Y-92301677D01*
X174675000Y-92301677D01*
X174675000Y-92350000D01*
X175375000Y-92350000D01*
X175375000Y-91624999D01*
X175351693Y-91625000D01*
X175351674Y-91625001D01*
X175252392Y-91635144D01*
X175091518Y-91688452D01*
X175091507Y-91688457D01*
X174947271Y-91777424D01*
X174947267Y-91777427D01*
X174827427Y-91897267D01*
X174827424Y-91897271D01*
X174738457Y-92041507D01*
X174738452Y-92041518D01*
X174685144Y-92202393D01*
X174675000Y-92301677D01*
X162003963Y-92301677D01*
X162114308Y-92215792D01*
X162270269Y-92046373D01*
X162396217Y-91853595D01*
X162488717Y-91642716D01*
X162545246Y-91419488D01*
X162557263Y-91274469D01*
X162564262Y-91190005D01*
X162564262Y-91189994D01*
X162545246Y-90960515D01*
X162545246Y-90960512D01*
X162488717Y-90737284D01*
X162396217Y-90526405D01*
X162366123Y-90480343D01*
X162270271Y-90333629D01*
X162181888Y-90237620D01*
X162114308Y-90164208D01*
X162033441Y-90101267D01*
X161932591Y-90022772D01*
X161730069Y-89913172D01*
X161730061Y-89913169D01*
X161512274Y-89838402D01*
X161341920Y-89809975D01*
X161285137Y-89800500D01*
X161054863Y-89800500D01*
X161009436Y-89808080D01*
X160827725Y-89838402D01*
X160609938Y-89913169D01*
X160609930Y-89913172D01*
X160407408Y-90022772D01*
X160225694Y-90164206D01*
X160225689Y-90164211D01*
X160069727Y-90333631D01*
X160003508Y-90434986D01*
X159950361Y-90480343D01*
X159881130Y-90489766D01*
X159817795Y-90460263D01*
X159795891Y-90434985D01*
X159773238Y-90400312D01*
X159112962Y-91060589D01*
X159095925Y-90997007D01*
X159030099Y-90882993D01*
X158937007Y-90789901D01*
X158822993Y-90724075D01*
X158759409Y-90707037D01*
X159420958Y-90045486D01*
X159420958Y-90045484D01*
X159392322Y-90023196D01*
X159392316Y-90023192D01*
X159189868Y-89913632D01*
X159189859Y-89913629D01*
X158972150Y-89838889D01*
X158745095Y-89801000D01*
X158514905Y-89801000D01*
X158287849Y-89838889D01*
X158070140Y-89913629D01*
X158070132Y-89913632D01*
X157867681Y-90023194D01*
X157839040Y-90045485D01*
X157839040Y-90045487D01*
X158500591Y-90707037D01*
X158437007Y-90724075D01*
X158322993Y-90789901D01*
X158229901Y-90882993D01*
X158164075Y-90997007D01*
X158147037Y-91060590D01*
X157486760Y-90400313D01*
X157477809Y-90414014D01*
X157424662Y-90459370D01*
X157355431Y-90468794D01*
X157292095Y-90439292D01*
X157254764Y-90380232D01*
X157250000Y-90346192D01*
X157250000Y-76794721D01*
X157269685Y-76727682D01*
X157322489Y-76681927D01*
X157391647Y-76671983D01*
X157455203Y-76701008D01*
X157477809Y-76726900D01*
X157529728Y-76806370D01*
X157529731Y-76806373D01*
X157685692Y-76975792D01*
X157747125Y-77023607D01*
X157866931Y-77116856D01*
X157867411Y-77117229D01*
X158069931Y-77226828D01*
X158161565Y-77258286D01*
X158287725Y-77301597D01*
X158287727Y-77301597D01*
X158287729Y-77301598D01*
X158514863Y-77339500D01*
X158514864Y-77339500D01*
X158745136Y-77339500D01*
X158745137Y-77339500D01*
X158972271Y-77301598D01*
X158973693Y-77301110D01*
X159042466Y-77277500D01*
X159190069Y-77226828D01*
X159392589Y-77117229D01*
X159574308Y-76975792D01*
X159730269Y-76806373D01*
X159796490Y-76705013D01*
X159849636Y-76659657D01*
X159918868Y-76650233D01*
X159982203Y-76679735D01*
X160004108Y-76705014D01*
X160026760Y-76739685D01*
X160687037Y-76079408D01*
X160704075Y-76142993D01*
G37*
%TD.AperFunction*%
%TA.AperFunction,Conductor*%
G36*
X163793036Y-72019685D02*
G01*
X163838791Y-72072489D01*
X163848735Y-72141647D01*
X163845772Y-72156093D01*
X163814366Y-72273302D01*
X163814364Y-72273313D01*
X163794532Y-72499998D01*
X163794532Y-72500001D01*
X163814364Y-72726686D01*
X163814366Y-72726697D01*
X163873258Y-72946488D01*
X163873261Y-72946497D01*
X163969431Y-73152732D01*
X163969432Y-73152734D01*
X164099954Y-73339141D01*
X164260858Y-73500045D01*
X164260861Y-73500047D01*
X164447266Y-73630568D01*
X164653504Y-73726739D01*
X164653506Y-73726739D01*
X164653513Y-73726742D01*
X164698766Y-73738867D01*
X164754355Y-73770961D01*
X165152282Y-74168888D01*
X165185767Y-74230211D01*
X165187922Y-74269529D01*
X165175581Y-74386961D01*
X165170532Y-74435000D01*
X165190318Y-74623256D01*
X165190319Y-74623259D01*
X165248810Y-74803277D01*
X165248813Y-74803284D01*
X165343459Y-74967216D01*
X165457280Y-75093627D01*
X165470121Y-75107888D01*
X165623257Y-75219148D01*
X165623262Y-75219151D01*
X165796184Y-75296142D01*
X165796189Y-75296144D01*
X165981346Y-75335500D01*
X165981347Y-75335500D01*
X166170636Y-75335500D01*
X166170638Y-75335500D01*
X166355795Y-75296144D01*
X166528722Y-75219151D01*
X166681863Y-75107888D01*
X166808525Y-74967216D01*
X166903171Y-74803284D01*
X166961666Y-74623256D01*
X166981452Y-74435000D01*
X166976403Y-74386960D01*
X166988973Y-74318231D01*
X167036705Y-74267207D01*
X167099724Y-74250000D01*
X173850500Y-74250000D01*
X173917539Y-74269685D01*
X173963294Y-74322489D01*
X173974500Y-74374000D01*
X173974500Y-77361606D01*
X173989865Y-77438856D01*
X173989865Y-77438857D01*
X173998534Y-77482443D01*
X173998536Y-77482447D01*
X173998537Y-77482451D01*
X174045688Y-77596286D01*
X174066284Y-77627109D01*
X174066285Y-77627112D01*
X174066286Y-77627112D01*
X174114141Y-77698732D01*
X174114144Y-77698736D01*
X174205586Y-77790178D01*
X174205608Y-77790198D01*
X174461038Y-78045628D01*
X174494523Y-78106951D01*
X174496678Y-78120347D01*
X174501517Y-78166381D01*
X174514326Y-78288256D01*
X174514327Y-78288259D01*
X174514483Y-78289743D01*
X174501914Y-78358473D01*
X174454182Y-78409497D01*
X174386442Y-78426615D01*
X174340727Y-78415985D01*
X174279802Y-78388859D01*
X174134001Y-78357869D01*
X174094646Y-78349504D01*
X173905354Y-78349504D01*
X173872897Y-78356402D01*
X173720197Y-78388859D01*
X173720192Y-78388861D01*
X173547270Y-78465852D01*
X173547265Y-78465855D01*
X173394130Y-78577114D01*
X173394126Y-78577118D01*
X173388400Y-78583478D01*
X173328913Y-78620125D01*
X173296252Y-78624504D01*
X171811603Y-78624504D01*
X171688389Y-78624504D01*
X171649618Y-78632216D01*
X171649617Y-78632215D01*
X171567555Y-78648538D01*
X171567537Y-78648543D01*
X171560858Y-78651309D01*
X171560859Y-78651310D01*
X171453715Y-78695690D01*
X171453707Y-78695694D01*
X171449363Y-78698597D01*
X171428186Y-78712747D01*
X171420642Y-78717788D01*
X171392424Y-78736642D01*
X171325746Y-78757518D01*
X171258366Y-78739032D01*
X171231385Y-78716510D01*
X171212642Y-78695694D01*
X171105867Y-78577108D01*
X171105866Y-78577107D01*
X170952730Y-78465847D01*
X170952725Y-78465844D01*
X170779803Y-78388853D01*
X170779798Y-78388851D01*
X170633997Y-78357861D01*
X170594642Y-78349496D01*
X170405350Y-78349496D01*
X170372893Y-78356394D01*
X170220193Y-78388851D01*
X170220188Y-78388853D01*
X170047266Y-78465844D01*
X170047261Y-78465847D01*
X169894125Y-78577107D01*
X169767462Y-78717781D01*
X169672817Y-78881711D01*
X169672814Y-78881718D01*
X169625573Y-79027112D01*
X169614322Y-79061740D01*
X169610079Y-79102115D01*
X169596675Y-79229645D01*
X169570090Y-79294259D01*
X169561035Y-79304364D01*
X169010789Y-79854610D01*
X168949466Y-79888095D01*
X168879774Y-79883111D01*
X168823841Y-79841239D01*
X168799424Y-79775775D01*
X168799786Y-79753978D01*
X168805460Y-79700000D01*
X168785674Y-79511744D01*
X168727179Y-79331716D01*
X168632533Y-79167784D01*
X168505871Y-79027112D01*
X168469243Y-79000500D01*
X168352734Y-78915851D01*
X168352729Y-78915848D01*
X168179807Y-78838857D01*
X168179802Y-78838855D01*
X168034001Y-78807865D01*
X167994646Y-78799500D01*
X167994645Y-78799500D01*
X167935452Y-78799500D01*
X167868413Y-78779815D01*
X167847771Y-78763181D01*
X167430198Y-78345608D01*
X167430178Y-78345586D01*
X167338733Y-78254141D01*
X167287509Y-78219915D01*
X167275029Y-78211576D01*
X167236286Y-78185688D01*
X167236283Y-78185686D01*
X167236282Y-78185686D01*
X167236281Y-78185685D01*
X167142575Y-78146872D01*
X167122455Y-78138538D01*
X167122453Y-78138537D01*
X167122452Y-78138537D01*
X167062029Y-78126518D01*
X167001610Y-78114500D01*
X167001607Y-78114500D01*
X167001606Y-78114500D01*
X164516188Y-78114500D01*
X164449149Y-78094815D01*
X164414613Y-78061623D01*
X164302045Y-77900858D01*
X164141141Y-77739954D01*
X163954734Y-77609432D01*
X163954732Y-77609431D01*
X163856489Y-77563619D01*
X163804050Y-77517446D01*
X163784898Y-77450252D01*
X163805114Y-77383371D01*
X163858280Y-77338037D01*
X163888477Y-77328930D01*
X164052271Y-77301598D01*
X164270069Y-77226828D01*
X164472589Y-77117229D01*
X164654308Y-76975792D01*
X164810269Y-76806373D01*
X164936217Y-76613595D01*
X165028717Y-76402716D01*
X165085246Y-76179488D01*
X165093697Y-76077493D01*
X165104262Y-75950005D01*
X165104262Y-75949994D01*
X165085246Y-75720515D01*
X165085246Y-75720512D01*
X165028717Y-75497284D01*
X164936217Y-75286405D01*
X164906123Y-75240342D01*
X164810271Y-75093629D01*
X164712402Y-74987315D01*
X164654308Y-74924208D01*
X164501775Y-74805487D01*
X164472591Y-74782772D01*
X164270069Y-74673172D01*
X164270061Y-74673169D01*
X164052274Y-74598402D01*
X163881920Y-74569975D01*
X163825137Y-74560500D01*
X163594863Y-74560500D01*
X163549436Y-74568080D01*
X163367725Y-74598402D01*
X163149938Y-74673169D01*
X163149930Y-74673172D01*
X162947408Y-74782772D01*
X162765694Y-74924206D01*
X162765689Y-74924211D01*
X162609727Y-75093631D01*
X162543508Y-75194986D01*
X162490361Y-75240343D01*
X162421130Y-75249766D01*
X162357795Y-75220263D01*
X162335891Y-75194985D01*
X162313238Y-75160312D01*
X161652962Y-75820589D01*
X161635925Y-75757007D01*
X161570099Y-75642993D01*
X161477007Y-75549901D01*
X161362993Y-75484075D01*
X161299409Y-75467037D01*
X161960958Y-74805486D01*
X161960958Y-74805484D01*
X161932322Y-74783196D01*
X161932316Y-74783192D01*
X161729868Y-74673632D01*
X161729859Y-74673629D01*
X161512150Y-74598889D01*
X161285095Y-74561000D01*
X161054905Y-74561000D01*
X160827849Y-74598889D01*
X160610140Y-74673629D01*
X160610132Y-74673632D01*
X160407681Y-74783194D01*
X160379040Y-74805485D01*
X160379040Y-74805487D01*
X161040591Y-75467037D01*
X160977007Y-75484075D01*
X160862993Y-75549901D01*
X160769901Y-75642993D01*
X160704075Y-75757007D01*
X160687037Y-75820590D01*
X160026759Y-75160312D01*
X160004106Y-75194986D01*
X159950960Y-75240342D01*
X159881729Y-75249766D01*
X159818393Y-75220264D01*
X159796489Y-75194985D01*
X159796190Y-75194528D01*
X159765709Y-75147872D01*
X159730271Y-75093629D01*
X159632402Y-74987315D01*
X159574308Y-74924208D01*
X159421775Y-74805487D01*
X159392591Y-74782772D01*
X159190069Y-74673172D01*
X159190061Y-74673169D01*
X158972274Y-74598402D01*
X158801920Y-74569975D01*
X158745137Y-74560500D01*
X158514863Y-74560500D01*
X158469436Y-74568080D01*
X158287725Y-74598402D01*
X158069938Y-74673169D01*
X158069930Y-74673172D01*
X157867408Y-74782772D01*
X157685694Y-74924206D01*
X157685692Y-74924208D01*
X157529731Y-75093627D01*
X157494291Y-75147873D01*
X157477809Y-75173100D01*
X157424662Y-75218456D01*
X157355431Y-75227880D01*
X157292095Y-75198378D01*
X157254764Y-75139318D01*
X157250000Y-75105278D01*
X157250000Y-72124000D01*
X157269685Y-72056961D01*
X157322489Y-72011206D01*
X157374000Y-72000000D01*
X163725997Y-72000000D01*
X163793036Y-72019685D01*
G37*
%TD.AperFunction*%
%TA.AperFunction,Conductor*%
G36*
X162313238Y-76739686D02*
G01*
X162335891Y-76705013D01*
X162389037Y-76659656D01*
X162458269Y-76650232D01*
X162521605Y-76679734D01*
X162543509Y-76705013D01*
X162609728Y-76806370D01*
X162609731Y-76806373D01*
X162765692Y-76975792D01*
X162827125Y-77023607D01*
X162946931Y-77116856D01*
X162947411Y-77117229D01*
X162997713Y-77144451D01*
X163138229Y-77220495D01*
X163187819Y-77269715D01*
X163202927Y-77337932D01*
X163178756Y-77403487D01*
X163122980Y-77445568D01*
X163090019Y-77453077D01*
X163089026Y-77453164D01*
X163075312Y-77454364D01*
X163075302Y-77454366D01*
X162855511Y-77513258D01*
X162855502Y-77513261D01*
X162649267Y-77609431D01*
X162649265Y-77609432D01*
X162462858Y-77739954D01*
X162301954Y-77900858D01*
X162171432Y-78087265D01*
X162171429Y-78087270D01*
X162164104Y-78102979D01*
X162117929Y-78155417D01*
X162050735Y-78174566D01*
X161983855Y-78154347D01*
X161939341Y-78102973D01*
X161932133Y-78087515D01*
X161932132Y-78087513D01*
X161881025Y-78014526D01*
X161202000Y-78693551D01*
X161202000Y-78687339D01*
X161174741Y-78585606D01*
X161122080Y-78494394D01*
X161047606Y-78419920D01*
X160956394Y-78367259D01*
X160854661Y-78340000D01*
X160848445Y-78340000D01*
X161527472Y-77660974D01*
X161454478Y-77609863D01*
X161344277Y-77558476D01*
X161291837Y-77512304D01*
X161272685Y-77445111D01*
X161292900Y-77378229D01*
X161346066Y-77332895D01*
X161376271Y-77323785D01*
X161512150Y-77301110D01*
X161729859Y-77226370D01*
X161729868Y-77226367D01*
X161932315Y-77116807D01*
X161932316Y-77116806D01*
X161960958Y-77094513D01*
X161960959Y-77094511D01*
X161299410Y-76432962D01*
X161362993Y-76415925D01*
X161477007Y-76350099D01*
X161570099Y-76257007D01*
X161635925Y-76142993D01*
X161652962Y-76079409D01*
X162313238Y-76739686D01*
G37*
%TD.AperFunction*%
%TD*%
M02*
