%TF.GenerationSoftware,KiCad,Pcbnew,8.0.9*%
%TF.CreationDate,2025-06-14T23:52:31+02:00*%
%TF.ProjectId,Elektor,456c656b-746f-4722-9e6b-696361645f70,rev?*%
%TF.SameCoordinates,Original*%
%TF.FileFunction,Soldermask,Top*%
%TF.FilePolarity,Negative*%
%FSLAX46Y46*%
G04 Gerber Fmt 4.6, Leading zero omitted, Abs format (unit mm)*
G04 Created by KiCad (PCBNEW 8.0.9) date 2025-06-14 23:52:31*
%MOMM*%
%LPD*%
G01*
G04 APERTURE LIST*
G04 Aperture macros list*
%AMRoundRect*
0 Rectangle with rounded corners*
0 $1 Rounding radius*
0 $2 $3 $4 $5 $6 $7 $8 $9 X,Y pos of 4 corners*
0 Add a 4 corners polygon primitive as box body*
4,1,4,$2,$3,$4,$5,$6,$7,$8,$9,$2,$3,0*
0 Add four circle primitives for the rounded corners*
1,1,$1+$1,$2,$3*
1,1,$1+$1,$4,$5*
1,1,$1+$1,$6,$7*
1,1,$1+$1,$8,$9*
0 Add four rect primitives between the rounded corners*
20,1,$1+$1,$2,$3,$4,$5,0*
20,1,$1+$1,$4,$5,$6,$7,0*
20,1,$1+$1,$6,$7,$8,$9,0*
20,1,$1+$1,$8,$9,$2,$3,0*%
G04 Aperture macros list end*
%ADD10C,1.982000*%
%ADD11RoundRect,0.250000X-0.350000X0.275000X-0.350000X-0.275000X0.350000X-0.275000X0.350000X0.275000X0*%
%ADD12RoundRect,0.225000X-0.250000X0.225000X-0.250000X-0.225000X0.250000X-0.225000X0.250000X0.225000X0*%
%ADD13R,0.300000X1.400000*%
%ADD14C,1.600000*%
%ADD15RoundRect,0.150000X0.150000X-0.587500X0.150000X0.587500X-0.150000X0.587500X-0.150000X-0.587500X0*%
%ADD16RoundRect,0.200000X-0.200000X-0.275000X0.200000X-0.275000X0.200000X0.275000X-0.200000X0.275000X0*%
%ADD17RoundRect,0.225000X0.250000X-0.225000X0.250000X0.225000X-0.250000X0.225000X-0.250000X-0.225000X0*%
%ADD18R,3.600000X1.270000*%
%ADD19R,4.200000X1.350000*%
%ADD20RoundRect,0.200000X0.200000X0.275000X-0.200000X0.275000X-0.200000X-0.275000X0.200000X-0.275000X0*%
%ADD21RoundRect,0.200000X0.275000X-0.200000X0.275000X0.200000X-0.275000X0.200000X-0.275000X-0.200000X0*%
%ADD22RoundRect,0.102000X-1.300000X0.950000X-1.300000X-0.950000X1.300000X-0.950000X1.300000X0.950000X0*%
%ADD23RoundRect,0.150000X0.150000X-0.675000X0.150000X0.675000X-0.150000X0.675000X-0.150000X-0.675000X0*%
%ADD24C,1.800000*%
%ADD25RoundRect,0.225000X-0.375000X0.225000X-0.375000X-0.225000X0.375000X-0.225000X0.375000X0.225000X0*%
%ADD26RoundRect,0.200000X-0.275000X0.200000X-0.275000X-0.200000X0.275000X-0.200000X0.275000X0.200000X0*%
%ADD27RoundRect,0.250000X1.075000X-0.375000X1.075000X0.375000X-1.075000X0.375000X-1.075000X-0.375000X0*%
%ADD28RoundRect,0.225000X0.225000X0.250000X-0.225000X0.250000X-0.225000X-0.250000X0.225000X-0.250000X0*%
%ADD29RoundRect,0.225000X-0.225000X-0.250000X0.225000X-0.250000X0.225000X0.250000X-0.225000X0.250000X0*%
%ADD30RoundRect,0.135000X0.135000X0.185000X-0.135000X0.185000X-0.135000X-0.185000X0.135000X-0.185000X0*%
%ADD31RoundRect,0.225000X0.375000X-0.225000X0.375000X0.225000X-0.375000X0.225000X-0.375000X-0.225000X0*%
%ADD32RoundRect,0.250000X-0.312500X-1.450000X0.312500X-1.450000X0.312500X1.450000X-0.312500X1.450000X0*%
%ADD33RoundRect,0.100000X0.100000X-0.637500X0.100000X0.637500X-0.100000X0.637500X-0.100000X-0.637500X0*%
G04 APERTURE END LIST*
D10*
%TO.C,U6*%
X172600000Y-72140000D03*
X170060000Y-72140000D03*
X172600000Y-69600000D03*
X170060000Y-69600000D03*
X158630000Y-91190000D03*
X161170000Y-75950000D03*
X176410000Y-75950000D03*
X178950000Y-75950000D03*
X189110000Y-75950000D03*
X191650000Y-75950000D03*
X191650000Y-91190000D03*
X189110000Y-91190000D03*
X158630000Y-75950000D03*
X163710000Y-75950000D03*
X161170000Y-91190000D03*
%TD*%
D11*
%TO.C,L3*%
X164200000Y-81450000D03*
X164200000Y-83750000D03*
%TD*%
D12*
%TO.C,C20*%
X184300000Y-81550000D03*
X184300000Y-83100000D03*
%TD*%
D13*
%TO.C,U1*%
X175800000Y-92050000D03*
X175300000Y-92050000D03*
X174800000Y-92050000D03*
X174300000Y-92050000D03*
X173800000Y-92050000D03*
X173800000Y-96450000D03*
X174300000Y-96450000D03*
X174800000Y-96450000D03*
X175300000Y-96450000D03*
X175800000Y-96450000D03*
%TD*%
D14*
%TO.C,C18*%
X165100000Y-72500000D03*
X165100000Y-70000000D03*
%TD*%
D15*
%TO.C,Q1*%
X194800000Y-84875000D03*
X196700000Y-84875000D03*
X195750000Y-83000000D03*
%TD*%
D12*
%TO.C,C15*%
X178816000Y-68072000D03*
X178816000Y-69622000D03*
%TD*%
D16*
%TO.C,R18*%
X193775000Y-75000000D03*
X195425000Y-75000000D03*
%TD*%
D17*
%TO.C,C3*%
X184912000Y-75959000D03*
X184912000Y-74409000D03*
%TD*%
D18*
%TO.C,J1*%
X204950000Y-77250000D03*
D19*
X204750000Y-80075000D03*
X204750000Y-74425000D03*
%TD*%
D20*
%TO.C,R17*%
X196151000Y-63500000D03*
X194501000Y-63500000D03*
%TD*%
D21*
%TO.C,R20*%
X165862000Y-67715000D03*
X165862000Y-66065000D03*
%TD*%
D22*
%TO.C,Y1*%
X170750000Y-92100000D03*
X170750000Y-96400000D03*
%TD*%
D23*
%TO.C,U5*%
X180975000Y-71205000D03*
X182245000Y-71205000D03*
X183515000Y-71205000D03*
X184785000Y-71205000D03*
X184785000Y-65955000D03*
X183515000Y-65955000D03*
X182245000Y-65955000D03*
X180975000Y-65955000D03*
%TD*%
D16*
%TO.C,R5*%
X165608000Y-76200000D03*
X167258000Y-76200000D03*
%TD*%
D24*
%TO.C,TP4*%
X176400000Y-84700000D03*
%TD*%
D25*
%TO.C,D2*%
X203000000Y-67850000D03*
X203000000Y-71150000D03*
%TD*%
D14*
%TO.C,C1*%
X163302000Y-78740000D03*
X160802000Y-78740000D03*
%TD*%
D26*
%TO.C,R4*%
X170500000Y-76175000D03*
X170500000Y-77825000D03*
%TD*%
D21*
%TO.C,R13*%
X182880000Y-76009000D03*
X182880000Y-74359000D03*
%TD*%
D23*
%TO.C,U7*%
X194552500Y-71254000D03*
X195822500Y-71254000D03*
X197092500Y-71254000D03*
X198362500Y-71254000D03*
X198362500Y-66004000D03*
X197092500Y-66004000D03*
X195822500Y-66004000D03*
X194552500Y-66004000D03*
%TD*%
D14*
%TO.C,C14*%
X175700000Y-64536000D03*
X175700000Y-67036000D03*
%TD*%
D12*
%TO.C,C17*%
X192024000Y-67805000D03*
X192024000Y-69355000D03*
%TD*%
D14*
%TO.C,C8*%
X170561000Y-66929000D03*
X168061000Y-66929000D03*
%TD*%
D24*
%TO.C,TP2*%
X168275000Y-63881000D03*
%TD*%
D27*
%TO.C,L2*%
X199500000Y-89150000D03*
X199500000Y-86350000D03*
%TD*%
D21*
%TO.C,R9*%
X186944000Y-76009000D03*
X186944000Y-74359000D03*
%TD*%
%TO.C,R6*%
X193000000Y-86900000D03*
X193000000Y-85250000D03*
%TD*%
D20*
%TO.C,R16*%
X199453000Y-63500000D03*
X197803000Y-63500000D03*
%TD*%
%TO.C,R11*%
X187832000Y-62992000D03*
X186182000Y-62992000D03*
%TD*%
D24*
%TO.C,TP8*%
X190500000Y-71882000D03*
%TD*%
D21*
%TO.C,R15*%
X200152000Y-69222000D03*
X200152000Y-67572000D03*
%TD*%
%TO.C,R1*%
X168750000Y-77825000D03*
X168750000Y-76175000D03*
%TD*%
D28*
%TO.C,C19*%
X196275000Y-87500000D03*
X194725000Y-87500000D03*
%TD*%
D17*
%TO.C,C6*%
X180848000Y-75959000D03*
X180848000Y-74409000D03*
%TD*%
D24*
%TO.C,TP7*%
X178816000Y-71882000D03*
%TD*%
D29*
%TO.C,C7*%
X179298000Y-62992000D03*
X180848000Y-62992000D03*
%TD*%
D24*
%TO.C,TP_GNDD1*%
X191800000Y-95900000D03*
%TD*%
D29*
%TO.C,C13*%
X191249000Y-63500000D03*
X192799000Y-63500000D03*
%TD*%
D24*
%TO.C,TP6*%
X185100000Y-95800000D03*
%TD*%
D28*
%TO.C,C4*%
X185928000Y-77724000D03*
X184378000Y-77724000D03*
%TD*%
%TO.C,C5*%
X182372000Y-77724000D03*
X180822000Y-77724000D03*
%TD*%
D21*
%TO.C,R14*%
X200900000Y-76517000D03*
X200900000Y-74867000D03*
%TD*%
%TO.C,R2*%
X172250000Y-77825000D03*
X172250000Y-76175000D03*
%TD*%
D17*
%TO.C,C12*%
X197200000Y-76467000D03*
X197200000Y-74917000D03*
%TD*%
D30*
%TO.C,R22*%
X179610000Y-96700000D03*
X178590000Y-96700000D03*
%TD*%
D24*
%TO.C,TP5*%
X172200000Y-84800000D03*
%TD*%
D28*
%TO.C,C10*%
X195375000Y-78400000D03*
X193825000Y-78400000D03*
%TD*%
D26*
%TO.C,R3*%
X174000000Y-76175000D03*
X174000000Y-77825000D03*
%TD*%
D29*
%TO.C,C11*%
X193825000Y-76700000D03*
X195375000Y-76700000D03*
%TD*%
D21*
%TO.C,R21*%
X175490000Y-71215000D03*
X175490000Y-69565000D03*
%TD*%
D24*
%TO.C,TP_GNDA1*%
X161200000Y-70358000D03*
%TD*%
%TO.C,TP3*%
X172900000Y-63900000D03*
%TD*%
D31*
%TO.C,D1*%
X205750000Y-71150000D03*
X205750000Y-67850000D03*
%TD*%
D17*
%TO.C,C9*%
X199000000Y-76475000D03*
X199000000Y-74925000D03*
%TD*%
D20*
%TO.C,R12*%
X184404000Y-62992000D03*
X182754000Y-62992000D03*
%TD*%
D32*
%TO.C,L1*%
X198612500Y-83250000D03*
X202887500Y-83250000D03*
%TD*%
D21*
%TO.C,R10*%
X186944000Y-69088000D03*
X186944000Y-67438000D03*
%TD*%
D12*
%TO.C,C16*%
X159700000Y-81550000D03*
X159700000Y-83100000D03*
%TD*%
D33*
%TO.C,U3*%
X186325000Y-87162500D03*
X186975000Y-87162500D03*
X187625000Y-87162500D03*
X188275000Y-87162500D03*
X188925000Y-87162500D03*
X189575000Y-87162500D03*
X190225000Y-87162500D03*
X190875000Y-87162500D03*
X190875000Y-81437500D03*
X190225000Y-81437500D03*
X189575000Y-81437500D03*
X188925000Y-81437500D03*
X188275000Y-81437500D03*
X187625000Y-81437500D03*
X186975000Y-81437500D03*
X186325000Y-81437500D03*
%TD*%
M02*
