%TF.GenerationSoftware,KiCad,Pcbnew,8.0.9*%
%TF.CreationDate,2025-06-14T23:52:31+02:00*%
%TF.ProjectId,Elektor,456c656b-746f-4722-9e6b-696361645f70,rev?*%
%TF.SameCoordinates,Original*%
%TF.FileFunction,Legend,Top*%
%TF.FilePolarity,Positive*%
%FSLAX46Y46*%
G04 Gerber Fmt 4.6, Leading zero omitted, Abs format (unit mm)*
G04 Created by KiCad (PCBNEW 8.0.9) date 2025-06-14 23:52:31*
%MOMM*%
%LPD*%
G01*
G04 APERTURE LIST*
%ADD10C,0.150000*%
%ADD11C,0.100000*%
%ADD12C,0.120000*%
%ADD13C,0.127000*%
G04 APERTURE END LIST*
D10*
X187041541Y-82669819D02*
X187660588Y-82669819D01*
X187660588Y-82669819D02*
X187327255Y-83050771D01*
X187327255Y-83050771D02*
X187470112Y-83050771D01*
X187470112Y-83050771D02*
X187565350Y-83098390D01*
X187565350Y-83098390D02*
X187612969Y-83146009D01*
X187612969Y-83146009D02*
X187660588Y-83241247D01*
X187660588Y-83241247D02*
X187660588Y-83479342D01*
X187660588Y-83479342D02*
X187612969Y-83574580D01*
X187612969Y-83574580D02*
X187565350Y-83622200D01*
X187565350Y-83622200D02*
X187470112Y-83669819D01*
X187470112Y-83669819D02*
X187184398Y-83669819D01*
X187184398Y-83669819D02*
X187089160Y-83622200D01*
X187089160Y-83622200D02*
X187041541Y-83574580D01*
X188041541Y-82765057D02*
X188089160Y-82717438D01*
X188089160Y-82717438D02*
X188184398Y-82669819D01*
X188184398Y-82669819D02*
X188422493Y-82669819D01*
X188422493Y-82669819D02*
X188517731Y-82717438D01*
X188517731Y-82717438D02*
X188565350Y-82765057D01*
X188565350Y-82765057D02*
X188612969Y-82860295D01*
X188612969Y-82860295D02*
X188612969Y-82955533D01*
X188612969Y-82955533D02*
X188565350Y-83098390D01*
X188565350Y-83098390D02*
X187993922Y-83669819D01*
X187993922Y-83669819D02*
X188612969Y-83669819D01*
X189517731Y-82669819D02*
X189041541Y-82669819D01*
X189041541Y-82669819D02*
X188993922Y-83146009D01*
X188993922Y-83146009D02*
X189041541Y-83098390D01*
X189041541Y-83098390D02*
X189136779Y-83050771D01*
X189136779Y-83050771D02*
X189374874Y-83050771D01*
X189374874Y-83050771D02*
X189470112Y-83098390D01*
X189470112Y-83098390D02*
X189517731Y-83146009D01*
X189517731Y-83146009D02*
X189565350Y-83241247D01*
X189565350Y-83241247D02*
X189565350Y-83479342D01*
X189565350Y-83479342D02*
X189517731Y-83574580D01*
X189517731Y-83574580D02*
X189470112Y-83622200D01*
X189470112Y-83622200D02*
X189374874Y-83669819D01*
X189374874Y-83669819D02*
X189136779Y-83669819D01*
X189136779Y-83669819D02*
X189041541Y-83622200D01*
X189041541Y-83622200D02*
X188993922Y-83574580D01*
X189898684Y-82669819D02*
X190517731Y-82669819D01*
X190517731Y-82669819D02*
X190184398Y-83050771D01*
X190184398Y-83050771D02*
X190327255Y-83050771D01*
X190327255Y-83050771D02*
X190422493Y-83098390D01*
X190422493Y-83098390D02*
X190470112Y-83146009D01*
X190470112Y-83146009D02*
X190517731Y-83241247D01*
X190517731Y-83241247D02*
X190517731Y-83479342D01*
X190517731Y-83479342D02*
X190470112Y-83574580D01*
X190470112Y-83574580D02*
X190422493Y-83622200D01*
X190422493Y-83622200D02*
X190327255Y-83669819D01*
X190327255Y-83669819D02*
X190041541Y-83669819D01*
X190041541Y-83669819D02*
X189946303Y-83622200D01*
X189946303Y-83622200D02*
X189898684Y-83574580D01*
X158737180Y-77693922D02*
X158737180Y-78265350D01*
X157737180Y-77979636D02*
X158737180Y-77979636D01*
X157784800Y-78979636D02*
X157737180Y-78884398D01*
X157737180Y-78884398D02*
X157737180Y-78693922D01*
X157737180Y-78693922D02*
X157784800Y-78598684D01*
X157784800Y-78598684D02*
X157880038Y-78551065D01*
X157880038Y-78551065D02*
X158260990Y-78551065D01*
X158260990Y-78551065D02*
X158356228Y-78598684D01*
X158356228Y-78598684D02*
X158403847Y-78693922D01*
X158403847Y-78693922D02*
X158403847Y-78884398D01*
X158403847Y-78884398D02*
X158356228Y-78979636D01*
X158356228Y-78979636D02*
X158260990Y-79027255D01*
X158260990Y-79027255D02*
X158165752Y-79027255D01*
X158165752Y-79027255D02*
X158070514Y-78551065D01*
X157784800Y-79836779D02*
X157737180Y-79741541D01*
X157737180Y-79741541D02*
X157737180Y-79551065D01*
X157737180Y-79551065D02*
X157784800Y-79455827D01*
X157784800Y-79455827D02*
X157880038Y-79408208D01*
X157880038Y-79408208D02*
X158260990Y-79408208D01*
X158260990Y-79408208D02*
X158356228Y-79455827D01*
X158356228Y-79455827D02*
X158403847Y-79551065D01*
X158403847Y-79551065D02*
X158403847Y-79741541D01*
X158403847Y-79741541D02*
X158356228Y-79836779D01*
X158356228Y-79836779D02*
X158260990Y-79884398D01*
X158260990Y-79884398D02*
X158165752Y-79884398D01*
X158165752Y-79884398D02*
X158070514Y-79408208D01*
X158403847Y-80312970D02*
X157737180Y-80312970D01*
X158308609Y-80312970D02*
X158356228Y-80360589D01*
X158356228Y-80360589D02*
X158403847Y-80455827D01*
X158403847Y-80455827D02*
X158403847Y-80598684D01*
X158403847Y-80598684D02*
X158356228Y-80693922D01*
X158356228Y-80693922D02*
X158260990Y-80741541D01*
X158260990Y-80741541D02*
X157737180Y-80741541D01*
X157784800Y-81170113D02*
X157737180Y-81265351D01*
X157737180Y-81265351D02*
X157737180Y-81455827D01*
X157737180Y-81455827D02*
X157784800Y-81551065D01*
X157784800Y-81551065D02*
X157880038Y-81598684D01*
X157880038Y-81598684D02*
X157927657Y-81598684D01*
X157927657Y-81598684D02*
X158022895Y-81551065D01*
X158022895Y-81551065D02*
X158070514Y-81455827D01*
X158070514Y-81455827D02*
X158070514Y-81312970D01*
X158070514Y-81312970D02*
X158118133Y-81217732D01*
X158118133Y-81217732D02*
X158213371Y-81170113D01*
X158213371Y-81170113D02*
X158260990Y-81170113D01*
X158260990Y-81170113D02*
X158356228Y-81217732D01*
X158356228Y-81217732D02*
X158403847Y-81312970D01*
X158403847Y-81312970D02*
X158403847Y-81455827D01*
X158403847Y-81455827D02*
X158356228Y-81551065D01*
X158403847Y-81932018D02*
X157737180Y-82170113D01*
X158403847Y-82408208D02*
X157737180Y-82170113D01*
X157737180Y-82170113D02*
X157499085Y-82074875D01*
X157499085Y-82074875D02*
X157451466Y-82027256D01*
X157451466Y-82027256D02*
X157403847Y-81932018D01*
X158737180Y-83551066D02*
X157927657Y-83551066D01*
X157927657Y-83551066D02*
X157832419Y-83598685D01*
X157832419Y-83598685D02*
X157784800Y-83646304D01*
X157784800Y-83646304D02*
X157737180Y-83741542D01*
X157737180Y-83741542D02*
X157737180Y-83932018D01*
X157737180Y-83932018D02*
X157784800Y-84027256D01*
X157784800Y-84027256D02*
X157832419Y-84074875D01*
X157832419Y-84074875D02*
X157927657Y-84122494D01*
X157927657Y-84122494D02*
X158737180Y-84122494D01*
X157784800Y-84551066D02*
X157737180Y-84693923D01*
X157737180Y-84693923D02*
X157737180Y-84932018D01*
X157737180Y-84932018D02*
X157784800Y-85027256D01*
X157784800Y-85027256D02*
X157832419Y-85074875D01*
X157832419Y-85074875D02*
X157927657Y-85122494D01*
X157927657Y-85122494D02*
X158022895Y-85122494D01*
X158022895Y-85122494D02*
X158118133Y-85074875D01*
X158118133Y-85074875D02*
X158165752Y-85027256D01*
X158165752Y-85027256D02*
X158213371Y-84932018D01*
X158213371Y-84932018D02*
X158260990Y-84741542D01*
X158260990Y-84741542D02*
X158308609Y-84646304D01*
X158308609Y-84646304D02*
X158356228Y-84598685D01*
X158356228Y-84598685D02*
X158451466Y-84551066D01*
X158451466Y-84551066D02*
X158546704Y-84551066D01*
X158546704Y-84551066D02*
X158641942Y-84598685D01*
X158641942Y-84598685D02*
X158689561Y-84646304D01*
X158689561Y-84646304D02*
X158737180Y-84741542D01*
X158737180Y-84741542D02*
X158737180Y-84979637D01*
X158737180Y-84979637D02*
X158689561Y-85122494D01*
X158260990Y-85884399D02*
X158213371Y-86027256D01*
X158213371Y-86027256D02*
X158165752Y-86074875D01*
X158165752Y-86074875D02*
X158070514Y-86122494D01*
X158070514Y-86122494D02*
X157927657Y-86122494D01*
X157927657Y-86122494D02*
X157832419Y-86074875D01*
X157832419Y-86074875D02*
X157784800Y-86027256D01*
X157784800Y-86027256D02*
X157737180Y-85932018D01*
X157737180Y-85932018D02*
X157737180Y-85551066D01*
X157737180Y-85551066D02*
X158737180Y-85551066D01*
X158737180Y-85551066D02*
X158737180Y-85884399D01*
X158737180Y-85884399D02*
X158689561Y-85979637D01*
X158689561Y-85979637D02*
X158641942Y-86027256D01*
X158641942Y-86027256D02*
X158546704Y-86074875D01*
X158546704Y-86074875D02*
X158451466Y-86074875D01*
X158451466Y-86074875D02*
X158356228Y-86027256D01*
X158356228Y-86027256D02*
X158308609Y-85979637D01*
X158308609Y-85979637D02*
X158260990Y-85884399D01*
X158260990Y-85884399D02*
X158260990Y-85551066D01*
X157784800Y-87265352D02*
X157737180Y-87360590D01*
X157737180Y-87360590D02*
X157737180Y-87551066D01*
X157737180Y-87551066D02*
X157784800Y-87646304D01*
X157784800Y-87646304D02*
X157880038Y-87693923D01*
X157880038Y-87693923D02*
X157927657Y-87693923D01*
X157927657Y-87693923D02*
X158022895Y-87646304D01*
X158022895Y-87646304D02*
X158070514Y-87551066D01*
X158070514Y-87551066D02*
X158070514Y-87408209D01*
X158070514Y-87408209D02*
X158118133Y-87312971D01*
X158118133Y-87312971D02*
X158213371Y-87265352D01*
X158213371Y-87265352D02*
X158260990Y-87265352D01*
X158260990Y-87265352D02*
X158356228Y-87312971D01*
X158356228Y-87312971D02*
X158403847Y-87408209D01*
X158403847Y-87408209D02*
X158403847Y-87551066D01*
X158403847Y-87551066D02*
X158356228Y-87646304D01*
X157737180Y-88122495D02*
X158403847Y-88122495D01*
X158737180Y-88122495D02*
X158689561Y-88074876D01*
X158689561Y-88074876D02*
X158641942Y-88122495D01*
X158641942Y-88122495D02*
X158689561Y-88170114D01*
X158689561Y-88170114D02*
X158737180Y-88122495D01*
X158737180Y-88122495D02*
X158641942Y-88122495D01*
X157737180Y-89027256D02*
X158737180Y-89027256D01*
X157784800Y-89027256D02*
X157737180Y-88932018D01*
X157737180Y-88932018D02*
X157737180Y-88741542D01*
X157737180Y-88741542D02*
X157784800Y-88646304D01*
X157784800Y-88646304D02*
X157832419Y-88598685D01*
X157832419Y-88598685D02*
X157927657Y-88551066D01*
X157927657Y-88551066D02*
X158213371Y-88551066D01*
X158213371Y-88551066D02*
X158308609Y-88598685D01*
X158308609Y-88598685D02*
X158356228Y-88646304D01*
X158356228Y-88646304D02*
X158403847Y-88741542D01*
X158403847Y-88741542D02*
X158403847Y-88932018D01*
X158403847Y-88932018D02*
X158356228Y-89027256D01*
X157784800Y-89884399D02*
X157737180Y-89789161D01*
X157737180Y-89789161D02*
X157737180Y-89598685D01*
X157737180Y-89598685D02*
X157784800Y-89503447D01*
X157784800Y-89503447D02*
X157880038Y-89455828D01*
X157880038Y-89455828D02*
X158260990Y-89455828D01*
X158260990Y-89455828D02*
X158356228Y-89503447D01*
X158356228Y-89503447D02*
X158403847Y-89598685D01*
X158403847Y-89598685D02*
X158403847Y-89789161D01*
X158403847Y-89789161D02*
X158356228Y-89884399D01*
X158356228Y-89884399D02*
X158260990Y-89932018D01*
X158260990Y-89932018D02*
X158165752Y-89932018D01*
X158165752Y-89932018D02*
X158070514Y-89455828D01*
X168289160Y-100822200D02*
X168432017Y-100869819D01*
X168432017Y-100869819D02*
X168670112Y-100869819D01*
X168670112Y-100869819D02*
X168765350Y-100822200D01*
X168765350Y-100822200D02*
X168812969Y-100774580D01*
X168812969Y-100774580D02*
X168860588Y-100679342D01*
X168860588Y-100679342D02*
X168860588Y-100584104D01*
X168860588Y-100584104D02*
X168812969Y-100488866D01*
X168812969Y-100488866D02*
X168765350Y-100441247D01*
X168765350Y-100441247D02*
X168670112Y-100393628D01*
X168670112Y-100393628D02*
X168479636Y-100346009D01*
X168479636Y-100346009D02*
X168384398Y-100298390D01*
X168384398Y-100298390D02*
X168336779Y-100250771D01*
X168336779Y-100250771D02*
X168289160Y-100155533D01*
X168289160Y-100155533D02*
X168289160Y-100060295D01*
X168289160Y-100060295D02*
X168336779Y-99965057D01*
X168336779Y-99965057D02*
X168384398Y-99917438D01*
X168384398Y-99917438D02*
X168479636Y-99869819D01*
X168479636Y-99869819D02*
X168717731Y-99869819D01*
X168717731Y-99869819D02*
X168860588Y-99917438D01*
X169289160Y-100869819D02*
X169289160Y-99869819D01*
X169289160Y-99869819D02*
X169527255Y-99869819D01*
X169527255Y-99869819D02*
X169670112Y-99917438D01*
X169670112Y-99917438D02*
X169765350Y-100012676D01*
X169765350Y-100012676D02*
X169812969Y-100107914D01*
X169812969Y-100107914D02*
X169860588Y-100298390D01*
X169860588Y-100298390D02*
X169860588Y-100441247D01*
X169860588Y-100441247D02*
X169812969Y-100631723D01*
X169812969Y-100631723D02*
X169765350Y-100726961D01*
X169765350Y-100726961D02*
X169670112Y-100822200D01*
X169670112Y-100822200D02*
X169527255Y-100869819D01*
X169527255Y-100869819D02*
X169289160Y-100869819D01*
X170860588Y-100869819D02*
X170527255Y-100393628D01*
X170289160Y-100869819D02*
X170289160Y-99869819D01*
X170289160Y-99869819D02*
X170670112Y-99869819D01*
X170670112Y-99869819D02*
X170765350Y-99917438D01*
X170765350Y-99917438D02*
X170812969Y-99965057D01*
X170812969Y-99965057D02*
X170860588Y-100060295D01*
X170860588Y-100060295D02*
X170860588Y-100203152D01*
X170860588Y-100203152D02*
X170812969Y-100298390D01*
X170812969Y-100298390D02*
X170765350Y-100346009D01*
X170765350Y-100346009D02*
X170670112Y-100393628D01*
X170670112Y-100393628D02*
X170289160Y-100393628D01*
X171908208Y-99869819D02*
X172479636Y-99869819D01*
X172193922Y-100869819D02*
X172193922Y-99869819D01*
X172812970Y-100346009D02*
X173146303Y-100346009D01*
X173289160Y-100869819D02*
X172812970Y-100869819D01*
X172812970Y-100869819D02*
X172812970Y-99869819D01*
X172812970Y-99869819D02*
X173289160Y-99869819D01*
X173717732Y-100346009D02*
X174051065Y-100346009D01*
X174193922Y-100869819D02*
X173717732Y-100869819D01*
X173717732Y-100869819D02*
X173717732Y-99869819D01*
X173717732Y-99869819D02*
X174193922Y-99869819D01*
X174622494Y-100869819D02*
X174622494Y-99869819D01*
X174622494Y-99869819D02*
X175193922Y-100869819D01*
X175193922Y-100869819D02*
X175193922Y-99869819D01*
X175622494Y-100822200D02*
X175765351Y-100869819D01*
X175765351Y-100869819D02*
X176003446Y-100869819D01*
X176003446Y-100869819D02*
X176098684Y-100822200D01*
X176098684Y-100822200D02*
X176146303Y-100774580D01*
X176146303Y-100774580D02*
X176193922Y-100679342D01*
X176193922Y-100679342D02*
X176193922Y-100584104D01*
X176193922Y-100584104D02*
X176146303Y-100488866D01*
X176146303Y-100488866D02*
X176098684Y-100441247D01*
X176098684Y-100441247D02*
X176003446Y-100393628D01*
X176003446Y-100393628D02*
X175812970Y-100346009D01*
X175812970Y-100346009D02*
X175717732Y-100298390D01*
X175717732Y-100298390D02*
X175670113Y-100250771D01*
X175670113Y-100250771D02*
X175622494Y-100155533D01*
X175622494Y-100155533D02*
X175622494Y-100060295D01*
X175622494Y-100060295D02*
X175670113Y-99965057D01*
X175670113Y-99965057D02*
X175717732Y-99917438D01*
X175717732Y-99917438D02*
X175812970Y-99869819D01*
X175812970Y-99869819D02*
X176051065Y-99869819D01*
X176051065Y-99869819D02*
X176193922Y-99917438D01*
X176812970Y-100393628D02*
X176812970Y-100869819D01*
X176479637Y-99869819D02*
X176812970Y-100393628D01*
X176812970Y-100393628D02*
X177146303Y-99869819D01*
X178098685Y-99869819D02*
X178432018Y-100869819D01*
X178432018Y-100869819D02*
X178765351Y-99869819D01*
X179051066Y-99965057D02*
X179098685Y-99917438D01*
X179098685Y-99917438D02*
X179193923Y-99869819D01*
X179193923Y-99869819D02*
X179432018Y-99869819D01*
X179432018Y-99869819D02*
X179527256Y-99917438D01*
X179527256Y-99917438D02*
X179574875Y-99965057D01*
X179574875Y-99965057D02*
X179622494Y-100060295D01*
X179622494Y-100060295D02*
X179622494Y-100155533D01*
X179622494Y-100155533D02*
X179574875Y-100298390D01*
X179574875Y-100298390D02*
X179003447Y-100869819D01*
X179003447Y-100869819D02*
X179622494Y-100869819D01*
X180051066Y-100774580D02*
X180098685Y-100822200D01*
X180098685Y-100822200D02*
X180051066Y-100869819D01*
X180051066Y-100869819D02*
X180003447Y-100822200D01*
X180003447Y-100822200D02*
X180051066Y-100774580D01*
X180051066Y-100774580D02*
X180051066Y-100869819D01*
X180717732Y-99869819D02*
X180812970Y-99869819D01*
X180812970Y-99869819D02*
X180908208Y-99917438D01*
X180908208Y-99917438D02*
X180955827Y-99965057D01*
X180955827Y-99965057D02*
X181003446Y-100060295D01*
X181003446Y-100060295D02*
X181051065Y-100250771D01*
X181051065Y-100250771D02*
X181051065Y-100488866D01*
X181051065Y-100488866D02*
X181003446Y-100679342D01*
X181003446Y-100679342D02*
X180955827Y-100774580D01*
X180955827Y-100774580D02*
X180908208Y-100822200D01*
X180908208Y-100822200D02*
X180812970Y-100869819D01*
X180812970Y-100869819D02*
X180717732Y-100869819D01*
X180717732Y-100869819D02*
X180622494Y-100822200D01*
X180622494Y-100822200D02*
X180574875Y-100774580D01*
X180574875Y-100774580D02*
X180527256Y-100679342D01*
X180527256Y-100679342D02*
X180479637Y-100488866D01*
X180479637Y-100488866D02*
X180479637Y-100250771D01*
X180479637Y-100250771D02*
X180527256Y-100060295D01*
X180527256Y-100060295D02*
X180574875Y-99965057D01*
X180574875Y-99965057D02*
X180622494Y-99917438D01*
X180622494Y-99917438D02*
X180717732Y-99869819D01*
X183336780Y-100346009D02*
X183003447Y-100346009D01*
X183003447Y-100869819D02*
X183003447Y-99869819D01*
X183003447Y-99869819D02*
X183479637Y-99869819D01*
X184384399Y-100869819D02*
X183812971Y-100869819D01*
X184098685Y-100869819D02*
X184098685Y-99869819D01*
X184098685Y-99869819D02*
X184003447Y-100012676D01*
X184003447Y-100012676D02*
X183908209Y-100107914D01*
X183908209Y-100107914D02*
X183812971Y-100155533D01*
X185146304Y-100346009D02*
X184812971Y-100346009D01*
X184812971Y-100869819D02*
X184812971Y-99869819D01*
X184812971Y-99869819D02*
X185289161Y-99869819D01*
X186193923Y-99917438D02*
X186098685Y-99869819D01*
X186098685Y-99869819D02*
X185955828Y-99869819D01*
X185955828Y-99869819D02*
X185812971Y-99917438D01*
X185812971Y-99917438D02*
X185717733Y-100012676D01*
X185717733Y-100012676D02*
X185670114Y-100107914D01*
X185670114Y-100107914D02*
X185622495Y-100298390D01*
X185622495Y-100298390D02*
X185622495Y-100441247D01*
X185622495Y-100441247D02*
X185670114Y-100631723D01*
X185670114Y-100631723D02*
X185717733Y-100726961D01*
X185717733Y-100726961D02*
X185812971Y-100822200D01*
X185812971Y-100822200D02*
X185955828Y-100869819D01*
X185955828Y-100869819D02*
X186051066Y-100869819D01*
X186051066Y-100869819D02*
X186193923Y-100822200D01*
X186193923Y-100822200D02*
X186241542Y-100774580D01*
X186241542Y-100774580D02*
X186241542Y-100441247D01*
X186241542Y-100441247D02*
X186051066Y-100441247D01*
X186527257Y-99869819D02*
X186860590Y-100869819D01*
X186860590Y-100869819D02*
X187193923Y-99869819D01*
X189384400Y-100346009D02*
X189051067Y-100346009D01*
X189051067Y-100869819D02*
X189051067Y-99869819D01*
X189051067Y-99869819D02*
X189527257Y-99869819D01*
X190432019Y-100869819D02*
X189860591Y-100869819D01*
X190146305Y-100869819D02*
X190146305Y-99869819D01*
X190146305Y-99869819D02*
X190051067Y-100012676D01*
X190051067Y-100012676D02*
X189955829Y-100107914D01*
X189955829Y-100107914D02*
X189860591Y-100155533D01*
X190717734Y-99869819D02*
X191051067Y-100869819D01*
X191051067Y-100869819D02*
X191384400Y-99869819D01*
X192193924Y-100869819D02*
X191717734Y-100869819D01*
X191717734Y-100869819D02*
X191717734Y-99869819D01*
X166204819Y-82766666D02*
X166204819Y-83242856D01*
X166204819Y-83242856D02*
X165204819Y-83242856D01*
X165204819Y-82528570D02*
X165204819Y-81909523D01*
X165204819Y-81909523D02*
X165585771Y-82242856D01*
X165585771Y-82242856D02*
X165585771Y-82099999D01*
X165585771Y-82099999D02*
X165633390Y-82004761D01*
X165633390Y-82004761D02*
X165681009Y-81957142D01*
X165681009Y-81957142D02*
X165776247Y-81909523D01*
X165776247Y-81909523D02*
X166014342Y-81909523D01*
X166014342Y-81909523D02*
X166109580Y-81957142D01*
X166109580Y-81957142D02*
X166157200Y-82004761D01*
X166157200Y-82004761D02*
X166204819Y-82099999D01*
X166204819Y-82099999D02*
X166204819Y-82385713D01*
X166204819Y-82385713D02*
X166157200Y-82480951D01*
X166157200Y-82480951D02*
X166109580Y-82528570D01*
X182859580Y-83242857D02*
X182907200Y-83290476D01*
X182907200Y-83290476D02*
X182954819Y-83433333D01*
X182954819Y-83433333D02*
X182954819Y-83528571D01*
X182954819Y-83528571D02*
X182907200Y-83671428D01*
X182907200Y-83671428D02*
X182811961Y-83766666D01*
X182811961Y-83766666D02*
X182716723Y-83814285D01*
X182716723Y-83814285D02*
X182526247Y-83861904D01*
X182526247Y-83861904D02*
X182383390Y-83861904D01*
X182383390Y-83861904D02*
X182192914Y-83814285D01*
X182192914Y-83814285D02*
X182097676Y-83766666D01*
X182097676Y-83766666D02*
X182002438Y-83671428D01*
X182002438Y-83671428D02*
X181954819Y-83528571D01*
X181954819Y-83528571D02*
X181954819Y-83433333D01*
X181954819Y-83433333D02*
X182002438Y-83290476D01*
X182002438Y-83290476D02*
X182050057Y-83242857D01*
X182050057Y-82861904D02*
X182002438Y-82814285D01*
X182002438Y-82814285D02*
X181954819Y-82719047D01*
X181954819Y-82719047D02*
X181954819Y-82480952D01*
X181954819Y-82480952D02*
X182002438Y-82385714D01*
X182002438Y-82385714D02*
X182050057Y-82338095D01*
X182050057Y-82338095D02*
X182145295Y-82290476D01*
X182145295Y-82290476D02*
X182240533Y-82290476D01*
X182240533Y-82290476D02*
X182383390Y-82338095D01*
X182383390Y-82338095D02*
X182954819Y-82909523D01*
X182954819Y-82909523D02*
X182954819Y-82290476D01*
X181954819Y-81671428D02*
X181954819Y-81576190D01*
X181954819Y-81576190D02*
X182002438Y-81480952D01*
X182002438Y-81480952D02*
X182050057Y-81433333D01*
X182050057Y-81433333D02*
X182145295Y-81385714D01*
X182145295Y-81385714D02*
X182335771Y-81338095D01*
X182335771Y-81338095D02*
X182573866Y-81338095D01*
X182573866Y-81338095D02*
X182764342Y-81385714D01*
X182764342Y-81385714D02*
X182859580Y-81433333D01*
X182859580Y-81433333D02*
X182907200Y-81480952D01*
X182907200Y-81480952D02*
X182954819Y-81576190D01*
X182954819Y-81576190D02*
X182954819Y-81671428D01*
X182954819Y-81671428D02*
X182907200Y-81766666D01*
X182907200Y-81766666D02*
X182859580Y-81814285D01*
X182859580Y-81814285D02*
X182764342Y-81861904D01*
X182764342Y-81861904D02*
X182573866Y-81909523D01*
X182573866Y-81909523D02*
X182335771Y-81909523D01*
X182335771Y-81909523D02*
X182145295Y-81861904D01*
X182145295Y-81861904D02*
X182050057Y-81814285D01*
X182050057Y-81814285D02*
X182002438Y-81766666D01*
X182002438Y-81766666D02*
X181954819Y-81671428D01*
X173482095Y-93180819D02*
X173482095Y-93990342D01*
X173482095Y-93990342D02*
X173529714Y-94085580D01*
X173529714Y-94085580D02*
X173577333Y-94133200D01*
X173577333Y-94133200D02*
X173672571Y-94180819D01*
X173672571Y-94180819D02*
X173863047Y-94180819D01*
X173863047Y-94180819D02*
X173958285Y-94133200D01*
X173958285Y-94133200D02*
X174005904Y-94085580D01*
X174005904Y-94085580D02*
X174053523Y-93990342D01*
X174053523Y-93990342D02*
X174053523Y-93180819D01*
X175053523Y-94180819D02*
X174482095Y-94180819D01*
X174767809Y-94180819D02*
X174767809Y-93180819D01*
X174767809Y-93180819D02*
X174672571Y-93323676D01*
X174672571Y-93323676D02*
X174577333Y-93418914D01*
X174577333Y-93418914D02*
X174482095Y-93466533D01*
X163173580Y-73536857D02*
X163221200Y-73584476D01*
X163221200Y-73584476D02*
X163268819Y-73727333D01*
X163268819Y-73727333D02*
X163268819Y-73822571D01*
X163268819Y-73822571D02*
X163221200Y-73965428D01*
X163221200Y-73965428D02*
X163125961Y-74060666D01*
X163125961Y-74060666D02*
X163030723Y-74108285D01*
X163030723Y-74108285D02*
X162840247Y-74155904D01*
X162840247Y-74155904D02*
X162697390Y-74155904D01*
X162697390Y-74155904D02*
X162506914Y-74108285D01*
X162506914Y-74108285D02*
X162411676Y-74060666D01*
X162411676Y-74060666D02*
X162316438Y-73965428D01*
X162316438Y-73965428D02*
X162268819Y-73822571D01*
X162268819Y-73822571D02*
X162268819Y-73727333D01*
X162268819Y-73727333D02*
X162316438Y-73584476D01*
X162316438Y-73584476D02*
X162364057Y-73536857D01*
X163268819Y-72584476D02*
X163268819Y-73155904D01*
X163268819Y-72870190D02*
X162268819Y-72870190D01*
X162268819Y-72870190D02*
X162411676Y-72965428D01*
X162411676Y-72965428D02*
X162506914Y-73060666D01*
X162506914Y-73060666D02*
X162554533Y-73155904D01*
X162697390Y-72013047D02*
X162649771Y-72108285D01*
X162649771Y-72108285D02*
X162602152Y-72155904D01*
X162602152Y-72155904D02*
X162506914Y-72203523D01*
X162506914Y-72203523D02*
X162459295Y-72203523D01*
X162459295Y-72203523D02*
X162364057Y-72155904D01*
X162364057Y-72155904D02*
X162316438Y-72108285D01*
X162316438Y-72108285D02*
X162268819Y-72013047D01*
X162268819Y-72013047D02*
X162268819Y-71822571D01*
X162268819Y-71822571D02*
X162316438Y-71727333D01*
X162316438Y-71727333D02*
X162364057Y-71679714D01*
X162364057Y-71679714D02*
X162459295Y-71632095D01*
X162459295Y-71632095D02*
X162506914Y-71632095D01*
X162506914Y-71632095D02*
X162602152Y-71679714D01*
X162602152Y-71679714D02*
X162649771Y-71727333D01*
X162649771Y-71727333D02*
X162697390Y-71822571D01*
X162697390Y-71822571D02*
X162697390Y-72013047D01*
X162697390Y-72013047D02*
X162745009Y-72108285D01*
X162745009Y-72108285D02*
X162792628Y-72155904D01*
X162792628Y-72155904D02*
X162887866Y-72203523D01*
X162887866Y-72203523D02*
X163078342Y-72203523D01*
X163078342Y-72203523D02*
X163173580Y-72155904D01*
X163173580Y-72155904D02*
X163221200Y-72108285D01*
X163221200Y-72108285D02*
X163268819Y-72013047D01*
X163268819Y-72013047D02*
X163268819Y-71822571D01*
X163268819Y-71822571D02*
X163221200Y-71727333D01*
X163221200Y-71727333D02*
X163173580Y-71679714D01*
X163173580Y-71679714D02*
X163078342Y-71632095D01*
X163078342Y-71632095D02*
X162887866Y-71632095D01*
X162887866Y-71632095D02*
X162792628Y-71679714D01*
X162792628Y-71679714D02*
X162745009Y-71727333D01*
X162745009Y-71727333D02*
X162697390Y-71822571D01*
X193850057Y-81995238D02*
X193802438Y-82090476D01*
X193802438Y-82090476D02*
X193707200Y-82185714D01*
X193707200Y-82185714D02*
X193564342Y-82328571D01*
X193564342Y-82328571D02*
X193516723Y-82423809D01*
X193516723Y-82423809D02*
X193516723Y-82519047D01*
X193754819Y-82471428D02*
X193707200Y-82566666D01*
X193707200Y-82566666D02*
X193611961Y-82661904D01*
X193611961Y-82661904D02*
X193421485Y-82709523D01*
X193421485Y-82709523D02*
X193088152Y-82709523D01*
X193088152Y-82709523D02*
X192897676Y-82661904D01*
X192897676Y-82661904D02*
X192802438Y-82566666D01*
X192802438Y-82566666D02*
X192754819Y-82471428D01*
X192754819Y-82471428D02*
X192754819Y-82280952D01*
X192754819Y-82280952D02*
X192802438Y-82185714D01*
X192802438Y-82185714D02*
X192897676Y-82090476D01*
X192897676Y-82090476D02*
X193088152Y-82042857D01*
X193088152Y-82042857D02*
X193421485Y-82042857D01*
X193421485Y-82042857D02*
X193611961Y-82090476D01*
X193611961Y-82090476D02*
X193707200Y-82185714D01*
X193707200Y-82185714D02*
X193754819Y-82280952D01*
X193754819Y-82280952D02*
X193754819Y-82471428D01*
X193754819Y-81090476D02*
X193754819Y-81661904D01*
X193754819Y-81376190D02*
X192754819Y-81376190D01*
X192754819Y-81376190D02*
X192897676Y-81471428D01*
X192897676Y-81471428D02*
X192992914Y-81566666D01*
X192992914Y-81566666D02*
X193040533Y-81661904D01*
X177143580Y-70238857D02*
X177191200Y-70286476D01*
X177191200Y-70286476D02*
X177238819Y-70429333D01*
X177238819Y-70429333D02*
X177238819Y-70524571D01*
X177238819Y-70524571D02*
X177191200Y-70667428D01*
X177191200Y-70667428D02*
X177095961Y-70762666D01*
X177095961Y-70762666D02*
X177000723Y-70810285D01*
X177000723Y-70810285D02*
X176810247Y-70857904D01*
X176810247Y-70857904D02*
X176667390Y-70857904D01*
X176667390Y-70857904D02*
X176476914Y-70810285D01*
X176476914Y-70810285D02*
X176381676Y-70762666D01*
X176381676Y-70762666D02*
X176286438Y-70667428D01*
X176286438Y-70667428D02*
X176238819Y-70524571D01*
X176238819Y-70524571D02*
X176238819Y-70429333D01*
X176238819Y-70429333D02*
X176286438Y-70286476D01*
X176286438Y-70286476D02*
X176334057Y-70238857D01*
X177238819Y-69286476D02*
X177238819Y-69857904D01*
X177238819Y-69572190D02*
X176238819Y-69572190D01*
X176238819Y-69572190D02*
X176381676Y-69667428D01*
X176381676Y-69667428D02*
X176476914Y-69762666D01*
X176476914Y-69762666D02*
X176524533Y-69857904D01*
X176238819Y-68381714D02*
X176238819Y-68857904D01*
X176238819Y-68857904D02*
X176715009Y-68905523D01*
X176715009Y-68905523D02*
X176667390Y-68857904D01*
X176667390Y-68857904D02*
X176619771Y-68762666D01*
X176619771Y-68762666D02*
X176619771Y-68524571D01*
X176619771Y-68524571D02*
X176667390Y-68429333D01*
X176667390Y-68429333D02*
X176715009Y-68381714D01*
X176715009Y-68381714D02*
X176810247Y-68334095D01*
X176810247Y-68334095D02*
X177048342Y-68334095D01*
X177048342Y-68334095D02*
X177143580Y-68381714D01*
X177143580Y-68381714D02*
X177191200Y-68429333D01*
X177191200Y-68429333D02*
X177238819Y-68524571D01*
X177238819Y-68524571D02*
X177238819Y-68762666D01*
X177238819Y-68762666D02*
X177191200Y-68857904D01*
X177191200Y-68857904D02*
X177143580Y-68905523D01*
X190957142Y-74454819D02*
X190623809Y-73978628D01*
X190385714Y-74454819D02*
X190385714Y-73454819D01*
X190385714Y-73454819D02*
X190766666Y-73454819D01*
X190766666Y-73454819D02*
X190861904Y-73502438D01*
X190861904Y-73502438D02*
X190909523Y-73550057D01*
X190909523Y-73550057D02*
X190957142Y-73645295D01*
X190957142Y-73645295D02*
X190957142Y-73788152D01*
X190957142Y-73788152D02*
X190909523Y-73883390D01*
X190909523Y-73883390D02*
X190861904Y-73931009D01*
X190861904Y-73931009D02*
X190766666Y-73978628D01*
X190766666Y-73978628D02*
X190385714Y-73978628D01*
X191909523Y-74454819D02*
X191338095Y-74454819D01*
X191623809Y-74454819D02*
X191623809Y-73454819D01*
X191623809Y-73454819D02*
X191528571Y-73597676D01*
X191528571Y-73597676D02*
X191433333Y-73692914D01*
X191433333Y-73692914D02*
X191338095Y-73740533D01*
X192480952Y-73883390D02*
X192385714Y-73835771D01*
X192385714Y-73835771D02*
X192338095Y-73788152D01*
X192338095Y-73788152D02*
X192290476Y-73692914D01*
X192290476Y-73692914D02*
X192290476Y-73645295D01*
X192290476Y-73645295D02*
X192338095Y-73550057D01*
X192338095Y-73550057D02*
X192385714Y-73502438D01*
X192385714Y-73502438D02*
X192480952Y-73454819D01*
X192480952Y-73454819D02*
X192671428Y-73454819D01*
X192671428Y-73454819D02*
X192766666Y-73502438D01*
X192766666Y-73502438D02*
X192814285Y-73550057D01*
X192814285Y-73550057D02*
X192861904Y-73645295D01*
X192861904Y-73645295D02*
X192861904Y-73692914D01*
X192861904Y-73692914D02*
X192814285Y-73788152D01*
X192814285Y-73788152D02*
X192766666Y-73835771D01*
X192766666Y-73835771D02*
X192671428Y-73883390D01*
X192671428Y-73883390D02*
X192480952Y-73883390D01*
X192480952Y-73883390D02*
X192385714Y-73931009D01*
X192385714Y-73931009D02*
X192338095Y-73978628D01*
X192338095Y-73978628D02*
X192290476Y-74073866D01*
X192290476Y-74073866D02*
X192290476Y-74264342D01*
X192290476Y-74264342D02*
X192338095Y-74359580D01*
X192338095Y-74359580D02*
X192385714Y-74407200D01*
X192385714Y-74407200D02*
X192480952Y-74454819D01*
X192480952Y-74454819D02*
X192671428Y-74454819D01*
X192671428Y-74454819D02*
X192766666Y-74407200D01*
X192766666Y-74407200D02*
X192814285Y-74359580D01*
X192814285Y-74359580D02*
X192861904Y-74264342D01*
X192861904Y-74264342D02*
X192861904Y-74073866D01*
X192861904Y-74073866D02*
X192814285Y-73978628D01*
X192814285Y-73978628D02*
X192766666Y-73931009D01*
X192766666Y-73931009D02*
X192671428Y-73883390D01*
X184491333Y-73511580D02*
X184443714Y-73559200D01*
X184443714Y-73559200D02*
X184300857Y-73606819D01*
X184300857Y-73606819D02*
X184205619Y-73606819D01*
X184205619Y-73606819D02*
X184062762Y-73559200D01*
X184062762Y-73559200D02*
X183967524Y-73463961D01*
X183967524Y-73463961D02*
X183919905Y-73368723D01*
X183919905Y-73368723D02*
X183872286Y-73178247D01*
X183872286Y-73178247D02*
X183872286Y-73035390D01*
X183872286Y-73035390D02*
X183919905Y-72844914D01*
X183919905Y-72844914D02*
X183967524Y-72749676D01*
X183967524Y-72749676D02*
X184062762Y-72654438D01*
X184062762Y-72654438D02*
X184205619Y-72606819D01*
X184205619Y-72606819D02*
X184300857Y-72606819D01*
X184300857Y-72606819D02*
X184443714Y-72654438D01*
X184443714Y-72654438D02*
X184491333Y-72702057D01*
X184824667Y-72606819D02*
X185443714Y-72606819D01*
X185443714Y-72606819D02*
X185110381Y-72987771D01*
X185110381Y-72987771D02*
X185253238Y-72987771D01*
X185253238Y-72987771D02*
X185348476Y-73035390D01*
X185348476Y-73035390D02*
X185396095Y-73083009D01*
X185396095Y-73083009D02*
X185443714Y-73178247D01*
X185443714Y-73178247D02*
X185443714Y-73416342D01*
X185443714Y-73416342D02*
X185396095Y-73511580D01*
X185396095Y-73511580D02*
X185348476Y-73559200D01*
X185348476Y-73559200D02*
X185253238Y-73606819D01*
X185253238Y-73606819D02*
X184967524Y-73606819D01*
X184967524Y-73606819D02*
X184872286Y-73559200D01*
X184872286Y-73559200D02*
X184824667Y-73511580D01*
X205660666Y-81496819D02*
X205660666Y-82211104D01*
X205660666Y-82211104D02*
X205613047Y-82353961D01*
X205613047Y-82353961D02*
X205517809Y-82449200D01*
X205517809Y-82449200D02*
X205374952Y-82496819D01*
X205374952Y-82496819D02*
X205279714Y-82496819D01*
X206660666Y-82496819D02*
X206089238Y-82496819D01*
X206374952Y-82496819D02*
X206374952Y-81496819D01*
X206374952Y-81496819D02*
X206279714Y-81639676D01*
X206279714Y-81639676D02*
X206184476Y-81734914D01*
X206184476Y-81734914D02*
X206089238Y-81782533D01*
X194683142Y-62684819D02*
X194349809Y-62208628D01*
X194111714Y-62684819D02*
X194111714Y-61684819D01*
X194111714Y-61684819D02*
X194492666Y-61684819D01*
X194492666Y-61684819D02*
X194587904Y-61732438D01*
X194587904Y-61732438D02*
X194635523Y-61780057D01*
X194635523Y-61780057D02*
X194683142Y-61875295D01*
X194683142Y-61875295D02*
X194683142Y-62018152D01*
X194683142Y-62018152D02*
X194635523Y-62113390D01*
X194635523Y-62113390D02*
X194587904Y-62161009D01*
X194587904Y-62161009D02*
X194492666Y-62208628D01*
X194492666Y-62208628D02*
X194111714Y-62208628D01*
X195635523Y-62684819D02*
X195064095Y-62684819D01*
X195349809Y-62684819D02*
X195349809Y-61684819D01*
X195349809Y-61684819D02*
X195254571Y-61827676D01*
X195254571Y-61827676D02*
X195159333Y-61922914D01*
X195159333Y-61922914D02*
X195064095Y-61970533D01*
X195968857Y-61684819D02*
X196635523Y-61684819D01*
X196635523Y-61684819D02*
X196206952Y-62684819D01*
X164754819Y-66642857D02*
X164278628Y-66976190D01*
X164754819Y-67214285D02*
X163754819Y-67214285D01*
X163754819Y-67214285D02*
X163754819Y-66833333D01*
X163754819Y-66833333D02*
X163802438Y-66738095D01*
X163802438Y-66738095D02*
X163850057Y-66690476D01*
X163850057Y-66690476D02*
X163945295Y-66642857D01*
X163945295Y-66642857D02*
X164088152Y-66642857D01*
X164088152Y-66642857D02*
X164183390Y-66690476D01*
X164183390Y-66690476D02*
X164231009Y-66738095D01*
X164231009Y-66738095D02*
X164278628Y-66833333D01*
X164278628Y-66833333D02*
X164278628Y-67214285D01*
X163850057Y-66261904D02*
X163802438Y-66214285D01*
X163802438Y-66214285D02*
X163754819Y-66119047D01*
X163754819Y-66119047D02*
X163754819Y-65880952D01*
X163754819Y-65880952D02*
X163802438Y-65785714D01*
X163802438Y-65785714D02*
X163850057Y-65738095D01*
X163850057Y-65738095D02*
X163945295Y-65690476D01*
X163945295Y-65690476D02*
X164040533Y-65690476D01*
X164040533Y-65690476D02*
X164183390Y-65738095D01*
X164183390Y-65738095D02*
X164754819Y-66309523D01*
X164754819Y-66309523D02*
X164754819Y-65690476D01*
X163754819Y-65071428D02*
X163754819Y-64976190D01*
X163754819Y-64976190D02*
X163802438Y-64880952D01*
X163802438Y-64880952D02*
X163850057Y-64833333D01*
X163850057Y-64833333D02*
X163945295Y-64785714D01*
X163945295Y-64785714D02*
X164135771Y-64738095D01*
X164135771Y-64738095D02*
X164373866Y-64738095D01*
X164373866Y-64738095D02*
X164564342Y-64785714D01*
X164564342Y-64785714D02*
X164659580Y-64833333D01*
X164659580Y-64833333D02*
X164707200Y-64880952D01*
X164707200Y-64880952D02*
X164754819Y-64976190D01*
X164754819Y-64976190D02*
X164754819Y-65071428D01*
X164754819Y-65071428D02*
X164707200Y-65166666D01*
X164707200Y-65166666D02*
X164659580Y-65214285D01*
X164659580Y-65214285D02*
X164564342Y-65261904D01*
X164564342Y-65261904D02*
X164373866Y-65309523D01*
X164373866Y-65309523D02*
X164135771Y-65309523D01*
X164135771Y-65309523D02*
X163945295Y-65261904D01*
X163945295Y-65261904D02*
X163850057Y-65214285D01*
X163850057Y-65214285D02*
X163802438Y-65166666D01*
X163802438Y-65166666D02*
X163754819Y-65071428D01*
X181610095Y-67272819D02*
X181610095Y-68082342D01*
X181610095Y-68082342D02*
X181657714Y-68177580D01*
X181657714Y-68177580D02*
X181705333Y-68225200D01*
X181705333Y-68225200D02*
X181800571Y-68272819D01*
X181800571Y-68272819D02*
X181991047Y-68272819D01*
X181991047Y-68272819D02*
X182086285Y-68225200D01*
X182086285Y-68225200D02*
X182133904Y-68177580D01*
X182133904Y-68177580D02*
X182181523Y-68082342D01*
X182181523Y-68082342D02*
X182181523Y-67272819D01*
X183133904Y-67272819D02*
X182657714Y-67272819D01*
X182657714Y-67272819D02*
X182610095Y-67749009D01*
X182610095Y-67749009D02*
X182657714Y-67701390D01*
X182657714Y-67701390D02*
X182752952Y-67653771D01*
X182752952Y-67653771D02*
X182991047Y-67653771D01*
X182991047Y-67653771D02*
X183086285Y-67701390D01*
X183086285Y-67701390D02*
X183133904Y-67749009D01*
X183133904Y-67749009D02*
X183181523Y-67844247D01*
X183181523Y-67844247D02*
X183181523Y-68082342D01*
X183181523Y-68082342D02*
X183133904Y-68177580D01*
X183133904Y-68177580D02*
X183086285Y-68225200D01*
X183086285Y-68225200D02*
X182991047Y-68272819D01*
X182991047Y-68272819D02*
X182752952Y-68272819D01*
X182752952Y-68272819D02*
X182657714Y-68225200D01*
X182657714Y-68225200D02*
X182610095Y-68177580D01*
X166233333Y-78254819D02*
X165900000Y-77778628D01*
X165661905Y-78254819D02*
X165661905Y-77254819D01*
X165661905Y-77254819D02*
X166042857Y-77254819D01*
X166042857Y-77254819D02*
X166138095Y-77302438D01*
X166138095Y-77302438D02*
X166185714Y-77350057D01*
X166185714Y-77350057D02*
X166233333Y-77445295D01*
X166233333Y-77445295D02*
X166233333Y-77588152D01*
X166233333Y-77588152D02*
X166185714Y-77683390D01*
X166185714Y-77683390D02*
X166138095Y-77731009D01*
X166138095Y-77731009D02*
X166042857Y-77778628D01*
X166042857Y-77778628D02*
X165661905Y-77778628D01*
X167138095Y-77254819D02*
X166661905Y-77254819D01*
X166661905Y-77254819D02*
X166614286Y-77731009D01*
X166614286Y-77731009D02*
X166661905Y-77683390D01*
X166661905Y-77683390D02*
X166757143Y-77635771D01*
X166757143Y-77635771D02*
X166995238Y-77635771D01*
X166995238Y-77635771D02*
X167090476Y-77683390D01*
X167090476Y-77683390D02*
X167138095Y-77731009D01*
X167138095Y-77731009D02*
X167185714Y-77826247D01*
X167185714Y-77826247D02*
X167185714Y-78064342D01*
X167185714Y-78064342D02*
X167138095Y-78159580D01*
X167138095Y-78159580D02*
X167090476Y-78207200D01*
X167090476Y-78207200D02*
X166995238Y-78254819D01*
X166995238Y-78254819D02*
X166757143Y-78254819D01*
X166757143Y-78254819D02*
X166661905Y-78207200D01*
X166661905Y-78207200D02*
X166614286Y-78159580D01*
D11*
X175038095Y-81857419D02*
X175609523Y-81857419D01*
X175323809Y-82857419D02*
X175323809Y-81857419D01*
X175942857Y-82857419D02*
X175942857Y-81857419D01*
X175942857Y-81857419D02*
X176323809Y-81857419D01*
X176323809Y-81857419D02*
X176419047Y-81905038D01*
X176419047Y-81905038D02*
X176466666Y-81952657D01*
X176466666Y-81952657D02*
X176514285Y-82047895D01*
X176514285Y-82047895D02*
X176514285Y-82190752D01*
X176514285Y-82190752D02*
X176466666Y-82285990D01*
X176466666Y-82285990D02*
X176419047Y-82333609D01*
X176419047Y-82333609D02*
X176323809Y-82381228D01*
X176323809Y-82381228D02*
X175942857Y-82381228D01*
X177371428Y-82190752D02*
X177371428Y-82857419D01*
X177133333Y-81809800D02*
X176895238Y-82524085D01*
X176895238Y-82524085D02*
X177514285Y-82524085D01*
D10*
X162859580Y-81566666D02*
X162907200Y-81614285D01*
X162907200Y-81614285D02*
X162954819Y-81757142D01*
X162954819Y-81757142D02*
X162954819Y-81852380D01*
X162954819Y-81852380D02*
X162907200Y-81995237D01*
X162907200Y-81995237D02*
X162811961Y-82090475D01*
X162811961Y-82090475D02*
X162716723Y-82138094D01*
X162716723Y-82138094D02*
X162526247Y-82185713D01*
X162526247Y-82185713D02*
X162383390Y-82185713D01*
X162383390Y-82185713D02*
X162192914Y-82138094D01*
X162192914Y-82138094D02*
X162097676Y-82090475D01*
X162097676Y-82090475D02*
X162002438Y-81995237D01*
X162002438Y-81995237D02*
X161954819Y-81852380D01*
X161954819Y-81852380D02*
X161954819Y-81757142D01*
X161954819Y-81757142D02*
X162002438Y-81614285D01*
X162002438Y-81614285D02*
X162050057Y-81566666D01*
X162954819Y-80614285D02*
X162954819Y-81185713D01*
X162954819Y-80899999D02*
X161954819Y-80899999D01*
X161954819Y-80899999D02*
X162097676Y-80995237D01*
X162097676Y-80995237D02*
X162192914Y-81090475D01*
X162192914Y-81090475D02*
X162240533Y-81185713D01*
X172133333Y-75054819D02*
X171800000Y-74578628D01*
X171561905Y-75054819D02*
X171561905Y-74054819D01*
X171561905Y-74054819D02*
X171942857Y-74054819D01*
X171942857Y-74054819D02*
X172038095Y-74102438D01*
X172038095Y-74102438D02*
X172085714Y-74150057D01*
X172085714Y-74150057D02*
X172133333Y-74245295D01*
X172133333Y-74245295D02*
X172133333Y-74388152D01*
X172133333Y-74388152D02*
X172085714Y-74483390D01*
X172085714Y-74483390D02*
X172038095Y-74531009D01*
X172038095Y-74531009D02*
X171942857Y-74578628D01*
X171942857Y-74578628D02*
X171561905Y-74578628D01*
X172990476Y-74388152D02*
X172990476Y-75054819D01*
X172752381Y-74007200D02*
X172514286Y-74721485D01*
X172514286Y-74721485D02*
X173133333Y-74721485D01*
X181557142Y-73554819D02*
X181223809Y-73078628D01*
X180985714Y-73554819D02*
X180985714Y-72554819D01*
X180985714Y-72554819D02*
X181366666Y-72554819D01*
X181366666Y-72554819D02*
X181461904Y-72602438D01*
X181461904Y-72602438D02*
X181509523Y-72650057D01*
X181509523Y-72650057D02*
X181557142Y-72745295D01*
X181557142Y-72745295D02*
X181557142Y-72888152D01*
X181557142Y-72888152D02*
X181509523Y-72983390D01*
X181509523Y-72983390D02*
X181461904Y-73031009D01*
X181461904Y-73031009D02*
X181366666Y-73078628D01*
X181366666Y-73078628D02*
X180985714Y-73078628D01*
X182509523Y-73554819D02*
X181938095Y-73554819D01*
X182223809Y-73554819D02*
X182223809Y-72554819D01*
X182223809Y-72554819D02*
X182128571Y-72697676D01*
X182128571Y-72697676D02*
X182033333Y-72792914D01*
X182033333Y-72792914D02*
X181938095Y-72840533D01*
X182842857Y-72554819D02*
X183461904Y-72554819D01*
X183461904Y-72554819D02*
X183128571Y-72935771D01*
X183128571Y-72935771D02*
X183271428Y-72935771D01*
X183271428Y-72935771D02*
X183366666Y-72983390D01*
X183366666Y-72983390D02*
X183414285Y-73031009D01*
X183414285Y-73031009D02*
X183461904Y-73126247D01*
X183461904Y-73126247D02*
X183461904Y-73364342D01*
X183461904Y-73364342D02*
X183414285Y-73459580D01*
X183414285Y-73459580D02*
X183366666Y-73507200D01*
X183366666Y-73507200D02*
X183271428Y-73554819D01*
X183271428Y-73554819D02*
X182985714Y-73554819D01*
X182985714Y-73554819D02*
X182890476Y-73507200D01*
X182890476Y-73507200D02*
X182842857Y-73459580D01*
X194818095Y-67780819D02*
X194818095Y-68590342D01*
X194818095Y-68590342D02*
X194865714Y-68685580D01*
X194865714Y-68685580D02*
X194913333Y-68733200D01*
X194913333Y-68733200D02*
X195008571Y-68780819D01*
X195008571Y-68780819D02*
X195199047Y-68780819D01*
X195199047Y-68780819D02*
X195294285Y-68733200D01*
X195294285Y-68733200D02*
X195341904Y-68685580D01*
X195341904Y-68685580D02*
X195389523Y-68590342D01*
X195389523Y-68590342D02*
X195389523Y-67780819D01*
X195770476Y-67780819D02*
X196437142Y-67780819D01*
X196437142Y-67780819D02*
X196008571Y-68780819D01*
X178559580Y-66428857D02*
X178607200Y-66476476D01*
X178607200Y-66476476D02*
X178654819Y-66619333D01*
X178654819Y-66619333D02*
X178654819Y-66714571D01*
X178654819Y-66714571D02*
X178607200Y-66857428D01*
X178607200Y-66857428D02*
X178511961Y-66952666D01*
X178511961Y-66952666D02*
X178416723Y-67000285D01*
X178416723Y-67000285D02*
X178226247Y-67047904D01*
X178226247Y-67047904D02*
X178083390Y-67047904D01*
X178083390Y-67047904D02*
X177892914Y-67000285D01*
X177892914Y-67000285D02*
X177797676Y-66952666D01*
X177797676Y-66952666D02*
X177702438Y-66857428D01*
X177702438Y-66857428D02*
X177654819Y-66714571D01*
X177654819Y-66714571D02*
X177654819Y-66619333D01*
X177654819Y-66619333D02*
X177702438Y-66476476D01*
X177702438Y-66476476D02*
X177750057Y-66428857D01*
X178654819Y-65476476D02*
X178654819Y-66047904D01*
X178654819Y-65762190D02*
X177654819Y-65762190D01*
X177654819Y-65762190D02*
X177797676Y-65857428D01*
X177797676Y-65857428D02*
X177892914Y-65952666D01*
X177892914Y-65952666D02*
X177940533Y-66047904D01*
X177988152Y-64619333D02*
X178654819Y-64619333D01*
X177607200Y-64857428D02*
X178321485Y-65095523D01*
X178321485Y-65095523D02*
X178321485Y-64476476D01*
X190859580Y-69222857D02*
X190907200Y-69270476D01*
X190907200Y-69270476D02*
X190954819Y-69413333D01*
X190954819Y-69413333D02*
X190954819Y-69508571D01*
X190954819Y-69508571D02*
X190907200Y-69651428D01*
X190907200Y-69651428D02*
X190811961Y-69746666D01*
X190811961Y-69746666D02*
X190716723Y-69794285D01*
X190716723Y-69794285D02*
X190526247Y-69841904D01*
X190526247Y-69841904D02*
X190383390Y-69841904D01*
X190383390Y-69841904D02*
X190192914Y-69794285D01*
X190192914Y-69794285D02*
X190097676Y-69746666D01*
X190097676Y-69746666D02*
X190002438Y-69651428D01*
X190002438Y-69651428D02*
X189954819Y-69508571D01*
X189954819Y-69508571D02*
X189954819Y-69413333D01*
X189954819Y-69413333D02*
X190002438Y-69270476D01*
X190002438Y-69270476D02*
X190050057Y-69222857D01*
X190954819Y-68270476D02*
X190954819Y-68841904D01*
X190954819Y-68556190D02*
X189954819Y-68556190D01*
X189954819Y-68556190D02*
X190097676Y-68651428D01*
X190097676Y-68651428D02*
X190192914Y-68746666D01*
X190192914Y-68746666D02*
X190240533Y-68841904D01*
X189954819Y-67937142D02*
X189954819Y-67270476D01*
X189954819Y-67270476D02*
X190954819Y-67699047D01*
X170333333Y-64859580D02*
X170285714Y-64907200D01*
X170285714Y-64907200D02*
X170142857Y-64954819D01*
X170142857Y-64954819D02*
X170047619Y-64954819D01*
X170047619Y-64954819D02*
X169904762Y-64907200D01*
X169904762Y-64907200D02*
X169809524Y-64811961D01*
X169809524Y-64811961D02*
X169761905Y-64716723D01*
X169761905Y-64716723D02*
X169714286Y-64526247D01*
X169714286Y-64526247D02*
X169714286Y-64383390D01*
X169714286Y-64383390D02*
X169761905Y-64192914D01*
X169761905Y-64192914D02*
X169809524Y-64097676D01*
X169809524Y-64097676D02*
X169904762Y-64002438D01*
X169904762Y-64002438D02*
X170047619Y-63954819D01*
X170047619Y-63954819D02*
X170142857Y-63954819D01*
X170142857Y-63954819D02*
X170285714Y-64002438D01*
X170285714Y-64002438D02*
X170333333Y-64050057D01*
X170904762Y-64383390D02*
X170809524Y-64335771D01*
X170809524Y-64335771D02*
X170761905Y-64288152D01*
X170761905Y-64288152D02*
X170714286Y-64192914D01*
X170714286Y-64192914D02*
X170714286Y-64145295D01*
X170714286Y-64145295D02*
X170761905Y-64050057D01*
X170761905Y-64050057D02*
X170809524Y-64002438D01*
X170809524Y-64002438D02*
X170904762Y-63954819D01*
X170904762Y-63954819D02*
X171095238Y-63954819D01*
X171095238Y-63954819D02*
X171190476Y-64002438D01*
X171190476Y-64002438D02*
X171238095Y-64050057D01*
X171238095Y-64050057D02*
X171285714Y-64145295D01*
X171285714Y-64145295D02*
X171285714Y-64192914D01*
X171285714Y-64192914D02*
X171238095Y-64288152D01*
X171238095Y-64288152D02*
X171190476Y-64335771D01*
X171190476Y-64335771D02*
X171095238Y-64383390D01*
X171095238Y-64383390D02*
X170904762Y-64383390D01*
X170904762Y-64383390D02*
X170809524Y-64431009D01*
X170809524Y-64431009D02*
X170761905Y-64478628D01*
X170761905Y-64478628D02*
X170714286Y-64573866D01*
X170714286Y-64573866D02*
X170714286Y-64764342D01*
X170714286Y-64764342D02*
X170761905Y-64859580D01*
X170761905Y-64859580D02*
X170809524Y-64907200D01*
X170809524Y-64907200D02*
X170904762Y-64954819D01*
X170904762Y-64954819D02*
X171095238Y-64954819D01*
X171095238Y-64954819D02*
X171190476Y-64907200D01*
X171190476Y-64907200D02*
X171238095Y-64859580D01*
X171238095Y-64859580D02*
X171285714Y-64764342D01*
X171285714Y-64764342D02*
X171285714Y-64573866D01*
X171285714Y-64573866D02*
X171238095Y-64478628D01*
X171238095Y-64478628D02*
X171190476Y-64431009D01*
X171190476Y-64431009D02*
X171095238Y-64383390D01*
D11*
X164338095Y-62357419D02*
X164909523Y-62357419D01*
X164623809Y-63357419D02*
X164623809Y-62357419D01*
X165242857Y-63357419D02*
X165242857Y-62357419D01*
X165242857Y-62357419D02*
X165623809Y-62357419D01*
X165623809Y-62357419D02*
X165719047Y-62405038D01*
X165719047Y-62405038D02*
X165766666Y-62452657D01*
X165766666Y-62452657D02*
X165814285Y-62547895D01*
X165814285Y-62547895D02*
X165814285Y-62690752D01*
X165814285Y-62690752D02*
X165766666Y-62785990D01*
X165766666Y-62785990D02*
X165719047Y-62833609D01*
X165719047Y-62833609D02*
X165623809Y-62881228D01*
X165623809Y-62881228D02*
X165242857Y-62881228D01*
X166195238Y-62452657D02*
X166242857Y-62405038D01*
X166242857Y-62405038D02*
X166338095Y-62357419D01*
X166338095Y-62357419D02*
X166576190Y-62357419D01*
X166576190Y-62357419D02*
X166671428Y-62405038D01*
X166671428Y-62405038D02*
X166719047Y-62452657D01*
X166719047Y-62452657D02*
X166766666Y-62547895D01*
X166766666Y-62547895D02*
X166766666Y-62643133D01*
X166766666Y-62643133D02*
X166719047Y-62785990D01*
X166719047Y-62785990D02*
X166147619Y-63357419D01*
X166147619Y-63357419D02*
X166766666Y-63357419D01*
D10*
X202384819Y-87916666D02*
X202384819Y-88392856D01*
X202384819Y-88392856D02*
X201384819Y-88392856D01*
X201480057Y-87630951D02*
X201432438Y-87583332D01*
X201432438Y-87583332D02*
X201384819Y-87488094D01*
X201384819Y-87488094D02*
X201384819Y-87249999D01*
X201384819Y-87249999D02*
X201432438Y-87154761D01*
X201432438Y-87154761D02*
X201480057Y-87107142D01*
X201480057Y-87107142D02*
X201575295Y-87059523D01*
X201575295Y-87059523D02*
X201670533Y-87059523D01*
X201670533Y-87059523D02*
X201813390Y-87107142D01*
X201813390Y-87107142D02*
X202384819Y-87678570D01*
X202384819Y-87678570D02*
X202384819Y-87059523D01*
X188854819Y-73966666D02*
X188378628Y-74299999D01*
X188854819Y-74538094D02*
X187854819Y-74538094D01*
X187854819Y-74538094D02*
X187854819Y-74157142D01*
X187854819Y-74157142D02*
X187902438Y-74061904D01*
X187902438Y-74061904D02*
X187950057Y-74014285D01*
X187950057Y-74014285D02*
X188045295Y-73966666D01*
X188045295Y-73966666D02*
X188188152Y-73966666D01*
X188188152Y-73966666D02*
X188283390Y-74014285D01*
X188283390Y-74014285D02*
X188331009Y-74061904D01*
X188331009Y-74061904D02*
X188378628Y-74157142D01*
X188378628Y-74157142D02*
X188378628Y-74538094D01*
X188854819Y-73490475D02*
X188854819Y-73299999D01*
X188854819Y-73299999D02*
X188807200Y-73204761D01*
X188807200Y-73204761D02*
X188759580Y-73157142D01*
X188759580Y-73157142D02*
X188616723Y-73061904D01*
X188616723Y-73061904D02*
X188426247Y-73014285D01*
X188426247Y-73014285D02*
X188045295Y-73014285D01*
X188045295Y-73014285D02*
X187950057Y-73061904D01*
X187950057Y-73061904D02*
X187902438Y-73109523D01*
X187902438Y-73109523D02*
X187854819Y-73204761D01*
X187854819Y-73204761D02*
X187854819Y-73395237D01*
X187854819Y-73395237D02*
X187902438Y-73490475D01*
X187902438Y-73490475D02*
X187950057Y-73538094D01*
X187950057Y-73538094D02*
X188045295Y-73585713D01*
X188045295Y-73585713D02*
X188283390Y-73585713D01*
X188283390Y-73585713D02*
X188378628Y-73538094D01*
X188378628Y-73538094D02*
X188426247Y-73490475D01*
X188426247Y-73490475D02*
X188473866Y-73395237D01*
X188473866Y-73395237D02*
X188473866Y-73204761D01*
X188473866Y-73204761D02*
X188426247Y-73109523D01*
X188426247Y-73109523D02*
X188378628Y-73061904D01*
X188378628Y-73061904D02*
X188283390Y-73014285D01*
X192533333Y-84254819D02*
X192200000Y-83778628D01*
X191961905Y-84254819D02*
X191961905Y-83254819D01*
X191961905Y-83254819D02*
X192342857Y-83254819D01*
X192342857Y-83254819D02*
X192438095Y-83302438D01*
X192438095Y-83302438D02*
X192485714Y-83350057D01*
X192485714Y-83350057D02*
X192533333Y-83445295D01*
X192533333Y-83445295D02*
X192533333Y-83588152D01*
X192533333Y-83588152D02*
X192485714Y-83683390D01*
X192485714Y-83683390D02*
X192438095Y-83731009D01*
X192438095Y-83731009D02*
X192342857Y-83778628D01*
X192342857Y-83778628D02*
X191961905Y-83778628D01*
X193390476Y-83254819D02*
X193200000Y-83254819D01*
X193200000Y-83254819D02*
X193104762Y-83302438D01*
X193104762Y-83302438D02*
X193057143Y-83350057D01*
X193057143Y-83350057D02*
X192961905Y-83492914D01*
X192961905Y-83492914D02*
X192914286Y-83683390D01*
X192914286Y-83683390D02*
X192914286Y-84064342D01*
X192914286Y-84064342D02*
X192961905Y-84159580D01*
X192961905Y-84159580D02*
X193009524Y-84207200D01*
X193009524Y-84207200D02*
X193104762Y-84254819D01*
X193104762Y-84254819D02*
X193295238Y-84254819D01*
X193295238Y-84254819D02*
X193390476Y-84207200D01*
X193390476Y-84207200D02*
X193438095Y-84159580D01*
X193438095Y-84159580D02*
X193485714Y-84064342D01*
X193485714Y-84064342D02*
X193485714Y-83826247D01*
X193485714Y-83826247D02*
X193438095Y-83731009D01*
X193438095Y-83731009D02*
X193390476Y-83683390D01*
X193390476Y-83683390D02*
X193295238Y-83635771D01*
X193295238Y-83635771D02*
X193104762Y-83635771D01*
X193104762Y-83635771D02*
X193009524Y-83683390D01*
X193009524Y-83683390D02*
X192961905Y-83731009D01*
X192961905Y-83731009D02*
X192914286Y-83826247D01*
X197957142Y-62654819D02*
X197623809Y-62178628D01*
X197385714Y-62654819D02*
X197385714Y-61654819D01*
X197385714Y-61654819D02*
X197766666Y-61654819D01*
X197766666Y-61654819D02*
X197861904Y-61702438D01*
X197861904Y-61702438D02*
X197909523Y-61750057D01*
X197909523Y-61750057D02*
X197957142Y-61845295D01*
X197957142Y-61845295D02*
X197957142Y-61988152D01*
X197957142Y-61988152D02*
X197909523Y-62083390D01*
X197909523Y-62083390D02*
X197861904Y-62131009D01*
X197861904Y-62131009D02*
X197766666Y-62178628D01*
X197766666Y-62178628D02*
X197385714Y-62178628D01*
X198909523Y-62654819D02*
X198338095Y-62654819D01*
X198623809Y-62654819D02*
X198623809Y-61654819D01*
X198623809Y-61654819D02*
X198528571Y-61797676D01*
X198528571Y-61797676D02*
X198433333Y-61892914D01*
X198433333Y-61892914D02*
X198338095Y-61940533D01*
X199766666Y-61654819D02*
X199576190Y-61654819D01*
X199576190Y-61654819D02*
X199480952Y-61702438D01*
X199480952Y-61702438D02*
X199433333Y-61750057D01*
X199433333Y-61750057D02*
X199338095Y-61892914D01*
X199338095Y-61892914D02*
X199290476Y-62083390D01*
X199290476Y-62083390D02*
X199290476Y-62464342D01*
X199290476Y-62464342D02*
X199338095Y-62559580D01*
X199338095Y-62559580D02*
X199385714Y-62607200D01*
X199385714Y-62607200D02*
X199480952Y-62654819D01*
X199480952Y-62654819D02*
X199671428Y-62654819D01*
X199671428Y-62654819D02*
X199766666Y-62607200D01*
X199766666Y-62607200D02*
X199814285Y-62559580D01*
X199814285Y-62559580D02*
X199861904Y-62464342D01*
X199861904Y-62464342D02*
X199861904Y-62226247D01*
X199861904Y-62226247D02*
X199814285Y-62131009D01*
X199814285Y-62131009D02*
X199766666Y-62083390D01*
X199766666Y-62083390D02*
X199671428Y-62035771D01*
X199671428Y-62035771D02*
X199480952Y-62035771D01*
X199480952Y-62035771D02*
X199385714Y-62083390D01*
X199385714Y-62083390D02*
X199338095Y-62131009D01*
X199338095Y-62131009D02*
X199290476Y-62226247D01*
X186364142Y-64876819D02*
X186030809Y-64400628D01*
X185792714Y-64876819D02*
X185792714Y-63876819D01*
X185792714Y-63876819D02*
X186173666Y-63876819D01*
X186173666Y-63876819D02*
X186268904Y-63924438D01*
X186268904Y-63924438D02*
X186316523Y-63972057D01*
X186316523Y-63972057D02*
X186364142Y-64067295D01*
X186364142Y-64067295D02*
X186364142Y-64210152D01*
X186364142Y-64210152D02*
X186316523Y-64305390D01*
X186316523Y-64305390D02*
X186268904Y-64353009D01*
X186268904Y-64353009D02*
X186173666Y-64400628D01*
X186173666Y-64400628D02*
X185792714Y-64400628D01*
X187316523Y-64876819D02*
X186745095Y-64876819D01*
X187030809Y-64876819D02*
X187030809Y-63876819D01*
X187030809Y-63876819D02*
X186935571Y-64019676D01*
X186935571Y-64019676D02*
X186840333Y-64114914D01*
X186840333Y-64114914D02*
X186745095Y-64162533D01*
X188268904Y-64876819D02*
X187697476Y-64876819D01*
X187983190Y-64876819D02*
X187983190Y-63876819D01*
X187983190Y-63876819D02*
X187887952Y-64019676D01*
X187887952Y-64019676D02*
X187792714Y-64114914D01*
X187792714Y-64114914D02*
X187697476Y-64162533D01*
D11*
X187206095Y-70069419D02*
X187777523Y-70069419D01*
X187491809Y-71069419D02*
X187491809Y-70069419D01*
X188110857Y-71069419D02*
X188110857Y-70069419D01*
X188110857Y-70069419D02*
X188491809Y-70069419D01*
X188491809Y-70069419D02*
X188587047Y-70117038D01*
X188587047Y-70117038D02*
X188634666Y-70164657D01*
X188634666Y-70164657D02*
X188682285Y-70259895D01*
X188682285Y-70259895D02*
X188682285Y-70402752D01*
X188682285Y-70402752D02*
X188634666Y-70497990D01*
X188634666Y-70497990D02*
X188587047Y-70545609D01*
X188587047Y-70545609D02*
X188491809Y-70593228D01*
X188491809Y-70593228D02*
X188110857Y-70593228D01*
X189253714Y-70497990D02*
X189158476Y-70450371D01*
X189158476Y-70450371D02*
X189110857Y-70402752D01*
X189110857Y-70402752D02*
X189063238Y-70307514D01*
X189063238Y-70307514D02*
X189063238Y-70259895D01*
X189063238Y-70259895D02*
X189110857Y-70164657D01*
X189110857Y-70164657D02*
X189158476Y-70117038D01*
X189158476Y-70117038D02*
X189253714Y-70069419D01*
X189253714Y-70069419D02*
X189444190Y-70069419D01*
X189444190Y-70069419D02*
X189539428Y-70117038D01*
X189539428Y-70117038D02*
X189587047Y-70164657D01*
X189587047Y-70164657D02*
X189634666Y-70259895D01*
X189634666Y-70259895D02*
X189634666Y-70307514D01*
X189634666Y-70307514D02*
X189587047Y-70402752D01*
X189587047Y-70402752D02*
X189539428Y-70450371D01*
X189539428Y-70450371D02*
X189444190Y-70497990D01*
X189444190Y-70497990D02*
X189253714Y-70497990D01*
X189253714Y-70497990D02*
X189158476Y-70545609D01*
X189158476Y-70545609D02*
X189110857Y-70593228D01*
X189110857Y-70593228D02*
X189063238Y-70688466D01*
X189063238Y-70688466D02*
X189063238Y-70878942D01*
X189063238Y-70878942D02*
X189110857Y-70974180D01*
X189110857Y-70974180D02*
X189158476Y-71021800D01*
X189158476Y-71021800D02*
X189253714Y-71069419D01*
X189253714Y-71069419D02*
X189444190Y-71069419D01*
X189444190Y-71069419D02*
X189539428Y-71021800D01*
X189539428Y-71021800D02*
X189587047Y-70974180D01*
X189587047Y-70974180D02*
X189634666Y-70878942D01*
X189634666Y-70878942D02*
X189634666Y-70688466D01*
X189634666Y-70688466D02*
X189587047Y-70593228D01*
X189587047Y-70593228D02*
X189539428Y-70545609D01*
X189539428Y-70545609D02*
X189444190Y-70497990D01*
D10*
X200271142Y-66748819D02*
X199937809Y-66272628D01*
X199699714Y-66748819D02*
X199699714Y-65748819D01*
X199699714Y-65748819D02*
X200080666Y-65748819D01*
X200080666Y-65748819D02*
X200175904Y-65796438D01*
X200175904Y-65796438D02*
X200223523Y-65844057D01*
X200223523Y-65844057D02*
X200271142Y-65939295D01*
X200271142Y-65939295D02*
X200271142Y-66082152D01*
X200271142Y-66082152D02*
X200223523Y-66177390D01*
X200223523Y-66177390D02*
X200175904Y-66225009D01*
X200175904Y-66225009D02*
X200080666Y-66272628D01*
X200080666Y-66272628D02*
X199699714Y-66272628D01*
X201223523Y-66748819D02*
X200652095Y-66748819D01*
X200937809Y-66748819D02*
X200937809Y-65748819D01*
X200937809Y-65748819D02*
X200842571Y-65891676D01*
X200842571Y-65891676D02*
X200747333Y-65986914D01*
X200747333Y-65986914D02*
X200652095Y-66034533D01*
X202128285Y-65748819D02*
X201652095Y-65748819D01*
X201652095Y-65748819D02*
X201604476Y-66225009D01*
X201604476Y-66225009D02*
X201652095Y-66177390D01*
X201652095Y-66177390D02*
X201747333Y-66129771D01*
X201747333Y-66129771D02*
X201985428Y-66129771D01*
X201985428Y-66129771D02*
X202080666Y-66177390D01*
X202080666Y-66177390D02*
X202128285Y-66225009D01*
X202128285Y-66225009D02*
X202175904Y-66320247D01*
X202175904Y-66320247D02*
X202175904Y-66558342D01*
X202175904Y-66558342D02*
X202128285Y-66653580D01*
X202128285Y-66653580D02*
X202080666Y-66701200D01*
X202080666Y-66701200D02*
X201985428Y-66748819D01*
X201985428Y-66748819D02*
X201747333Y-66748819D01*
X201747333Y-66748819D02*
X201652095Y-66701200D01*
X201652095Y-66701200D02*
X201604476Y-66653580D01*
X168433333Y-75054819D02*
X168100000Y-74578628D01*
X167861905Y-75054819D02*
X167861905Y-74054819D01*
X167861905Y-74054819D02*
X168242857Y-74054819D01*
X168242857Y-74054819D02*
X168338095Y-74102438D01*
X168338095Y-74102438D02*
X168385714Y-74150057D01*
X168385714Y-74150057D02*
X168433333Y-74245295D01*
X168433333Y-74245295D02*
X168433333Y-74388152D01*
X168433333Y-74388152D02*
X168385714Y-74483390D01*
X168385714Y-74483390D02*
X168338095Y-74531009D01*
X168338095Y-74531009D02*
X168242857Y-74578628D01*
X168242857Y-74578628D02*
X167861905Y-74578628D01*
X169385714Y-75054819D02*
X168814286Y-75054819D01*
X169100000Y-75054819D02*
X169100000Y-74054819D01*
X169100000Y-74054819D02*
X169004762Y-74197676D01*
X169004762Y-74197676D02*
X168909524Y-74292914D01*
X168909524Y-74292914D02*
X168814286Y-74340533D01*
X194857142Y-89289580D02*
X194809523Y-89337200D01*
X194809523Y-89337200D02*
X194666666Y-89384819D01*
X194666666Y-89384819D02*
X194571428Y-89384819D01*
X194571428Y-89384819D02*
X194428571Y-89337200D01*
X194428571Y-89337200D02*
X194333333Y-89241961D01*
X194333333Y-89241961D02*
X194285714Y-89146723D01*
X194285714Y-89146723D02*
X194238095Y-88956247D01*
X194238095Y-88956247D02*
X194238095Y-88813390D01*
X194238095Y-88813390D02*
X194285714Y-88622914D01*
X194285714Y-88622914D02*
X194333333Y-88527676D01*
X194333333Y-88527676D02*
X194428571Y-88432438D01*
X194428571Y-88432438D02*
X194571428Y-88384819D01*
X194571428Y-88384819D02*
X194666666Y-88384819D01*
X194666666Y-88384819D02*
X194809523Y-88432438D01*
X194809523Y-88432438D02*
X194857142Y-88480057D01*
X195809523Y-89384819D02*
X195238095Y-89384819D01*
X195523809Y-89384819D02*
X195523809Y-88384819D01*
X195523809Y-88384819D02*
X195428571Y-88527676D01*
X195428571Y-88527676D02*
X195333333Y-88622914D01*
X195333333Y-88622914D02*
X195238095Y-88670533D01*
X196285714Y-89384819D02*
X196476190Y-89384819D01*
X196476190Y-89384819D02*
X196571428Y-89337200D01*
X196571428Y-89337200D02*
X196619047Y-89289580D01*
X196619047Y-89289580D02*
X196714285Y-89146723D01*
X196714285Y-89146723D02*
X196761904Y-88956247D01*
X196761904Y-88956247D02*
X196761904Y-88575295D01*
X196761904Y-88575295D02*
X196714285Y-88480057D01*
X196714285Y-88480057D02*
X196666666Y-88432438D01*
X196666666Y-88432438D02*
X196571428Y-88384819D01*
X196571428Y-88384819D02*
X196380952Y-88384819D01*
X196380952Y-88384819D02*
X196285714Y-88432438D01*
X196285714Y-88432438D02*
X196238095Y-88480057D01*
X196238095Y-88480057D02*
X196190476Y-88575295D01*
X196190476Y-88575295D02*
X196190476Y-88813390D01*
X196190476Y-88813390D02*
X196238095Y-88908628D01*
X196238095Y-88908628D02*
X196285714Y-88956247D01*
X196285714Y-88956247D02*
X196380952Y-89003866D01*
X196380952Y-89003866D02*
X196571428Y-89003866D01*
X196571428Y-89003866D02*
X196666666Y-88956247D01*
X196666666Y-88956247D02*
X196714285Y-88908628D01*
X196714285Y-88908628D02*
X196761904Y-88813390D01*
X179759580Y-74166666D02*
X179807200Y-74214285D01*
X179807200Y-74214285D02*
X179854819Y-74357142D01*
X179854819Y-74357142D02*
X179854819Y-74452380D01*
X179854819Y-74452380D02*
X179807200Y-74595237D01*
X179807200Y-74595237D02*
X179711961Y-74690475D01*
X179711961Y-74690475D02*
X179616723Y-74738094D01*
X179616723Y-74738094D02*
X179426247Y-74785713D01*
X179426247Y-74785713D02*
X179283390Y-74785713D01*
X179283390Y-74785713D02*
X179092914Y-74738094D01*
X179092914Y-74738094D02*
X178997676Y-74690475D01*
X178997676Y-74690475D02*
X178902438Y-74595237D01*
X178902438Y-74595237D02*
X178854819Y-74452380D01*
X178854819Y-74452380D02*
X178854819Y-74357142D01*
X178854819Y-74357142D02*
X178902438Y-74214285D01*
X178902438Y-74214285D02*
X178950057Y-74166666D01*
X178854819Y-73309523D02*
X178854819Y-73499999D01*
X178854819Y-73499999D02*
X178902438Y-73595237D01*
X178902438Y-73595237D02*
X178950057Y-73642856D01*
X178950057Y-73642856D02*
X179092914Y-73738094D01*
X179092914Y-73738094D02*
X179283390Y-73785713D01*
X179283390Y-73785713D02*
X179664342Y-73785713D01*
X179664342Y-73785713D02*
X179759580Y-73738094D01*
X179759580Y-73738094D02*
X179807200Y-73690475D01*
X179807200Y-73690475D02*
X179854819Y-73595237D01*
X179854819Y-73595237D02*
X179854819Y-73404761D01*
X179854819Y-73404761D02*
X179807200Y-73309523D01*
X179807200Y-73309523D02*
X179759580Y-73261904D01*
X179759580Y-73261904D02*
X179664342Y-73214285D01*
X179664342Y-73214285D02*
X179426247Y-73214285D01*
X179426247Y-73214285D02*
X179331009Y-73261904D01*
X179331009Y-73261904D02*
X179283390Y-73309523D01*
X179283390Y-73309523D02*
X179235771Y-73404761D01*
X179235771Y-73404761D02*
X179235771Y-73595237D01*
X179235771Y-73595237D02*
X179283390Y-73690475D01*
X179283390Y-73690475D02*
X179331009Y-73738094D01*
X179331009Y-73738094D02*
X179426247Y-73785713D01*
D11*
X176038095Y-73257419D02*
X176609523Y-73257419D01*
X176323809Y-74257419D02*
X176323809Y-73257419D01*
X176942857Y-74257419D02*
X176942857Y-73257419D01*
X176942857Y-73257419D02*
X177323809Y-73257419D01*
X177323809Y-73257419D02*
X177419047Y-73305038D01*
X177419047Y-73305038D02*
X177466666Y-73352657D01*
X177466666Y-73352657D02*
X177514285Y-73447895D01*
X177514285Y-73447895D02*
X177514285Y-73590752D01*
X177514285Y-73590752D02*
X177466666Y-73685990D01*
X177466666Y-73685990D02*
X177419047Y-73733609D01*
X177419047Y-73733609D02*
X177323809Y-73781228D01*
X177323809Y-73781228D02*
X176942857Y-73781228D01*
X177847619Y-73257419D02*
X178514285Y-73257419D01*
X178514285Y-73257419D02*
X178085714Y-74257419D01*
D10*
X177333333Y-63359580D02*
X177285714Y-63407200D01*
X177285714Y-63407200D02*
X177142857Y-63454819D01*
X177142857Y-63454819D02*
X177047619Y-63454819D01*
X177047619Y-63454819D02*
X176904762Y-63407200D01*
X176904762Y-63407200D02*
X176809524Y-63311961D01*
X176809524Y-63311961D02*
X176761905Y-63216723D01*
X176761905Y-63216723D02*
X176714286Y-63026247D01*
X176714286Y-63026247D02*
X176714286Y-62883390D01*
X176714286Y-62883390D02*
X176761905Y-62692914D01*
X176761905Y-62692914D02*
X176809524Y-62597676D01*
X176809524Y-62597676D02*
X176904762Y-62502438D01*
X176904762Y-62502438D02*
X177047619Y-62454819D01*
X177047619Y-62454819D02*
X177142857Y-62454819D01*
X177142857Y-62454819D02*
X177285714Y-62502438D01*
X177285714Y-62502438D02*
X177333333Y-62550057D01*
X177666667Y-62454819D02*
X178333333Y-62454819D01*
X178333333Y-62454819D02*
X177904762Y-63454819D01*
D11*
X188133333Y-97857419D02*
X188704761Y-97857419D01*
X188419047Y-98857419D02*
X188419047Y-97857419D01*
X189038095Y-98857419D02*
X189038095Y-97857419D01*
X189038095Y-97857419D02*
X189419047Y-97857419D01*
X189419047Y-97857419D02*
X189514285Y-97905038D01*
X189514285Y-97905038D02*
X189561904Y-97952657D01*
X189561904Y-97952657D02*
X189609523Y-98047895D01*
X189609523Y-98047895D02*
X189609523Y-98190752D01*
X189609523Y-98190752D02*
X189561904Y-98285990D01*
X189561904Y-98285990D02*
X189514285Y-98333609D01*
X189514285Y-98333609D02*
X189419047Y-98381228D01*
X189419047Y-98381228D02*
X189038095Y-98381228D01*
X189800000Y-98952657D02*
X190561904Y-98952657D01*
X191323809Y-97905038D02*
X191228571Y-97857419D01*
X191228571Y-97857419D02*
X191085714Y-97857419D01*
X191085714Y-97857419D02*
X190942857Y-97905038D01*
X190942857Y-97905038D02*
X190847619Y-98000276D01*
X190847619Y-98000276D02*
X190800000Y-98095514D01*
X190800000Y-98095514D02*
X190752381Y-98285990D01*
X190752381Y-98285990D02*
X190752381Y-98428847D01*
X190752381Y-98428847D02*
X190800000Y-98619323D01*
X190800000Y-98619323D02*
X190847619Y-98714561D01*
X190847619Y-98714561D02*
X190942857Y-98809800D01*
X190942857Y-98809800D02*
X191085714Y-98857419D01*
X191085714Y-98857419D02*
X191180952Y-98857419D01*
X191180952Y-98857419D02*
X191323809Y-98809800D01*
X191323809Y-98809800D02*
X191371428Y-98762180D01*
X191371428Y-98762180D02*
X191371428Y-98428847D01*
X191371428Y-98428847D02*
X191180952Y-98428847D01*
X191800000Y-98857419D02*
X191800000Y-97857419D01*
X191800000Y-97857419D02*
X192371428Y-98857419D01*
X192371428Y-98857419D02*
X192371428Y-97857419D01*
X192847619Y-98857419D02*
X192847619Y-97857419D01*
X192847619Y-97857419D02*
X193085714Y-97857419D01*
X193085714Y-97857419D02*
X193228571Y-97905038D01*
X193228571Y-97905038D02*
X193323809Y-98000276D01*
X193323809Y-98000276D02*
X193371428Y-98095514D01*
X193371428Y-98095514D02*
X193419047Y-98285990D01*
X193419047Y-98285990D02*
X193419047Y-98428847D01*
X193419047Y-98428847D02*
X193371428Y-98619323D01*
X193371428Y-98619323D02*
X193323809Y-98714561D01*
X193323809Y-98714561D02*
X193228571Y-98809800D01*
X193228571Y-98809800D02*
X193085714Y-98857419D01*
X193085714Y-98857419D02*
X192847619Y-98857419D01*
X193847619Y-98857419D02*
X193847619Y-97857419D01*
X193847619Y-97857419D02*
X194085714Y-97857419D01*
X194085714Y-97857419D02*
X194228571Y-97905038D01*
X194228571Y-97905038D02*
X194323809Y-98000276D01*
X194323809Y-98000276D02*
X194371428Y-98095514D01*
X194371428Y-98095514D02*
X194419047Y-98285990D01*
X194419047Y-98285990D02*
X194419047Y-98428847D01*
X194419047Y-98428847D02*
X194371428Y-98619323D01*
X194371428Y-98619323D02*
X194323809Y-98714561D01*
X194323809Y-98714561D02*
X194228571Y-98809800D01*
X194228571Y-98809800D02*
X194085714Y-98857419D01*
X194085714Y-98857419D02*
X193847619Y-98857419D01*
X195371428Y-98857419D02*
X194800000Y-98857419D01*
X195085714Y-98857419D02*
X195085714Y-97857419D01*
X195085714Y-97857419D02*
X194990476Y-98000276D01*
X194990476Y-98000276D02*
X194895238Y-98095514D01*
X194895238Y-98095514D02*
X194800000Y-98143133D01*
D10*
X191381142Y-62589580D02*
X191333523Y-62637200D01*
X191333523Y-62637200D02*
X191190666Y-62684819D01*
X191190666Y-62684819D02*
X191095428Y-62684819D01*
X191095428Y-62684819D02*
X190952571Y-62637200D01*
X190952571Y-62637200D02*
X190857333Y-62541961D01*
X190857333Y-62541961D02*
X190809714Y-62446723D01*
X190809714Y-62446723D02*
X190762095Y-62256247D01*
X190762095Y-62256247D02*
X190762095Y-62113390D01*
X190762095Y-62113390D02*
X190809714Y-61922914D01*
X190809714Y-61922914D02*
X190857333Y-61827676D01*
X190857333Y-61827676D02*
X190952571Y-61732438D01*
X190952571Y-61732438D02*
X191095428Y-61684819D01*
X191095428Y-61684819D02*
X191190666Y-61684819D01*
X191190666Y-61684819D02*
X191333523Y-61732438D01*
X191333523Y-61732438D02*
X191381142Y-61780057D01*
X192333523Y-62684819D02*
X191762095Y-62684819D01*
X192047809Y-62684819D02*
X192047809Y-61684819D01*
X192047809Y-61684819D02*
X191952571Y-61827676D01*
X191952571Y-61827676D02*
X191857333Y-61922914D01*
X191857333Y-61922914D02*
X191762095Y-61970533D01*
X192666857Y-61684819D02*
X193285904Y-61684819D01*
X193285904Y-61684819D02*
X192952571Y-62065771D01*
X192952571Y-62065771D02*
X193095428Y-62065771D01*
X193095428Y-62065771D02*
X193190666Y-62113390D01*
X193190666Y-62113390D02*
X193238285Y-62161009D01*
X193238285Y-62161009D02*
X193285904Y-62256247D01*
X193285904Y-62256247D02*
X193285904Y-62494342D01*
X193285904Y-62494342D02*
X193238285Y-62589580D01*
X193238285Y-62589580D02*
X193190666Y-62637200D01*
X193190666Y-62637200D02*
X193095428Y-62684819D01*
X193095428Y-62684819D02*
X192809714Y-62684819D01*
X192809714Y-62684819D02*
X192714476Y-62637200D01*
X192714476Y-62637200D02*
X192666857Y-62589580D01*
D11*
X183738095Y-92857419D02*
X184309523Y-92857419D01*
X184023809Y-93857419D02*
X184023809Y-92857419D01*
X184642857Y-93857419D02*
X184642857Y-92857419D01*
X184642857Y-92857419D02*
X185023809Y-92857419D01*
X185023809Y-92857419D02*
X185119047Y-92905038D01*
X185119047Y-92905038D02*
X185166666Y-92952657D01*
X185166666Y-92952657D02*
X185214285Y-93047895D01*
X185214285Y-93047895D02*
X185214285Y-93190752D01*
X185214285Y-93190752D02*
X185166666Y-93285990D01*
X185166666Y-93285990D02*
X185119047Y-93333609D01*
X185119047Y-93333609D02*
X185023809Y-93381228D01*
X185023809Y-93381228D02*
X184642857Y-93381228D01*
X186071428Y-92857419D02*
X185880952Y-92857419D01*
X185880952Y-92857419D02*
X185785714Y-92905038D01*
X185785714Y-92905038D02*
X185738095Y-92952657D01*
X185738095Y-92952657D02*
X185642857Y-93095514D01*
X185642857Y-93095514D02*
X185595238Y-93285990D01*
X185595238Y-93285990D02*
X185595238Y-93666942D01*
X185595238Y-93666942D02*
X185642857Y-93762180D01*
X185642857Y-93762180D02*
X185690476Y-93809800D01*
X185690476Y-93809800D02*
X185785714Y-93857419D01*
X185785714Y-93857419D02*
X185976190Y-93857419D01*
X185976190Y-93857419D02*
X186071428Y-93809800D01*
X186071428Y-93809800D02*
X186119047Y-93762180D01*
X186119047Y-93762180D02*
X186166666Y-93666942D01*
X186166666Y-93666942D02*
X186166666Y-93428847D01*
X186166666Y-93428847D02*
X186119047Y-93333609D01*
X186119047Y-93333609D02*
X186071428Y-93285990D01*
X186071428Y-93285990D02*
X185976190Y-93238371D01*
X185976190Y-93238371D02*
X185785714Y-93238371D01*
X185785714Y-93238371D02*
X185690476Y-93285990D01*
X185690476Y-93285990D02*
X185642857Y-93333609D01*
X185642857Y-93333609D02*
X185595238Y-93428847D01*
D10*
X184986333Y-79513580D02*
X184938714Y-79561200D01*
X184938714Y-79561200D02*
X184795857Y-79608819D01*
X184795857Y-79608819D02*
X184700619Y-79608819D01*
X184700619Y-79608819D02*
X184557762Y-79561200D01*
X184557762Y-79561200D02*
X184462524Y-79465961D01*
X184462524Y-79465961D02*
X184414905Y-79370723D01*
X184414905Y-79370723D02*
X184367286Y-79180247D01*
X184367286Y-79180247D02*
X184367286Y-79037390D01*
X184367286Y-79037390D02*
X184414905Y-78846914D01*
X184414905Y-78846914D02*
X184462524Y-78751676D01*
X184462524Y-78751676D02*
X184557762Y-78656438D01*
X184557762Y-78656438D02*
X184700619Y-78608819D01*
X184700619Y-78608819D02*
X184795857Y-78608819D01*
X184795857Y-78608819D02*
X184938714Y-78656438D01*
X184938714Y-78656438D02*
X184986333Y-78704057D01*
X185843476Y-78942152D02*
X185843476Y-79608819D01*
X185605381Y-78561200D02*
X185367286Y-79275485D01*
X185367286Y-79275485D02*
X185986333Y-79275485D01*
X181430333Y-79513580D02*
X181382714Y-79561200D01*
X181382714Y-79561200D02*
X181239857Y-79608819D01*
X181239857Y-79608819D02*
X181144619Y-79608819D01*
X181144619Y-79608819D02*
X181001762Y-79561200D01*
X181001762Y-79561200D02*
X180906524Y-79465961D01*
X180906524Y-79465961D02*
X180858905Y-79370723D01*
X180858905Y-79370723D02*
X180811286Y-79180247D01*
X180811286Y-79180247D02*
X180811286Y-79037390D01*
X180811286Y-79037390D02*
X180858905Y-78846914D01*
X180858905Y-78846914D02*
X180906524Y-78751676D01*
X180906524Y-78751676D02*
X181001762Y-78656438D01*
X181001762Y-78656438D02*
X181144619Y-78608819D01*
X181144619Y-78608819D02*
X181239857Y-78608819D01*
X181239857Y-78608819D02*
X181382714Y-78656438D01*
X181382714Y-78656438D02*
X181430333Y-78704057D01*
X182335095Y-78608819D02*
X181858905Y-78608819D01*
X181858905Y-78608819D02*
X181811286Y-79085009D01*
X181811286Y-79085009D02*
X181858905Y-79037390D01*
X181858905Y-79037390D02*
X181954143Y-78989771D01*
X181954143Y-78989771D02*
X182192238Y-78989771D01*
X182192238Y-78989771D02*
X182287476Y-79037390D01*
X182287476Y-79037390D02*
X182335095Y-79085009D01*
X182335095Y-79085009D02*
X182382714Y-79180247D01*
X182382714Y-79180247D02*
X182382714Y-79418342D01*
X182382714Y-79418342D02*
X182335095Y-79513580D01*
X182335095Y-79513580D02*
X182287476Y-79561200D01*
X182287476Y-79561200D02*
X182192238Y-79608819D01*
X182192238Y-79608819D02*
X181954143Y-79608819D01*
X181954143Y-79608819D02*
X181858905Y-79561200D01*
X181858905Y-79561200D02*
X181811286Y-79513580D01*
X199897142Y-78554819D02*
X199563809Y-78078628D01*
X199325714Y-78554819D02*
X199325714Y-77554819D01*
X199325714Y-77554819D02*
X199706666Y-77554819D01*
X199706666Y-77554819D02*
X199801904Y-77602438D01*
X199801904Y-77602438D02*
X199849523Y-77650057D01*
X199849523Y-77650057D02*
X199897142Y-77745295D01*
X199897142Y-77745295D02*
X199897142Y-77888152D01*
X199897142Y-77888152D02*
X199849523Y-77983390D01*
X199849523Y-77983390D02*
X199801904Y-78031009D01*
X199801904Y-78031009D02*
X199706666Y-78078628D01*
X199706666Y-78078628D02*
X199325714Y-78078628D01*
X200849523Y-78554819D02*
X200278095Y-78554819D01*
X200563809Y-78554819D02*
X200563809Y-77554819D01*
X200563809Y-77554819D02*
X200468571Y-77697676D01*
X200468571Y-77697676D02*
X200373333Y-77792914D01*
X200373333Y-77792914D02*
X200278095Y-77840533D01*
X201706666Y-77888152D02*
X201706666Y-78554819D01*
X201468571Y-77507200D02*
X201230476Y-78221485D01*
X201230476Y-78221485D02*
X201849523Y-78221485D01*
X170233333Y-75054819D02*
X169900000Y-74578628D01*
X169661905Y-75054819D02*
X169661905Y-74054819D01*
X169661905Y-74054819D02*
X170042857Y-74054819D01*
X170042857Y-74054819D02*
X170138095Y-74102438D01*
X170138095Y-74102438D02*
X170185714Y-74150057D01*
X170185714Y-74150057D02*
X170233333Y-74245295D01*
X170233333Y-74245295D02*
X170233333Y-74388152D01*
X170233333Y-74388152D02*
X170185714Y-74483390D01*
X170185714Y-74483390D02*
X170138095Y-74531009D01*
X170138095Y-74531009D02*
X170042857Y-74578628D01*
X170042857Y-74578628D02*
X169661905Y-74578628D01*
X170614286Y-74150057D02*
X170661905Y-74102438D01*
X170661905Y-74102438D02*
X170757143Y-74054819D01*
X170757143Y-74054819D02*
X170995238Y-74054819D01*
X170995238Y-74054819D02*
X171090476Y-74102438D01*
X171090476Y-74102438D02*
X171138095Y-74150057D01*
X171138095Y-74150057D02*
X171185714Y-74245295D01*
X171185714Y-74245295D02*
X171185714Y-74340533D01*
X171185714Y-74340533D02*
X171138095Y-74483390D01*
X171138095Y-74483390D02*
X170566667Y-75054819D01*
X170566667Y-75054819D02*
X171185714Y-75054819D01*
X195795142Y-73765580D02*
X195747523Y-73813200D01*
X195747523Y-73813200D02*
X195604666Y-73860819D01*
X195604666Y-73860819D02*
X195509428Y-73860819D01*
X195509428Y-73860819D02*
X195366571Y-73813200D01*
X195366571Y-73813200D02*
X195271333Y-73717961D01*
X195271333Y-73717961D02*
X195223714Y-73622723D01*
X195223714Y-73622723D02*
X195176095Y-73432247D01*
X195176095Y-73432247D02*
X195176095Y-73289390D01*
X195176095Y-73289390D02*
X195223714Y-73098914D01*
X195223714Y-73098914D02*
X195271333Y-73003676D01*
X195271333Y-73003676D02*
X195366571Y-72908438D01*
X195366571Y-72908438D02*
X195509428Y-72860819D01*
X195509428Y-72860819D02*
X195604666Y-72860819D01*
X195604666Y-72860819D02*
X195747523Y-72908438D01*
X195747523Y-72908438D02*
X195795142Y-72956057D01*
X196747523Y-73860819D02*
X196176095Y-73860819D01*
X196461809Y-73860819D02*
X196461809Y-72860819D01*
X196461809Y-72860819D02*
X196366571Y-73003676D01*
X196366571Y-73003676D02*
X196271333Y-73098914D01*
X196271333Y-73098914D02*
X196176095Y-73146533D01*
X197128476Y-72956057D02*
X197176095Y-72908438D01*
X197176095Y-72908438D02*
X197271333Y-72860819D01*
X197271333Y-72860819D02*
X197509428Y-72860819D01*
X197509428Y-72860819D02*
X197604666Y-72908438D01*
X197604666Y-72908438D02*
X197652285Y-72956057D01*
X197652285Y-72956057D02*
X197699904Y-73051295D01*
X197699904Y-73051295D02*
X197699904Y-73146533D01*
X197699904Y-73146533D02*
X197652285Y-73289390D01*
X197652285Y-73289390D02*
X197080857Y-73860819D01*
X197080857Y-73860819D02*
X197699904Y-73860819D01*
X178457142Y-98324819D02*
X178123809Y-97848628D01*
X177885714Y-98324819D02*
X177885714Y-97324819D01*
X177885714Y-97324819D02*
X178266666Y-97324819D01*
X178266666Y-97324819D02*
X178361904Y-97372438D01*
X178361904Y-97372438D02*
X178409523Y-97420057D01*
X178409523Y-97420057D02*
X178457142Y-97515295D01*
X178457142Y-97515295D02*
X178457142Y-97658152D01*
X178457142Y-97658152D02*
X178409523Y-97753390D01*
X178409523Y-97753390D02*
X178361904Y-97801009D01*
X178361904Y-97801009D02*
X178266666Y-97848628D01*
X178266666Y-97848628D02*
X177885714Y-97848628D01*
X178838095Y-97420057D02*
X178885714Y-97372438D01*
X178885714Y-97372438D02*
X178980952Y-97324819D01*
X178980952Y-97324819D02*
X179219047Y-97324819D01*
X179219047Y-97324819D02*
X179314285Y-97372438D01*
X179314285Y-97372438D02*
X179361904Y-97420057D01*
X179361904Y-97420057D02*
X179409523Y-97515295D01*
X179409523Y-97515295D02*
X179409523Y-97610533D01*
X179409523Y-97610533D02*
X179361904Y-97753390D01*
X179361904Y-97753390D02*
X178790476Y-98324819D01*
X178790476Y-98324819D02*
X179409523Y-98324819D01*
X179790476Y-97420057D02*
X179838095Y-97372438D01*
X179838095Y-97372438D02*
X179933333Y-97324819D01*
X179933333Y-97324819D02*
X180171428Y-97324819D01*
X180171428Y-97324819D02*
X180266666Y-97372438D01*
X180266666Y-97372438D02*
X180314285Y-97420057D01*
X180314285Y-97420057D02*
X180361904Y-97515295D01*
X180361904Y-97515295D02*
X180361904Y-97610533D01*
X180361904Y-97610533D02*
X180314285Y-97753390D01*
X180314285Y-97753390D02*
X179742857Y-98324819D01*
X179742857Y-98324819D02*
X180361904Y-98324819D01*
D11*
X170738095Y-81957419D02*
X171309523Y-81957419D01*
X171023809Y-82957419D02*
X171023809Y-81957419D01*
X171642857Y-82957419D02*
X171642857Y-81957419D01*
X171642857Y-81957419D02*
X172023809Y-81957419D01*
X172023809Y-81957419D02*
X172119047Y-82005038D01*
X172119047Y-82005038D02*
X172166666Y-82052657D01*
X172166666Y-82052657D02*
X172214285Y-82147895D01*
X172214285Y-82147895D02*
X172214285Y-82290752D01*
X172214285Y-82290752D02*
X172166666Y-82385990D01*
X172166666Y-82385990D02*
X172119047Y-82433609D01*
X172119047Y-82433609D02*
X172023809Y-82481228D01*
X172023809Y-82481228D02*
X171642857Y-82481228D01*
X173119047Y-81957419D02*
X172642857Y-81957419D01*
X172642857Y-81957419D02*
X172595238Y-82433609D01*
X172595238Y-82433609D02*
X172642857Y-82385990D01*
X172642857Y-82385990D02*
X172738095Y-82338371D01*
X172738095Y-82338371D02*
X172976190Y-82338371D01*
X172976190Y-82338371D02*
X173071428Y-82385990D01*
X173071428Y-82385990D02*
X173119047Y-82433609D01*
X173119047Y-82433609D02*
X173166666Y-82528847D01*
X173166666Y-82528847D02*
X173166666Y-82766942D01*
X173166666Y-82766942D02*
X173119047Y-82862180D01*
X173119047Y-82862180D02*
X173071428Y-82909800D01*
X173071428Y-82909800D02*
X172976190Y-82957419D01*
X172976190Y-82957419D02*
X172738095Y-82957419D01*
X172738095Y-82957419D02*
X172642857Y-82909800D01*
X172642857Y-82909800D02*
X172595238Y-82862180D01*
D10*
X193957142Y-80359580D02*
X193909523Y-80407200D01*
X193909523Y-80407200D02*
X193766666Y-80454819D01*
X193766666Y-80454819D02*
X193671428Y-80454819D01*
X193671428Y-80454819D02*
X193528571Y-80407200D01*
X193528571Y-80407200D02*
X193433333Y-80311961D01*
X193433333Y-80311961D02*
X193385714Y-80216723D01*
X193385714Y-80216723D02*
X193338095Y-80026247D01*
X193338095Y-80026247D02*
X193338095Y-79883390D01*
X193338095Y-79883390D02*
X193385714Y-79692914D01*
X193385714Y-79692914D02*
X193433333Y-79597676D01*
X193433333Y-79597676D02*
X193528571Y-79502438D01*
X193528571Y-79502438D02*
X193671428Y-79454819D01*
X193671428Y-79454819D02*
X193766666Y-79454819D01*
X193766666Y-79454819D02*
X193909523Y-79502438D01*
X193909523Y-79502438D02*
X193957142Y-79550057D01*
X194909523Y-80454819D02*
X194338095Y-80454819D01*
X194623809Y-80454819D02*
X194623809Y-79454819D01*
X194623809Y-79454819D02*
X194528571Y-79597676D01*
X194528571Y-79597676D02*
X194433333Y-79692914D01*
X194433333Y-79692914D02*
X194338095Y-79740533D01*
X195528571Y-79454819D02*
X195623809Y-79454819D01*
X195623809Y-79454819D02*
X195719047Y-79502438D01*
X195719047Y-79502438D02*
X195766666Y-79550057D01*
X195766666Y-79550057D02*
X195814285Y-79645295D01*
X195814285Y-79645295D02*
X195861904Y-79835771D01*
X195861904Y-79835771D02*
X195861904Y-80073866D01*
X195861904Y-80073866D02*
X195814285Y-80264342D01*
X195814285Y-80264342D02*
X195766666Y-80359580D01*
X195766666Y-80359580D02*
X195719047Y-80407200D01*
X195719047Y-80407200D02*
X195623809Y-80454819D01*
X195623809Y-80454819D02*
X195528571Y-80454819D01*
X195528571Y-80454819D02*
X195433333Y-80407200D01*
X195433333Y-80407200D02*
X195385714Y-80359580D01*
X195385714Y-80359580D02*
X195338095Y-80264342D01*
X195338095Y-80264342D02*
X195290476Y-80073866D01*
X195290476Y-80073866D02*
X195290476Y-79835771D01*
X195290476Y-79835771D02*
X195338095Y-79645295D01*
X195338095Y-79645295D02*
X195385714Y-79550057D01*
X195385714Y-79550057D02*
X195433333Y-79502438D01*
X195433333Y-79502438D02*
X195528571Y-79454819D01*
X174033333Y-75054819D02*
X173700000Y-74578628D01*
X173461905Y-75054819D02*
X173461905Y-74054819D01*
X173461905Y-74054819D02*
X173842857Y-74054819D01*
X173842857Y-74054819D02*
X173938095Y-74102438D01*
X173938095Y-74102438D02*
X173985714Y-74150057D01*
X173985714Y-74150057D02*
X174033333Y-74245295D01*
X174033333Y-74245295D02*
X174033333Y-74388152D01*
X174033333Y-74388152D02*
X173985714Y-74483390D01*
X173985714Y-74483390D02*
X173938095Y-74531009D01*
X173938095Y-74531009D02*
X173842857Y-74578628D01*
X173842857Y-74578628D02*
X173461905Y-74578628D01*
X174366667Y-74054819D02*
X174985714Y-74054819D01*
X174985714Y-74054819D02*
X174652381Y-74435771D01*
X174652381Y-74435771D02*
X174795238Y-74435771D01*
X174795238Y-74435771D02*
X174890476Y-74483390D01*
X174890476Y-74483390D02*
X174938095Y-74531009D01*
X174938095Y-74531009D02*
X174985714Y-74626247D01*
X174985714Y-74626247D02*
X174985714Y-74864342D01*
X174985714Y-74864342D02*
X174938095Y-74959580D01*
X174938095Y-74959580D02*
X174890476Y-75007200D01*
X174890476Y-75007200D02*
X174795238Y-75054819D01*
X174795238Y-75054819D02*
X174509524Y-75054819D01*
X174509524Y-75054819D02*
X174414286Y-75007200D01*
X174414286Y-75007200D02*
X174366667Y-74959580D01*
X190957142Y-78259580D02*
X190909523Y-78307200D01*
X190909523Y-78307200D02*
X190766666Y-78354819D01*
X190766666Y-78354819D02*
X190671428Y-78354819D01*
X190671428Y-78354819D02*
X190528571Y-78307200D01*
X190528571Y-78307200D02*
X190433333Y-78211961D01*
X190433333Y-78211961D02*
X190385714Y-78116723D01*
X190385714Y-78116723D02*
X190338095Y-77926247D01*
X190338095Y-77926247D02*
X190338095Y-77783390D01*
X190338095Y-77783390D02*
X190385714Y-77592914D01*
X190385714Y-77592914D02*
X190433333Y-77497676D01*
X190433333Y-77497676D02*
X190528571Y-77402438D01*
X190528571Y-77402438D02*
X190671428Y-77354819D01*
X190671428Y-77354819D02*
X190766666Y-77354819D01*
X190766666Y-77354819D02*
X190909523Y-77402438D01*
X190909523Y-77402438D02*
X190957142Y-77450057D01*
X191909523Y-78354819D02*
X191338095Y-78354819D01*
X191623809Y-78354819D02*
X191623809Y-77354819D01*
X191623809Y-77354819D02*
X191528571Y-77497676D01*
X191528571Y-77497676D02*
X191433333Y-77592914D01*
X191433333Y-77592914D02*
X191338095Y-77640533D01*
X192861904Y-78354819D02*
X192290476Y-78354819D01*
X192576190Y-78354819D02*
X192576190Y-77354819D01*
X192576190Y-77354819D02*
X192480952Y-77497676D01*
X192480952Y-77497676D02*
X192385714Y-77592914D01*
X192385714Y-77592914D02*
X192290476Y-77640533D01*
X174857142Y-72954819D02*
X174523809Y-72478628D01*
X174285714Y-72954819D02*
X174285714Y-71954819D01*
X174285714Y-71954819D02*
X174666666Y-71954819D01*
X174666666Y-71954819D02*
X174761904Y-72002438D01*
X174761904Y-72002438D02*
X174809523Y-72050057D01*
X174809523Y-72050057D02*
X174857142Y-72145295D01*
X174857142Y-72145295D02*
X174857142Y-72288152D01*
X174857142Y-72288152D02*
X174809523Y-72383390D01*
X174809523Y-72383390D02*
X174761904Y-72431009D01*
X174761904Y-72431009D02*
X174666666Y-72478628D01*
X174666666Y-72478628D02*
X174285714Y-72478628D01*
X175238095Y-72050057D02*
X175285714Y-72002438D01*
X175285714Y-72002438D02*
X175380952Y-71954819D01*
X175380952Y-71954819D02*
X175619047Y-71954819D01*
X175619047Y-71954819D02*
X175714285Y-72002438D01*
X175714285Y-72002438D02*
X175761904Y-72050057D01*
X175761904Y-72050057D02*
X175809523Y-72145295D01*
X175809523Y-72145295D02*
X175809523Y-72240533D01*
X175809523Y-72240533D02*
X175761904Y-72383390D01*
X175761904Y-72383390D02*
X175190476Y-72954819D01*
X175190476Y-72954819D02*
X175809523Y-72954819D01*
X176761904Y-72954819D02*
X176190476Y-72954819D01*
X176476190Y-72954819D02*
X176476190Y-71954819D01*
X176476190Y-71954819D02*
X176380952Y-72097676D01*
X176380952Y-72097676D02*
X176285714Y-72192914D01*
X176285714Y-72192914D02*
X176190476Y-72240533D01*
D11*
X157704762Y-67557419D02*
X158276190Y-67557419D01*
X157990476Y-68557419D02*
X157990476Y-67557419D01*
X158609524Y-68557419D02*
X158609524Y-67557419D01*
X158609524Y-67557419D02*
X158990476Y-67557419D01*
X158990476Y-67557419D02*
X159085714Y-67605038D01*
X159085714Y-67605038D02*
X159133333Y-67652657D01*
X159133333Y-67652657D02*
X159180952Y-67747895D01*
X159180952Y-67747895D02*
X159180952Y-67890752D01*
X159180952Y-67890752D02*
X159133333Y-67985990D01*
X159133333Y-67985990D02*
X159085714Y-68033609D01*
X159085714Y-68033609D02*
X158990476Y-68081228D01*
X158990476Y-68081228D02*
X158609524Y-68081228D01*
X159371429Y-68652657D02*
X160133333Y-68652657D01*
X160895238Y-67605038D02*
X160800000Y-67557419D01*
X160800000Y-67557419D02*
X160657143Y-67557419D01*
X160657143Y-67557419D02*
X160514286Y-67605038D01*
X160514286Y-67605038D02*
X160419048Y-67700276D01*
X160419048Y-67700276D02*
X160371429Y-67795514D01*
X160371429Y-67795514D02*
X160323810Y-67985990D01*
X160323810Y-67985990D02*
X160323810Y-68128847D01*
X160323810Y-68128847D02*
X160371429Y-68319323D01*
X160371429Y-68319323D02*
X160419048Y-68414561D01*
X160419048Y-68414561D02*
X160514286Y-68509800D01*
X160514286Y-68509800D02*
X160657143Y-68557419D01*
X160657143Y-68557419D02*
X160752381Y-68557419D01*
X160752381Y-68557419D02*
X160895238Y-68509800D01*
X160895238Y-68509800D02*
X160942857Y-68462180D01*
X160942857Y-68462180D02*
X160942857Y-68128847D01*
X160942857Y-68128847D02*
X160752381Y-68128847D01*
X161371429Y-68557419D02*
X161371429Y-67557419D01*
X161371429Y-67557419D02*
X161942857Y-68557419D01*
X161942857Y-68557419D02*
X161942857Y-67557419D01*
X162419048Y-68557419D02*
X162419048Y-67557419D01*
X162419048Y-67557419D02*
X162657143Y-67557419D01*
X162657143Y-67557419D02*
X162800000Y-67605038D01*
X162800000Y-67605038D02*
X162895238Y-67700276D01*
X162895238Y-67700276D02*
X162942857Y-67795514D01*
X162942857Y-67795514D02*
X162990476Y-67985990D01*
X162990476Y-67985990D02*
X162990476Y-68128847D01*
X162990476Y-68128847D02*
X162942857Y-68319323D01*
X162942857Y-68319323D02*
X162895238Y-68414561D01*
X162895238Y-68414561D02*
X162800000Y-68509800D01*
X162800000Y-68509800D02*
X162657143Y-68557419D01*
X162657143Y-68557419D02*
X162419048Y-68557419D01*
X163371429Y-68271704D02*
X163847619Y-68271704D01*
X163276191Y-68557419D02*
X163609524Y-67557419D01*
X163609524Y-67557419D02*
X163942857Y-68557419D01*
X164800000Y-68557419D02*
X164228572Y-68557419D01*
X164514286Y-68557419D02*
X164514286Y-67557419D01*
X164514286Y-67557419D02*
X164419048Y-67700276D01*
X164419048Y-67700276D02*
X164323810Y-67795514D01*
X164323810Y-67795514D02*
X164228572Y-67843133D01*
X169438095Y-62357419D02*
X170009523Y-62357419D01*
X169723809Y-63357419D02*
X169723809Y-62357419D01*
X170342857Y-63357419D02*
X170342857Y-62357419D01*
X170342857Y-62357419D02*
X170723809Y-62357419D01*
X170723809Y-62357419D02*
X170819047Y-62405038D01*
X170819047Y-62405038D02*
X170866666Y-62452657D01*
X170866666Y-62452657D02*
X170914285Y-62547895D01*
X170914285Y-62547895D02*
X170914285Y-62690752D01*
X170914285Y-62690752D02*
X170866666Y-62785990D01*
X170866666Y-62785990D02*
X170819047Y-62833609D01*
X170819047Y-62833609D02*
X170723809Y-62881228D01*
X170723809Y-62881228D02*
X170342857Y-62881228D01*
X171247619Y-62357419D02*
X171866666Y-62357419D01*
X171866666Y-62357419D02*
X171533333Y-62738371D01*
X171533333Y-62738371D02*
X171676190Y-62738371D01*
X171676190Y-62738371D02*
X171771428Y-62785990D01*
X171771428Y-62785990D02*
X171819047Y-62833609D01*
X171819047Y-62833609D02*
X171866666Y-62928847D01*
X171866666Y-62928847D02*
X171866666Y-63166942D01*
X171866666Y-63166942D02*
X171819047Y-63262180D01*
X171819047Y-63262180D02*
X171771428Y-63309800D01*
X171771428Y-63309800D02*
X171676190Y-63357419D01*
X171676190Y-63357419D02*
X171390476Y-63357419D01*
X171390476Y-63357419D02*
X171295238Y-63309800D01*
X171295238Y-63309800D02*
X171247619Y-63262180D01*
D10*
X199341333Y-73773580D02*
X199293714Y-73821200D01*
X199293714Y-73821200D02*
X199150857Y-73868819D01*
X199150857Y-73868819D02*
X199055619Y-73868819D01*
X199055619Y-73868819D02*
X198912762Y-73821200D01*
X198912762Y-73821200D02*
X198817524Y-73725961D01*
X198817524Y-73725961D02*
X198769905Y-73630723D01*
X198769905Y-73630723D02*
X198722286Y-73440247D01*
X198722286Y-73440247D02*
X198722286Y-73297390D01*
X198722286Y-73297390D02*
X198769905Y-73106914D01*
X198769905Y-73106914D02*
X198817524Y-73011676D01*
X198817524Y-73011676D02*
X198912762Y-72916438D01*
X198912762Y-72916438D02*
X199055619Y-72868819D01*
X199055619Y-72868819D02*
X199150857Y-72868819D01*
X199150857Y-72868819D02*
X199293714Y-72916438D01*
X199293714Y-72916438D02*
X199341333Y-72964057D01*
X199817524Y-73868819D02*
X200008000Y-73868819D01*
X200008000Y-73868819D02*
X200103238Y-73821200D01*
X200103238Y-73821200D02*
X200150857Y-73773580D01*
X200150857Y-73773580D02*
X200246095Y-73630723D01*
X200246095Y-73630723D02*
X200293714Y-73440247D01*
X200293714Y-73440247D02*
X200293714Y-73059295D01*
X200293714Y-73059295D02*
X200246095Y-72964057D01*
X200246095Y-72964057D02*
X200198476Y-72916438D01*
X200198476Y-72916438D02*
X200103238Y-72868819D01*
X200103238Y-72868819D02*
X199912762Y-72868819D01*
X199912762Y-72868819D02*
X199817524Y-72916438D01*
X199817524Y-72916438D02*
X199769905Y-72964057D01*
X199769905Y-72964057D02*
X199722286Y-73059295D01*
X199722286Y-73059295D02*
X199722286Y-73297390D01*
X199722286Y-73297390D02*
X199769905Y-73392628D01*
X199769905Y-73392628D02*
X199817524Y-73440247D01*
X199817524Y-73440247D02*
X199912762Y-73487866D01*
X199912762Y-73487866D02*
X200103238Y-73487866D01*
X200103238Y-73487866D02*
X200198476Y-73440247D01*
X200198476Y-73440247D02*
X200246095Y-73392628D01*
X200246095Y-73392628D02*
X200293714Y-73297390D01*
X182936142Y-64876819D02*
X182602809Y-64400628D01*
X182364714Y-64876819D02*
X182364714Y-63876819D01*
X182364714Y-63876819D02*
X182745666Y-63876819D01*
X182745666Y-63876819D02*
X182840904Y-63924438D01*
X182840904Y-63924438D02*
X182888523Y-63972057D01*
X182888523Y-63972057D02*
X182936142Y-64067295D01*
X182936142Y-64067295D02*
X182936142Y-64210152D01*
X182936142Y-64210152D02*
X182888523Y-64305390D01*
X182888523Y-64305390D02*
X182840904Y-64353009D01*
X182840904Y-64353009D02*
X182745666Y-64400628D01*
X182745666Y-64400628D02*
X182364714Y-64400628D01*
X183888523Y-64876819D02*
X183317095Y-64876819D01*
X183602809Y-64876819D02*
X183602809Y-63876819D01*
X183602809Y-63876819D02*
X183507571Y-64019676D01*
X183507571Y-64019676D02*
X183412333Y-64114914D01*
X183412333Y-64114914D02*
X183317095Y-64162533D01*
X184269476Y-63972057D02*
X184317095Y-63924438D01*
X184317095Y-63924438D02*
X184412333Y-63876819D01*
X184412333Y-63876819D02*
X184650428Y-63876819D01*
X184650428Y-63876819D02*
X184745666Y-63924438D01*
X184745666Y-63924438D02*
X184793285Y-63972057D01*
X184793285Y-63972057D02*
X184840904Y-64067295D01*
X184840904Y-64067295D02*
X184840904Y-64162533D01*
X184840904Y-64162533D02*
X184793285Y-64305390D01*
X184793285Y-64305390D02*
X184221857Y-64876819D01*
X184221857Y-64876819D02*
X184840904Y-64876819D01*
X200583333Y-81054819D02*
X200107143Y-81054819D01*
X200107143Y-81054819D02*
X200107143Y-80054819D01*
X201440476Y-81054819D02*
X200869048Y-81054819D01*
X201154762Y-81054819D02*
X201154762Y-80054819D01*
X201154762Y-80054819D02*
X201059524Y-80197676D01*
X201059524Y-80197676D02*
X200964286Y-80292914D01*
X200964286Y-80292914D02*
X200869048Y-80340533D01*
X188922819Y-68905857D02*
X188446628Y-69239190D01*
X188922819Y-69477285D02*
X187922819Y-69477285D01*
X187922819Y-69477285D02*
X187922819Y-69096333D01*
X187922819Y-69096333D02*
X187970438Y-69001095D01*
X187970438Y-69001095D02*
X188018057Y-68953476D01*
X188018057Y-68953476D02*
X188113295Y-68905857D01*
X188113295Y-68905857D02*
X188256152Y-68905857D01*
X188256152Y-68905857D02*
X188351390Y-68953476D01*
X188351390Y-68953476D02*
X188399009Y-69001095D01*
X188399009Y-69001095D02*
X188446628Y-69096333D01*
X188446628Y-69096333D02*
X188446628Y-69477285D01*
X188922819Y-67953476D02*
X188922819Y-68524904D01*
X188922819Y-68239190D02*
X187922819Y-68239190D01*
X187922819Y-68239190D02*
X188065676Y-68334428D01*
X188065676Y-68334428D02*
X188160914Y-68429666D01*
X188160914Y-68429666D02*
X188208533Y-68524904D01*
X187922819Y-67334428D02*
X187922819Y-67239190D01*
X187922819Y-67239190D02*
X187970438Y-67143952D01*
X187970438Y-67143952D02*
X188018057Y-67096333D01*
X188018057Y-67096333D02*
X188113295Y-67048714D01*
X188113295Y-67048714D02*
X188303771Y-67001095D01*
X188303771Y-67001095D02*
X188541866Y-67001095D01*
X188541866Y-67001095D02*
X188732342Y-67048714D01*
X188732342Y-67048714D02*
X188827580Y-67096333D01*
X188827580Y-67096333D02*
X188875200Y-67143952D01*
X188875200Y-67143952D02*
X188922819Y-67239190D01*
X188922819Y-67239190D02*
X188922819Y-67334428D01*
X188922819Y-67334428D02*
X188875200Y-67429666D01*
X188875200Y-67429666D02*
X188827580Y-67477285D01*
X188827580Y-67477285D02*
X188732342Y-67524904D01*
X188732342Y-67524904D02*
X188541866Y-67572523D01*
X188541866Y-67572523D02*
X188303771Y-67572523D01*
X188303771Y-67572523D02*
X188113295Y-67524904D01*
X188113295Y-67524904D02*
X188018057Y-67477285D01*
X188018057Y-67477285D02*
X187970438Y-67429666D01*
X187970438Y-67429666D02*
X187922819Y-67334428D01*
X161489580Y-82967857D02*
X161537200Y-83015476D01*
X161537200Y-83015476D02*
X161584819Y-83158333D01*
X161584819Y-83158333D02*
X161584819Y-83253571D01*
X161584819Y-83253571D02*
X161537200Y-83396428D01*
X161537200Y-83396428D02*
X161441961Y-83491666D01*
X161441961Y-83491666D02*
X161346723Y-83539285D01*
X161346723Y-83539285D02*
X161156247Y-83586904D01*
X161156247Y-83586904D02*
X161013390Y-83586904D01*
X161013390Y-83586904D02*
X160822914Y-83539285D01*
X160822914Y-83539285D02*
X160727676Y-83491666D01*
X160727676Y-83491666D02*
X160632438Y-83396428D01*
X160632438Y-83396428D02*
X160584819Y-83253571D01*
X160584819Y-83253571D02*
X160584819Y-83158333D01*
X160584819Y-83158333D02*
X160632438Y-83015476D01*
X160632438Y-83015476D02*
X160680057Y-82967857D01*
X161584819Y-82015476D02*
X161584819Y-82586904D01*
X161584819Y-82301190D02*
X160584819Y-82301190D01*
X160584819Y-82301190D02*
X160727676Y-82396428D01*
X160727676Y-82396428D02*
X160822914Y-82491666D01*
X160822914Y-82491666D02*
X160870533Y-82586904D01*
X160584819Y-81158333D02*
X160584819Y-81348809D01*
X160584819Y-81348809D02*
X160632438Y-81444047D01*
X160632438Y-81444047D02*
X160680057Y-81491666D01*
X160680057Y-81491666D02*
X160822914Y-81586904D01*
X160822914Y-81586904D02*
X161013390Y-81634523D01*
X161013390Y-81634523D02*
X161394342Y-81634523D01*
X161394342Y-81634523D02*
X161489580Y-81586904D01*
X161489580Y-81586904D02*
X161537200Y-81539285D01*
X161537200Y-81539285D02*
X161584819Y-81444047D01*
X161584819Y-81444047D02*
X161584819Y-81253571D01*
X161584819Y-81253571D02*
X161537200Y-81158333D01*
X161537200Y-81158333D02*
X161489580Y-81110714D01*
X161489580Y-81110714D02*
X161394342Y-81063095D01*
X161394342Y-81063095D02*
X161156247Y-81063095D01*
X161156247Y-81063095D02*
X161061009Y-81110714D01*
X161061009Y-81110714D02*
X161013390Y-81158333D01*
X161013390Y-81158333D02*
X160965771Y-81253571D01*
X160965771Y-81253571D02*
X160965771Y-81444047D01*
X160965771Y-81444047D02*
X161013390Y-81539285D01*
X161013390Y-81539285D02*
X161061009Y-81586904D01*
X161061009Y-81586904D02*
X161156247Y-81634523D01*
X187638095Y-84754819D02*
X187638095Y-85564342D01*
X187638095Y-85564342D02*
X187685714Y-85659580D01*
X187685714Y-85659580D02*
X187733333Y-85707200D01*
X187733333Y-85707200D02*
X187828571Y-85754819D01*
X187828571Y-85754819D02*
X188019047Y-85754819D01*
X188019047Y-85754819D02*
X188114285Y-85707200D01*
X188114285Y-85707200D02*
X188161904Y-85659580D01*
X188161904Y-85659580D02*
X188209523Y-85564342D01*
X188209523Y-85564342D02*
X188209523Y-84754819D01*
X188590476Y-84754819D02*
X189209523Y-84754819D01*
X189209523Y-84754819D02*
X188876190Y-85135771D01*
X188876190Y-85135771D02*
X189019047Y-85135771D01*
X189019047Y-85135771D02*
X189114285Y-85183390D01*
X189114285Y-85183390D02*
X189161904Y-85231009D01*
X189161904Y-85231009D02*
X189209523Y-85326247D01*
X189209523Y-85326247D02*
X189209523Y-85564342D01*
X189209523Y-85564342D02*
X189161904Y-85659580D01*
X189161904Y-85659580D02*
X189114285Y-85707200D01*
X189114285Y-85707200D02*
X189019047Y-85754819D01*
X189019047Y-85754819D02*
X188733333Y-85754819D01*
X188733333Y-85754819D02*
X188638095Y-85707200D01*
X188638095Y-85707200D02*
X188590476Y-85659580D01*
D12*
%TO.C,L3*%
X164760000Y-82189758D02*
X164760000Y-83010242D01*
X163640000Y-82189758D02*
X163640000Y-83010242D01*
%TO.C,C20*%
X184810000Y-82184420D02*
X184810000Y-82465580D01*
X183790000Y-82184420D02*
X183790000Y-82465580D01*
D10*
%TO.C,U1*%
X173125000Y-92575000D02*
X173125000Y-95925000D01*
X173125000Y-92575000D02*
X173425000Y-92575000D01*
X173125000Y-95925000D02*
X173425000Y-95925000D01*
X176250000Y-92575000D02*
X176250000Y-91350000D01*
X176475000Y-92575000D02*
X176250000Y-92575000D01*
X176475000Y-92575000D02*
X176475000Y-95925000D01*
X176475000Y-95925000D02*
X176175000Y-95925000D01*
D12*
%TO.C,C18*%
X163730000Y-69130000D02*
X164435000Y-69130000D01*
X163730000Y-73370000D02*
X163730000Y-69130000D01*
X163730000Y-73370000D02*
X164435000Y-73370000D01*
X165765000Y-69130000D02*
X166470000Y-69130000D01*
X165765000Y-73370000D02*
X166470000Y-73370000D01*
X166470000Y-73370000D02*
X166470000Y-69130000D01*
%TO.C,Q1*%
X194190000Y-83937500D02*
X194190000Y-83287500D01*
X194190000Y-83937500D02*
X194190000Y-85612500D01*
X197310000Y-83937500D02*
X197310000Y-83287500D01*
X197310000Y-83937500D02*
X197310000Y-84587500D01*
%TO.C,C15*%
X178306000Y-68706420D02*
X178306000Y-68987580D01*
X179326000Y-68706420D02*
X179326000Y-68987580D01*
%TO.C,R18*%
X194362742Y-74477500D02*
X194837258Y-74477500D01*
X194362742Y-75522500D02*
X194837258Y-75522500D01*
%TO.C,C3*%
X184402000Y-75324580D02*
X184402000Y-75043420D01*
X185422000Y-75324580D02*
X185422000Y-75043420D01*
%TO.C,J1*%
X201990000Y-77000000D02*
X201990000Y-77500000D01*
X201990000Y-77500000D02*
X202490000Y-77250000D01*
X202490000Y-77250000D02*
X201990000Y-77000000D01*
X203040000Y-76410000D02*
X203040000Y-75300000D01*
X203040000Y-79200000D02*
X203040000Y-78090000D01*
X206750000Y-76410000D02*
X206750000Y-75300000D01*
X206750000Y-79200000D02*
X206750000Y-78090000D01*
%TO.C,R17*%
X195563258Y-62977500D02*
X195088742Y-62977500D01*
X195563258Y-64022500D02*
X195088742Y-64022500D01*
%TO.C,R20*%
X165339500Y-67127258D02*
X165339500Y-66652742D01*
X166384500Y-67127258D02*
X166384500Y-66652742D01*
D13*
%TO.C,Y1*%
X169000000Y-91250000D02*
X169000000Y-97250000D01*
X172500000Y-91250000D02*
X172500000Y-97250000D01*
D12*
%TO.C,U5*%
X180320000Y-68580000D02*
X180320000Y-66630000D01*
X180320000Y-68580000D02*
X180320000Y-72030000D01*
X185440000Y-68580000D02*
X185440000Y-66630000D01*
X185440000Y-68580000D02*
X185440000Y-70530000D01*
%TO.C,R5*%
X166195742Y-75677500D02*
X166670258Y-75677500D01*
X166195742Y-76722500D02*
X166670258Y-76722500D01*
%TO.C,D2*%
X202000000Y-67140000D02*
X202000000Y-71150000D01*
X204000000Y-67140000D02*
X202000000Y-67140000D01*
X204000000Y-67140000D02*
X204000000Y-71150000D01*
%TO.C,C1*%
X159932000Y-78075000D02*
X159932000Y-77370000D01*
X159932000Y-80110000D02*
X159932000Y-79405000D01*
X164172000Y-77370000D02*
X159932000Y-77370000D01*
X164172000Y-78075000D02*
X164172000Y-77370000D01*
X164172000Y-80110000D02*
X159932000Y-80110000D01*
X164172000Y-80110000D02*
X164172000Y-79405000D01*
%TO.C,R4*%
X169977500Y-76762742D02*
X169977500Y-77237258D01*
X171022500Y-76762742D02*
X171022500Y-77237258D01*
%TO.C,R13*%
X182357500Y-75421258D02*
X182357500Y-74946742D01*
X183402500Y-75421258D02*
X183402500Y-74946742D01*
%TO.C,U7*%
X193897500Y-68629000D02*
X193897500Y-66679000D01*
X193897500Y-68629000D02*
X193897500Y-72079000D01*
X199017500Y-68629000D02*
X199017500Y-66679000D01*
X199017500Y-68629000D02*
X199017500Y-70579000D01*
%TO.C,C14*%
X174330000Y-63666000D02*
X174330000Y-67906000D01*
X175035000Y-63666000D02*
X174330000Y-63666000D01*
X175035000Y-67906000D02*
X174330000Y-67906000D01*
X177070000Y-63666000D02*
X176365000Y-63666000D01*
X177070000Y-63666000D02*
X177070000Y-67906000D01*
X177070000Y-67906000D02*
X176365000Y-67906000D01*
%TO.C,C17*%
X191514000Y-68439420D02*
X191514000Y-68720580D01*
X192534000Y-68439420D02*
X192534000Y-68720580D01*
%TO.C,C8*%
X167191000Y-66264000D02*
X167191000Y-65559000D01*
X167191000Y-68299000D02*
X167191000Y-67594000D01*
X171431000Y-65559000D02*
X167191000Y-65559000D01*
X171431000Y-66264000D02*
X171431000Y-65559000D01*
X171431000Y-68299000D02*
X167191000Y-68299000D01*
X171431000Y-68299000D02*
X171431000Y-67594000D01*
%TO.C,L2*%
X198140000Y-88352064D02*
X198140000Y-87147936D01*
X200860000Y-88352064D02*
X200860000Y-87147936D01*
%TO.C,R9*%
X186421500Y-75421258D02*
X186421500Y-74946742D01*
X187466500Y-75421258D02*
X187466500Y-74946742D01*
%TO.C,R6*%
X192477500Y-86312258D02*
X192477500Y-85837742D01*
X193522500Y-86312258D02*
X193522500Y-85837742D01*
%TO.C,R16*%
X198865258Y-62977500D02*
X198390742Y-62977500D01*
X198865258Y-64022500D02*
X198390742Y-64022500D01*
%TO.C,R11*%
X187244258Y-62469500D02*
X186769742Y-62469500D01*
X187244258Y-63514500D02*
X186769742Y-63514500D01*
%TO.C,R15*%
X199629500Y-68634258D02*
X199629500Y-68159742D01*
X200674500Y-68634258D02*
X200674500Y-68159742D01*
%TO.C,R1*%
X168227500Y-77237258D02*
X168227500Y-76762742D01*
X169272500Y-77237258D02*
X169272500Y-76762742D01*
%TO.C,C19*%
X195640580Y-86990000D02*
X195359420Y-86990000D01*
X195640580Y-88010000D02*
X195359420Y-88010000D01*
%TO.C,C6*%
X180338000Y-75324580D02*
X180338000Y-75043420D01*
X181358000Y-75324580D02*
X181358000Y-75043420D01*
%TO.C,C7*%
X179932420Y-62482000D02*
X180213580Y-62482000D01*
X179932420Y-63502000D02*
X180213580Y-63502000D01*
%TO.C,C13*%
X191883420Y-62990000D02*
X192164580Y-62990000D01*
X191883420Y-64010000D02*
X192164580Y-64010000D01*
%TO.C,C4*%
X185293580Y-77214000D02*
X185012420Y-77214000D01*
X185293580Y-78234000D02*
X185012420Y-78234000D01*
%TO.C,C5*%
X181737580Y-77214000D02*
X181456420Y-77214000D01*
X181737580Y-78234000D02*
X181456420Y-78234000D01*
%TO.C,R14*%
X200377500Y-75929258D02*
X200377500Y-75454742D01*
X201422500Y-75929258D02*
X201422500Y-75454742D01*
%TO.C,R2*%
X171727500Y-77237258D02*
X171727500Y-76762742D01*
X172772500Y-77237258D02*
X172772500Y-76762742D01*
%TO.C,C12*%
X196690000Y-75832580D02*
X196690000Y-75551420D01*
X197710000Y-75832580D02*
X197710000Y-75551420D01*
%TO.C,R22*%
X179253641Y-97080000D02*
X178946359Y-97080000D01*
X179253641Y-96320000D02*
X178946359Y-96320000D01*
%TO.C,C10*%
X194740580Y-77890000D02*
X194459420Y-77890000D01*
X194740580Y-78910000D02*
X194459420Y-78910000D01*
%TO.C,R3*%
X173477500Y-76762742D02*
X173477500Y-77237258D01*
X174522500Y-76762742D02*
X174522500Y-77237258D01*
%TO.C,C11*%
X194459420Y-76190000D02*
X194740580Y-76190000D01*
X194459420Y-77210000D02*
X194740580Y-77210000D01*
%TO.C,R21*%
X174967500Y-70627258D02*
X174967500Y-70152742D01*
X176012500Y-70627258D02*
X176012500Y-70152742D01*
%TO.C,D1*%
X204750000Y-71860000D02*
X204750000Y-67850000D01*
X204750000Y-71860000D02*
X206750000Y-71860000D01*
X206750000Y-71860000D02*
X206750000Y-67850000D01*
%TO.C,C9*%
X198490000Y-75840580D02*
X198490000Y-75559420D01*
X199510000Y-75840580D02*
X199510000Y-75559420D01*
%TO.C,R12*%
X183816258Y-62469500D02*
X183341742Y-62469500D01*
X183816258Y-63514500D02*
X183341742Y-63514500D01*
%TO.C,L1*%
X199363748Y-81540000D02*
X202136252Y-81540000D01*
X199363748Y-84960000D02*
X202136252Y-84960000D01*
%TO.C,R10*%
X186421500Y-68500258D02*
X186421500Y-68025742D01*
X187466500Y-68500258D02*
X187466500Y-68025742D01*
%TO.C,C16*%
X159190000Y-82184420D02*
X159190000Y-82465580D01*
X160210000Y-82184420D02*
X160210000Y-82465580D01*
%TO.C,U3*%
X185865000Y-84300000D02*
X185865000Y-86500000D01*
X185865000Y-84300000D02*
X185865000Y-82100000D01*
X191335000Y-84300000D02*
X191335000Y-86500000D01*
X191335000Y-84300000D02*
X191335000Y-82100000D01*
X186565000Y-88490000D02*
X186085000Y-88490000D01*
X186325000Y-88160000D01*
X186565000Y-88490000D01*
G36*
X186565000Y-88490000D02*
G01*
X186085000Y-88490000D01*
X186325000Y-88160000D01*
X186565000Y-88490000D01*
G37*
%TD*%
M02*
