%TF.GenerationSoftware,KiCad,Pcbnew,8.0.9*%
%TF.CreationDate,2025-06-14T23:52:31+02:00*%
%TF.ProjectId,Elektor,456c656b-746f-4722-9e6b-696361645f70,rev?*%
%TF.SameCoordinates,Original*%
%TF.FileFunction,Legend,Bot*%
%TF.FilePolarity,Positive*%
%FSLAX46Y46*%
G04 Gerber Fmt 4.6, Leading zero omitted, Abs format (unit mm)*
G04 Created by KiCad (PCBNEW 8.0.9) date 2025-06-14 23:52:31*
%MOMM*%
%LPD*%
G01*
G04 APERTURE LIST*
%ADD10C,0.150000*%
%ADD11C,0.120000*%
G04 APERTURE END LIST*
D10*
X178622666Y-91897580D02*
X178670285Y-91945200D01*
X178670285Y-91945200D02*
X178813142Y-91992819D01*
X178813142Y-91992819D02*
X178908380Y-91992819D01*
X178908380Y-91992819D02*
X179051237Y-91945200D01*
X179051237Y-91945200D02*
X179146475Y-91849961D01*
X179146475Y-91849961D02*
X179194094Y-91754723D01*
X179194094Y-91754723D02*
X179241713Y-91564247D01*
X179241713Y-91564247D02*
X179241713Y-91421390D01*
X179241713Y-91421390D02*
X179194094Y-91230914D01*
X179194094Y-91230914D02*
X179146475Y-91135676D01*
X179146475Y-91135676D02*
X179051237Y-91040438D01*
X179051237Y-91040438D02*
X178908380Y-90992819D01*
X178908380Y-90992819D02*
X178813142Y-90992819D01*
X178813142Y-90992819D02*
X178670285Y-91040438D01*
X178670285Y-91040438D02*
X178622666Y-91088057D01*
X178241713Y-91088057D02*
X178194094Y-91040438D01*
X178194094Y-91040438D02*
X178098856Y-90992819D01*
X178098856Y-90992819D02*
X177860761Y-90992819D01*
X177860761Y-90992819D02*
X177765523Y-91040438D01*
X177765523Y-91040438D02*
X177717904Y-91088057D01*
X177717904Y-91088057D02*
X177670285Y-91183295D01*
X177670285Y-91183295D02*
X177670285Y-91278533D01*
X177670285Y-91278533D02*
X177717904Y-91421390D01*
X177717904Y-91421390D02*
X178289332Y-91992819D01*
X178289332Y-91992819D02*
X177670285Y-91992819D01*
X188884819Y-84357142D02*
X188408628Y-84023809D01*
X188884819Y-83785714D02*
X187884819Y-83785714D01*
X187884819Y-83785714D02*
X187884819Y-84166666D01*
X187884819Y-84166666D02*
X187932438Y-84261904D01*
X187932438Y-84261904D02*
X187980057Y-84309523D01*
X187980057Y-84309523D02*
X188075295Y-84357142D01*
X188075295Y-84357142D02*
X188218152Y-84357142D01*
X188218152Y-84357142D02*
X188313390Y-84309523D01*
X188313390Y-84309523D02*
X188361009Y-84261904D01*
X188361009Y-84261904D02*
X188408628Y-84166666D01*
X188408628Y-84166666D02*
X188408628Y-83785714D01*
X188884819Y-85309523D02*
X188884819Y-84738095D01*
X188884819Y-85023809D02*
X187884819Y-85023809D01*
X187884819Y-85023809D02*
X188027676Y-84928571D01*
X188027676Y-84928571D02*
X188122914Y-84833333D01*
X188122914Y-84833333D02*
X188170533Y-84738095D01*
X188884819Y-85785714D02*
X188884819Y-85976190D01*
X188884819Y-85976190D02*
X188837200Y-86071428D01*
X188837200Y-86071428D02*
X188789580Y-86119047D01*
X188789580Y-86119047D02*
X188646723Y-86214285D01*
X188646723Y-86214285D02*
X188456247Y-86261904D01*
X188456247Y-86261904D02*
X188075295Y-86261904D01*
X188075295Y-86261904D02*
X187980057Y-86214285D01*
X187980057Y-86214285D02*
X187932438Y-86166666D01*
X187932438Y-86166666D02*
X187884819Y-86071428D01*
X187884819Y-86071428D02*
X187884819Y-85880952D01*
X187884819Y-85880952D02*
X187932438Y-85785714D01*
X187932438Y-85785714D02*
X187980057Y-85738095D01*
X187980057Y-85738095D02*
X188075295Y-85690476D01*
X188075295Y-85690476D02*
X188313390Y-85690476D01*
X188313390Y-85690476D02*
X188408628Y-85738095D01*
X188408628Y-85738095D02*
X188456247Y-85785714D01*
X188456247Y-85785714D02*
X188503866Y-85880952D01*
X188503866Y-85880952D02*
X188503866Y-86071428D01*
X188503866Y-86071428D02*
X188456247Y-86166666D01*
X188456247Y-86166666D02*
X188408628Y-86214285D01*
X188408628Y-86214285D02*
X188313390Y-86261904D01*
D11*
%TO.C,C2*%
X176259420Y-93110000D02*
X176540580Y-93110000D01*
X176259420Y-92090000D02*
X176540580Y-92090000D01*
%TO.C,R19*%
X186477500Y-85237258D02*
X186477500Y-84762742D01*
X187522500Y-85237258D02*
X187522500Y-84762742D01*
%TD*%
M02*
