%TF.GenerationSoftware,KiCad,Pcbnew,8.0.9*%
%TF.CreationDate,2025-06-14T23:52:31+02:00*%
%TF.ProjectId,Elektor,456c656b-746f-4722-9e6b-696361645f70,rev?*%
%TF.SameCoordinates,Original*%
%TF.FileFunction,Copper,L1,Top*%
%TF.FilePolarity,Positive*%
%FSLAX46Y46*%
G04 Gerber Fmt 4.6, Leading zero omitted, Abs format (unit mm)*
G04 Created by KiCad (PCBNEW 8.0.9) date 2025-06-14 23:52:31*
%MOMM*%
%LPD*%
G01*
G04 APERTURE LIST*
G04 Aperture macros list*
%AMRoundRect*
0 Rectangle with rounded corners*
0 $1 Rounding radius*
0 $2 $3 $4 $5 $6 $7 $8 $9 X,Y pos of 4 corners*
0 Add a 4 corners polygon primitive as box body*
4,1,4,$2,$3,$4,$5,$6,$7,$8,$9,$2,$3,0*
0 Add four circle primitives for the rounded corners*
1,1,$1+$1,$2,$3*
1,1,$1+$1,$4,$5*
1,1,$1+$1,$6,$7*
1,1,$1+$1,$8,$9*
0 Add four rect primitives between the rounded corners*
20,1,$1+$1,$2,$3,$4,$5,0*
20,1,$1+$1,$4,$5,$6,$7,0*
20,1,$1+$1,$6,$7,$8,$9,0*
20,1,$1+$1,$8,$9,$2,$3,0*%
G04 Aperture macros list end*
%TA.AperFunction,ComponentPad*%
%ADD10C,1.778000*%
%TD*%
%TA.AperFunction,SMDPad,CuDef*%
%ADD11RoundRect,0.250000X-0.350000X0.275000X-0.350000X-0.275000X0.350000X-0.275000X0.350000X0.275000X0*%
%TD*%
%TA.AperFunction,SMDPad,CuDef*%
%ADD12RoundRect,0.225000X-0.250000X0.225000X-0.250000X-0.225000X0.250000X-0.225000X0.250000X0.225000X0*%
%TD*%
%TA.AperFunction,SMDPad,CuDef*%
%ADD13R,0.300000X1.400000*%
%TD*%
%TA.AperFunction,ComponentPad*%
%ADD14C,1.600000*%
%TD*%
%TA.AperFunction,SMDPad,CuDef*%
%ADD15RoundRect,0.150000X0.150000X-0.587500X0.150000X0.587500X-0.150000X0.587500X-0.150000X-0.587500X0*%
%TD*%
%TA.AperFunction,SMDPad,CuDef*%
%ADD16RoundRect,0.200000X-0.200000X-0.275000X0.200000X-0.275000X0.200000X0.275000X-0.200000X0.275000X0*%
%TD*%
%TA.AperFunction,SMDPad,CuDef*%
%ADD17RoundRect,0.225000X0.250000X-0.225000X0.250000X0.225000X-0.250000X0.225000X-0.250000X-0.225000X0*%
%TD*%
%TA.AperFunction,SMDPad,CuDef*%
%ADD18R,3.600000X1.270000*%
%TD*%
%TA.AperFunction,SMDPad,CuDef*%
%ADD19R,4.200000X1.350000*%
%TD*%
%TA.AperFunction,SMDPad,CuDef*%
%ADD20RoundRect,0.200000X0.200000X0.275000X-0.200000X0.275000X-0.200000X-0.275000X0.200000X-0.275000X0*%
%TD*%
%TA.AperFunction,SMDPad,CuDef*%
%ADD21RoundRect,0.200000X0.275000X-0.200000X0.275000X0.200000X-0.275000X0.200000X-0.275000X-0.200000X0*%
%TD*%
%TA.AperFunction,SMDPad,CuDef*%
%ADD22R,2.600000X1.900000*%
%TD*%
%TA.AperFunction,SMDPad,CuDef*%
%ADD23RoundRect,0.150000X0.150000X-0.675000X0.150000X0.675000X-0.150000X0.675000X-0.150000X-0.675000X0*%
%TD*%
%TA.AperFunction,ComponentPad*%
%ADD24C,1.800000*%
%TD*%
%TA.AperFunction,SMDPad,CuDef*%
%ADD25RoundRect,0.225000X-0.375000X0.225000X-0.375000X-0.225000X0.375000X-0.225000X0.375000X0.225000X0*%
%TD*%
%TA.AperFunction,SMDPad,CuDef*%
%ADD26RoundRect,0.200000X-0.275000X0.200000X-0.275000X-0.200000X0.275000X-0.200000X0.275000X0.200000X0*%
%TD*%
%TA.AperFunction,SMDPad,CuDef*%
%ADD27RoundRect,0.250000X1.075000X-0.375000X1.075000X0.375000X-1.075000X0.375000X-1.075000X-0.375000X0*%
%TD*%
%TA.AperFunction,SMDPad,CuDef*%
%ADD28RoundRect,0.225000X0.225000X0.250000X-0.225000X0.250000X-0.225000X-0.250000X0.225000X-0.250000X0*%
%TD*%
%TA.AperFunction,SMDPad,CuDef*%
%ADD29RoundRect,0.225000X-0.225000X-0.250000X0.225000X-0.250000X0.225000X0.250000X-0.225000X0.250000X0*%
%TD*%
%TA.AperFunction,SMDPad,CuDef*%
%ADD30RoundRect,0.135000X0.135000X0.185000X-0.135000X0.185000X-0.135000X-0.185000X0.135000X-0.185000X0*%
%TD*%
%TA.AperFunction,SMDPad,CuDef*%
%ADD31RoundRect,0.225000X0.375000X-0.225000X0.375000X0.225000X-0.375000X0.225000X-0.375000X-0.225000X0*%
%TD*%
%TA.AperFunction,SMDPad,CuDef*%
%ADD32RoundRect,0.250000X-0.312500X-1.450000X0.312500X-1.450000X0.312500X1.450000X-0.312500X1.450000X0*%
%TD*%
%TA.AperFunction,SMDPad,CuDef*%
%ADD33RoundRect,0.100000X0.100000X-0.637500X0.100000X0.637500X-0.100000X0.637500X-0.100000X-0.637500X0*%
%TD*%
%TA.AperFunction,ViaPad*%
%ADD34C,0.800000*%
%TD*%
%TA.AperFunction,Conductor*%
%ADD35C,0.250000*%
%TD*%
G04 APERTURE END LIST*
D10*
%TO.P,U6,INR,INR*%
%TO.N,Net-(R21-Pad1)*%
X172600000Y-72140000D03*
%TO.P,U6,INL,INL*%
%TO.N,Net-(R20-Pad1)*%
X170060000Y-72140000D03*
%TO.P,U6,INGND2,INGND2*%
%TO.N,GNDA*%
X172600000Y-69600000D03*
%TO.P,U6,INGND1,INGND1*%
X170060000Y-69600000D03*
%TO.P,U6,GND,GND*%
%TO.N,GND*%
X158630000Y-91190000D03*
%TO.P,U6,G,G*%
X161170000Y-75950000D03*
%TO.P,U6,19,SCL*%
%TO.N,Net-(U6-SCL)*%
X176410000Y-75950000D03*
%TO.P,U6,18,SDA*%
%TO.N,Net-(U6-SDA)*%
X178950000Y-75950000D03*
%TO.P,U6,14,14*%
%TO.N,unconnected-(U6-Pad14)*%
X189110000Y-75950000D03*
%TO.P,U6,13,SCK*%
%TO.N,unconnected-(U6-SCK-Pad13)*%
X191650000Y-75950000D03*
%TO.P,U6,12,MISO*%
%TO.N,unconnected-(U6-MISO-Pad12)*%
X191650000Y-91190000D03*
%TO.P,U6,11,MOSI*%
%TO.N,unconnected-(U6-MOSI-Pad11)*%
X189110000Y-91190000D03*
%TO.P,U6,5V,5V*%
%TO.N,Net-(C16-Pad1)*%
X158630000Y-75950000D03*
%TO.P,U6,3V,3V*%
%TO.N,Net-(C1-Pad1)*%
X163710000Y-75950000D03*
%TO.P,U6,0,0*%
%TO.N,unconnected-(U6-Pad0)*%
X161170000Y-91190000D03*
%TD*%
D11*
%TO.P,L3,1,1*%
%TO.N,Net-(C1-Pad1)*%
X164200000Y-81450000D03*
%TO.P,L3,2,2*%
%TO.N,3.3V*%
X164200000Y-83750000D03*
%TD*%
D12*
%TO.P,C20,1*%
%TO.N,3.3VA*%
X184300000Y-81550000D03*
%TO.P,C20,2*%
%TO.N,GNDA*%
X184300000Y-83100000D03*
%TD*%
D13*
%TO.P,U1,1,VDD*%
%TO.N,3.3V*%
X175800000Y-92050000D03*
%TO.P,U1,2,XA*%
%TO.N,Net-(U1-XA)*%
X175300000Y-92050000D03*
%TO.P,U1,3,XB*%
%TO.N,Net-(U1-XB)*%
X174800000Y-92050000D03*
%TO.P,U1,4,SCL*%
%TO.N,Net-(U1-SCL)*%
X174300000Y-92050000D03*
%TO.P,U1,5,SDA*%
%TO.N,Net-(U1-SDA)*%
X173800000Y-92050000D03*
%TO.P,U1,6,CLK2*%
%TO.N,Net-(U1-CLK2)*%
X173800000Y-96450000D03*
%TO.P,U1,7,VDDO*%
%TO.N,3.3V*%
X174300000Y-96450000D03*
%TO.P,U1,8,GND*%
%TO.N,GND*%
X174800000Y-96450000D03*
%TO.P,U1,9,CLK1*%
%TO.N,Net-(TP5-Pin_1)*%
X175300000Y-96450000D03*
%TO.P,U1,10,CLK0*%
%TO.N,Net-(TP4-Pin_1)*%
X175800000Y-96450000D03*
%TD*%
D14*
%TO.P,C18,1*%
%TO.N,3.3VA*%
X165100000Y-72500000D03*
%TO.P,C18,2*%
%TO.N,GNDA*%
X165100000Y-70000000D03*
%TD*%
D15*
%TO.P,Q1,1,S*%
%TO.N,Net-(Q1-S)*%
X194800000Y-84875000D03*
%TO.P,Q1,2,D*%
%TO.N,Net-(Q1-D)*%
X196700000Y-84875000D03*
%TO.P,Q1,3,G*%
%TO.N,Net-(D1-K)*%
X195750000Y-83000000D03*
%TD*%
D12*
%TO.P,C15,1*%
%TO.N,3.3VA*%
X178816000Y-68072000D03*
%TO.P,C15,2*%
%TO.N,GNDA*%
X178816000Y-69622000D03*
%TD*%
D16*
%TO.P,R18,1*%
%TO.N,Net-(U3-1B3)*%
X193775000Y-75000000D03*
%TO.P,R18,2*%
%TO.N,Net-(C12-Pad2)*%
X195425000Y-75000000D03*
%TD*%
D17*
%TO.P,C3,1*%
%TO.N,Net-(U3-1B1)*%
X184912000Y-75959000D03*
%TO.P,C3,2*%
%TO.N,Net-(C3-Pad2)*%
X184912000Y-74409000D03*
%TD*%
D18*
%TO.P,J1,1,In*%
%TO.N,Net-(D1-K)*%
X204950000Y-77250000D03*
D19*
%TO.P,J1,2,Ext*%
%TO.N,GNDA*%
X204750000Y-80075000D03*
X204750000Y-74425000D03*
%TD*%
D20*
%TO.P,R17,1*%
%TO.N,Net-(U7B--)*%
X196151000Y-63500000D03*
%TO.P,R17,2*%
%TO.N,Net-(C14-Pad1)*%
X194501000Y-63500000D03*
%TD*%
D21*
%TO.P,R20,1*%
%TO.N,Net-(R20-Pad1)*%
X165862000Y-67715000D03*
%TO.P,R20,2*%
%TO.N,Net-(TP2-Pin_1)*%
X165862000Y-66065000D03*
%TD*%
D22*
%TO.P,Y1,1*%
%TO.N,Net-(U1-XB)*%
X170750000Y-92100000D03*
%TO.P,Y1,2*%
%TO.N,Net-(U1-XA)*%
X170750000Y-96400000D03*
%TD*%
D23*
%TO.P,U5,1*%
%TO.N,Net-(TP7-Pin_1)*%
X180975000Y-71205000D03*
%TO.P,U5,2,-*%
%TO.N,Net-(U5A--)*%
X182245000Y-71205000D03*
%TO.P,U5,3,+*%
%TO.N,Net-(U3-1B4)*%
X183515000Y-71205000D03*
%TO.P,U5,4,V-*%
%TO.N,GNDA*%
X184785000Y-71205000D03*
%TO.P,U5,5,+*%
%TO.N,Net-(TP7-Pin_1)*%
X184785000Y-65955000D03*
%TO.P,U5,6,-*%
%TO.N,Net-(U5B--)*%
X183515000Y-65955000D03*
%TO.P,U5,7*%
%TO.N,Net-(C8-Pad1)*%
X182245000Y-65955000D03*
%TO.P,U5,8,V+*%
%TO.N,3.3VA*%
X180975000Y-65955000D03*
%TD*%
D16*
%TO.P,R5,1*%
%TO.N,3.3V*%
X165608000Y-76200000D03*
%TO.P,R5,2*%
%TO.N,3.3VA*%
X167258000Y-76200000D03*
%TD*%
D24*
%TO.P,TP4,1,Pin_1*%
%TO.N,Net-(TP4-Pin_1)*%
X176400000Y-84700000D03*
%TD*%
D25*
%TO.P,D2,1,K*%
%TO.N,GNDA*%
X203000000Y-67850000D03*
%TO.P,D2,2,A*%
%TO.N,Net-(D1-K)*%
X203000000Y-71150000D03*
%TD*%
D14*
%TO.P,C1,1*%
%TO.N,Net-(C1-Pad1)*%
X163302000Y-78740000D03*
%TO.P,C1,2*%
%TO.N,GND*%
X160802000Y-78740000D03*
%TD*%
D26*
%TO.P,R4,1*%
%TO.N,Net-(U6-SDA)*%
X170500000Y-76175000D03*
%TO.P,R4,2*%
%TO.N,Net-(U1-SDA)*%
X170500000Y-77825000D03*
%TD*%
D21*
%TO.P,R13,1*%
%TO.N,Net-(U3-1B4)*%
X182880000Y-76009000D03*
%TO.P,R13,2*%
%TO.N,Net-(C6-Pad2)*%
X182880000Y-74359000D03*
%TD*%
D23*
%TO.P,U7,1*%
%TO.N,Net-(TP8-Pin_1)*%
X194552500Y-71254000D03*
%TO.P,U7,2,-*%
%TO.N,Net-(U7A--)*%
X195822500Y-71254000D03*
%TO.P,U7,3,+*%
%TO.N,Net-(U3-1B3)*%
X197092500Y-71254000D03*
%TO.P,U7,4,V-*%
%TO.N,GNDA*%
X198362500Y-71254000D03*
%TO.P,U7,5,+*%
%TO.N,Net-(TP8-Pin_1)*%
X198362500Y-66004000D03*
%TO.P,U7,6,-*%
%TO.N,Net-(U7B--)*%
X197092500Y-66004000D03*
%TO.P,U7,7*%
%TO.N,Net-(C14-Pad1)*%
X195822500Y-66004000D03*
%TO.P,U7,8,V+*%
%TO.N,3.3VA*%
X194552500Y-66004000D03*
%TD*%
D14*
%TO.P,C14,1*%
%TO.N,Net-(C14-Pad1)*%
X175700000Y-64536000D03*
%TO.P,C14,2*%
%TO.N,Net-(TP3-Pin_1)*%
X175700000Y-67036000D03*
%TD*%
D12*
%TO.P,C17,1*%
%TO.N,3.3VA*%
X192024000Y-67805000D03*
%TO.P,C17,2*%
%TO.N,GNDA*%
X192024000Y-69355000D03*
%TD*%
D14*
%TO.P,C8,1*%
%TO.N,Net-(C8-Pad1)*%
X170561000Y-66929000D03*
%TO.P,C8,2*%
%TO.N,Net-(TP2-Pin_1)*%
X168061000Y-66929000D03*
%TD*%
D24*
%TO.P,TP2,1,Pin_1*%
%TO.N,Net-(TP2-Pin_1)*%
X168275000Y-63881000D03*
%TD*%
D27*
%TO.P,L2,1,1*%
%TO.N,3.3V*%
X199500000Y-89150000D03*
%TO.P,L2,2,2*%
%TO.N,Net-(Q1-D)*%
X199500000Y-86350000D03*
%TD*%
D21*
%TO.P,R9,1*%
%TO.N,Net-(C3-Pad2)*%
X186944000Y-76009000D03*
%TO.P,R9,2*%
%TO.N,Net-(U5A--)*%
X186944000Y-74359000D03*
%TD*%
%TO.P,R6,1*%
%TO.N,GNDA*%
X193000000Y-86900000D03*
%TO.P,R6,2*%
%TO.N,Net-(Q1-S)*%
X193000000Y-85250000D03*
%TD*%
D20*
%TO.P,R16,1*%
%TO.N,Net-(C13-Pad2)*%
X199453000Y-63500000D03*
%TO.P,R16,2*%
%TO.N,Net-(U7B--)*%
X197803000Y-63500000D03*
%TD*%
%TO.P,R11,1*%
%TO.N,Net-(C7-Pad2)*%
X187832000Y-62992000D03*
%TO.P,R11,2*%
%TO.N,Net-(U5B--)*%
X186182000Y-62992000D03*
%TD*%
D24*
%TO.P,TP8,1,Pin_1*%
%TO.N,Net-(TP8-Pin_1)*%
X190500000Y-71882000D03*
%TD*%
D21*
%TO.P,R15,1*%
%TO.N,Net-(U7A--)*%
X200152000Y-69222000D03*
%TO.P,R15,2*%
%TO.N,Net-(TP8-Pin_1)*%
X200152000Y-67572000D03*
%TD*%
%TO.P,R1,1*%
%TO.N,Net-(C1-Pad1)*%
X168750000Y-77825000D03*
%TO.P,R1,2*%
%TO.N,Net-(U6-SDA)*%
X168750000Y-76175000D03*
%TD*%
D28*
%TO.P,C19,1*%
%TO.N,Net-(Q1-D)*%
X196275000Y-87500000D03*
%TO.P,C19,2*%
%TO.N,GNDA*%
X194725000Y-87500000D03*
%TD*%
D17*
%TO.P,C6,1*%
%TO.N,GNDA*%
X180848000Y-75959000D03*
%TO.P,C6,2*%
%TO.N,Net-(C6-Pad2)*%
X180848000Y-74409000D03*
%TD*%
D24*
%TO.P,TP7,1,Pin_1*%
%TO.N,Net-(TP7-Pin_1)*%
X178816000Y-71882000D03*
%TD*%
D29*
%TO.P,C7,1*%
%TO.N,GNDA*%
X179298000Y-62992000D03*
%TO.P,C7,2*%
%TO.N,Net-(C7-Pad2)*%
X180848000Y-62992000D03*
%TD*%
D24*
%TO.P,TP_GNDD1,1,Pin_1*%
%TO.N,GND*%
X191800000Y-95900000D03*
%TD*%
D29*
%TO.P,C13,1*%
%TO.N,GNDA*%
X191249000Y-63500000D03*
%TO.P,C13,2*%
%TO.N,Net-(C13-Pad2)*%
X192799000Y-63500000D03*
%TD*%
D24*
%TO.P,TP6,1,Pin_1*%
%TO.N,Net-(Q1-S)*%
X185100000Y-95800000D03*
%TD*%
D28*
%TO.P,C4,1*%
%TO.N,GNDA*%
X185928000Y-77724000D03*
%TO.P,C4,2*%
%TO.N,Net-(U3-1B1)*%
X184378000Y-77724000D03*
%TD*%
%TO.P,C5,1*%
%TO.N,Net-(U3-1B4)*%
X182372000Y-77724000D03*
%TO.P,C5,2*%
%TO.N,GNDA*%
X180822000Y-77724000D03*
%TD*%
D21*
%TO.P,R14,1*%
%TO.N,Net-(C9-Pad2)*%
X200900000Y-76517000D03*
%TO.P,R14,2*%
%TO.N,Net-(U7A--)*%
X200900000Y-74867000D03*
%TD*%
%TO.P,R2,1*%
%TO.N,Net-(C1-Pad1)*%
X172250000Y-77825000D03*
%TO.P,R2,2*%
%TO.N,Net-(U6-SCL)*%
X172250000Y-76175000D03*
%TD*%
D17*
%TO.P,C12,1*%
%TO.N,GNDA*%
X197200000Y-76467000D03*
%TO.P,C12,2*%
%TO.N,Net-(C12-Pad2)*%
X197200000Y-74917000D03*
%TD*%
D30*
%TO.P,R22,1*%
%TO.N,Net-(Q1-S)*%
X179610000Y-96700000D03*
%TO.P,R22,2*%
%TO.N,Net-(U1-CLK2)*%
X178590000Y-96700000D03*
%TD*%
D24*
%TO.P,TP5,1,Pin_1*%
%TO.N,Net-(TP5-Pin_1)*%
X172200000Y-84800000D03*
%TD*%
D28*
%TO.P,C10,1*%
%TO.N,GNDA*%
X195375000Y-78400000D03*
%TO.P,C10,2*%
%TO.N,Net-(U3-1B2)*%
X193825000Y-78400000D03*
%TD*%
D26*
%TO.P,R3,1*%
%TO.N,Net-(U6-SCL)*%
X174000000Y-76175000D03*
%TO.P,R3,2*%
%TO.N,Net-(U1-SCL)*%
X174000000Y-77825000D03*
%TD*%
D29*
%TO.P,C11,1*%
%TO.N,Net-(U3-1B3)*%
X193825000Y-76700000D03*
%TO.P,C11,2*%
%TO.N,GNDA*%
X195375000Y-76700000D03*
%TD*%
D21*
%TO.P,R21,1*%
%TO.N,Net-(R21-Pad1)*%
X175490000Y-71215000D03*
%TO.P,R21,2*%
%TO.N,Net-(TP3-Pin_1)*%
X175490000Y-69565000D03*
%TD*%
D24*
%TO.P,TP_GNDA1,1,Pin_1*%
%TO.N,GNDA*%
X161200000Y-70358000D03*
%TD*%
%TO.P,TP3,1,Pin_1*%
%TO.N,Net-(TP3-Pin_1)*%
X172900000Y-63900000D03*
%TD*%
D31*
%TO.P,D1,1,K*%
%TO.N,Net-(D1-K)*%
X205750000Y-71150000D03*
%TO.P,D1,2,A*%
%TO.N,GNDA*%
X205750000Y-67850000D03*
%TD*%
D17*
%TO.P,C9,1*%
%TO.N,Net-(U3-1B2)*%
X199000000Y-76475000D03*
%TO.P,C9,2*%
%TO.N,Net-(C9-Pad2)*%
X199000000Y-74925000D03*
%TD*%
D20*
%TO.P,R12,1*%
%TO.N,Net-(U5B--)*%
X184404000Y-62992000D03*
%TO.P,R12,2*%
%TO.N,Net-(C8-Pad1)*%
X182754000Y-62992000D03*
%TD*%
D32*
%TO.P,L1,1,1*%
%TO.N,Net-(D1-K)*%
X198612500Y-83250000D03*
%TO.P,L1,2,2*%
%TO.N,GNDA*%
X202887500Y-83250000D03*
%TD*%
D21*
%TO.P,R10,1*%
%TO.N,Net-(U5A--)*%
X186944000Y-69088000D03*
%TO.P,R10,2*%
%TO.N,Net-(TP7-Pin_1)*%
X186944000Y-67438000D03*
%TD*%
D12*
%TO.P,C16,1*%
%TO.N,Net-(C16-Pad1)*%
X159700000Y-81550000D03*
%TO.P,C16,2*%
%TO.N,GND*%
X159700000Y-83100000D03*
%TD*%
D33*
%TO.P,U3,1,~{1OE}*%
%TO.N,GND*%
X186325000Y-87162500D03*
%TO.P,U3,2,S1*%
%TO.N,Net-(TP5-Pin_1)*%
X186975000Y-87162500D03*
%TO.P,U3,3,1B4*%
%TO.N,Net-(U3-1B4)*%
X187625000Y-87162500D03*
%TO.P,U3,4,1B3*%
%TO.N,Net-(U3-1B3)*%
X188275000Y-87162500D03*
%TO.P,U3,5,1B2*%
%TO.N,Net-(U3-1B2)*%
X188925000Y-87162500D03*
%TO.P,U3,6,1B1*%
%TO.N,Net-(U3-1B1)*%
X189575000Y-87162500D03*
%TO.P,U3,7,1A*%
%TO.N,Net-(Q1-S)*%
X190225000Y-87162500D03*
%TO.P,U3,8,GND*%
%TO.N,GND*%
X190875000Y-87162500D03*
%TO.P,U3,9,2A*%
%TO.N,Net-(Q1-S)*%
X190875000Y-81437500D03*
%TO.P,U3,10,2B1*%
%TO.N,Net-(U3-1B1)*%
X190225000Y-81437500D03*
%TO.P,U3,11,2B2*%
%TO.N,Net-(U3-1B2)*%
X189575000Y-81437500D03*
%TO.P,U3,12,2B3*%
%TO.N,Net-(U3-1B3)*%
X188925000Y-81437500D03*
%TO.P,U3,13,2B4*%
%TO.N,Net-(U3-1B4)*%
X188275000Y-81437500D03*
%TO.P,U3,14,S0*%
%TO.N,Net-(TP4-Pin_1)*%
X187625000Y-81437500D03*
%TO.P,U3,15,~{2OE}*%
%TO.N,GND*%
X186975000Y-81437500D03*
%TO.P,U3,16,VCC*%
%TO.N,3.3VA*%
X186325000Y-81437500D03*
%TD*%
D34*
%TO.N,Net-(C1-Pad1)*%
X167900000Y-79700000D03*
%TO.N,GNDA*%
X184300000Y-84200000D03*
%TO.N,Net-(U3-1B1)*%
X190500000Y-79200000D03*
%TO.N,3.3V*%
X179300000Y-95000000D03*
X177299992Y-91200000D03*
%TO.N,GND*%
X174800000Y-94900000D03*
X181100000Y-85800000D03*
X181566329Y-88115614D03*
X189100000Y-88699998D03*
%TO.N,3.3VA*%
X175101992Y-73501992D03*
X175400000Y-78100000D03*
%TO.N,Net-(U3-1B1)*%
X183481450Y-79066881D03*
%TO.N,GNDA*%
X186182000Y-72390000D03*
X180213000Y-79121000D03*
X179248637Y-64643000D03*
X205750004Y-69250000D03*
X204750000Y-82000000D03*
X180086000Y-69342000D03*
X197200000Y-78300000D03*
X192024000Y-70612000D03*
X189484000Y-63500000D03*
X193250000Y-88500000D03*
X198100000Y-73400000D03*
X187198000Y-77978000D03*
%TO.N,Net-(U1-SCL)*%
X174000000Y-79250004D03*
X174609941Y-90553073D03*
%TO.N,Net-(U1-SDA)*%
X173326992Y-90673008D03*
X170499996Y-79249996D03*
%TO.N,3.3VA*%
X166075992Y-74435000D03*
%TO.N,3.3V*%
X182245518Y-97416446D03*
%TO.N,Net-(C8-Pad1)*%
X180975000Y-64389000D03*
%TO.N,Net-(C14-Pad1)*%
X187300000Y-65300000D03*
X184404000Y-64516000D03*
X189800000Y-65200000D03*
%TO.N,Net-(TP7-Pin_1)*%
X184404000Y-67056000D03*
X184404000Y-69088000D03*
%TO.N,Net-(TP4-Pin_1)*%
X178700000Y-88500000D03*
X177695633Y-94811617D03*
%TO.N,Net-(TP5-Pin_1)*%
X177600000Y-89300000D03*
X176400000Y-94125000D03*
%TO.N,Net-(TP8-Pin_1)*%
X198108500Y-67190000D03*
X198108500Y-69329000D03*
%TD*%
D35*
%TO.N,Net-(C12-Pad2)*%
X195508000Y-74917000D02*
X195425000Y-75000000D01*
X197200000Y-74917000D02*
X195508000Y-74917000D01*
%TO.N,GNDA*%
X197100000Y-78400000D02*
X197200000Y-78300000D01*
X195375000Y-78400000D02*
X197100000Y-78400000D01*
%TO.N,Net-(C1-Pad1)*%
X168700000Y-79700000D02*
X168750000Y-79650000D01*
X167900000Y-79700000D02*
X168700000Y-79700000D01*
X168750000Y-79650000D02*
X168750000Y-77825000D01*
X169100000Y-80000000D02*
X168750000Y-79650000D01*
%TO.N,Net-(Q1-D)*%
X198175000Y-86350000D02*
X199500000Y-86350000D01*
X196700000Y-84875000D02*
X198175000Y-86350000D01*
%TO.N,GND*%
X184900000Y-85800000D02*
X181100000Y-85800000D01*
X186975000Y-83725000D02*
X184900000Y-85800000D01*
X186975000Y-81437500D02*
X186975000Y-83725000D01*
%TO.N,Net-(U3-1B3)*%
X188275000Y-84652208D02*
X188275000Y-87162500D01*
X188925000Y-84002208D02*
X188275000Y-84652208D01*
X188925000Y-81437500D02*
X188925000Y-84002208D01*
%TO.N,Net-(Q1-S)*%
X191100000Y-85250000D02*
X190875000Y-85025000D01*
X193000000Y-85250000D02*
X191100000Y-85250000D01*
X190225000Y-85675000D02*
X190225000Y-87162500D01*
X190875000Y-85025000D02*
X190225000Y-85675000D01*
X190875000Y-83700000D02*
X190875000Y-85025000D01*
%TO.N,Net-(U3-1B1)*%
X189575000Y-84888604D02*
X189575000Y-87162500D01*
X190225000Y-84238604D02*
X189575000Y-84888604D01*
X190225000Y-81437500D02*
X190225000Y-84238604D01*
%TO.N,Net-(Q1-S)*%
X192200000Y-88500000D02*
X192200000Y-86050000D01*
X191100000Y-89600000D02*
X192200000Y-88500000D01*
X187400000Y-89600000D02*
X191100000Y-89600000D01*
X185100000Y-91900000D02*
X187400000Y-89600000D01*
X185100000Y-95800000D02*
X185100000Y-91900000D01*
%TO.N,Net-(TP3-Pin_1)*%
X172900000Y-66836000D02*
X173100000Y-67036000D01*
X172900000Y-63900000D02*
X172900000Y-66836000D01*
X173100000Y-67036000D02*
X172994000Y-67036000D01*
X175700000Y-67036000D02*
X173100000Y-67036000D01*
X175514000Y-67222000D02*
X175514000Y-69541000D01*
%TO.N,Net-(R21-Pad1)*%
X174085000Y-71215000D02*
X175490000Y-71215000D01*
X173160000Y-72140000D02*
X174085000Y-71215000D01*
%TO.N,Net-(R20-Pad1)*%
X165862000Y-67715000D02*
X170060000Y-71913000D01*
%TO.N,GND*%
X160802000Y-81998000D02*
X159700000Y-83100000D01*
X160802000Y-78740000D02*
X160802000Y-81998000D01*
%TO.N,Net-(C16-Pad1)*%
X158630000Y-80480000D02*
X159700000Y-81550000D01*
X158630000Y-75950000D02*
X158630000Y-80480000D01*
%TO.N,Net-(C1-Pad1)*%
X163302000Y-77198000D02*
X163302000Y-78740000D01*
X163710000Y-76790000D02*
X163302000Y-77198000D01*
X163710000Y-75950000D02*
X163710000Y-76790000D01*
%TO.N,Net-(U6-SDA)*%
X172275000Y-74400000D02*
X170500000Y-76175000D01*
%TO.N,3.3VA*%
X174653984Y-73950000D02*
X169649000Y-73950000D01*
X169649000Y-73950000D02*
X169164000Y-74435000D01*
X175101992Y-73501992D02*
X174653984Y-73950000D01*
%TO.N,Net-(U6-SDA)*%
X177400000Y-74400000D02*
X172275000Y-74400000D01*
X178950000Y-75950000D02*
X177400000Y-74400000D01*
%TO.N,Net-(U6-SCL)*%
X176410000Y-75950000D02*
X174225000Y-75950000D01*
%TO.N,3.3V*%
X199500000Y-92000000D02*
X194083554Y-97416446D01*
X199500000Y-89150000D02*
X199500000Y-92000000D01*
X194083554Y-97416446D02*
X182245518Y-97416446D01*
%TO.N,Net-(Q1-S)*%
X182850000Y-95800000D02*
X185100000Y-95800000D01*
X181950000Y-96700000D02*
X182850000Y-95800000D01*
X179610000Y-96700000D02*
X181950000Y-96700000D01*
%TO.N,GND*%
X190075001Y-88699998D02*
X189100000Y-88699998D01*
X190875000Y-87899999D02*
X190075001Y-88699998D01*
X190875000Y-87162500D02*
X190875000Y-87899999D01*
%TO.N,Net-(U3-1B3)*%
X189067588Y-77700000D02*
X192825000Y-77700000D01*
X188925000Y-77842588D02*
X189067588Y-77700000D01*
X192825000Y-77700000D02*
X193825000Y-76700000D01*
X188925000Y-81437500D02*
X188925000Y-77842588D01*
X193775000Y-75000000D02*
X193775000Y-76650000D01*
%TO.N,Net-(U3-1B2)*%
X193825000Y-78400000D02*
X189900000Y-78400000D01*
X189900000Y-78400000D02*
X189900000Y-78500000D01*
%TO.N,GNDA*%
X196975000Y-78300000D02*
X197200000Y-78300000D01*
X195375000Y-76700000D02*
X196975000Y-78300000D01*
X197200000Y-76467000D02*
X197200000Y-78200000D01*
X197200000Y-78200000D02*
X197200000Y-78300000D01*
%TO.N,Net-(U3-1B3)*%
X193900000Y-74137499D02*
X193900000Y-74875000D01*
X197092500Y-72078999D02*
X195034000Y-74137499D01*
X197092500Y-71254000D02*
X197092500Y-72078999D01*
X195034000Y-74137499D02*
X193900000Y-74137499D01*
%TO.N,GNDA*%
X198100000Y-75567000D02*
X198100000Y-73400000D01*
X197200000Y-76467000D02*
X198100000Y-75567000D01*
X198362500Y-73137500D02*
X198100000Y-73400000D01*
X198362500Y-71254000D02*
X198362500Y-73137500D01*
%TO.N,Net-(C9-Pad2)*%
X199308000Y-74925000D02*
X200900000Y-76517000D01*
%TO.N,Net-(U3-1B2)*%
X199000000Y-78100000D02*
X199000000Y-76475000D01*
X196750000Y-80350000D02*
X199000000Y-78100000D01*
X192675305Y-80350000D02*
X196750000Y-80350000D01*
X190800305Y-78475000D02*
X192675305Y-80350000D01*
X189900000Y-78500000D02*
X189925000Y-78475000D01*
X189925000Y-78475000D02*
X190800305Y-78475000D01*
%TO.N,Net-(C14-Pad1)*%
X192801000Y-65200000D02*
X189800000Y-65200000D01*
X194501000Y-63500000D02*
X192801000Y-65200000D01*
%TO.N,3.3VA*%
X178523000Y-62269000D02*
X178523000Y-64262000D01*
X179050000Y-61742000D02*
X178523000Y-62269000D01*
X188060016Y-61742000D02*
X179050000Y-61742000D01*
X188709000Y-65205016D02*
X188709000Y-62390984D01*
X188709000Y-62390984D02*
X188060016Y-61742000D01*
X189507984Y-66004000D02*
X188709000Y-65205016D01*
X192024000Y-66004000D02*
X189507984Y-66004000D01*
%TO.N,Net-(C14-Pad1)*%
X186516000Y-64516000D02*
X187300000Y-65300000D01*
X184404000Y-64516000D02*
X186516000Y-64516000D01*
%TO.N,Net-(C1-Pad1)*%
X172200000Y-80000000D02*
X169100000Y-80000000D01*
X172250000Y-79950000D02*
X172200000Y-80000000D01*
X172250000Y-77825000D02*
X172250000Y-79950000D01*
%TO.N,Net-(U6-SDA)*%
X170500000Y-76175000D02*
X168750000Y-76175000D01*
%TO.N,Net-(U6-SCL)*%
X174175000Y-76175000D02*
X172250000Y-76175000D01*
%TO.N,Net-(TP4-Pin_1)*%
X178700000Y-88500000D02*
X178700000Y-87000000D01*
X178700000Y-87000000D02*
X176400000Y-84700000D01*
%TO.N,Net-(TP5-Pin_1)*%
X176700000Y-89300000D02*
X177600000Y-89300000D01*
%TO.N,3.3V*%
X174763604Y-88000000D02*
X168450000Y-88000000D01*
X175800000Y-89036396D02*
X174763604Y-88000000D01*
X168450000Y-88000000D02*
X164200000Y-83750000D01*
X175800000Y-92050000D02*
X175800000Y-89036396D01*
%TO.N,Net-(TP5-Pin_1)*%
X172200000Y-84800000D02*
X176700000Y-89300000D01*
%TO.N,3.3VA*%
X178850000Y-81550000D02*
X175400000Y-78100000D01*
X184300000Y-81550000D02*
X178850000Y-81550000D01*
%TO.N,GNDA*%
X184300000Y-83100000D02*
X184300000Y-84200000D01*
%TO.N,3.3VA*%
X186325000Y-81437500D02*
X184412500Y-81437500D01*
%TO.N,Net-(U3-1B4)*%
X182372000Y-79872002D02*
X182599998Y-80100000D01*
X187900000Y-80100000D02*
X182599998Y-80100000D01*
X188275000Y-81437500D02*
X188275000Y-80475000D01*
X188275000Y-80475000D02*
X187900000Y-80100000D01*
%TO.N,3.3V*%
X176999992Y-90900000D02*
X177299992Y-91200000D01*
X175800000Y-90900000D02*
X176999992Y-90900000D01*
X175800000Y-92050000D02*
X175800000Y-90900000D01*
X177299992Y-91399992D02*
X177299992Y-91200000D01*
X179300000Y-93400000D02*
X177299992Y-91399992D01*
X179300000Y-95000000D02*
X179300000Y-93400000D01*
%TO.N,Net-(TP4-Pin_1)*%
X184354416Y-87300000D02*
X179900000Y-87300000D01*
X187625000Y-81437500D02*
X187625000Y-84029416D01*
X179900000Y-87300000D02*
X178700000Y-88500000D01*
X187625000Y-84029416D02*
X184354416Y-87300000D01*
%TO.N,Net-(TP5-Pin_1)*%
X178549998Y-90249998D02*
X177600000Y-89300000D01*
X185850002Y-90249998D02*
X178549998Y-90249998D01*
X186975000Y-89125000D02*
X185850002Y-90249998D01*
X186975000Y-87162500D02*
X186975000Y-89125000D01*
%TO.N,Net-(U1-CLK2)*%
X174250000Y-97900000D02*
X177390000Y-97900000D01*
X173700000Y-96800000D02*
X173700000Y-97350000D01*
X173700000Y-97350000D02*
X174250000Y-97900000D01*
X173800000Y-96700000D02*
X173700000Y-96800000D01*
X177390000Y-97900000D02*
X178590000Y-96700000D01*
%TO.N,Net-(U3-1B4)*%
X187625000Y-84665812D02*
X188275000Y-84015812D01*
X187625000Y-87162500D02*
X187625000Y-84665812D01*
%TO.N,Net-(U3-1B1)*%
X190225000Y-79475000D02*
X190225000Y-81437500D01*
X190500000Y-79200000D02*
X190225000Y-79475000D01*
%TO.N,Net-(U3-1B2)*%
X189575000Y-81437500D02*
X189575000Y-78825000D01*
X189575000Y-78825000D02*
X189900000Y-78500000D01*
%TO.N,Net-(Q1-S)*%
X190875000Y-84175000D02*
X190875000Y-81437500D01*
%TO.N,Net-(U3-1B4)*%
X182372000Y-79872002D02*
X182372000Y-77724000D01*
%TO.N,GND*%
X185371886Y-88115614D02*
X181566329Y-88115614D01*
X186325000Y-87162500D02*
X185371886Y-88115614D01*
%TO.N,Net-(U3-1B2)*%
X188925000Y-84638604D02*
X189575000Y-83988604D01*
X188925000Y-87162500D02*
X188925000Y-84638604D01*
X189575000Y-83988604D02*
X189575000Y-81437500D01*
%TO.N,Net-(U3-1B4)*%
X188275000Y-81437500D02*
X188275000Y-84015812D01*
%TO.N,Net-(Q1-S)*%
X192200000Y-86050000D02*
X193000000Y-85250000D01*
%TO.N,Net-(U1-SCL)*%
X174300000Y-90863014D02*
X174609941Y-90553073D01*
X174300000Y-92050000D02*
X174300000Y-90863014D01*
%TO.N,Net-(TP4-Pin_1)*%
X175800000Y-96450000D02*
X177438383Y-94811617D01*
%TO.N,Net-(TP5-Pin_1)*%
X175300000Y-95496016D02*
X176400000Y-94396016D01*
%TO.N,Net-(TP4-Pin_1)*%
X177438383Y-94811617D02*
X177695633Y-94811617D01*
%TO.N,GND*%
X174800000Y-96450000D02*
X174800000Y-94900000D01*
%TO.N,Net-(U1-XB)*%
X172300000Y-92100000D02*
X170750000Y-92100000D01*
X173425000Y-93225000D02*
X172300000Y-92100000D01*
X174800000Y-92950000D02*
X174525000Y-93225000D01*
X174800000Y-92050000D02*
X174800000Y-92950000D01*
%TO.N,Net-(U1-XA)*%
X173825000Y-93675000D02*
X171100000Y-96400000D01*
X175300000Y-93086396D02*
X174711396Y-93675000D01*
X175300000Y-92050000D02*
X175300000Y-93086396D01*
%TO.N,Net-(U1-XB)*%
X174525000Y-93225000D02*
X173425000Y-93225000D01*
%TO.N,Net-(TP5-Pin_1)*%
X176400000Y-94396016D02*
X176400000Y-94125000D01*
%TO.N,3.3V*%
X175011396Y-94125000D02*
X175800000Y-93336396D01*
X175800000Y-93336396D02*
X175800000Y-92050000D01*
X174025000Y-95221016D02*
X174025000Y-94578984D01*
X174300000Y-96450000D02*
X174300000Y-95496016D01*
X174300000Y-95496016D02*
X174025000Y-95221016D01*
X174478984Y-94125000D02*
X175011396Y-94125000D01*
X174025000Y-94578984D02*
X174478984Y-94125000D01*
%TO.N,Net-(U1-XA)*%
X174711396Y-93675000D02*
X173825000Y-93675000D01*
%TO.N,Net-(TP5-Pin_1)*%
X175300000Y-96450000D02*
X175300000Y-95496016D01*
%TO.N,3.3V*%
X165608000Y-78608000D02*
X166600000Y-79600000D01*
X166600000Y-82700000D02*
X166600000Y-79600000D01*
X165550000Y-83750000D02*
X166600000Y-82700000D01*
X164200000Y-83750000D02*
X165550000Y-83750000D01*
%TO.N,Net-(C1-Pad1)*%
X163302000Y-80552000D02*
X164200000Y-81450000D01*
X163302000Y-78740000D02*
X163302000Y-80552000D01*
%TO.N,3.3V*%
X165608000Y-76200000D02*
X165608000Y-78608000D01*
%TO.N,3.3VA*%
X177800000Y-70803984D02*
X175101992Y-73501992D01*
X177800000Y-67564000D02*
X177800000Y-70803984D01*
%TO.N,Net-(U1-SDA)*%
X173800000Y-91146016D02*
X173326992Y-90673008D01*
X173800000Y-92050000D02*
X173800000Y-91146016D01*
%TO.N,Net-(U1-SCL)*%
X174000000Y-77825000D02*
X174000000Y-79250004D01*
%TO.N,Net-(U1-SDA)*%
X170500000Y-77825000D02*
X170500000Y-79249992D01*
X170500000Y-79249992D02*
X170499996Y-79249996D01*
%TO.N,3.3VA*%
X168565000Y-74435000D02*
X169164000Y-74435000D01*
X167399000Y-75601000D02*
X168565000Y-74435000D01*
X167399000Y-76200000D02*
X167399000Y-75601000D01*
%TO.N,Net-(U3-1B1)*%
X184912000Y-75959000D02*
X184912000Y-77190000D01*
X184378000Y-78170331D02*
X183481450Y-79066881D01*
X184912000Y-77190000D02*
X184378000Y-77724000D01*
X184378000Y-77724000D02*
X184378000Y-78170331D01*
%TO.N,Net-(C3-Pad2)*%
X185344000Y-74409000D02*
X186944000Y-76009000D01*
X184912000Y-74409000D02*
X185344000Y-74409000D01*
%TO.N,GNDA*%
X179806000Y-69622000D02*
X180086000Y-69342000D01*
X179298000Y-62992000D02*
X179298000Y-64593637D01*
X186182000Y-72390000D02*
X185970000Y-72390000D01*
X191249000Y-63500000D02*
X189484000Y-63500000D01*
X194125000Y-86900000D02*
X194725000Y-87500000D01*
X180213000Y-79121000D02*
X180822000Y-78512000D01*
X192024000Y-69355000D02*
X192024000Y-70612000D01*
X204750000Y-82250000D02*
X203887500Y-82250000D01*
X203887500Y-82250000D02*
X202887500Y-83250000D01*
X179298000Y-64593637D02*
X179248637Y-64643000D01*
X203100000Y-67950000D02*
X205650000Y-67950000D01*
X180822000Y-78512000D02*
X180822000Y-77724000D01*
X178816000Y-69622000D02*
X179806000Y-69622000D01*
X204750000Y-74425000D02*
X206675000Y-72500000D01*
X205750000Y-67850000D02*
X205750000Y-69249996D01*
X206675000Y-70174996D02*
X205750004Y-69250000D01*
X193250000Y-88500000D02*
X193250000Y-87150000D01*
X185970000Y-72390000D02*
X184785000Y-71205000D01*
X206675000Y-72500000D02*
X206675000Y-70174996D01*
X193000000Y-86900000D02*
X194125000Y-86900000D01*
X180822000Y-77724000D02*
X180822000Y-75985000D01*
X204750000Y-82000000D02*
X204750000Y-82250000D01*
X205750000Y-69249996D02*
X205750004Y-69250000D01*
X187198000Y-77978000D02*
X186182000Y-77978000D01*
X204750000Y-80075000D02*
X204750000Y-82000000D01*
%TO.N,Net-(U3-1B4)*%
X182880000Y-77216000D02*
X182372000Y-77724000D01*
X183515000Y-71205000D02*
X183515000Y-73279000D01*
X182880000Y-76009000D02*
X182880000Y-77216000D01*
X183515000Y-73279000D02*
X183896000Y-73660000D01*
X183896000Y-74993000D02*
X182880000Y-76009000D01*
X183896000Y-73660000D02*
X183896000Y-74993000D01*
%TO.N,Net-(C6-Pad2)*%
X182880000Y-74359000D02*
X180898000Y-74359000D01*
%TO.N,Net-(C7-Pad2)*%
X187032000Y-62192000D02*
X181648000Y-62192000D01*
X181648000Y-62192000D02*
X180848000Y-62992000D01*
X187832000Y-62992000D02*
X187032000Y-62192000D01*
%TO.N,Net-(C13-Pad2)*%
X198399000Y-62446000D02*
X193853000Y-62446000D01*
X199453000Y-63500000D02*
X198399000Y-62446000D01*
X193853000Y-62446000D02*
X192799000Y-63500000D01*
%TO.N,Net-(Q1-D)*%
X196500000Y-87275000D02*
X196500000Y-87000000D01*
X196500000Y-87000000D02*
X196700000Y-86800000D01*
X196700000Y-86800000D02*
X196700000Y-84875000D01*
%TO.N,Net-(D1-K)*%
X202000000Y-72150000D02*
X202000000Y-76000000D01*
X202000000Y-80482412D02*
X199232412Y-83250000D01*
X196862500Y-81500000D02*
X195750000Y-81500000D01*
X202000000Y-78250000D02*
X202000000Y-80482412D01*
X195750000Y-81500000D02*
X195750000Y-83000000D01*
X198612500Y-83250000D02*
X196862500Y-81500000D01*
X203100000Y-71250000D02*
X205650000Y-71250000D01*
X204625000Y-77125000D02*
X203125000Y-77125000D01*
X203125000Y-77125000D02*
X202000000Y-78250000D01*
X203000000Y-71150000D02*
X202000000Y-72150000D01*
X199232412Y-83250000D02*
X198612500Y-83250000D01*
X202000000Y-76000000D02*
X203125000Y-77125000D01*
%TO.N,3.3VA*%
X194552500Y-66004000D02*
X192024000Y-66004000D01*
X178523000Y-64262000D02*
X178523000Y-65013379D01*
X178816000Y-68072000D02*
X178308000Y-68072000D01*
X178523000Y-64262000D02*
X177800000Y-64985000D01*
X178308000Y-68072000D02*
X177800000Y-67564000D01*
X192024000Y-67805000D02*
X192024000Y-66004000D01*
X169164000Y-74435000D02*
X166075992Y-74435000D01*
X177800000Y-64985000D02*
X177800000Y-67564000D01*
X178523000Y-65013379D02*
X179464621Y-65955000D01*
X179464621Y-65955000D02*
X180975000Y-65955000D01*
%TO.N,Net-(U5B--)*%
X183515000Y-63881000D02*
X184404000Y-62992000D01*
X183515000Y-65955000D02*
X183515000Y-63881000D01*
X186182000Y-62992000D02*
X184404000Y-62992000D01*
%TO.N,Net-(U7B--)*%
X196151000Y-63500000D02*
X197092500Y-64441500D01*
X197803000Y-63500000D02*
X196151000Y-63500000D01*
X197092500Y-64441500D02*
X197092500Y-66004000D01*
%TO.N,Net-(U5A--)*%
X182245000Y-70380001D02*
X182245000Y-71205000D01*
X186944000Y-74359000D02*
X186944000Y-69088000D01*
X186944000Y-69088000D02*
X185977000Y-70055000D01*
X182570001Y-70055000D02*
X182245000Y-70380001D01*
X185977000Y-70055000D02*
X182570001Y-70055000D01*
%TO.N,Net-(U7A--)*%
X200152000Y-69222000D02*
X199270000Y-70104000D01*
X200660000Y-74930000D02*
X199270000Y-73540000D01*
X199270000Y-70104000D02*
X197417501Y-70104000D01*
X195958999Y-69979001D02*
X195822500Y-70115500D01*
X199270000Y-73540000D02*
X199270000Y-70104000D01*
X197292502Y-69979001D02*
X195958999Y-69979001D01*
X197417501Y-70104000D02*
X197292502Y-69979001D01*
X195822500Y-70115500D02*
X195822500Y-71254000D01*
%TO.N,Net-(C8-Pad1)*%
X182372000Y-62992000D02*
X180975000Y-64389000D01*
X182754000Y-62992000D02*
X182372000Y-62992000D01*
X182245000Y-63501000D02*
X182754000Y-62992000D01*
X182245000Y-65955000D02*
X182245000Y-63501000D01*
%TO.N,Net-(C14-Pad1)*%
X195822500Y-64821500D02*
X194501000Y-63500000D01*
X195822500Y-66004000D02*
X195822500Y-64821500D01*
%TO.N,Net-(TP2-Pin_1)*%
X165862000Y-66065000D02*
X168046000Y-63881000D01*
X168061000Y-64095000D02*
X168061000Y-66929000D01*
%TO.N,Net-(TP7-Pin_1)*%
X179493000Y-71205000D02*
X178816000Y-71882000D01*
X182267001Y-69088000D02*
X184404000Y-69088000D01*
X180975000Y-71205000D02*
X179493000Y-71205000D01*
X184404000Y-67056000D02*
X184912000Y-66548000D01*
X180975000Y-70380001D02*
X182267001Y-69088000D01*
X186944000Y-67438000D02*
X186268000Y-67438000D01*
X180975000Y-71205000D02*
X180975000Y-70380001D01*
X186268000Y-67438000D02*
X184785000Y-65955000D01*
%TO.N,Net-(Q1-S)*%
X193375000Y-84875000D02*
X193000000Y-85250000D01*
X194800000Y-84875000D02*
X193375000Y-84875000D01*
%TO.N,Net-(TP8-Pin_1)*%
X194552500Y-71254000D02*
X194552500Y-70429001D01*
X193924500Y-71882000D02*
X190500000Y-71882000D01*
X194552500Y-70429001D02*
X195652501Y-69329000D01*
X195652501Y-69329000D02*
X198108500Y-69329000D01*
X198362500Y-66004000D02*
X198362500Y-66936000D01*
X198362500Y-66936000D02*
X198108500Y-67190000D01*
X199930500Y-67572000D02*
X198362500Y-66004000D01*
X194552500Y-71254000D02*
X193924500Y-71882000D01*
%TD*%
M02*
